<?xml version="1.0" encoding="UTF-8" standalone="no"?>
<svg width="48px" height="48px" viewBox="0 0 48 48" version="1.1" xmlns="http://www.w3.org/2000/svg" xmlns:xlink="http://www.w3.org/1999/xlink" xmlns:sketch="http://www.bohemiancoding.com/sketch/ns">
    <!-- Generator: Sketch 3.3.1 (12002) - http://www.bohemiancoding.com/sketch -->
    <title>webicon-github</title>
    <desc>Created with Sketch.</desc>
    <defs>
        <linearGradient x1="49.9989583%" y1="0%" x2="49.9989583%" y2="100.001042%" id="linearGradient-1">
            <stop stop-color="#FFFFFF" offset="0%"></stop>
            <stop stop-color="#EAEAEA" offset="100%"></stop>
        </linearGradient>
    </defs>
    <g id="Page-1" stroke="none" stroke-width="1" fill="none" fill-rule="evenodd" sketch:type="MSPage">
        <g id="webicon-github" sketch:type="MSLayerGroup">
            <path d="M48,42 C48,45.313 45.313,48 42,48 L6,48 C2.687,48 0,45.313 0,42 L0,6 C0,2.687 2.687,0 6,0 L42,0 C45.313,0 48,2.687 48,6 L48,42 L48,42 Z" id="Shape" fill="url(#linearGradient-1)" sketch:type="MSShapeGroup"></path>
            <path d="M27.695,29.811 C27.695,29.811 29.214,34.873 33.669,33.861 C38.125,32.848 38.428,27.177 35.796,24.242 C33.163,21.305 26.379,25.962 27.695,29.811 L27.695,29.811 Z" id="Shape" sketch:type="MSShapeGroup"></path>
            <path d="M11.828,18.179 C11.828,18.179 8.484,21.678 9.065,27.371 C9.646,33.065 13.251,37.763 25.273,37.763 C37.294,37.763 40.318,31.488 40.389,26.327 C40.46,21.168 38.136,18.867 37.045,18.084 C37.045,18.084 37.052,14.38 36.702,12.423 C36.702,12.423 34.852,12.204 30.857,14.493 C30.857,14.493 25.403,13.96 18.135,14.558 C18.135,14.558 15.082,12.518 12.006,11.984 C12.006,11.984 11.496,15.196 11.828,18.179 L11.828,18.179 Z" id="Shape" fill="#000000" sketch:type="MSShapeGroup"></path>
            <path d="M17.211,23.815 L32.127,23.815 C32.127,23.815 36.354,23.34 36.354,30.255 C36.388,36.341 25.215,35.948 25.215,35.948 C25.215,35.948 12.979,36.434 12.972,29.679 C12.956,23.579 17.211,23.815 17.211,23.815 L17.211,23.815 Z" id="Shape" fill="#E2B89F" sketch:type="MSShapeGroup"></path>
            <g id="Group" transform="translate(28.000000, 26.000000)" sketch:type="MSShapeGroup">
                <path d="M2.767,0.591 C3.726,0.591 4.504,1.841 4.504,3.378 C4.504,4.918 3.726,6.166 2.767,6.166 C1.809,6.166 1.031,4.918 1.031,3.378 C1.03,1.841 1.809,0.591 2.767,0.591 L2.767,0.591 Z" id="Shape" fill="#9C584F"></path>
                <path d="M2.767,6.666 C1.513,6.666 0.531,5.222 0.531,3.378 C0.531,1.535 1.513,0.091 2.767,0.091 C4.022,0.091 5.004,1.535 5.004,3.378 C5.004,5.222 4.021,6.666 2.767,6.666 L2.767,6.666 Z M2.767,1.091 C2.182,1.091 1.531,2.03 1.531,3.378 C1.531,4.727 2.182,5.666 2.767,5.666 C3.352,5.666 4.004,4.727 4.004,3.378 C4.004,2.03 3.352,1.091 2.767,1.091 L2.767,1.091 Z" id="Shape" fill="#FFFFFF"></path>
            </g>
            <g id="Group" transform="translate(16.000000, 26.000000)" sketch:type="MSShapeGroup">
                <path d="M2.767,0.591 C3.726,0.591 4.504,1.841 4.504,3.378 C4.504,4.918 3.726,6.166 2.767,6.166 C1.809,6.166 1.031,4.918 1.031,3.378 C1.03,1.841 1.809,0.591 2.767,0.591 L2.767,0.591 Z" id="Shape" fill="#9C584F"></path>
                <path d="M2.767,6.666 C1.513,6.666 0.531,5.222 0.531,3.378 C0.531,1.535 1.513,0.091 2.767,0.091 C4.021,0.091 5.004,1.535 5.004,3.378 C5.004,5.222 4.021,6.666 2.767,6.666 L2.767,6.666 Z M2.767,1.091 C2.182,1.091 1.531,2.03 1.531,3.378 C1.531,4.727 2.182,5.666 2.767,5.666 C3.352,5.666 4.004,4.727 4.004,3.378 C4.004,2.03 3.352,1.091 2.767,1.091 L2.767,1.091 Z" id="Shape" fill="#FFFFFF"></path>
            </g>
            <path d="M24.076,32.705 C24.076,32.705 24.575,31.287 25.185,32.616 C25.185,32.616 24.728,32.913 24.9,33.612 L26.328,34.158 L23.098,34.158 L24.378,33.583 C24.378,33.583 24.562,32.527 24.076,32.705 L24.076,32.705 Z" id="Shape" fill="#9C584F" sketch:type="MSShapeGroup"></path>
        </g>
    </g>
</svg>