<?xml version="1.0" encoding="UTF-8" standalone="no"?>
<svg width="72px" height="72px" viewBox="0 0 72 72" version="1.1" xmlns="http://www.w3.org/2000/svg" xmlns:xlink="http://www.w3.org/1999/xlink" xmlns:sketch="http://www.bohemiancoding.com/sketch/ns">
    <!-- Generator: Sketch 3.3.1 (12002) - http://www.bohemiancoding.com/sketch -->
    <title>github</title>
    <desc>Created with Sketch.</desc>
    <defs>
        <linearGradient x1="49.9989583%" y1="0%" x2="49.9989583%" y2="100.001042%" id="linearGradient-1">
            <stop stop-color="#FFFFFF" offset="0%"></stop>
            <stop stop-color="#EAEAEA" offset="100%"></stop>
        </linearGradient>
    </defs>
    <g id="Page-1" stroke="none" stroke-width="1" fill="none" fill-rule="evenodd" sketch:type="MSPage">
        <g id="github" sketch:type="MSLayerGroup">
            <path d="M72,63 C72,67.9695 67.9695,72 63,72 L9,72 C4.0305,72 0,67.9695 0,63 L0,9 C0,4.0305 4.0305,0 9,0 L63,0 C67.9695,0 72,4.0305 72,9 L72,63 L72,63 Z" id="Shape" fill="url(#linearGradient-1)" sketch:type="MSShapeGroup"></path>
            <path d="M41.5425,44.7165 C41.5425,44.7165 43.821,52.3095 50.5035,50.7915 C57.1875,49.272 57.642,40.7655 53.694,36.363 C49.7445,31.9575 39.5685,38.943 41.5425,44.7165 L41.5425,44.7165 Z" id="Shape" sketch:type="MSShapeGroup"></path>
            <path d="M17.742,27.2685 C17.742,27.2685 12.726,32.517 13.5975,41.0565 C14.469,49.5975 19.8765,56.6445 37.9095,56.6445 C55.941,56.6445 60.477,47.232 60.5835,39.4905 C60.69,31.752 57.204,28.3005 55.5675,27.126 C55.5675,27.126 55.578,21.57 55.053,18.6345 C55.053,18.6345 52.278,18.306 46.2855,21.7395 C46.2855,21.7395 38.1045,20.94 27.2025,21.837 C27.2025,21.837 22.623,18.777 18.009,17.976 C18.009,17.976 17.244,22.794 17.742,27.2685 L17.742,27.2685 Z" id="Shape" fill="#000000" sketch:type="MSShapeGroup"></path>
            <path d="M25.8165,35.7225 L48.1905,35.7225 C48.1905,35.7225 54.531,35.01 54.531,45.3825 C54.582,54.5115 37.8225,53.922 37.8225,53.922 C37.8225,53.922 19.4685,54.651 19.458,44.5185 C19.434,35.3685 25.8165,35.7225 25.8165,35.7225 L25.8165,35.7225 Z" id="Shape" fill="#E2B89F" sketch:type="MSShapeGroup"></path>
            <g id="Group" transform="translate(42.000000, 39.000000)" sketch:type="MSShapeGroup">
                <path d="M4.1505,0.8865 C5.589,0.8865 6.756,2.7615 6.756,5.067 C6.756,7.377 5.589,9.249 4.1505,9.249 C2.7135,9.249 1.5465,7.377 1.5465,5.067 C1.545,2.7615 2.7135,0.8865 4.1505,0.8865 L4.1505,0.8865 Z" id="Shape" fill="#9C584F"></path>
                <path d="M4.1505,9.999 C2.2695,9.999 0.7965,7.833 0.7965,5.067 C0.7965,2.3025 2.2695,0.1365 4.1505,0.1365 C6.033,0.1365 7.506,2.3025 7.506,5.067 C7.506,7.833 6.0315,9.999 4.1505,9.999 L4.1505,9.999 Z M4.1505,1.6365 C3.273,1.6365 2.2965,3.045 2.2965,5.067 C2.2965,7.0905 3.273,8.499 4.1505,8.499 C5.028,8.499 6.006,7.0905 6.006,5.067 C6.006,3.045 5.028,1.6365 4.1505,1.6365 L4.1505,1.6365 Z" id="Shape" fill="#FFFFFF"></path>
            </g>
            <g id="Group" transform="translate(24.000000, 39.000000)" sketch:type="MSShapeGroup">
                <path d="M4.1505,0.8865 C5.589,0.8865 6.756,2.7615 6.756,5.067 C6.756,7.377 5.589,9.249 4.1505,9.249 C2.7135,9.249 1.5465,7.377 1.5465,5.067 C1.545,2.7615 2.7135,0.8865 4.1505,0.8865 L4.1505,0.8865 Z" id="Shape" fill="#9C584F"></path>
                <path d="M4.1505,9.999 C2.2695,9.999 0.7965,7.833 0.7965,5.067 C0.7965,2.3025 2.2695,0.1365 4.1505,0.1365 C6.0315,0.1365 7.506,2.3025 7.506,5.067 C7.506,7.833 6.0315,9.999 4.1505,9.999 L4.1505,9.999 Z M4.1505,1.6365 C3.273,1.6365 2.2965,3.045 2.2965,5.067 C2.2965,7.0905 3.273,8.499 4.1505,8.499 C5.028,8.499 6.006,7.0905 6.006,5.067 C6.006,3.045 5.028,1.6365 4.1505,1.6365 L4.1505,1.6365 Z" id="Shape" fill="#FFFFFF"></path>
            </g>
            <path d="M36.114,49.0575 C36.114,49.0575 36.8625,46.9305 37.7775,48.924 C37.7775,48.924 37.092,49.3695 37.35,50.418 L39.492,51.237 L34.647,51.237 L36.567,50.3745 C36.567,50.3745 36.843,48.7905 36.114,49.0575 L36.114,49.0575 Z" id="Shape" fill="#9C584F" sketch:type="MSShapeGroup"></path>
        </g>
    </g>
</svg>