<?xml version="1.0" encoding="UTF-8" standalone="no"?>
<svg width="72px" height="72px" viewBox="0 0 72 72" version="1.1" xmlns="http://www.w3.org/2000/svg" xmlns:xlink="http://www.w3.org/1999/xlink" xmlns:sketch="http://www.bohemiancoding.com/sketch/ns">
    <!-- Generator: Sketch 3.3.1 (12002) - http://www.bohemiancoding.com/sketch -->
    <title>google</title>
    <desc>Created with Sketch.</desc>
    <defs>
        <linearGradient x1="50.0466523%" y1="-0.032821749%" x2="50.0466523%" y2="99.9752991%" id="linearGradient-1">
            <stop stop-color="#2F93EF" offset="0%"></stop>
            <stop stop-color="#2F77EF" offset="100%"></stop>
        </linearGradient>
    </defs>
    <g id="Page-1" stroke="none" stroke-width="1" fill="none" fill-rule="evenodd" sketch:type="MSPage">
        <g id="google" sketch:type="MSLayerGroup">
            <path d="M71.037551,62.4004898 C71.037551,67.248 67.1025306,71.1800816 62.2564898,71.1800816 L9.57012245,71.1800816 C4.71967347,71.1800816 0.787591837,67.248 0.787591837,62.4004898 L0.787591837,9.71265306 C0.787591837,4.86514286 4.71967347,0.930122449 9.57012245,0.930122449 L62.2564898,0.930122449 C67.1054694,0.930122449 71.037551,4.86367347 71.037551,9.71265306 L71.037551,62.4004898 L71.037551,62.4004898 Z" id="Shape" fill="url(#linearGradient-1)" sketch:type="MSShapeGroup"></path>
            <path d="M45.0411429,39.1577143 C44.1124898,38.7580408 43.1897143,38.5361633 42.2684082,38.4964898 C41.6277551,38.4759184 40.5448163,38.4171429 39.0166531,38.3172245 C37.485551,38.2173061 36.2850612,38.1570612 35.404898,38.1394286 C34.5849796,38.1188571 33.7900408,38.088 33.021551,38.0468571 C32.2515918,38.0101224 31.5756735,37.9087347 30.9982041,37.7485714 C30.3972245,37.6089796 29.8873469,37.3430204 29.4685714,36.9521633 C29.0483265,36.5642449 28.8396735,36 28.8396735,35.2594286 C28.8396735,34.540898 29.088,33.9693061 29.5875918,33.552 C30.0871837,33.1332245 30.5662041,32.8437551 31.0261224,32.6821224 L34.6525714,32.6821224 C37.4488163,32.6821224 39.9041633,31.7828571 42.0112653,29.9857959 C44.1213061,28.1872653 45.1733878,25.9890612 45.1733878,23.3911837 C45.1733878,22.3934694 44.9941224,21.3722449 44.6355918,20.3319184 C44.2755918,19.2930612 43.7245714,18.3423673 42.9854694,17.4842449 L42.9854694,17.3049796 L49.9400816,17.3049796 L49.9400816,14.4279184 L39.626449,14.4279184 C38.7080816,14.1502041 37.8029388,13.9180408 36.9139592,13.7387755 C36.0249796,13.5595102 35.1286531,13.4684082 34.2308571,13.4684082 C30.9732245,13.4684082 28.2989388,14.3676735 26.2124082,16.1662041 C24.1244082,17.9662041 23.0796735,20.2628571 23.0796735,23.0605714 C23.0796735,24.9208163 23.6071837,26.5533061 24.6680816,27.9609796 C25.7260408,29.3701224 27.2145306,30.5250612 29.1350204,31.4243265 L29.1350204,31.8739592 C27.6156735,32.5131429 26.4827755,33.2786939 25.7319184,34.1676735 C24.9825306,35.0566531 24.6078367,36.0308571 24.6078367,37.0888163 C24.6078367,37.9293061 24.768,38.6346122 25.0883265,39.2032653 C25.4086531,39.7719184 25.8274286,40.2685714 26.3475918,40.6888163 C26.8060408,41.0473469 27.3555918,41.3632653 27.9962449,41.6321633 C28.6354286,41.9010612 29.2555102,42.1273469 29.853551,42.3066122 L29.853551,42.7253878 C27.3761633,42.8282449 25.3366531,43.4659592 23.7379592,44.6429388 C22.1392653,45.8228571 21.3399184,47.4303673 21.3399184,49.4713469 C21.3399184,51.9884082 22.4507755,53.9000816 24.6680816,55.2107755 C26.8839184,56.5229388 30.2326531,57.1768163 34.7084082,57.1768163 C37.4458776,57.1768163 39.744,56.9152653 41.6042449,56.3965714 C43.4644898,55.8749388 45.0617143,55.1446531 46.4003265,54.2071837 C47.6581224,53.2873469 48.5985306,52.2029388 49.2200816,50.9539592 C49.8386939,49.7049796 50.1502041,48.3737143 50.1502041,46.9513469 C50.1502041,45.5319184 49.9195102,44.3446531 49.4595918,43.3836735 C49.0011429,42.4256327 48.3722449,41.5660408 47.572898,40.804898 C46.8161633,40.1069388 45.9727347,39.5573878 45.0411429,39.1577143 L45.0411429,39.1577143 Z M38.0865306,28.531102 C37.1564082,29.9211429 35.8339592,30.6132245 34.1162449,30.6132245 C32.5777959,30.6132245 31.3229388,29.9152653 30.3531429,28.5164082 C29.3833469,27.117551 28.8999184,25.3087347 28.8999184,23.0899592 C28.8999184,22.1113469 28.9851429,21.1562449 29.1541224,20.2275918 C29.323102,19.2974694 29.6081633,18.5025306 30.0093061,17.8442449 C30.429551,17.1242449 30.9746939,16.5702857 31.6432653,16.180898 C32.3118367,15.7915102 33.1155918,15.5960816 34.056,15.5960816 C35.7722449,15.5960816 37.106449,16.291102 38.0571429,17.6796735 C39.004898,19.0682449 39.482449,20.9314286 39.482449,23.2692245 C39.482449,25.3866122 39.0181224,27.1410612 38.0865306,28.531102 L38.0865306,28.531102 Z M42.7033469,53.2006531 C41.0164898,54.3320816 38.7007347,54.8948571 35.764898,54.8948571 C34.0662857,54.8948571 32.6277551,54.7317551 31.4463673,54.4011429 C30.2679184,54.072 29.3275102,53.6458776 28.629551,53.1257143 C27.890449,52.5879184 27.3702857,51.9972245 27.0705306,51.3580408 C26.7707755,50.7188571 26.620898,50.0488163 26.620898,49.3493878 C26.620898,47.7903673 27.0764082,46.5178776 27.9859592,45.5275102 C28.8955102,44.5371429 30.429551,43.8318367 32.5880816,43.4130612 C34.8847347,43.4130612 36.9066122,43.4644898 38.6419592,43.5629388 C40.3817143,43.6643265 41.5322449,43.7554286 42.0920816,43.8333061 C43.1515102,44.0919184 43.939102,44.5826939 44.4622041,45.3041633 C44.980898,46.0241633 45.2395102,46.9395918 45.2395102,48.0607347 C45.2365714,50.3573878 44.3931429,52.0721633 42.7033469,53.2006531 L42.7033469,53.2006531 Z" id="Shape" fill="#2F6FEF" sketch:type="MSShapeGroup"></path>
            <path d="M45.0411429,40.627102 C44.1124898,40.2274286 43.1897143,40.005551 42.2684082,39.9658776 C41.6277551,39.9453061 40.5448163,39.8865306 39.0166531,39.7866122 C37.485551,39.6866939 36.2850612,39.626449 35.404898,39.6088163 C34.5849796,39.5882449 33.7900408,39.5573878 33.021551,39.5162449 C32.2515918,39.4795102 31.5756735,39.3781224 30.9982041,39.2179592 C30.3972245,39.0783673 29.8873469,38.8124082 29.4685714,38.421551 C29.0483265,38.0336327 28.8396735,37.4693878 28.8396735,36.7288163 C28.8396735,36.0102857 29.088,35.4386939 29.5875918,35.0213878 C30.0871837,34.6026122 30.5662041,34.3131429 31.0261224,34.1515102 L34.6525714,34.1515102 C37.4488163,34.1515102 39.9041633,33.2522449 42.0112653,31.4551837 C44.1213061,29.6566531 45.1733878,27.458449 45.1733878,24.8605714 C45.1733878,23.8628571 44.9941224,22.8416327 44.6355918,21.8013061 C44.2755918,20.762449 43.7245714,19.8117551 42.9854694,18.9536327 L42.9854694,18.7743673 L49.9400816,18.7743673 L49.9400816,15.8973061 L39.626449,15.8973061 C38.7080816,15.6195918 37.8029388,15.3874286 36.9139592,15.2081633 C36.0249796,15.028898 35.1286531,14.9377959 34.2308571,14.9377959 C30.9732245,14.9377959 28.2989388,15.8370612 26.2124082,17.6355918 C24.1244082,19.4355918 23.0796735,21.7322449 23.0796735,24.5299592 C23.0796735,26.3902041 23.6071837,28.0226939 24.6680816,29.4303673 C25.7260408,30.8395102 27.2145306,31.994449 29.1350204,32.8937143 L29.1350204,33.3433469 C27.6156735,33.9825306 26.4827755,34.7480816 25.7319184,35.6370612 C24.9825306,36.5260408 24.6078367,37.5002449 24.6078367,38.5582041 C24.6078367,39.3986939 24.768,40.104 25.0883265,40.6726531 C25.4086531,41.2413061 25.8274286,41.7379592 26.3475918,42.1582041 C26.8060408,42.5167347 27.3555918,42.8326531 27.9962449,43.101551 C28.6354286,43.370449 29.2555102,43.5967347 29.853551,43.776 L29.853551,44.1947755 C27.3761633,44.2976327 25.3366531,44.9353469 23.7379592,46.1123265 C22.1392653,47.2922449 21.3399184,48.8997551 21.3399184,50.9407347 C21.3399184,53.4577959 22.4507755,55.3694694 24.6680816,56.6801633 C26.8839184,57.9923265 30.2326531,58.6462041 34.7084082,58.6462041 C37.4458776,58.6462041 39.744,58.3846531 41.6042449,57.8659592 C43.4644898,57.3443265 45.0617143,56.6140408 46.4003265,55.6765714 C47.6581224,54.7567347 48.5985306,53.6723265 49.2200816,52.4233469 C49.8386939,51.1743673 50.1502041,49.843102 50.1502041,48.4207347 C50.1502041,47.0013061 49.9195102,45.8140408 49.4595918,44.8530612 C49.0011429,43.8950204 48.3722449,43.0354286 47.572898,42.2742857 C46.8161633,41.5763265 45.9727347,41.0267755 45.0411429,40.627102 L45.0411429,40.627102 Z M38.0865306,30.0004898 C37.1564082,31.3905306 35.8339592,32.0826122 34.1162449,32.0826122 C32.5777959,32.0826122 31.3229388,31.3846531 30.3531429,29.9857959 C29.3833469,28.5869388 28.8999184,26.7781224 28.8999184,24.5593469 C28.8999184,23.5807347 28.9851429,22.6256327 29.1541224,21.6969796 C29.323102,20.7668571 29.6081633,19.9719184 30.0093061,19.3136327 C30.429551,18.5936327 30.9746939,18.0396735 31.6432653,17.6502857 C32.3118367,17.260898 33.1155918,17.0654694 34.056,17.0654694 C35.7722449,17.0654694 37.106449,17.7604898 38.0571429,19.1490612 C39.004898,20.5376327 39.482449,22.4008163 39.482449,24.7386122 C39.482449,26.856 39.0181224,28.610449 38.0865306,30.0004898 L38.0865306,30.0004898 Z M42.7033469,54.6700408 C41.0164898,55.8014694 38.7007347,56.3642449 35.764898,56.3642449 C34.0662857,56.3642449 32.6277551,56.2011429 31.4463673,55.8705306 C30.2679184,55.5413878 29.3275102,55.1152653 28.629551,54.595102 C27.890449,54.0573061 27.3702857,53.4666122 27.0705306,52.8274286 C26.7707755,52.1882449 26.620898,51.5182041 26.620898,50.8187755 C26.620898,49.2597551 27.0764082,47.9872653 27.9859592,46.996898 C28.8955102,46.0065306 30.429551,45.3012245 32.5880816,44.882449 C34.8847347,44.882449 36.9066122,44.9338776 38.6419592,45.0323265 C40.3817143,45.1337143 41.5322449,45.2248163 42.0920816,45.3026939 C43.1515102,45.5613061 43.939102,46.0520816 44.4622041,46.773551 C44.980898,47.493551 45.2395102,48.4089796 45.2395102,49.5301224 C45.2365714,51.8267755 44.3931429,53.541551 42.7033469,54.6700408 L42.7033469,54.6700408 Z" id="Shape" fill="#FFFFFF" sketch:type="MSShapeGroup"></path>
        </g>
    </g>
</svg>