<?xml version="1.0" encoding="UTF-8" standalone="no"?>
<svg width="48px" height="48px" viewBox="0 0 48 48" version="1.1" xmlns="http://www.w3.org/2000/svg" xmlns:xlink="http://www.w3.org/1999/xlink" xmlns:sketch="http://www.bohemiancoding.com/sketch/ns">
    <!-- Generator: Sketch 3.3.1 (12002) - http://www.bohemiancoding.com/sketch -->
    <title>webicon-google</title>
    <desc>Created with Sketch.</desc>
    <defs>
        <linearGradient x1="50.0466523%" y1="-0.032821749%" x2="50.0466523%" y2="99.9752991%" id="linearGradient-1">
            <stop stop-color="#2F93EF" offset="0%"></stop>
            <stop stop-color="#2F77EF" offset="100%"></stop>
        </linearGradient>
    </defs>
    <g id="Page-1" stroke="none" stroke-width="1" fill="none" fill-rule="evenodd" sketch:type="MSPage">
        <g id="webicon-google" sketch:type="MSLayerGroup">
            <path d="M47.3583673,41.6003265 C47.3583673,44.832 44.7350204,47.4533878 41.5043265,47.4533878 L6.38008163,47.4533878 C3.14644898,47.4533878 0.525061224,44.832 0.525061224,41.6003265 L0.525061224,6.47510204 C0.525061224,3.24342857 3.14644898,0.620081633 6.38008163,0.620081633 L41.5043265,0.620081633 C44.7369796,0.620081633 47.3583673,3.24244898 47.3583673,6.47510204 L47.3583673,41.6003265 L47.3583673,41.6003265 Z" id="Shape" fill="url(#linearGradient-1)" sketch:type="MSShapeGroup"></path>
            <path d="M30.0274286,26.1051429 C29.4083265,25.8386939 28.7931429,25.6907755 28.1789388,25.6643265 C27.7518367,25.6506122 27.0298776,25.6114286 26.011102,25.5448163 C24.9903673,25.4782041 24.1900408,25.4380408 23.6032653,25.4262857 C23.0566531,25.4125714 22.5266939,25.392 22.0143673,25.3645714 C21.5010612,25.3400816 21.050449,25.2724898 20.6654694,25.1657143 C20.2648163,25.0726531 19.924898,24.8953469 19.6457143,24.6347755 C19.365551,24.3761633 19.226449,24 19.226449,23.5062857 C19.226449,23.0272653 19.392,22.6462041 19.7250612,22.368 C20.0581224,22.0888163 20.3774694,21.8958367 20.6840816,21.7880816 L23.1017143,21.7880816 C24.9658776,21.7880816 26.6027755,21.1885714 28.0075102,19.9905306 C29.4142041,18.7915102 30.1155918,17.3260408 30.1155918,15.5941224 C30.1155918,14.9289796 29.9960816,14.2481633 29.7570612,13.5546122 C29.5170612,12.8620408 29.1497143,12.2282449 28.6569796,11.6561633 L28.6569796,11.5366531 L33.2933878,11.5366531 L33.2933878,9.61861224 L26.4176327,9.61861224 C25.8053878,9.43346939 25.2019592,9.27869388 24.6093061,9.15918367 C24.0166531,9.03967347 23.419102,8.97893878 22.8205714,8.97893878 C20.6488163,8.97893878 18.8659592,9.57844898 17.4749388,10.7774694 C16.0829388,11.9774694 15.386449,13.5085714 15.386449,15.3737143 C15.386449,16.6138776 15.7381224,17.7022041 16.4453878,18.6406531 C17.1506939,19.5800816 18.1430204,20.3500408 19.4233469,20.949551 L19.4233469,21.2493061 C18.410449,21.6754286 17.6551837,22.1857959 17.1546122,22.778449 C16.6550204,23.371102 16.4052245,24.0205714 16.4052245,24.7258776 C16.4052245,25.2862041 16.512,25.7564082 16.725551,26.1355102 C16.939102,26.5146122 17.2182857,26.8457143 17.5650612,27.1258776 C17.8706939,27.364898 18.2370612,27.5755102 18.6641633,27.7547755 C19.0902857,27.9340408 19.5036735,28.084898 19.9023673,28.2044082 L19.9023673,28.4835918 C18.2507755,28.5521633 16.891102,28.9773061 15.8253061,29.7619592 C14.7595102,30.5485714 14.2266122,31.6202449 14.2266122,32.980898 C14.2266122,34.6589388 14.9671837,35.9333878 16.4453878,36.8071837 C17.9226122,37.6819592 20.155102,38.1178776 23.1389388,38.1178776 C24.9639184,38.1178776 26.496,37.9435102 27.7361633,37.5977143 C28.9763265,37.2499592 30.0411429,36.763102 30.933551,36.1381224 C31.7720816,35.524898 32.3990204,34.8019592 32.8133878,33.9693061 C33.2257959,33.1366531 33.4334694,32.2491429 33.4334694,31.300898 C33.4334694,30.3546122 33.2796735,29.563102 32.9730612,28.922449 C32.6674286,28.2837551 32.2481633,27.7106939 31.7152653,27.2032653 C31.2107755,26.7379592 30.6484898,26.3715918 30.0274286,26.1051429 L30.0274286,26.1051429 Z M25.3910204,19.0207347 C24.7709388,19.9474286 23.8893061,20.4088163 22.7441633,20.4088163 C21.7185306,20.4088163 20.8819592,19.9435102 20.2354286,19.0109388 C19.588898,18.0783673 19.2666122,16.8724898 19.2666122,15.3933061 C19.2666122,14.740898 19.3234286,14.1041633 19.4360816,13.4850612 C19.5487347,12.8649796 19.7387755,12.3350204 20.0062041,11.8961633 C20.2863673,11.4161633 20.6497959,11.0468571 21.0955102,10.7872653 C21.5412245,10.5276735 22.0770612,10.3973878 22.704,10.3973878 C23.8481633,10.3973878 24.7376327,10.8607347 25.3714286,11.786449 C26.0032653,12.7121633 26.3216327,13.9542857 26.3216327,15.5128163 C26.3216327,16.9244082 26.0120816,18.0940408 25.3910204,19.0207347 L25.3910204,19.0207347 Z M28.468898,35.467102 C27.3443265,36.2213878 25.8004898,36.5965714 23.8432653,36.5965714 C22.7108571,36.5965714 21.7518367,36.4878367 20.9642449,36.2674286 C20.1786122,36.048 19.5516735,35.7639184 19.0863673,35.4171429 C18.5936327,35.0586122 18.2468571,34.6648163 18.0470204,34.2386939 C17.8471837,33.8125714 17.7472653,33.3658776 17.7472653,32.8995918 C17.7472653,31.8602449 18.0509388,31.0119184 18.6573061,30.3516735 C19.2636735,29.6914286 20.2863673,29.2212245 21.7253878,28.9420408 C23.2564898,28.9420408 24.6044082,28.9763265 25.7613061,29.0419592 C26.9211429,29.109551 27.6881633,29.1702857 28.0613878,29.2222041 C28.7676735,29.3946122 29.2927347,29.7217959 29.6414694,30.2027755 C29.9872653,30.6827755 30.1596735,31.2930612 30.1596735,32.0404898 C30.1577143,33.5715918 29.5954286,34.7147755 28.468898,35.467102 L28.468898,35.467102 Z" id="Shape" fill="#2F6FEF" sketch:type="MSShapeGroup"></path>
            <path d="M30.0274286,27.0847347 C29.4083265,26.8182857 28.7931429,26.6703673 28.1789388,26.6439184 C27.7518367,26.6302041 27.0298776,26.5910204 26.011102,26.5244082 C24.9903673,26.4577959 24.1900408,26.4176327 23.6032653,26.4058776 C23.0566531,26.3921633 22.5266939,26.3715918 22.0143673,26.3441633 C21.5010612,26.3196735 21.050449,26.2520816 20.6654694,26.1453061 C20.2648163,26.0522449 19.924898,25.8749388 19.6457143,25.6143673 C19.365551,25.3557551 19.226449,24.9795918 19.226449,24.4858776 C19.226449,24.0068571 19.392,23.6257959 19.7250612,23.3475918 C20.0581224,23.0684082 20.3774694,22.8754286 20.6840816,22.7676735 L23.1017143,22.7676735 C24.9658776,22.7676735 26.6027755,22.1681633 28.0075102,20.9701224 C29.4142041,19.771102 30.1155918,18.3056327 30.1155918,16.5737143 C30.1155918,15.9085714 29.9960816,15.2277551 29.7570612,14.5342041 C29.5170612,13.8416327 29.1497143,13.2078367 28.6569796,12.6357551 L28.6569796,12.5162449 L33.2933878,12.5162449 L33.2933878,10.5982041 L26.4176327,10.5982041 C25.8053878,10.4130612 25.2019592,10.2582857 24.6093061,10.1387755 C24.0166531,10.0192653 23.419102,9.95853061 22.8205714,9.95853061 C20.6488163,9.95853061 18.8659592,10.5580408 17.4749388,11.7570612 C16.0829388,12.9570612 15.386449,14.4881633 15.386449,16.3533061 C15.386449,17.5934694 15.7381224,18.6817959 16.4453878,19.6202449 C17.1506939,20.5596735 18.1430204,21.3296327 19.4233469,21.9291429 L19.4233469,22.228898 C18.410449,22.6550204 17.6551837,23.1653878 17.1546122,23.7580408 C16.6550204,24.3506939 16.4052245,25.0001633 16.4052245,25.7054694 C16.4052245,26.2657959 16.512,26.736 16.725551,27.115102 C16.939102,27.4942041 17.2182857,27.8253061 17.5650612,28.1054694 C17.8706939,28.3444898 18.2370612,28.555102 18.6641633,28.7343673 C19.0902857,28.9136327 19.5036735,29.0644898 19.9023673,29.184 L19.9023673,29.4631837 C18.2507755,29.5317551 16.891102,29.956898 15.8253061,30.741551 C14.7595102,31.5281633 14.2266122,32.5998367 14.2266122,33.9604898 C14.2266122,35.6385306 14.9671837,36.9129796 16.4453878,37.7867755 C17.9226122,38.661551 20.155102,39.0974694 23.1389388,39.0974694 C24.9639184,39.0974694 26.496,38.923102 27.7361633,38.5773061 C28.9763265,38.229551 30.0411429,37.7426939 30.933551,37.1177143 C31.7720816,36.5044898 32.3990204,35.781551 32.8133878,34.948898 C33.2257959,34.1162449 33.4334694,33.2287347 33.4334694,32.2804898 C33.4334694,31.3342041 33.2796735,30.5426939 32.9730612,29.9020408 C32.6674286,29.2633469 32.2481633,28.6902857 31.7152653,28.1828571 C31.2107755,27.717551 30.6484898,27.3511837 30.0274286,27.0847347 L30.0274286,27.0847347 Z M25.3910204,20.0003265 C24.7709388,20.9270204 23.8893061,21.3884082 22.7441633,21.3884082 C21.7185306,21.3884082 20.8819592,20.923102 20.2354286,19.9905306 C19.588898,19.0579592 19.2666122,17.8520816 19.2666122,16.372898 C19.2666122,15.7204898 19.3234286,15.0837551 19.4360816,14.4646531 C19.5487347,13.8445714 19.7387755,13.3146122 20.0062041,12.8757551 C20.2863673,12.3957551 20.6497959,12.026449 21.0955102,11.7668571 C21.5412245,11.5072653 22.0770612,11.3769796 22.704,11.3769796 C23.8481633,11.3769796 24.7376327,11.8403265 25.3714286,12.7660408 C26.0032653,13.6917551 26.3216327,14.9338776 26.3216327,16.4924082 C26.3216327,17.904 26.0120816,19.0736327 25.3910204,20.0003265 L25.3910204,20.0003265 Z M28.468898,36.4466939 C27.3443265,37.2009796 25.8004898,37.5761633 23.8432653,37.5761633 C22.7108571,37.5761633 21.7518367,37.4674286 20.9642449,37.2470204 C20.1786122,37.0275918 19.5516735,36.7435102 19.0863673,36.3967347 C18.5936327,36.0382041 18.2468571,35.6444082 18.0470204,35.2182857 C17.8471837,34.7921633 17.7472653,34.3454694 17.7472653,33.8791837 C17.7472653,32.8398367 18.0509388,31.9915102 18.6573061,31.3312653 C19.2636735,30.6710204 20.2863673,30.2008163 21.7253878,29.9216327 C23.2564898,29.9216327 24.6044082,29.9559184 25.7613061,30.021551 C26.9211429,30.0891429 27.6881633,30.1498776 28.0613878,30.2017959 C28.7676735,30.3742041 29.2927347,30.7013878 29.6414694,31.1823673 C29.9872653,31.6623673 30.1596735,32.2726531 30.1596735,33.0200816 C30.1577143,34.5511837 29.5954286,35.6943673 28.468898,36.4466939 L28.468898,36.4466939 Z" id="Shape" fill="#FFFFFF" sketch:type="MSShapeGroup"></path>
        </g>
    </g>
</svg>