<?xml version="1.0" encoding="UTF-8" standalone="no"?>
<svg width="72px" height="72px" viewBox="0 0 72 72" version="1.1" xmlns="http://www.w3.org/2000/svg" xmlns:xlink="http://www.w3.org/1999/xlink" xmlns:sketch="http://www.bohemiancoding.com/sketch/ns">
    <!-- Generator: Sketch 3.3.1 (12002) - http://www.bohemiancoding.com/sketch -->
    <title>microsoft</title>
    <desc>Created with Sketch.</desc>
    <defs></defs>
    <g id="Page-1" stroke="none" stroke-width="1" fill="none" fill-rule="evenodd" sketch:type="MSPage">
        <g id="microsoft" sketch:type="MSLayerGroup">
            <path d="M72,62.892 C72,67.8525 67.9755,71.8755 63.0165,71.8755 L9.1095,71.8755 C4.1475,71.8755 0.1245,67.851 0.1245,62.892 L0.1245,8.985 C0.1245,4.0245 4.1475,-4.26325641e-14 9.1095,-4.26325641e-14 L63.0165,-4.26325641e-14 C67.977,-4.26325641e-14 72,4.0245 72,8.985 L72,62.892 L72,62.892 Z" id="Shape" fill="#4990E2" sketch:type="MSShapeGroup"></path>
            <path d="M39.741,15.6585 C39.741,15.6585 34.719,8.7855 22.4685,14.391 L18.1485,30.573 C18.1485,30.573 28.4925,26.025 35.322,31.734 L39.741,15.6585 L39.741,15.6585 Z" id="Shape" fill="#2765AD" sketch:type="MSShapeGroup"></path>
            <path d="M42.351,17.247 C42.351,17.247 48.1755,23.9085 59.3235,18.4095 L55.0005,34.4835 C55.0005,34.4835 44.8605,39.666 37.8315,33.321 L42.351,17.247 L42.351,17.247 Z" id="Shape" fill="#2765AD" sketch:type="MSShapeGroup"></path>
            <path d="M17.547,33.531 L12.927,49.5 C12.927,49.5 24.576,45.2715 30.1005,50.874 L34.518,34.7985 C34.518,34.8 29.499,28.776 17.547,33.531 L17.547,33.531 Z" id="Shape" fill="#2765AD" sketch:type="MSShapeGroup"></path>
            <path d="M36.927,36.7065 C36.927,36.7065 44.2605,42.732 54.102,37.764 L49.782,53.733 C49.782,53.733 42.1485,59.763 32.5095,52.6755 L36.927,36.7065 L36.927,36.7065 Z" id="Shape" fill="#2765AD" sketch:type="MSShapeGroup"></path>
            <path d="M39.741,18.57 C39.741,18.57 34.719,11.934 22.4685,17.346 L18.1485,32.97 C18.1485,32.97 28.4925,28.5795 35.322,34.092 L39.741,18.57 L39.741,18.57 Z" id="Shape" fill="#FFFFFF" sketch:type="MSShapeGroup"></path>
            <path d="M42.351,20.1015 C42.351,20.1015 48.1755,26.535 59.3235,21.2265 L55.0005,36.747 C55.0005,36.747 44.8605,41.7495 37.8315,35.622 L42.351,20.1015 L42.351,20.1015 Z" id="Shape" fill="#FFFFFF" sketch:type="MSShapeGroup"></path>
            <path d="M17.547,35.8275 L12.927,51.2445 C12.927,51.2445 24.576,47.1615 30.1005,52.5705 L34.518,37.0515 C34.518,37.0515 29.499,31.233 17.547,35.8275 L17.547,35.8275 Z" id="Shape" fill="#FFFFFF" sketch:type="MSShapeGroup"></path>
            <path d="M36.927,38.892 C36.927,38.892 44.2605,44.709 54.102,39.9105 L49.782,55.3305 C49.782,55.3305 42.1485,61.152 32.5095,54.306 L36.927,38.892 L36.927,38.892 Z" id="Shape" fill="#FFFFFF" sketch:type="MSShapeGroup"></path>
        </g>
    </g>
</svg>