<?xml version="1.0" encoding="UTF-8" standalone="no"?>
<svg width="48px" height="48px" viewBox="0 0 48 48" version="1.1" xmlns="http://www.w3.org/2000/svg" xmlns:xlink="http://www.w3.org/1999/xlink" xmlns:sketch="http://www.bohemiancoding.com/sketch/ns">
    <!-- Generator: Sketch 3.3.1 (12002) - http://www.bohemiancoding.com/sketch -->
    <title>twitter</title>
    <desc>Created with Sketch.</desc>
    <defs>
        <linearGradient x1="49.9989583%" y1="0%" x2="49.9989583%" y2="100.001042%" id="linearGradient-1">
            <stop stop-color="#4BD0EF" offset="0%"></stop>
            <stop stop-color="#29AAE1" offset="100%"></stop>
        </linearGradient>
    </defs>
    <g id="Page-1" stroke="none" stroke-width="1" fill="none" fill-rule="evenodd" sketch:type="MSPage">
        <g id="twitter" sketch:type="MSLayerGroup">
            <path d="M48,42 C48,45.313 45.313,48 42,48 L6,48 C2.687,48 0,45.313 0,42 L0,6 C0,2.687 2.687,0 6,0 L42,0 C45.313,0 48,2.687 48,6 L48,42 L48,42 Z" id="Shape" fill="url(#linearGradient-1)" sketch:type="MSShapeGroup"></path>
            <path d="M40.231,13.413 C39.111,13.91 37.908,14.246 36.643,14.397 C37.934,13.623 38.923,12.399 39.39,10.94 C38.184,11.656 36.847,12.176 35.422,12.456 C34.283,11.242 32.659,10.484 30.862,10.484 C27.413,10.484 24.616,13.28 24.616,16.731 C24.616,17.221 24.671,17.697 24.777,18.155 C19.585,17.894 14.982,15.406 11.901,11.627 C11.363,12.55 11.055,13.623 11.055,14.768 C11.055,16.935 12.158,18.848 13.834,19.967 C12.81,19.935 11.847,19.654 11.004,19.186 L11.004,19.265 C11.004,22.291 13.157,24.816 16.015,25.39 C15.49,25.533 14.939,25.609 14.369,25.609 C13.966,25.609 13.575,25.571 13.193,25.499 C13.988,27.979 16.295,29.786 19.028,29.837 C16.89,31.512 14.196,32.512 11.27,32.512 C10.766,32.512 10.268,32.482 9.779,32.423 C12.544,34.196 15.827,35.231 19.355,35.231 C30.845,35.231 37.129,25.712 37.129,17.457 C37.129,17.186 37.123,16.917 37.11,16.648 C38.334,15.766 39.394,14.666 40.231,13.413 L40.231,13.413 Z" id="Shape-Copy" fill="#29AAE1" sketch:type="MSShapeGroup"></path>
            <path d="M40.231,14.739 C39.111,15.236 37.908,15.572 36.643,15.723 C37.934,14.95 38.923,13.725 39.39,12.267 C38.184,12.983 36.847,13.503 35.422,13.783 C34.283,12.569 32.659,11.811 30.862,11.811 C27.413,11.811 24.616,14.607 24.616,18.058 C24.616,18.547 24.671,19.024 24.777,19.482 C19.585,19.221 14.982,16.734 11.901,12.955 C11.363,13.878 11.055,14.951 11.055,16.096 C11.055,18.263 12.158,20.175 13.834,21.295 C12.81,21.263 11.847,20.982 11.004,20.514 L11.004,20.593 C11.004,23.62 13.157,26.144 16.015,26.718 C15.49,26.862 14.939,26.937 14.369,26.937 C13.966,26.937 13.575,26.899 13.193,26.827 C13.988,29.308 16.295,31.114 19.028,31.165 C16.89,32.841 14.196,33.84 11.27,33.84 C10.766,33.84 10.268,33.81 9.779,33.751 C12.544,35.524 15.827,36.559 19.355,36.559 C30.845,36.559 37.129,27.04 37.129,18.785 C37.129,18.514 37.123,18.245 37.11,17.977 C38.334,17.092 39.394,15.992 40.231,14.739 L40.231,14.739 Z" id="Shape-Copy-2" fill="#FFFFFF" sketch:type="MSShapeGroup"></path>
        </g>
    </g>
</svg>