<?xml version="1.0" encoding="UTF-8" standalone="no"?>
<svg width="72px" height="72px" viewBox="0 0 72 72" version="1.1" xmlns="http://www.w3.org/2000/svg" xmlns:xlink="http://www.w3.org/1999/xlink" xmlns:sketch="http://www.bohemiancoding.com/sketch/ns">
    <!-- Generator: Sketch 3.3.1 (12002) - http://www.bohemiancoding.com/sketch -->
    <title>twitter</title>
    <desc>Created with Sketch.</desc>
    <defs>
        <linearGradient x1="49.9989583%" y1="0%" x2="49.9989583%" y2="100.001042%" id="linearGradient-1">
            <stop stop-color="#4BD0EF" offset="0%"></stop>
            <stop stop-color="#29AAE1" offset="100%"></stop>
        </linearGradient>
    </defs>
    <g id="Page-1" stroke="none" stroke-width="1" fill="none" fill-rule="evenodd" sketch:type="MSPage">
        <g id="twitter" sketch:type="MSLayerGroup">
            <path d="M72,63 C72,67.9695 67.9695,72 63,72 L9,72 C4.0305,72 0,67.9695 0,63 L0,9 C0,4.0305 4.0305,0 9,0 L63,0 C67.9695,0 72,4.0305 72,9 L72,63 L72,63 Z" id="Shape" fill="url(#linearGradient-1)" sketch:type="MSShapeGroup"></path>
            <path d="M60.3465,20.1195 C58.6665,20.865 56.862,21.369 54.9645,21.5955 C56.901,20.4345 58.3845,18.5985 59.085,16.41 C57.276,17.484 55.2705,18.264 53.133,18.684 C51.4245,16.863 48.9885,15.726 46.293,15.726 C41.1195,15.726 36.924,19.92 36.924,25.0965 C36.924,25.8315 37.0065,26.5455 37.1655,27.2325 C29.3775,26.841 22.473,23.109 17.8515,17.4405 C17.0445,18.825 16.5825,20.4345 16.5825,22.152 C16.5825,25.4025 18.237,28.272 20.751,29.9505 C19.215,29.9025 17.7705,29.481 16.506,28.779 L16.506,28.8975 C16.506,33.4365 19.7355,37.224 24.0225,38.085 C23.235,38.2995 22.4085,38.4135 21.5535,38.4135 C20.949,38.4135 20.3625,38.3565 19.7895,38.2485 C20.982,41.9685 24.4425,44.679 28.542,44.7555 C25.335,47.268 21.294,48.768 16.905,48.768 C16.149,48.768 15.402,48.723 14.6685,48.6345 C18.816,51.294 23.7405,52.8465 29.0325,52.8465 C46.2675,52.8465 55.6935,38.568 55.6935,26.1855 C55.6935,25.779 55.6845,25.3755 55.665,24.972 C57.501,23.649 59.091,21.999 60.3465,20.1195 L60.3465,20.1195 Z" id="Shape-Copy" fill="#29AAE1" sketch:type="MSShapeGroup"></path>
            <path d="M60.3465,22.1085 C58.6665,22.854 56.862,23.358 54.9645,23.5845 C56.901,22.425 58.3845,20.5875 59.085,18.4005 C57.276,19.4745 55.2705,20.2545 53.133,20.6745 C51.4245,18.8535 48.9885,17.7165 46.293,17.7165 C41.1195,17.7165 36.924,21.9105 36.924,27.087 C36.924,27.8205 37.0065,28.536 37.1655,29.223 C29.3775,28.8315 22.473,25.101 17.8515,19.4325 C17.0445,20.817 16.5825,22.4265 16.5825,24.144 C16.5825,27.3945 18.237,30.2625 20.751,31.9425 C19.215,31.8945 17.7705,31.473 16.506,30.771 L16.506,30.8895 C16.506,35.43 19.7355,39.216 24.0225,40.077 C23.235,40.293 22.4085,40.4055 21.5535,40.4055 C20.949,40.4055 20.3625,40.3485 19.7895,40.2405 C20.982,43.962 24.4425,46.671 28.542,46.7475 C25.335,49.2615 21.294,50.76 16.905,50.76 C16.149,50.76 15.402,50.715 14.6685,50.6265 C18.816,53.286 23.7405,54.8385 29.0325,54.8385 C46.2675,54.8385 55.6935,40.56 55.6935,28.1775 C55.6935,27.771 55.6845,27.3675 55.665,26.9655 C57.501,25.638 59.091,23.988 60.3465,22.1085 L60.3465,22.1085 Z" id="Shape-Copy-2" fill="#FFFFFF" sketch:type="MSShapeGroup"></path>
        </g>
    </g>
</svg>