<?xml version="1.0" standalone="no"?>
<!DOCTYPE svg PUBLIC "-//W3C//DTD SVG 1.1//EN" "http://www.w3.org/Graphics/SVG/1.1/DTD/svg11.dtd" >
<svg xmlns="http://www.w3.org/2000/svg">
<metadata>
This is a custom SVG webfont generated by Font Squirrel.
Copyright   : Copyright  2011 Nokia All rights reserved  Reproduction transfer distribution or storage of part or all of the contents in this document in any form without the prior written permission of Nokia is prohibited
Foundry     : Dalton Maag Ltd
</metadata>
<defs>
<font id="NokiaPureTextLight" horiz-adv-x="592" >
<font-face units-per-em="1000" ascent="800" descent="-200" />
<missing-glyph horiz-adv-x="253" />
<glyph unicode="&#xfb00;" horiz-adv-x="674" d="M34 444v52h98v54q0 46 8.5 84t29 65.5t53 42.5t80.5 15q26 0 47.5 -3.5t32.5 -6.5l-8 -49q-8 2 -24.5 4t-33.5 2q-37 0 -61 -9t-38.5 -29t-20 -51.5t-5.5 -77.5v-41h252v54q0 46 8.5 84t28.5 65.5t52.5 42.5t79.5 15q25 0 45.5 -3.5t32.5 -6.5l-8 -49q-8 2 -24 4t-32 2 q-36 0 -59.5 -9t-38 -29t-20 -51.5t-5.5 -77.5v-41h153v-52h-153v-444h-60v444h-252v-444h-60v444h-98z" />
<glyph unicode="&#xfb01;" d="M447 444h-255v-444h-60v444h-98v52h98v54q0 46 8.5 84t28.5 65.5t52.5 42.5t79.5 15q25 0 46 -3.5t32 -6.5l-8 -49q-8 2 -24 4t-32 2q-36 0 -59.5 -9t-38 -29t-20 -51.5t-5.5 -77.5v-41h315v-496h-60v444zM431 662q0 22 12.5 35.5t32.5 13.5t33 -13.5t13 -35.5 q0 -23 -13 -36t-33 -13t-32.5 13.5t-12.5 35.5z" />
<glyph unicode="&#xfb02;" horiz-adv-x="595" d="M34 444v52h98v54q0 46 8.5 84t28.5 65.5t52.5 42.5t79.5 15q25 0 46 -3.5t32 -6.5l-8 -49q-8 2 -24 4t-32 2q-36 0 -59.5 -9t-38 -29t-20 -51.5t-5.5 -77.5v-41h153v-52h-153v-444h-60v444h-98zM514 0h-59v750h59v-750z" />
<glyph unicode="&#xfb03;" horiz-adv-x="903" d="M34 444v52h98v54q0 46 8.5 84t29 65.5t53 42.5t80.5 15q26 0 47.5 -3.5t32.5 -6.5l-8 -49q-8 2 -24.5 4t-33.5 2q-37 0 -61 -9t-38.5 -29t-20 -51.5t-5.5 -77.5v-41h252v54q0 46 8.5 84t28.5 65.5t52.5 42.5t79.5 15q25 0 45.5 -3.5t32.5 -6.5l-8 -49q-8 2 -24 4t-32 2 q-36 0 -59.5 -9t-38 -29t-20 -51.5t-5.5 -77.5v-41h315v-496h-60v444h-255v-444h-60v444h-252v-444h-60v444h-98zM743 662q0 22 12.5 35.5t32.5 13.5t33 -13.5t13 -35.5q0 -23 -13 -36t-33 -13t-32.5 13.5t-12.5 35.5z" />
<glyph unicode="&#xfb04;" horiz-adv-x="907" d="M826 0h-59v750h59v-750zM34 444v52h98v54q0 46 8.5 84t29 65.5t53 42.5t80.5 15q26 0 47.5 -3.5t32.5 -6.5l-8 -49q-8 2 -24.5 4t-33.5 2q-37 0 -61 -9t-38.5 -29t-20 -51.5t-5.5 -77.5v-41h252v54q0 46 8.5 84t28.5 65.5t52.5 42.5t79.5 15q25 0 45.5 -3.5t32.5 -6.5 l-8 -49q-8 2 -24 4t-32 2q-36 0 -59.5 -9t-38 -29t-20 -51.5t-5.5 -77.5v-41h153v-52h-153v-444h-60v444h-252v-444h-60v444h-98z" />
<glyph unicode="&#x9;" horiz-adv-x="253" />
<glyph unicode="&#xd;" horiz-adv-x="253" />
<glyph horiz-adv-x="0" />
<glyph horiz-adv-x="0" />
<glyph horiz-adv-x="0" />
<glyph unicode=" "  horiz-adv-x="253" />
<glyph unicode="&#x09;" horiz-adv-x="253" />
<glyph unicode="&#xa0;" horiz-adv-x="253" />
<glyph unicode="!" horiz-adv-x="280" d="M169 198h-60v505h60v-505zM91 44q0 24 14 38.5t35 14.5t35 -14t14 -39q0 -24 -14 -38.5t-35 -14.5t-35 14.5t-14 38.5z" />
<glyph unicode="&#x22;" horiz-adv-x="406" d="M84 703h66l-8 -250h-51zM256 703h66l-7 -250h-51z" />
<glyph unicode="#" horiz-adv-x="580" d="M73 507h110l37 183h53l-37 -183h170l37 183h53l-37 -183h97l-9 -49h-98l-42 -213h109l-9 -49h-109l-38 -196h-53l39 196h-172l-38 -196h-53l38 196h-97l9 49h98l42 213h-109zM184 245h171l41 213h-170z" />
<glyph unicode="$" d="M326 698q28 0 56 -5.5t52 -13t42.5 -16.5t28.5 -16l-24 -49q-25 16 -66.5 30.5t-88.5 16.5v-269l34 -12q73 -26 113.5 -67.5t40.5 -111.5q0 -77 -46.5 -129t-141.5 -63v-102h-47v100q-43 1 -77.5 8.5t-61 17t-45.5 20t-31 18.5l26 49q12 -8 30 -17.5t42 -18.5t53 -15.5 t64 -7.5v283q-41 15 -75 30t-59.5 35t-39.5 48.5t-14 70.5q0 82 48.5 130t139.5 56v92h47v-92zM453 181q0 55 -31.5 83t-95.5 49v-266q56 6 91.5 38.5t35.5 95.5zM152 516q0 -24 7 -42t22 -32.5t39 -26.5t59 -24v254q-66 -8 -96.5 -40t-30.5 -89z" />
<glyph unicode="%" horiz-adv-x="897" d="M607 690h58l-375 -690h-59zM62 502q0 97 38 149t108 52q72 0 107.5 -52t35.5 -149q0 -100 -38 -149.5t-106 -49.5q-145 0 -145 199zM114 502q0 -83 24.5 -117.5t68.5 -34.5t67.5 34.5t23.5 117.5q0 44 -6 73.5t-18 47.5t-29 25.5t-38 7.5q-20 0 -37 -7.5t-29.5 -25.5 t-19.5 -47.5t-7 -73.5zM546 187q0 97 38 148.5t108 51.5q72 0 107.5 -51.5t35.5 -148.5q0 -100 -38 -150t-105 -50q-146 0 -146 200zM599 187q0 -84 24 -118.5t69 -34.5q43 0 67 35t24 118q0 87 -24 120t-67 33q-21 0 -38 -7.5t-29 -25t-19 -47t-7 -73.5z" />
<glyph unicode="&#x26;" horiz-adv-x="689" d="M227 393q-12 14 -25 31.5t-24.5 37.5t-19 43t-7.5 48q0 36 12 66.5t34.5 52.5t54 34.5t71.5 12.5q34 0 63 -10.5t50.5 -29.5t33.5 -47t12 -62q0 -37 -12.5 -64.5t-35 -50t-54 -40.5t-68.5 -36l203 -238q12 10 25 26t25.5 35t23.5 38.5t19 36.5l47 -24 q-20 -43 -46.5 -82.5t-57.5 -70.5l85 -100h-74l-54 65q-38 -32 -94.5 -55t-122.5 -23q-56 0 -98 14.5t-70.5 40.5t-42.5 62t-14 78q0 78 43 127.5t118 83.5zM260 353q-27 -11 -51.5 -26t-42.5 -35t-28.5 -46.5t-10.5 -60.5q0 -71 43 -108t124 -37q27 0 52.5 5.5t49 15t43 21 t33.5 23.5zM208 552q0 -38 22.5 -72t48.5 -63q28 13 54.5 26t47 30.5t33 40t12.5 54.5q0 49 -28.5 75.5t-76.5 26.5q-54 0 -83.5 -33.5t-29.5 -84.5z" />
<glyph unicode="'" horiz-adv-x="234" d="M84 703h66l-8 -250h-51z" />
<glyph unicode="(" horiz-adv-x="282" d="M78 327q0 78 10.5 145t25.5 121t32 94t30 63h53q-15 -31 -31.5 -74t-30 -97t-22 -117.5t-8.5 -134.5t8.5 -134.5t22 -117.5t30 -97.5t31.5 -73.5h-53q-13 23 -30 63t-32 94t-25.5 121t-10.5 145z" />
<glyph unicode=")" horiz-adv-x="281" d="M205 327q0 -78 -10.5 -145t-26 -121t-32.5 -94t-30 -63h-52q15 31 31 74t29.5 97t22 117.5t8.5 134.5t-8.5 134.5t-22 117.5t-29.5 97.5t-31 73.5h52q13 -23 30 -63t32.5 -94t26 -121t10.5 -145z" />
<glyph unicode="*" horiz-adv-x="423" d="M242 750l-5 -149l129 60l19 -53l-134 -48l100 -117l-45 -33l-92 124l-91 -124l-45 35l97 114l-133 44l21 53l129 -55l-7 149h57z" />
<glyph unicode="+" d="M75 372h193v207h56v-207h193v-54h-193v-207h-56v207h-193v54z" />
<glyph unicode="," horiz-adv-x="254" d="M75 42q0 26 14.5 40.5t34.5 14.5q24 0 36.5 -16t12.5 -42q0 -45 -24 -99.5t-75 -102.5l-29 25q29 32 46 66t21 65q-13 3 -25 14.5t-12 34.5z" />
<glyph unicode="-" horiz-adv-x="422" d="M67 309h287v-57h-287v57z" />
<glyph unicode="." horiz-adv-x="251" d="M77 43q0 24 14 39t35 15t35 -14.5t14 -39.5q0 -24 -14.5 -38t-35.5 -14t-34.5 14t-13.5 38z" />
<glyph unicode="/" horiz-adv-x="415" d="M23 -47l312 797h57l-312 -797h-57z" />
<glyph unicode="0" d="M297 -13q-236 0 -236 356q0 178 59 267.5t177 89.5q121 0 177.5 -89.5t56.5 -267.5q0 -180 -59.5 -268t-174.5 -88zM296 42q41 0 73 17t54 53.5t33.5 93.5t11.5 137q0 83 -12 140.5t-34 93t-54 51.5t-72 16t-72 -16t-54 -51.5t-34 -93t-12 -140.5q0 -81 11.5 -138.5 t33.5 -93.5t54 -52.5t73 -16.5z" />
<glyph unicode="1" d="M380 0h-61v619l-192 -116l-24 46l225 141h52v-690z" />
<glyph unicode="2" d="M489 0h-393v17q0 54 11 96t33.5 79t56.5 70.5t80 69.5q33 27 59 49t43.5 44t27 44.5t9.5 51.5q0 54 -31.5 89t-102.5 35q-30 0 -53.5 -7t-42.5 -17.5t-32.5 -23.5t-23.5 -26l-39 34q12 15 29.5 31.5t42 31t56 23.5t70.5 9q51 0 86.5 -15t58 -39.5t33 -56.5t10.5 -65 q0 -37 -13 -68t-34.5 -58t-49.5 -50.5t-57 -45.5q-39 -31 -69.5 -58.5t-51.5 -56.5t-32 -61t-11 -71h330v-55z" />
<glyph unicode="3" d="M97 66q17 -7 53 -14.5t85 -7.5q82 0 131 36t49 108q0 30 -10.5 55t-31.5 43.5t-53.5 29t-76.5 10.5h-54v54h51q42 0 73 11t50.5 29.5t29 43.5t9.5 54q0 27 -7.5 50t-24 40.5t-43 27.5t-63.5 10q-55 0 -89 -18t-53 -37l-32 37q10 11 26 24t38.5 23.5t50.5 17.5t62 7 q51 0 88 -14t60.5 -38t35 -55t11.5 -65q0 -66 -34 -110.5t-95 -60.5q72 -14 107 -58t35 -110q0 -48 -18 -85.5t-49.5 -63t-74.5 -38.5t-93 -13q-54 0 -95.5 9t-61.5 18z" />
<glyph unicode="4" d="M418 0h-59v169h-289v42l258 479h65l-251 -467h217v205h59v-205h110v-54h-110v-169z" />
<glyph unicode="5" d="M115 66q17 -7 53 -14.5t85 -7.5q85 0 133.5 43.5t48.5 128.5q0 32 -7.5 61t-24.5 50.5t-44.5 34t-67.5 12.5q-45 0 -74.5 -9.5t-47.5 -19.5l-33 24l38 318h299v-55h-255l-28 -228q17 9 47 14.5t63 5.5q42 0 78 -12.5t62.5 -38.5t41 -65t14.5 -91q0 -47 -16 -88.5 t-46.5 -72.5t-75 -49t-101.5 -18q-54 0 -95 9t-61 18z" />
<glyph unicode="6" d="M477 623q-22 11 -49.5 19t-69.5 8q-49 0 -86 -22t-62 -60.5t-38.5 -91t-15.5 -113.5q25 37 68.5 62.5t100.5 25.5q42 0 78.5 -14t64 -42.5t43 -70.5t15.5 -97q0 -54 -15 -98.5t-43 -76t-67.5 -48.5t-88.5 -17q-109 0 -164.5 77t-55.5 234q0 199 69.5 302t198.5 103 q43 0 76 -9t61 -23zM312 40q72 0 112 46.5t40 134.5t-39.5 132t-106.5 44q-32 0 -60.5 -12t-51 -33t-35.5 -50t-13 -63q0 -45 10.5 -81.5t30.5 -62.5t48.5 -40.5t64.5 -14.5z" />
<glyph unicode="7" d="M238 0h-66l260 634h-350v56h416v-46z" />
<glyph unicode="8" d="M368 359q64 -28 103.5 -71t39.5 -113q0 -40 -14 -74t-41.5 -59.5t-68 -40t-92.5 -14.5q-56 0 -97 14t-67.5 38t-39 55.5t-12.5 66.5q0 76 39.5 120.5t111.5 75.5q-61 26 -97 65t-36 105q0 37 14 69t40 56t63.5 37.5t84.5 13.5q50 0 87 -13t62 -36t37 -54t12 -67 q0 -61 -37.5 -104.5t-91.5 -69.5zM289 334q-72 -27 -111 -66t-39 -97q0 -64 42 -98t115 -34q70 0 112 34t42 103q0 33 -12 58t-33 44t-50.5 32.5t-65.5 23.5zM309 381q57 20 92.5 58.5t35.5 92.5t-34.5 87t-103.5 33q-36 0 -63 -10t-44.5 -27.5t-26.5 -40.5t-9 -49 q0 -30 12.5 -53t33.5 -40.5t49 -29.5t58 -21z" />
<glyph unicode="9" d="M114 61q20 -8 50 -14.5t72 -6.5q51 0 89 20.5t63.5 58t39.5 91t17 118.5q-25 -36 -70 -62.5t-100 -26.5q-42 0 -78.5 14t-64 42.5t-43 70t-15.5 97.5q0 54 15 98.5t42.5 76t67 48.5t88.5 17q109 0 165 -75.5t56 -230.5q0 -205 -67.5 -307.5t-200.5 -102.5q-43 0 -79.5 7 t-59.5 18zM442 451q0 100 -41 149.5t-114 49.5q-70 0 -110.5 -46.5t-40.5 -134.5t39.5 -132t105.5 -44q32 0 61 11.5t51.5 32.5t35.5 50t13 64z" />
<glyph unicode=":" horiz-adv-x="251" d="M77 41q0 24 14 39t35 15t35 -14.5t14 -39.5q0 -24 -14.5 -38t-35.5 -14t-34.5 14t-13.5 38zM77 443q0 24 14 39t35 15t35 -14.5t14 -39.5q0 -24 -14.5 -38t-35.5 -14t-34.5 14t-13.5 38z" />
<glyph unicode=";" horiz-adv-x="254" d="M77 443q0 24 14 39t35 15t35 -14.5t14 -39.5q0 -24 -14.5 -38t-35.5 -14t-34.5 14t-13.5 38zM75 42q0 26 14.5 40.5t34.5 14.5q24 0 36.5 -16t12.5 -42q0 -45 -24 -99.5t-75 -102.5l-29 25q29 32 46 66t21 65q-13 3 -25 14.5t-12 34.5z" />
<glyph unicode="&#x3c;" d="M485 191l-21 -49l-357 183v51l356 184l22 -49l-319 -159z" />
<glyph unicode="=" d="M92 474h408v-53h-408v53zM92 268h408v-54h-408v54z" />
<glyph unicode="&#x3e;" d="M107 511l21 49l357 -184v-51l-356 -183l-22 49l319 159z" />
<glyph unicode="?" horiz-adv-x="546" d="M223 185q0 38 6 66t19 51t33.5 45t49.5 48q11 10 24.5 23.5t25 31t19 38t7.5 44.5q0 60 -35 96t-108 36q-60 0 -104.5 -25.5t-73.5 -61.5l-36 37q13 16 33 34.5t47 34.5t62 26t79 10q50 0 87 -14.5t61.5 -39.5t36.5 -58t12 -70q0 -33 -8.5 -59.5t-22 -48t-30.5 -39 t-34 -32.5q-21 -18 -38 -34.5t-29 -36t-19 -44t-7 -58.5h-57zM206 44q0 24 14 38.5t35 14.5t35 -14t14 -39q0 -24 -14 -38.5t-35 -14.5t-35 14.5t-14 38.5z" />
<glyph unicode="@" horiz-adv-x="1009" d="M526 -168q64 0 116.5 11t95 28t76 38t59.5 42l30 -41q-28 -24 -67.5 -47t-87.5 -41t-104 -29.5t-117 -11.5q-102 0 -185.5 29t-143 85t-92 138t-32.5 188q0 110 36 204.5t99.5 163.5t151.5 108t193 39q96 0 170.5 -26t125.5 -74t77.5 -117t26.5 -155q0 -83 -22.5 -148 t-58 -110t-80 -68.5t-89.5 -23.5q-47 0 -67 15.5t-30 33.5q-7 -6 -19.5 -14t-29 -16t-36.5 -13.5t-41 -5.5q-37 0 -68.5 12t-54.5 35.5t-36 58.5t-13 81q0 67 18 121t49 92t71.5 58.5t85.5 20.5q35 0 59.5 -9t40.5 -21t24.5 -24.5t11.5 -18.5l16 60h45l-72 -370 q-1 -4 -1 -12q0 -38 51 -38q37 0 71.5 22t61 62t42.5 95.5t16 123.5q0 84 -26.5 144.5t-73 100t-110 58.5t-136.5 19q-90 0 -167 -34t-133.5 -95t-88.5 -146.5t-32 -187.5q0 -89 25.5 -161t75.5 -123t123.5 -78.5t169.5 -27.5zM491 60q19 0 37.5 5.5t33.5 13.5t26 17t17 16 l24 129q1 9 4 22.5t5 27.5t4 26.5t2 19.5q0 22 -7.5 41.5t-22 34.5t-35.5 24t-49 9q-33 0 -62.5 -15.5t-52 -46t-35.5 -76.5t-13 -107q0 -71 33 -106t91 -35z" />
<glyph unicode="A" horiz-adv-x="579" d="M431 196h-289l-63 -196h-60l235 703h70l236 -703h-65zM159 251h254l-126 380z" />
<glyph unicode="B" horiz-adv-x="599" d="M289 703q55 0 94.5 -14.5t64.5 -38.5t37 -56t12 -68q0 -34 -10 -60.5t-25.5 -46t-34 -32t-34.5 -18.5q25 -6 50 -19.5t45 -34.5t33 -51t13 -69q0 -87 -56 -141t-176 -54h-210v703h197zM278 390q84 0 120.5 38t36.5 98q0 34 -13 57.5t-34 37.5t-48.5 20t-57.5 6h-129v-257 h125zM310 56q86 0 123 37t37 103q0 69 -47.5 104t-135.5 35h-134v-279h157z" />
<glyph unicode="C" horiz-adv-x="623" d="M371 659q-113 0 -175 -78.5t-62 -232.5q0 -158 62 -230.5t175 -72.5q33 0 60.5 6t50.5 15t41 20t31 21l29 -45q-34 -29 -89.5 -51t-126.5 -22q-153 0 -226 93t-73 266q0 82 18.5 149.5t56 115.5t94 74.5t132.5 26.5q41 0 75 -8t60 -19.5t44.5 -24t29.5 -22.5l-32 -45 q-25 21 -68 42.5t-107 21.5z" />
<glyph unicode="D" horiz-adv-x="682" d="M301 703q152 0 232 -92t80 -260q0 -85 -21.5 -150.5t-62 -110t-98.5 -67.5t-130 -23h-209v703h209zM301 58q114 0 180.5 75t66.5 219q0 151 -66.5 222t-180.5 71h-146v-587h146z" />
<glyph unicode="E" horiz-adv-x="522" d="M92 703h388v-58h-325v-250h254v-58h-254v-279h335v-58h-398v703z" />
<glyph unicode="F" horiz-adv-x="524" d="M94 703h391v-58h-328v-250h267v-58h-267v-337h-63v703z" />
<glyph unicode="G" horiz-adv-x="652" d="M368 664q-53 0 -96.5 -19.5t-74 -59t-47.5 -99t-17 -138.5q0 -160 62.5 -232.5t185.5 -72.5q48 0 85.5 7.5t60.5 16.5v234h-150v56h208v-325q-9 -5 -27.5 -12.5t-45 -15.5t-61.5 -13.5t-78 -5.5q-154 0 -230 92t-76 271q0 80 18.5 148t56 117.5t93.5 77.5t131 28 q68 0 119.5 -17.5t92.5 -50.5l-30 -46q-13 9 -29 19.5t-37.5 19.5t-49.5 14.5t-64 5.5z" />
<glyph unicode="H" horiz-adv-x="667" d="M512 703h63v-703h-63v346h-357v-346h-63v703h63v-298h357v298z" />
<glyph unicode="I" horiz-adv-x="247" d="M155 0h-63v703h63v-703z" />
<glyph unicode="J" horiz-adv-x="473" d="M324 703h63v-520q0 -107 -49.5 -153t-137.5 -46q-37 0 -67 6t-52.5 14.5t-36 16t-17.5 10.5l24 49q4 -2 16.5 -8.5t31.5 -13.5t42.5 -12.5t49.5 -5.5q34 0 59.5 7.5t41.5 25t24 46.5t8 72v512z" />
<glyph unicode="K" horiz-adv-x="553" d="M155 0h-63v703h63v-324l293 324h74l-293 -325l317 -378h-81l-310 368v-368z" />
<glyph unicode="L" horiz-adv-x="520" d="M157 58h325v-58h-388v703h63v-645z" />
<glyph unicode="M" horiz-adv-x="769" d="M679 703v-703h-62v605l-210 -385h-51l-204 373v-593h-62v703h66l228 -418l227 418h68z" />
<glyph unicode="N" horiz-adv-x="660" d="M153 599v-599h-61v703h66l349 -596v596h61v-703h-61z" />
<glyph unicode="O" horiz-adv-x="734" d="M69 352q0 82 19.5 149.5t57.5 115.5t94 74.5t128 26.5t127.5 -26.5t93 -74.5t57 -115.5t19.5 -149.5t-19.5 -149.5t-57 -116t-93.5 -75t-128 -26.5t-128 26.5t-93.5 75t-57 116t-19.5 149.5zM135 352q0 -70 14 -126.5t43 -97t72.5 -62.5t102.5 -22t102.5 22t72.5 62.5 t43 97t14 126.5t-14 126.5t-43 96.5t-72.5 62t-102.5 22t-102.5 -22t-72.5 -62t-43 -96.5t-14 -126.5z" />
<glyph unicode="P" horiz-adv-x="566" d="M448 488q0 83 -43 121t-119 38h-132v-315h123q83 0 127 39t44 117zM511 488q0 -42 -13 -80.5t-41.5 -68t-72.5 -47t-105 -17.5h-125v-275h-62v703h196q58 0 100 -17t69.5 -46t40.5 -68t13 -84z" />
<glyph unicode="Q" horiz-adv-x="734" d="M665 352q0 -127 -46.5 -218t-134.5 -127q13 -18 32.5 -34t43.5 -29t51 -21.5t55 -12.5l-12 -51q-33 4 -67 16.5t-65 29.5t-57 39t-44 46q-12 -2 -24.5 -3t-26.5 -1q-78 0 -135 28.5t-93.5 78t-54.5 116t-18 143.5q0 82 19.5 149.5t57 115.5t93.5 74.5t128 26.5t128 -26.5 t93.5 -74.5t57 -115.5t19.5 -149.5zM599 352q0 70 -14 126.5t-43 96.5t-72.5 62t-102.5 22t-102.5 -22t-72.5 -62t-43 -96.5t-14 -126.5t14 -126.5t43 -97t72.5 -62.5t102.5 -22t102.5 22t72.5 62.5t43 97t14 126.5z" />
<glyph unicode="R" horiz-adv-x="577" d="M541 0h-73l-172 289h-142v-289h-62v703h185q63 0 105.5 -18t68.5 -47.5t37.5 -66t11.5 -73.5q0 -39 -11 -71t-30 -56t-44.5 -41t-53.5 -27zM438 495q0 70 -39.5 111t-128.5 41h-116v-303h120q85 0 124.5 41t39.5 110z" />
<glyph unicode="S" horiz-adv-x="558" d="M247 337q-84 26 -129 71.5t-45 114.5q0 41 13.5 77t41.5 63t70 42.5t99 15.5q27 0 55 -4t54 -11t48 -16.5t37 -19.5l-24 -52q-23 15 -69 30t-105 15q-76 0 -116 -35t-40 -97q0 -24 6.5 -43t21.5 -35t40 -29t62 -26l72 -25q86 -30 124.5 -75t38.5 -116q0 -41 -14.5 -77 t-43 -62.5t-72 -42t-100.5 -15.5q-43 0 -80 7t-66.5 17t-50 20.5t-29.5 17.5l26 52q14 -9 33.5 -18.5t44.5 -18t56 -14t67 -5.5q74 0 119 33t45 101q0 50 -29 84t-98 56z" />
<glyph unicode="T" horiz-adv-x="565" d="M251 644h-216v59h494v-59h-215v-644h-63v644z" />
<glyph unicode="U" horiz-adv-x="654" d="M325 -16q-72 0 -118.5 21.5t-74.5 60.5t-39 92.5t-11 117.5v427h63v-413q0 -71 11 -119t33.5 -76.5t57 -40.5t80.5 -12t80 12t56.5 40.5t34 76t11.5 118.5v414h63v-428q0 -64 -11.5 -117.5t-40 -92t-76 -60t-119.5 -21.5z" />
<glyph unicode="V" horiz-adv-x="569" d="M287 88l199 615h65l-235 -703h-60l-239 703h68z" />
<glyph unicode="W" horiz-adv-x="768" d="M236 0h-69l-152 703h65l127 -609l146 592h62l142 -591l132 608h64l-160 -703h-70l-140 585z" />
<glyph unicode="X" horiz-adv-x="598" d="M33 0l231 373l-198 330h73l162 -277l171 277h69l-203 -328l225 -375h-74l-190 319l-194 -319h-72z" />
<glyph unicode="Y" horiz-adv-x="544" d="M238 307l-221 396h72l183 -336l187 336h68l-226 -394v-309h-63v307z" />
<glyph unicode="Z" horiz-adv-x="579" d="M50 50l394 595h-384v58h461v-50l-395 -595h407v-58h-483v50z" />
<glyph unicode="[" horiz-adv-x="341" d="M93 750h205v-53h-146v-746h146v-53h-205v852z" />
<glyph unicode="\" horiz-adv-x="415" d="M335 -47l-312 797h57l312 -797h-57z" />
<glyph unicode="]" horiz-adv-x="404" d="M253 -102h-205v53h146v746h-146v53h205v-852z" />
<glyph unicode="^" d="M510 316h-60l-153 314l-156 -314h-59l190 374h51z" />
<glyph unicode="_" horiz-adv-x="446" d="M0 -131h446v-55h-446v55z" />
<glyph unicode="`" horiz-adv-x="514" d="M359 588l-226 105l28 56l220 -118z" />
<glyph unicode="a" horiz-adv-x="518" d="M381 240q-8 2 -22.5 4.5t-33.5 4.5t-41 3.5t-43 1.5q-74 0 -103.5 -31t-29.5 -85q0 -52 33 -77t86 -25q31 0 59 11.5t49 30t33.5 42.5t12.5 49v71zM204 -12q-26 0 -53.5 7.5t-49.5 24.5t-36 46t-14 71q0 72 46 117.5t139 45.5q22 0 45 -1.5t42.5 -4t34.5 -5t23 -3.5v49 q0 65 -37 93t-106 28q-50 0 -83 -11.5t-54 -22.5l-19 44q19 11 62 26.5t109 15.5q88 0 136 -41.5t48 -126.5v-340h-53l-2 76q-15 -25 -35 -42t-43.5 -27t-49 -14.5t-50.5 -4.5z" />
<glyph unicode="b" horiz-adv-x="579" d="M306 455q-33 0 -63 -14.5t-53 -42t-36.5 -67t-13.5 -89.5v-113q8 -12 22 -26t33 -26.5t43 -21t51 -8.5q78 0 122.5 48t44.5 157q0 44 -9 81.5t-27 64.5t-46.5 42t-67.5 15zM136 70q0 -18 -0.5 -35t-0.5 -35h-54v750h59v-348q22 45 66.5 76t106.5 31q51 0 89 -19.5 t63.5 -53.5t38.5 -81.5t13 -102.5q0 -73 -19 -122.5t-49.5 -80t-69 -43.5t-76.5 -13q-59 0 -100 21t-67 56z" />
<glyph unicode="c" horiz-adv-x="470" d="M123 249q0 -53 12.5 -92t34 -64t52 -37t66.5 -12q46 0 75 9.5t47 18.5l22 -44q-14 -11 -49.5 -25t-98.5 -14q-106 0 -164 67t-58 192q0 58 15.5 106t44.5 82.5t70 53.5t93 19q31 0 55.5 -5t43 -12.5t30.5 -16t20 -14.5l-27 -44q-7 4 -18 10.5t-26 12.5t-34 10t-41 4 q-72 0 -118.5 -50.5t-46.5 -154.5z" />
<glyph unicode="d" horiz-adv-x="579" d="M275 455q-39 0 -67.5 -16t-47 -43.5t-27.5 -65.5t-9 -82q0 -54 11.5 -92.5t33.5 -62.5t53 -35t70 -11q27 0 50.5 8t42.5 20t33.5 26.5t22.5 26.5v111q0 50 -13.5 90t-36.5 68t-53 43t-63 15zM444 70q-29 -34 -71 -55.5t-102 -21.5q-39 0 -76.5 12.5t-67 42t-47 78.5 t-17.5 122q0 54 14 101.5t40 83t64 56t86 20.5q63 0 107 -30t67 -77v348h59v-750h-55z" />
<glyph unicode="e" horiz-adv-x="545" d="M307 43q47 0 78.5 9.5t50.5 17.5l17 -46q-15 -10 -55 -22.5t-97 -12.5q-121 0 -180 67.5t-59 191.5q0 59 15 107.5t43 82.5t68.5 52.5t91.5 18.5q48 0 86 -14.5t64.5 -47t40.5 -83t14 -122.5v-10h-364q5 -89 49.5 -139t136.5 -50zM426 280q-6 85 -40 130.5t-107 45.5 q-75 0 -112 -46t-45 -130h304z" />
<glyph unicode="f" horiz-adv-x="366" d="M34 444v52h98v54q0 46 8.5 84t29 65.5t53 42.5t80.5 15q26 0 47.5 -3.5t32.5 -6.5l-8 -49q-8 2 -24.5 4t-33.5 2q-37 0 -61 -9t-38.5 -29t-20 -51.5t-5.5 -77.5v-41h153v-52h-153v-444h-60v444h-98z" />
<glyph unicode="g" horiz-adv-x="542" d="M416 454q28 -19 44 -52t16 -70q0 -46 -19 -78.5t-48 -53.5t-64.5 -30.5t-69.5 -9.5q-32 0 -62 5.5t-57 20.5q-14 -12 -25.5 -29t-11.5 -38q0 -17 5 -29t18 -20t35 -12t57 -5l110 -2q33 -1 63 -7t53.5 -19.5t37 -36.5t13.5 -58q0 -33 -16 -62.5t-49 -51.5t-82.5 -35 t-115.5 -13q-41 0 -78 6.5t-65 22.5t-45 41t-17 63q0 41 19.5 71.5t48.5 53.5q-19 10 -32 29t-13 48q0 33 18 60t40 45q-26 21 -41 51.5t-15 73.5q0 46 18.5 79t48 54.5t65.5 32t71 10.5q20 0 36 -2t29.5 -4.5t26 -4.5t26.5 -2h135v-47h-28q-15 0 -39.5 1t-40.5 4zM249 3 q-22 1 -47.5 1.5t-49.5 6.5q-17 -13 -35 -38t-18 -60q0 -29 12.5 -47.5t33.5 -30t48 -16t57 -4.5q46 0 83.5 7.5t63.5 22t40.5 34t14.5 43.5q0 15 -4 29t-15.5 25t-32 17.5t-52.5 7.5zM418 334q0 36 -12.5 60.5t-32.5 39.5t-46.5 21.5t-53.5 6.5q-28 0 -54.5 -7t-47 -22 t-33 -39.5t-12.5 -59.5q0 -36 12.5 -60.5t33 -39.5t46.5 -21.5t54 -6.5q27 0 53.5 6.5t47 21.5t33 39.5t12.5 60.5z" />
<glyph unicode="h" horiz-adv-x="562" d="M140 401q23 48 67 78t110 30q81 0 124.5 -47t43.5 -138v-324h-59v316q0 39 -9.5 66t-26 43t-39 23t-49.5 7q-38 0 -68 -17.5t-51 -45.5t-32 -64t-11 -73v-255h-59v750h59v-349z" />
<glyph unicode="i" horiz-adv-x="229" d="M85 496h59v-496h-59v496zM69 662q0 22 12.5 35.5t32.5 13.5t33 -13.5t13 -35.5q0 -23 -13 -36t-33 -13t-32.5 13.5t-12.5 35.5z" />
<glyph unicode="j" horiz-adv-x="229" d="M144 -14q0 -105 -39 -157.5t-127 -52.5q-14 0 -32.5 2.5t-29.5 6.5l7 50q10 -2 23.5 -4t26.5 -2q36 0 58 10.5t34 32.5t16 55.5t4 79.5v489h59v-510zM69 662q0 22 12.5 35.5t32.5 13.5t33 -13.5t13 -35.5q0 -23 -13 -36t-33 -13t-32.5 13.5t-12.5 35.5z" />
<glyph unicode="k" horiz-adv-x="461" d="M140 273l212 223h71l-216 -223l236 -273h-76l-227 266v-266h-59v750h59v-477z" />
<glyph unicode="l" horiz-adv-x="222" d="M141 0h-60v750h60v-750z" />
<glyph unicode="m" horiz-adv-x="861" d="M614 455q-36 0 -64 -16.5t-47.5 -43.5t-30 -61t-10.5 -69v-265h-59v317q0 78 -29 108t-82 30q-35 0 -63 -18t-48 -46.5t-30.5 -64t-10.5 -71.5v-255h-59v496h55l2 -98q23 48 65.5 79.5t104.5 31.5q52 0 92 -28.5t51 -87.5q24 51 68.5 83.5t107.5 32.5q78 0 117.5 -47.5 t39.5 -137.5v-324h-59v317q0 78 -28.5 108t-82.5 30z" />
<glyph unicode="n" horiz-adv-x="562" d="M140 0h-59v496h55l2 -98q23 47 67.5 79t107.5 32q86 0 129 -47t43 -138v-324h-59v316q0 39 -9.5 66t-26 43t-39 23t-49.5 7q-38 0 -68 -17.5t-51 -45.5t-32 -64t-11 -73v-255z" />
<glyph unicode="o" horiz-adv-x="581" d="M290 43q86 0 127 55.5t41 150.5q0 93 -41.5 149.5t-126.5 56.5q-84 0 -125.5 -56.5t-41.5 -149.5q0 -95 41 -150.5t126 -55.5zM290 509q57 0 99.5 -19.5t71 -54t43 -82t14.5 -104.5t-15 -105t-43.5 -82.5t-71.5 -53.5t-98 -19q-56 0 -99 19t-71.5 53.5t-43 82.5 t-14.5 105t15 104.5t43.5 82t71 54t98.5 19.5z" />
<glyph unicode="p" horiz-adv-x="579" d="M306 455q-39 0 -70 -17.5t-52 -47t-32.5 -67t-11.5 -76.5v-135q9 -9 24.5 -20.5t35 -21.5t42.5 -17t47 -7q77 0 122 49.5t45 159.5q0 43 -9 79.5t-27.5 63.5t-46.5 42t-67 15zM314 509q51 0 89 -19.5t63.5 -53.5t38 -80.5t12.5 -100.5q0 -73 -19.5 -123t-50.5 -81 t-69.5 -44.5t-77.5 -13.5q-49 0 -89.5 17t-70.5 41v-271h-59v716h55l2 -98q21 45 66 78t110 33z" />
<glyph unicode="q" horiz-adv-x="579" d="M274 455q-72 0 -111.5 -55t-39.5 -152q0 -54 12 -92.5t33.5 -62.5t51.5 -35.5t66 -11.5q55 0 92.5 25.5t61.5 55.5v112q0 44 -12.5 83.5t-34.5 69t-52.5 46.5t-66.5 17zM269 509q34 0 62 -9.5t49 -24.5t36 -34t24 -38l3 93h56v-716h-59v287q-9 -11 -24 -24t-36.5 -24 t-49 -18.5t-60.5 -7.5q-40 0 -77.5 13t-66.5 42.5t-46.5 78.5t-17.5 121q0 54 13.5 101.5t39.5 83t65 56t89 20.5z" />
<glyph unicode="r" horiz-adv-x="374" d="M314 501q11 0 24 -1t17 -3l-5 -54q-8 2 -19 2.5t-21 0.5q-36 0 -67 -15.5t-53 -44t-34.5 -69t-12.5 -91.5v-226h-59v496h55l2 -114q10 24 26 46t38 38t49.5 25.5t59.5 9.5z" />
<glyph unicode="s" horiz-adv-x="464" d="M68 80q25 -14 65.5 -27t97.5 -13q74 0 101.5 25t27.5 63q0 36 -22 59t-84 34l-54 10q-32 6 -58 15.5t-45.5 25t-30 38t-10.5 55.5q0 69 51 106.5t133 37.5q50 0 90.5 -11t64.5 -24l-21 -46q-22 11 -54.5 20t-76.5 9q-68 0 -99.5 -21.5t-31.5 -63.5q0 -19 5.5 -33 t18 -24.5t34 -18t53.5 -13.5l55 -10q30 -6 55.5 -16.5t44 -27t29 -39t10.5 -53.5q0 -68 -48.5 -108t-136.5 -40q-62 0 -112 15t-73 30z" />
<glyph unicode="t" horiz-adv-x="393" d="M305 47q14 0 26 1t21 3l6 -48q-10 -3 -30 -6t-44 -3q-80 0 -113.5 38t-33.5 106v306h-103v52h103v146l59 16v-162h151v-52h-151v-289q0 -34 7 -55t21 -33t34.5 -16t46.5 -4z" />
<glyph unicode="u" horiz-adv-x="565" d="M425 496h59v-496h-55l-2 96q-24 -48 -67.5 -78t-112.5 -30q-82 0 -124 46.5t-42 137.5v324h59v-316q0 -39 9 -65.5t25.5 -42.5t39 -23t49.5 -7q38 0 68 17t51 45t32 63.5t11 73.5v255z" />
<glyph unicode="v" horiz-adv-x="484" d="M210 0l-188 496h65l157 -436l155 436h62l-187 -496h-64z" />
<glyph unicode="w" horiz-adv-x="684" d="M22 496h63l122 -430l107 415h61l107 -415l121 430h59l-149 -496h-64l-106 408l-107 -408h-64z" />
<glyph unicode="x" horiz-adv-x="476" d="M367 496h63l-161 -233l181 -263h-69l-149 218l-143 -218h-64l176 258l-162 238h68l130 -194z" />
<glyph unicode="y" horiz-adv-x="490" d="M22 496h66l158 -405l161 405h61l-299 -716h-58l103 244z" />
<glyph unicode="z" horiz-adv-x="482" d="M56 41l297 409h-293v51h367v-42l-298 -409h301v-50h-374v41z" />
<glyph unicode="{" horiz-adv-x="337" d="M58 353q20 4 34 14.5t22.5 24.5t12 31t3.5 35v125q0 38 9 69t28.5 52.5t51 33.5t76.5 12v-51q-62 0 -84.5 -30.5t-22.5 -97.5v-116q0 -45 -19.5 -79.5t-50.5 -50.5q31 -14 50.5 -45.5t19.5 -83.5v-119q0 -31 5 -55t17 -40.5t32.5 -25t52.5 -8.5v-50q-48 0 -80 13t-51 36 t-26.5 55t-7.5 71v117q0 35 -16 65.5t-56 38.5v59z" />
<glyph unicode="|" horiz-adv-x="250" d="M97 -47v797h56v-797h-56z" />
<glyph unicode="}" horiz-adv-x="337" d="M278 294q-40 -8 -55.5 -38.5t-15.5 -65.5v-117q0 -39 -7.5 -71t-26.5 -55t-51 -36t-80 -13v50q63 0 85 33.5t22 95.5v119q0 52 19 83t51 45q-32 16 -51 51t-19 80v116q0 67 -22.5 97.5t-84.5 30.5v51q45 0 76.5 -12t51 -33.5t28.5 -52.5t9 -69v-125q0 -18 3.5 -35t12 -31 t22 -24.5t33.5 -14.5v-59z" />
<glyph unicode="~" d="M404 410q35 0 58.5 14.5t48.5 37.5l32 -36q-27 -29 -61 -49t-80 -20q-35 0 -63 13t-51 27q-18 11 -37 20.5t-44 9.5q-32 0 -64.5 -19t-62.5 -48l-32 39q13 13 30.5 27.5t38 26.5t44 19.5t48.5 7.5q35 0 63 -13t51 -27q18 -11 38 -20.5t43 -9.5z" />
<glyph unicode="&#xa1;" horiz-adv-x="280" d="M169 -204h-60v505h60v-505zM91 455q0 24 14 38.5t35 14.5t35 -14.5t14 -38.5q0 -25 -14 -39t-35 -14t-35 14.5t-14 38.5z" />
<glyph unicode="&#xa2;" d="M358 604q27 -1 50.5 -6t42 -12t32 -14t20.5 -13l-24 -44q-6 4 -18.5 10t-28.5 12t-35 10.5t-39 4.5v-416q43 1 74 12t48 19l21 -42q-14 -9 -51.5 -23.5t-91.5 -17.5v-97h-47v98q-46 4 -84 23t-65.5 51.5t-42.5 78.5t-15 106q0 57 15.5 102.5t43 78.5t65.5 52.5t83 24.5 v101h47v-99zM163 344q0 -52 11.5 -89t32 -61t47.5 -37t57 -18v411q-30 -5 -57 -18.5t-47.5 -38.5t-32 -61.5t-11.5 -87.5z" />
<glyph unicode="&#xa3;" d="M86 409h78q-3 26 -6 55t-3 46q0 43 12.5 80.5t39 65t66.5 43.5t95 16q32 0 59 -7t48.5 -16.5t36.5 -20.5t23 -19l-32 -43q-7 6 -19 14.5t-29.5 17t-39 14.5t-46.5 6q-41 0 -70 -12t-47 -33t-26.5 -48.5t-8.5 -58.5q0 -20 2.5 -48.5t5.5 -51.5h178v-52h-169 q5 -26 7.5 -59.5t2.5 -53.5q0 -35 -8.5 -64.5t-20.5 -53.5t-25 -42t-22 -29h348v-55h-416v47q10 12 24 31t27 44.5t22 57t9 69.5q0 26 -2.5 55t-6.5 53h-87v52z" />
<glyph unicode="&#xa4;" d="M444 460q38 -47 38 -117q0 -66 -36 -113l82 -83l-32 -33l-83 83q-49 -40 -118 -40q-71 0 -117 39l-82 -82l-32 33l82 81q-35 47 -35 114q0 68 38 117l-85 86l33 34l85 -88q49 37 114 37q67 0 114 -35l85 86l34 -33zM429 343q0 61 -36 99t-97 38q-60 0 -96.5 -38 t-36.5 -99q0 -63 36.5 -100t96.5 -37q61 0 97 37t36 100z" />
<glyph unicode="&#xa5;" d="M502 295h-177v-102h177v-51h-177v-142h-60v142h-170v51h170v102h-170v51h149l-200 357h72l181 -339l187 339h68l-207 -357h157v-51z" />
<glyph unicode="&#xa6;" horiz-adv-x="250" d="M97 423v327h56v-327h-56zM97 -220v328h56v-328h-56z" />
<glyph unicode="&#xa7;" horiz-adv-x="559" d="M473 292q0 -42 -19 -78t-51 -64q23 -20 36 -48t13 -70q0 -36 -13 -67t-37 -53.5t-59 -35t-78 -12.5q-32 0 -58 5t-46 12t-34 14.5t-21 11.5l22 45q18 -10 52 -23.5t85 -13.5q27 0 51 7t41.5 21.5t28 36.5t10.5 53q0 39 -23 65t-66 43l-92 37q-26 10 -49 24t-40 32.5 t-27.5 43t-10.5 55.5q0 40 18 77.5t53 67.5q-26 23 -37.5 50.5t-11.5 65.5q0 40 14.5 71.5t40 53t60 33t73.5 11.5q31 0 56.5 -5t45 -11.5t33.5 -14t23 -13.5l-21 -44q-8 4 -20.5 10.5t-29.5 12.5t-37.5 10t-44.5 4q-29 0 -53.5 -6.5t-43.5 -20.5t-29.5 -35t-10.5 -51 q0 -78 93 -115l87 -35q62 -25 94.5 -61.5t32.5 -95.5zM240 433q-26 11 -41 20q-22 -17 -40 -47t-18 -65q0 -42 26 -68.5t76 -46.5l74 -30q25 -10 45 -22q9 7 19 18t18.5 25t14.5 31.5t6 37.5q0 42 -27.5 69.5t-74.5 46.5z" />
<glyph unicode="&#xa8;" horiz-adv-x="493" d="M100 640q0 23 13.5 36.5t33.5 13.5t33 -13.5t13 -36.5t-13 -36.5t-33 -13.5t-33.5 13.5t-13.5 36.5zM300 640q0 23 13 36.5t33 13.5t33.5 -13.5t13.5 -36.5t-13.5 -36.5t-33.5 -13.5t-33 13.5t-13 36.5z" />
<glyph unicode="&#xa9;" horiz-adv-x="823" d="M776 353q0 -80 -27 -147.5t-75.5 -116t-115.5 -75.5t-146 -27q-80 0 -146.5 27t-115 75.5t-75.5 116t-27 147.5q0 79 27 146t75 116t115 76.5t148 27.5q79 0 146 -27.5t115 -76.5t75 -116t27 -146zM306 351q0 -75 31.5 -111t86.5 -36q41 0 65 8.5t32 12.5l15 -33 q-3 -3 -11.5 -8t-23 -10t-34.5 -9t-45 -4q-81 0 -123.5 50.5t-42.5 139.5q0 42 12 77t33.5 60.5t53 40t70.5 14.5q25 0 45 -4.5t34.5 -10.5t23 -11.5t11.5 -8.5l-19 -35q-8 5 -32.5 15.5t-62.5 10.5q-55 0 -87 -37.5t-32 -110.5zM725 352q0 69 -23.5 127.5t-65.5 101.5 t-99 67t-124 24q-68 0 -125.5 -24t-99.5 -67t-66 -101.5t-24 -127.5t23.5 -127.5t65.5 -101t99.5 -66.5t125.5 -24q67 0 124.5 24t99.5 66.5t65.5 101t23.5 127.5z" />
<glyph unicode="&#xaa;" horiz-adv-x="360" d="M255 553q-2 0 -9 1t-17.5 1.5t-22.5 1.5t-22 1q-39 0 -61.5 -14t-22.5 -45q0 -32 17 -45.5t47 -13.5q18 0 34 5t29 13.5t20.5 20.5t7.5 26v48zM261 410l-3 35q-16 -18 -44 -30.5t-56 -12.5q-45 0 -74 23t-29 73q0 47 33.5 71.5t93.5 24.5q9 0 20 -0.5t21.5 -1.5t19 -1.5 t12.5 -1.5v21q0 38 -20.5 54.5t-62.5 16.5q-28 0 -51 -6t-36 -14l-13 34q13 8 41.5 16t63.5 8q64 0 93.5 -29t29.5 -89v-191h-39zM300 312h-241v40h241v-40z" />
<glyph unicode="&#xab;" horiz-adv-x="469" d="M172 57l-115 193l115 193h60l-111 -193l111 -193h-60zM352 57l-115 193l115 193h60l-111 -193l111 -193h-60z" />
<glyph unicode="&#xac;" d="M100 452h391v-240h-54v188h-337v52z" />
<glyph unicode="&#xad;" horiz-adv-x="422" d="M67 309h287v-57h-287v57z" />
<glyph unicode="&#xae;" horiz-adv-x="823" d="M776 353q0 -80 -27 -147.5t-75.5 -116t-115.5 -75.5t-146 -27q-80 0 -146.5 27t-115 75.5t-75.5 116t-27 147.5q0 79 27 146t75 116t115 76.5t148 27.5q79 0 146 -27.5t115 -76.5t75 -116t27 -146zM725 352q0 68 -23.5 126.5t-65.5 101.5t-99 67.5t-124 24.5 q-68 0 -125.5 -24.5t-99.5 -67.5t-66 -101.5t-24 -126.5t23.5 -126.5t65.5 -101t99.5 -67t125.5 -24.5q67 0 124.5 24.5t99.5 67.5t65.5 101t23.5 126zM558 165h-52l-86 148h-82v-148h-48v373h125q34 0 58.5 -9t40 -24.5t22.5 -35.5t7 -42q0 -43 -22 -67.5t-54 -35.5z M495 426q0 32 -18.5 51t-59.5 19h-79v-141h76q38 0 59.5 19.5t21.5 51.5z" />
<glyph unicode="&#xaf;" horiz-adv-x="505" d="M111 613v53h284v-53h-284z" />
<glyph unicode="&#xb0;" horiz-adv-x="398" d="M333 557q0 -28 -10.5 -52t-28.5 -41t-42.5 -27t-52.5 -10q-60 0 -97 36t-37 93q0 27 10 50.5t28 41.5t42.5 28t53.5 10q59 0 96.5 -36t37.5 -93zM287 557q0 38 -25 63t-63 25q-39 0 -63.5 -25.5t-24.5 -63.5q0 -40 25 -64t64 -24q37 0 62 24t25 65z" />
<glyph unicode="&#xb1;" d="M75 400h193v196h56v-196h192v-54h-192v-196h-56v196h-193v54zM75 53h441v-53h-441v53z" />
<glyph unicode="&#xb2;" horiz-adv-x="424" d="M196 500q35 22 56 43t21 53q0 29 -19 46t-55 17t-59 -16.5t-36 -30.5l-30 28q6 9 17.5 20t27 20.5t36.5 16t47 6.5q60 0 92.5 -29.5t32.5 -75.5q0 -22 -8.5 -40.5t-22.5 -34t-33 -30t-40 -27.5q-18 -12 -34 -22.5t-28 -23.5t-19.5 -28t-7.5 -36h199v-44h-252v19 q0 29 6 51.5t19.5 42t35.5 37.5t54 38z" />
<glyph unicode="&#xb3;" horiz-adv-x="424" d="M140 529h54q40 0 62.5 19.5t22.5 53.5q0 29 -21 43.5t-57 14.5q-39 0 -64 -13t-37 -22l-23 32q17 16 50.5 31t78.5 15q34 0 57.5 -8.5t38 -22t21 -31.5t6.5 -37q0 -36 -18.5 -58.5t-43.5 -33.5q30 -10 51 -32.5t21 -62.5q0 -51 -39 -82t-113 -31q-35 0 -61 4.5t-46 10.5 l9 42q16 -5 39.5 -9.5t52.5 -4.5q56 0 80.5 19.5t24.5 51.5q0 31 -20 50t-70 19h-56v42z" />
<glyph unicode="&#xb4;" horiz-adv-x="514" d="M353 749l28 -56l-227 -105l-21 43z" />
<glyph unicode="&#xb5;" horiz-adv-x="564" d="M81 496h59v-315q0 -38 9 -64.5t25.5 -43t39 -24t49.5 -7.5q39 0 69 17t50.5 45.5t31.5 65t11 76.5v250h59v-496h-55l-2 96q-8 -16 -22 -35t-34.5 -35t-48.5 -27t-64 -11q-42 0 -73.5 18.5t-45.5 38.5v-265h-58v716z" />
<glyph unicode="&#xb6;" horiz-adv-x="567" d="M236 331q-44 0 -78.5 13.5t-57.5 38t-35 59t-12 75.5q0 40 13 74t37 59t58.5 39t78.5 14h230v-839h-58v783h-117v-783h-59v467z" />
<glyph unicode="&#xb7;" horiz-adv-x="251" d="M77 346q0 24 14 39t35 15t35 -14.5t14 -39.5q0 -24 -14.5 -38t-35.5 -14t-34.5 14t-13.5 38z" />
<glyph unicode="&#xb8;" horiz-adv-x="505" d="M260 -49q50 -4 74.5 -28t24.5 -62q0 -48 -34.5 -74t-88.5 -26q-42 0 -65.5 7t-28.5 9l11 40q17 -5 33.5 -9t41.5 -4q37 0 57 14t20 42q0 49 -74 49q-14 0 -30 -3l20 94h49z" />
<glyph unicode="&#xb9;" horiz-adv-x="424" d="M207 638l-102 -60l-21 38l130 80h44v-384h-51v326z" />
<glyph unicode="&#xba;" horiz-adv-x="381" d="M190 402q-69 0 -106 43.5t-37 114.5q0 35 10 64t29 50t45.5 33t58.5 12q69 0 106.5 -44.5t37.5 -114.5t-38.5 -114t-105.5 -44zM190 442q48 0 72 30.5t24 87.5t-24 88t-72 31q-45 0 -70 -31t-25 -88t23.5 -87.5t71.5 -30.5zM330 312h-278v40h278v-40z" />
<glyph unicode="&#xbb;" horiz-adv-x="469" d="M348 250l-111 193h60l115 -193l-115 -193h-60zM168 250l-111 193h60l115 -193l-115 -193h-60z" />
<glyph unicode="&#xbc;" horiz-adv-x="916" d="M604 690h61l-373 -690h-61zM208 638l-102 -60l-21 38l130 80h44v-384h-51v326zM771 227v-99h64v-43h-64v-83h-45v83h-179v29l159 272h53l-151 -258h118v99h45z" />
<glyph unicode="&#xbd;" horiz-adv-x="916" d="M602 690h61l-373 -690h-61zM207 638l-102 -60l-21 38l130 80h44v-384h-51v326zM691 190q35 22 56 43t21 53q0 29 -19 46t-55 17t-59 -16.5t-36 -30.5l-30 28q6 9 17.5 20t27 20.5t36.5 16t47 6.5q60 0 92.5 -29.5t32.5 -75.5q0 -22 -8.5 -40.5t-22.5 -34t-33 -30 t-40 -27.5q-18 -12 -34 -22.5t-28 -23.5t-19.5 -28t-7.5 -36h199v-44h-252v19q0 29 6 51.5t19.5 42t35.5 37.5t54 38z" />
<glyph unicode="&#xbe;" horiz-adv-x="916" d="M639 690h61l-373 -690h-61zM801 227v-99h64v-43h-64v-83h-45v83h-179v29l159 272h53l-151 -258h118v99h45zM155 529h54q40 0 62.5 19.5t22.5 53.5q0 29 -21 43.5t-57 14.5q-39 0 -64 -13t-37 -22l-23 32q17 16 50.5 31t78.5 15q34 0 57.5 -8.5t38 -22t21 -31.5t6.5 -37 q0 -36 -18.5 -58.5t-43.5 -33.5q30 -10 51 -32.5t21 -62.5q0 -51 -39 -82t-113 -31q-35 0 -61 4.5t-46 10.5l9 42q16 -5 39.5 -9.5t52.5 -4.5q56 0 80.5 19.5t24.5 51.5q0 31 -20 50t-70 19h-56v42z" />
<glyph unicode="&#xbf;" horiz-adv-x="528" d="M310 319q0 -38 -6 -66t-19 -51t-33.5 -45t-49.5 -48q-11 -10 -24.5 -23.5t-25 -31t-19 -38t-7.5 -44.5q0 -60 35 -96t108 -36q60 0 104.5 25.5t73.5 61.5l36 -37q-13 -17 -33 -35t-47 -34t-62 -26t-79 -10q-50 0 -87 14.5t-61.5 39.5t-36.5 58t-12 70q0 33 8.5 59.5 t22 48t30.5 39t34 32.5q21 18 38 34.5t29 36t19 44t7 58.5h57zM327 460q0 -24 -14 -38.5t-35 -14.5t-35 14t-14 39q0 24 14 38.5t35 14.5t35 -14.5t14 -38.5z" />
<glyph unicode="&#xc0;" horiz-adv-x="579" d="M431 196h-289l-63 -196h-60l235 703h70l236 -703h-65zM159 251h254l-126 380zM388 763l-233 98l26 58l227 -112z" />
<glyph unicode="&#xc1;" horiz-adv-x="579" d="M431 196h-289l-63 -196h-60l235 703h70l236 -703h-65zM159 251h254l-126 380zM159 831l230 76l18 -60l-233 -62z" />
<glyph unicode="&#xc2;" horiz-adv-x="579" d="M431 196h-289l-63 -196h-60l235 703h70l236 -703h-65zM159 251h254l-126 380zM424 762l-137 97l-137 -97l-33 34l142 123h56l142 -123z" />
<glyph unicode="&#xc3;" horiz-adv-x="579" d="M431 196h-289l-63 -196h-60l235 703h70l236 -703h-65zM159 251h254l-126 380zM213 886q25 0 44.5 -9t36 -20.5t32.5 -20.5t35 -9q47 0 47 58h53q0 -56 -26.5 -83.5t-74.5 -27.5q-25 0 -43.5 9t-35 20t-32.5 20t-34 9q-49 0 -49 -57h-53q0 54 25 82.5t75 28.5z" />
<glyph unicode="&#xc4;" horiz-adv-x="579" d="M431 196h-289l-63 -196h-60l235 703h70l236 -703h-65zM159 251h254l-126 380zM139 834q0 24 14 38t34 14q21 0 34.5 -14t13.5 -38q0 -23 -13.5 -37.5t-34.5 -14.5q-20 0 -34 14.5t-14 37.5zM337 834q0 24 14 38t34 14q21 0 35 -14t14 -38q0 -23 -14 -37.5t-35 -14.5 q-20 0 -34 14.5t-14 37.5z" />
<glyph unicode="&#xc5;" horiz-adv-x="579" d="M395 781q0 -35 -18.5 -60t-47.5 -36l231 -685h-65l-64 196h-289l-63 -196h-60l228 684q-31 10 -49.5 35.5t-18.5 60.5q0 24 8.5 43t23.5 33t35 21.5t42 7.5q47 0 77 -28.5t30 -75.5zM159 251h254l-126 380zM348 780q0 29 -17 45.5t-44 16.5q-25 0 -42.5 -16t-17.5 -46 q0 -28 17 -44.5t43 -16.5q27 0 44 16t17 45z" />
<glyph unicode="&#xc6;" horiz-adv-x="845" d="M388 703h416v-58h-324v-250h253v-58h-253v-279h334v-58h-396v203h-229l-106 -203h-66zM219 257h199v385z" />
<glyph unicode="&#xc7;" horiz-adv-x="623" d="M371 659q-113 0 -175 -78.5t-62 -232.5q0 -158 62 -230.5t175 -72.5q33 0 60.5 6t50.5 15t41 20t31 21l29 -45q-34 -29 -89.5 -51t-126.5 -22h-3l-8 -38q50 -4 74.5 -29t24.5 -61q0 -48 -34 -74t-89 -26q-42 0 -65.5 7t-28.5 9l10 43q17 -5 34 -9t42 -4q35 0 54 12t19 40 q0 22 -16 34.5t-53 12.5q-8 0 -17 -0.5t-17 -2.5l19 90q-126 15 -185.5 106t-59.5 249q0 82 18.5 149.5t56 115.5t94 74.5t132.5 26.5q41 0 75 -8t60 -19.5t44.5 -24t29.5 -22.5l-32 -45q-25 21 -68 42.5t-107 21.5z" />
<glyph unicode="&#xc8;" horiz-adv-x="522" d="M92 703h388v-58h-325v-250h254v-58h-254v-279h335v-58h-398v703zM393 763l-233 98l26 58l227 -112z" />
<glyph unicode="&#xc9;" horiz-adv-x="522" d="M92 703h388v-58h-325v-250h254v-58h-254v-279h335v-58h-398v703zM169 831l230 76l18 -60l-233 -62z" />
<glyph unicode="&#xca;" horiz-adv-x="522" d="M92 703h388v-58h-325v-250h254v-58h-254v-279h335v-58h-398v703zM432 762l-137 97l-137 -97l-33 34l142 123h56l142 -123z" />
<glyph unicode="&#xcb;" horiz-adv-x="522" d="M92 703h388v-58h-325v-250h254v-58h-254v-279h335v-58h-398v703zM141 834q0 24 14 38t34 14q21 0 34.5 -14t13.5 -38q0 -23 -13.5 -37.5t-34.5 -14.5q-20 0 -34 14.5t-14 37.5zM339 834q0 24 14 38t34 14q21 0 35 -14t14 -38q0 -23 -14 -37.5t-35 -14.5q-20 0 -34 14.5 t-14 37.5z" />
<glyph unicode="&#xcc;" horiz-adv-x="247" d="M155 0h-63v703h63v-703zM236 763l-233 98l26 58l227 -112z" />
<glyph unicode="&#xcd;" horiz-adv-x="247" d="M155 0h-63v703h63v-703zM-3 831l230 76l18 -60l-233 -62z" />
<glyph unicode="&#xce;" horiz-adv-x="247" d="M155 0h-63v703h63v-703zM262 762l-137 97l-137 -97l-33 34l142 123h56l142 -123z" />
<glyph unicode="&#xcf;" horiz-adv-x="247" d="M155 0h-63v703h63v-703zM-22 834q0 24 14 38t34 14q21 0 34.5 -14t13.5 -38q0 -23 -13.5 -37.5t-34.5 -14.5q-20 0 -34 14.5t-14 37.5zM176 834q0 24 14 38t34 14q21 0 35 -14t14 -38q0 -23 -14 -37.5t-35 -14.5q-20 0 -34 14.5t-14 37.5z" />
<glyph unicode="&#xd0;" horiz-adv-x="689" d="M22 385h77v318h209q153 0 233 -92t80 -260q0 -85 -22 -150.5t-62.5 -110t-98.5 -67.5t-130 -23h-209v331h-77v54zM308 58q115 0 181 74.5t66 219.5q0 151 -66.5 222t-180.5 71h-146v-260h162v-54h-162v-273h146z" />
<glyph unicode="&#xd1;" horiz-adv-x="660" d="M153 599v-599h-61v703h66l349 -596v596h61v-703h-61zM260 886q25 0 44.5 -9t36 -20.5t32.5 -20.5t35 -9q47 0 47 58h53q0 -56 -26.5 -83.5t-74.5 -27.5q-25 0 -43.5 9t-35 20t-32.5 20t-34 9q-49 0 -49 -57h-53q0 54 25 82.5t75 28.5z" />
<glyph unicode="&#xd2;" horiz-adv-x="734" d="M69 352q0 82 19.5 149.5t57.5 115.5t94 74.5t128 26.5t127.5 -26.5t93 -74.5t57 -115.5t19.5 -149.5t-19.5 -149.5t-57 -116t-93.5 -75t-128 -26.5t-128 26.5t-93.5 75t-57 116t-19.5 149.5zM135 352q0 -70 14 -126.5t43 -97t72.5 -62.5t102.5 -22t102.5 22t72.5 62.5 t43 97t14 126.5t-14 126.5t-43 96.5t-72.5 62t-102.5 22t-102.5 -22t-72.5 -62t-43 -96.5t-14 -126.5zM485 763l-233 98l26 58l227 -112z" />
<glyph unicode="&#xd3;" horiz-adv-x="734" d="M69 352q0 82 19.5 149.5t57.5 115.5t94 74.5t128 26.5t127.5 -26.5t93 -74.5t57 -115.5t19.5 -149.5t-19.5 -149.5t-57 -116t-93.5 -75t-128 -26.5t-128 26.5t-93.5 75t-57 116t-19.5 149.5zM135 352q0 -70 14 -126.5t43 -97t72.5 -62.5t102.5 -22t102.5 22t72.5 62.5 t43 97t14 126.5t-14 126.5t-43 96.5t-72.5 62t-102.5 22t-102.5 -22t-72.5 -62t-43 -96.5t-14 -126.5zM242 831l230 76l18 -60l-233 -62z" />
<glyph unicode="&#xd4;" horiz-adv-x="734" d="M69 352q0 82 19.5 149.5t57.5 115.5t94 74.5t128 26.5t127.5 -26.5t93 -74.5t57 -115.5t19.5 -149.5t-19.5 -149.5t-57 -116t-93.5 -75t-128 -26.5t-128 26.5t-93.5 75t-57 116t-19.5 149.5zM135 352q0 -70 14 -126.5t43 -97t72.5 -62.5t102.5 -22t102.5 22t72.5 62.5 t43 97t14 126.5t-14 126.5t-43 96.5t-72.5 62t-102.5 22t-102.5 -22t-72.5 -62t-43 -96.5t-14 -126.5zM510 762l-137 97l-137 -97l-33 34l142 123h56l142 -123z" />
<glyph unicode="&#xd5;" horiz-adv-x="734" d="M69 352q0 82 19.5 149.5t57.5 115.5t94 74.5t128 26.5t127.5 -26.5t93 -74.5t57 -115.5t19.5 -149.5t-19.5 -149.5t-57 -116t-93.5 -75t-128 -26.5t-128 26.5t-93.5 75t-57 116t-19.5 149.5zM135 352q0 -70 14 -126.5t43 -97t72.5 -62.5t102.5 -22t102.5 22t72.5 62.5 t43 97t14 126.5t-14 126.5t-43 96.5t-72.5 62t-102.5 22t-102.5 -22t-72.5 -62t-43 -96.5t-14 -126.5zM301 886q25 0 44.5 -9t36 -20.5t32.5 -20.5t35 -9q47 0 47 58h53q0 -56 -26.5 -83.5t-74.5 -27.5q-25 0 -43.5 9t-35 20t-32.5 20t-34 9q-49 0 -49 -57h-53q0 54 25 82.5 t75 28.5z" />
<glyph unicode="&#xd6;" horiz-adv-x="734" d="M69 352q0 82 19.5 149.5t57.5 115.5t94 74.5t128 26.5t127.5 -26.5t93 -74.5t57 -115.5t19.5 -149.5t-19.5 -149.5t-57 -116t-93.5 -75t-128 -26.5t-128 26.5t-93.5 75t-57 116t-19.5 149.5zM135 352q0 -70 14 -126.5t43 -97t72.5 -62.5t102.5 -22t102.5 22t72.5 62.5 t43 97t14 126.5t-14 126.5t-43 96.5t-72.5 62t-102.5 22t-102.5 -22t-72.5 -62t-43 -96.5t-14 -126.5zM225 834q0 24 14 38t34 14q21 0 34.5 -14t13.5 -38q0 -23 -13.5 -37.5t-34.5 -14.5q-20 0 -34 14.5t-14 37.5zM423 834q0 24 14 38t34 14q21 0 35 -14t14 -38 q0 -23 -14 -37.5t-35 -14.5q-20 0 -34 14.5t-14 37.5z" />
<glyph unicode="&#xd7;" d="M152 533l144 -158l144 156l39 -35l-148 -157l145 -155l-38 -35l-143 154l-143 -153l-38 35l145 155l-146 157z" />
<glyph unicode="&#xd8;" horiz-adv-x="734" d="M157 73q-44 48 -66 119.5t-22 159.5q0 82 19.5 149.5t57 115.5t93.5 74.5t128 26.5q52 0 94 -14t77 -40l55 86l44 -27l-60 -93q44 -48 66 -119t22 -159q0 -82 -19.5 -149.5t-57 -116t-93.5 -75t-128 -26.5q-51 0 -93.5 13.5t-77.5 39.5l-50 -79l-44 28zM135 352 q0 -70 14.5 -127t43.5 -97l313 485q-27 22 -61.5 34t-77.5 12q-59 0 -102.5 -22t-72.5 -62t-43 -96.5t-14 -126.5zM599 352q0 141 -58 222l-311 -485q54 -45 137 -45q59 0 102.5 22t72.5 62.5t43 97t14 126.5z" />
<glyph unicode="&#xd9;" horiz-adv-x="654" d="M325 -16q-72 0 -118.5 21.5t-74.5 60.5t-39 92.5t-11 117.5v427h63v-413q0 -71 11 -119t33.5 -76.5t57 -40.5t80.5 -12t80 12t56.5 40.5t34 76t11.5 118.5v414h63v-428q0 -64 -11.5 -117.5t-40 -92t-76 -60t-119.5 -21.5zM432 763l-233 98l26 58l227 -112z" />
<glyph unicode="&#xda;" horiz-adv-x="654" d="M325 -16q-72 0 -118.5 21.5t-74.5 60.5t-39 92.5t-11 117.5v427h63v-413q0 -71 11 -119t33.5 -76.5t57 -40.5t80.5 -12t80 12t56.5 40.5t34 76t11.5 118.5v414h63v-428q0 -64 -11.5 -117.5t-40 -92t-76 -60t-119.5 -21.5zM222 831l230 76l18 -60l-233 -62z" />
<glyph unicode="&#xdb;" horiz-adv-x="654" d="M325 -16q-72 0 -118.5 21.5t-74.5 60.5t-39 92.5t-11 117.5v427h63v-413q0 -71 11 -119t33.5 -76.5t57 -40.5t80.5 -12t80 12t56.5 40.5t34 76t11.5 118.5v414h63v-428q0 -64 -11.5 -117.5t-40 -92t-76 -60t-119.5 -21.5zM474 762l-137 97l-137 -97l-33 34l142 123h56 l142 -123z" />
<glyph unicode="&#xdc;" horiz-adv-x="654" d="M325 -16q-72 0 -118.5 21.5t-74.5 60.5t-39 92.5t-11 117.5v427h63v-413q0 -71 11 -119t33.5 -76.5t57 -40.5t80.5 -12t80 12t56.5 40.5t34 76t11.5 118.5v414h63v-428q0 -64 -11.5 -117.5t-40 -92t-76 -60t-119.5 -21.5zM186 834q0 24 14 38t34 14q21 0 34.5 -14 t13.5 -38q0 -23 -13.5 -37.5t-34.5 -14.5q-20 0 -34 14.5t-14 37.5zM384 834q0 24 14 38t34 14q21 0 35 -14t14 -38q0 -23 -14 -37.5t-35 -14.5q-20 0 -34 14.5t-14 37.5z" />
<glyph unicode="&#xdd;" horiz-adv-x="544" d="M238 307l-221 396h72l183 -336l187 336h68l-226 -394v-309h-63v307zM178 831l230 76l18 -60l-233 -62z" />
<glyph unicode="&#xde;" horiz-adv-x="562" d="M511 358q0 -48 -16 -87.5t-45 -67.5t-71 -43.5t-94 -15.5h-131v-144h-62v703h62v-131h135q51 0 92 -14.5t70 -42t44.5 -67.5t15.5 -90zM448 358q0 81 -42.5 119.5t-120.5 38.5h-131v-316h127q81 0 124 41t43 117z" />
<glyph unicode="&#xdf;" horiz-adv-x="606" d="M384 38q57 0 86.5 28.5t29.5 75.5q0 40 -23 65.5t-80 52.5q-31 15 -52 27.5t-33.5 26t-18 28.5t-5.5 35q0 37 21 64t47 52q23 23 41 47.5t18 59.5q0 52 -36.5 78.5t-94.5 26.5q-80 0 -111.5 -51.5t-31.5 -148.5v-505h-60v509q0 116 48 182t156 66q47 0 82 -12t58.5 -32.5 t35.5 -48.5t12 -60q0 -42 -17.5 -71.5t-44.5 -57.5q-25 -25 -44.5 -46t-19.5 -48q0 -15 7.5 -26t20 -20t29.5 -17t36 -18q30 -16 52 -31.5t37 -33.5t22.5 -40.5t7.5 -52.5q0 -32 -11 -60t-33 -49t-54.5 -33.5t-75.5 -12.5q-21 0 -42 3t-40 8t-33.5 11t-22.5 12l18 45 q25 -13 54.5 -20.5t64.5 -7.5z" />
<glyph unicode="&#xe0;" horiz-adv-x="518" d="M381 240q-8 2 -22.5 4.5t-33.5 4.5t-41 3.5t-43 1.5q-74 0 -103.5 -31t-29.5 -85q0 -52 33 -77t86 -25q31 0 59 11.5t49 30t33.5 42.5t12.5 49v71zM204 -12q-26 0 -53.5 7.5t-49.5 24.5t-36 46t-14 71q0 72 46 117.5t139 45.5q22 0 45 -1.5t42.5 -4t34.5 -5t23 -3.5v49 q0 65 -37 93t-106 28q-50 0 -83 -11.5t-54 -22.5l-19 44q19 11 62 26.5t109 15.5q88 0 136 -41.5t48 -126.5v-340h-53l-2 76q-15 -25 -35 -42t-43.5 -27t-49 -14.5t-50.5 -4.5zM361 588l-226 105l28 56l220 -118z" />
<glyph unicode="&#xe1;" horiz-adv-x="518" d="M381 240q-8 2 -22.5 4.5t-33.5 4.5t-41 3.5t-43 1.5q-74 0 -103.5 -31t-29.5 -85q0 -52 33 -77t86 -25q31 0 59 11.5t49 30t33.5 42.5t12.5 49v71zM204 -12q-26 0 -53.5 7.5t-49.5 24.5t-36 46t-14 71q0 72 46 117.5t139 45.5q22 0 45 -1.5t42.5 -4t34.5 -5t23 -3.5v49 q0 65 -37 93t-106 28q-50 0 -83 -11.5t-54 -22.5l-19 44q19 11 62 26.5t109 15.5q88 0 136 -41.5t48 -126.5v-340h-53l-2 76q-15 -25 -35 -42t-43.5 -27t-49 -14.5t-50.5 -4.5zM353 749l28 -56l-227 -105l-21 43z" />
<glyph unicode="&#xe2;" horiz-adv-x="518" d="M381 240q-8 2 -22.5 4.5t-33.5 4.5t-41 3.5t-43 1.5q-74 0 -103.5 -31t-29.5 -85q0 -52 33 -77t86 -25q31 0 59 11.5t49 30t33.5 42.5t12.5 49v71zM204 -12q-26 0 -53.5 7.5t-49.5 24.5t-36 46t-14 71q0 72 46 117.5t139 45.5q22 0 45 -1.5t42.5 -4t34.5 -5t23 -3.5v49 q0 65 -37 93t-106 28q-50 0 -83 -11.5t-54 -22.5l-19 44q19 11 62 26.5t109 15.5q88 0 136 -41.5t48 -126.5v-340h-53l-2 76q-15 -25 -35 -42t-43.5 -27t-49 -14.5t-50.5 -4.5zM100 612l135 126h50l135 -126l-34 -32l-126 98l-126 -98z" />
<glyph unicode="&#xe3;" horiz-adv-x="518" d="M381 240q-8 2 -22.5 4.5t-33.5 4.5t-41 3.5t-43 1.5q-74 0 -103.5 -31t-29.5 -85q0 -52 33 -77t86 -25q31 0 59 11.5t49 30t33.5 42.5t12.5 49v71zM204 -12q-26 0 -53.5 7.5t-49.5 24.5t-36 46t-14 71q0 72 46 117.5t139 45.5q22 0 45 -1.5t42.5 -4t34.5 -5t23 -3.5v49 q0 65 -37 93t-106 28q-50 0 -83 -11.5t-54 -22.5l-19 44q19 11 62 26.5t109 15.5q88 0 136 -41.5t48 -126.5v-340h-53l-2 76q-15 -25 -35 -42t-43.5 -27t-49 -14.5t-50.5 -4.5zM183 694q25 0 43.5 -9t34 -20.5t31 -20.5t34.5 -9q25 0 35 15.5t10 42.5h53q0 -54 -25 -82.5 t-73 -28.5q-24 0 -42 9t-34.5 20t-31.5 20t-33 9q-25 0 -35.5 -15t-10.5 -42h-53q0 52 24.5 81.5t72.5 29.5z" />
<glyph unicode="&#xe4;" horiz-adv-x="518" d="M381 240q-8 2 -22.5 4.5t-33.5 4.5t-41 3.5t-43 1.5q-74 0 -103.5 -31t-29.5 -85q0 -52 33 -77t86 -25q31 0 59 11.5t49 30t33.5 42.5t12.5 49v71zM204 -12q-26 0 -53.5 7.5t-49.5 24.5t-36 46t-14 71q0 72 46 117.5t139 45.5q22 0 45 -1.5t42.5 -4t34.5 -5t23 -3.5v49 q0 65 -37 93t-106 28q-50 0 -83 -11.5t-54 -22.5l-19 44q19 11 62 26.5t109 15.5q88 0 136 -41.5t48 -126.5v-340h-53l-2 76q-15 -25 -35 -42t-43.5 -27t-49 -14.5t-50.5 -4.5zM112 640q0 23 13.5 36.5t33.5 13.5t33 -13.5t13 -36.5t-13 -36.5t-33 -13.5t-33.5 13.5 t-13.5 36.5zM312 640q0 23 13 36.5t33 13.5t33.5 -13.5t13.5 -36.5t-13.5 -36.5t-33.5 -13.5t-33 13.5t-13 36.5z" />
<glyph unicode="&#xe5;" horiz-adv-x="518" d="M381 240q-8 2 -22.5 4.5t-33.5 4.5t-41 3.5t-43 1.5q-74 0 -103.5 -31t-29.5 -85q0 -52 33 -77t86 -25q31 0 59 11.5t49 30t33.5 42.5t12.5 49v71zM204 -12q-26 0 -53.5 7.5t-49.5 24.5t-36 46t-14 71q0 72 46 117.5t139 45.5q22 0 45 -1.5t42.5 -4t34.5 -5t23 -3.5v49 q0 65 -37 93t-106 28q-50 0 -83 -11.5t-54 -22.5l-19 44q19 11 62 26.5t109 15.5q88 0 136 -41.5t48 -126.5v-340h-53l-2 76q-15 -25 -35 -42t-43.5 -27t-49 -14.5t-50.5 -4.5zM366 674q0 -48 -29.5 -75.5t-75.5 -27.5q-47 0 -77 27.5t-30 74.5q0 48 31 75.5t76 27.5 q47 0 76 -27.5t29 -74.5zM321 673q0 29 -17 45.5t-44 16.5q-25 0 -42.5 -16t-17.5 -46q0 -29 17 -45.5t43 -16.5q27 0 44 16.5t17 45.5z" />
<glyph unicode="&#xe6;" horiz-adv-x="862" d="M621 43q29 0 50.5 3t37 7.5t26 9t18.5 7.5l17 -46q-12 -8 -49.5 -21.5t-105.5 -13.5q-48 0 -82 11.5t-58 28.5t-38.5 37.5t-23.5 38.5q-8 -17 -22.5 -37.5t-38 -38t-58 -29.5t-82.5 -12q-72 0 -116.5 38.5t-44.5 110.5q0 78 49.5 119.5t140.5 41.5q29 0 67.5 -3t71.5 -9 v47q0 59 -37.5 91t-101.5 32q-50 0 -86.5 -12t-53.5 -22l-19 44q8 6 22.5 13t36 13.5t50 11t65.5 4.5q63 0 103.5 -27.5t62.5 -70.5q12 18 28 36t37 32t48 22.5t60 8.5q107 0 157 -67.5t50 -192.5v-17h-364q2 -42 13 -76.5t33 -59.5t55.5 -39t81.5 -14zM380 238 q-5 1 -20.5 4t-35.5 5t-42 4t-41 2q-68 0 -100.5 -27.5t-32.5 -88.5q0 -49 31.5 -75t87.5 -26q33 0 61 10t48.5 27.5t32 41t11.5 50.5v73zM742 280q-5 86 -39.5 131t-107.5 45q-72 0 -111.5 -47.5t-44.5 -128.5h303z" />
<glyph unicode="&#xe7;" horiz-adv-x="470" d="M123 249q0 -53 12.5 -92t34 -64t52 -37t66.5 -12q46 0 75 9.5t47 18.5l22 -44q-14 -11 -49.5 -25t-98.5 -14h-1l-8 -38q50 -4 74.5 -28t24.5 -62q0 -48 -34.5 -74t-88.5 -26q-42 0 -65.5 7t-28.5 9l11 40q17 -5 33.5 -9t41.5 -4q37 0 57 14t20 42q0 49 -74 49 q-14 0 -30 -3l18 88q-83 14 -127.5 79.5t-44.5 174.5q0 58 15.5 106t44.5 82.5t70 53.5t93 19q31 0 55.5 -5t43 -12.5t30.5 -16t20 -14.5l-27 -44q-7 4 -18 10.5t-26 12.5t-34 10t-41 4q-72 0 -118.5 -50.5t-46.5 -154.5z" />
<glyph unicode="&#xe8;" horiz-adv-x="545" d="M307 43q47 0 78.5 9.5t50.5 17.5l17 -46q-15 -10 -55 -22.5t-97 -12.5q-121 0 -180 67.5t-59 191.5q0 59 15 107.5t43 82.5t68.5 52.5t91.5 18.5q48 0 86 -14.5t64.5 -47t40.5 -83t14 -122.5v-10h-364q5 -89 49.5 -139t136.5 -50zM426 280q-6 85 -40 130.5t-107 45.5 q-75 0 -112 -46t-45 -130h304zM396 588l-226 105l28 56l220 -118z" />
<glyph unicode="&#xe9;" horiz-adv-x="545" d="M307 43q47 0 78.5 9.5t50.5 17.5l17 -46q-15 -10 -55 -22.5t-97 -12.5q-121 0 -180 67.5t-59 191.5q0 59 15 107.5t43 82.5t68.5 52.5t91.5 18.5q48 0 86 -14.5t64.5 -47t40.5 -83t14 -122.5v-10h-364q5 -89 49.5 -139t136.5 -50zM426 280q-6 85 -40 130.5t-107 45.5 q-75 0 -112 -46t-45 -130h304zM379 749l28 -56l-227 -105l-21 43z" />
<glyph unicode="&#xea;" horiz-adv-x="545" d="M307 43q47 0 78.5 9.5t50.5 17.5l17 -46q-15 -10 -55 -22.5t-97 -12.5q-121 0 -180 67.5t-59 191.5q0 59 15 107.5t43 82.5t68.5 52.5t91.5 18.5q48 0 86 -14.5t64.5 -47t40.5 -83t14 -122.5v-10h-364q5 -89 49.5 -139t136.5 -50zM426 280q-6 85 -40 130.5t-107 45.5 q-75 0 -112 -46t-45 -130h304zM125 612l135 126h50l135 -126l-34 -32l-126 98l-126 -98z" />
<glyph unicode="&#xeb;" horiz-adv-x="545" d="M307 43q47 0 78.5 9.5t50.5 17.5l17 -46q-15 -10 -55 -22.5t-97 -12.5q-121 0 -180 67.5t-59 191.5q0 59 15 107.5t43 82.5t68.5 52.5t91.5 18.5q48 0 86 -14.5t64.5 -47t40.5 -83t14 -122.5v-10h-364q5 -89 49.5 -139t136.5 -50zM426 280q-6 85 -40 130.5t-107 45.5 q-75 0 -112 -46t-45 -130h304zM138 640q0 23 13.5 36.5t33.5 13.5t33 -13.5t13 -36.5t-13 -36.5t-33 -13.5t-33.5 13.5t-13.5 36.5zM338 640q0 23 13 36.5t33 13.5t33.5 -13.5t13.5 -36.5t-13.5 -36.5t-33.5 -13.5t-33 13.5t-13 36.5z" />
<glyph unicode="&#xec;" horiz-adv-x="229" d="M84 496h60v-496h-60v496zM219 588l-226 105l28 56l220 -118z" />
<glyph unicode="&#xed;" horiz-adv-x="229" d="M84 496h60v-496h-60v496zM221 749l28 -56l-227 -105l-21 43z" />
<glyph unicode="&#xee;" horiz-adv-x="229" d="M84 496h60v-496h-60v496zM-40 612l135 126h50l135 -126l-34 -32l-126 98l-126 -98z" />
<glyph unicode="&#xef;" horiz-adv-x="229" d="M84 496h60v-496h-60v496zM-32 640q0 23 13.5 36.5t33.5 13.5t33 -13.5t13 -36.5t-13 -36.5t-33 -13.5t-33.5 13.5t-13.5 36.5zM168 640q0 23 13 36.5t33 13.5t33.5 -13.5t13.5 -36.5t-13.5 -36.5t-33.5 -13.5t-33 13.5t-13 36.5z" />
<glyph unicode="&#xf0;" horiz-adv-x="563" d="M354 667q77 -63 114 -155t37 -207q0 -74 -12.5 -133t-39.5 -100t-69 -63t-101 -22q-111 0 -165 65t-54 178q0 54 15.5 97.5t43.5 73.5t66 46t82 16q60 0 99 -22t67 -62q-5 83 -35.5 144.5t-89.5 108.5l-104 -87l-31 35l97 79q-27 18 -58 32.5t-64 25.5l16 47 q43 -14 81.5 -32.5t66.5 -38.5l89 74l30 -36zM283 41q78 0 116.5 50t38.5 144q0 38 -10.5 70t-31 55.5t-50 36.5t-67.5 13q-79 0 -117 -50t-38 -131q0 -94 39 -141t120 -47z" />
<glyph unicode="&#xf1;" horiz-adv-x="562" d="M140 0h-59v496h55l2 -98q23 47 67.5 79t107.5 32q86 0 129 -47t43 -138v-324h-59v316q0 39 -9.5 66t-26 43t-39 23t-49.5 7q-38 0 -68 -17.5t-51 -45.5t-32 -64t-11 -73v-255zM214 694q25 0 43.5 -9t34 -20.5t31 -20.5t34.5 -9q25 0 35 15.5t10 42.5h53q0 -54 -25 -82.5 t-73 -28.5q-24 0 -42 9t-34.5 20t-31.5 20t-33 9q-25 0 -35.5 -15t-10.5 -42h-53q0 52 24.5 81.5t72.5 29.5z" />
<glyph unicode="&#xf2;" horiz-adv-x="581" d="M290 43q86 0 127 55.5t41 150.5q0 93 -41.5 149.5t-126.5 56.5q-84 0 -125.5 -56.5t-41.5 -149.5q0 -95 41 -150.5t126 -55.5zM290 509q57 0 99.5 -19.5t71 -54t43 -82t14.5 -104.5t-15 -105t-43.5 -82.5t-71.5 -53.5t-98 -19q-56 0 -99 19t-71.5 53.5t-43 82.5 t-14.5 105t15 104.5t43.5 82t71 54t98.5 19.5zM405 588l-226 105l28 56l220 -118z" />
<glyph unicode="&#xf3;" horiz-adv-x="581" d="M290 43q86 0 127 55.5t41 150.5q0 93 -41.5 149.5t-126.5 56.5q-84 0 -125.5 -56.5t-41.5 -149.5q0 -95 41 -150.5t126 -55.5zM290 509q57 0 99.5 -19.5t71 -54t43 -82t14.5 -104.5t-15 -105t-43.5 -82.5t-71.5 -53.5t-98 -19q-56 0 -99 19t-71.5 53.5t-43 82.5 t-14.5 105t15 104.5t43.5 82t71 54t98.5 19.5zM389 749l28 -56l-227 -105l-21 43z" />
<glyph unicode="&#xf4;" horiz-adv-x="581" d="M290 43q86 0 127 55.5t41 150.5q0 93 -41.5 149.5t-126.5 56.5q-84 0 -125.5 -56.5t-41.5 -149.5q0 -95 41 -150.5t126 -55.5zM290 509q57 0 99.5 -19.5t71 -54t43 -82t14.5 -104.5t-15 -105t-43.5 -82.5t-71.5 -53.5t-98 -19q-56 0 -99 19t-71.5 53.5t-43 82.5 t-14.5 105t15 104.5t43.5 82t71 54t98.5 19.5zM138 612l135 126h50l135 -126l-34 -32l-126 98l-126 -98z" />
<glyph unicode="&#xf5;" horiz-adv-x="581" d="M290 43q86 0 127 55.5t41 150.5q0 93 -41.5 149.5t-126.5 56.5q-84 0 -125.5 -56.5t-41.5 -149.5q0 -95 41 -150.5t126 -55.5zM290 509q57 0 99.5 -19.5t71 -54t43 -82t14.5 -104.5t-15 -105t-43.5 -82.5t-71.5 -53.5t-98 -19q-56 0 -99 19t-71.5 53.5t-43 82.5 t-14.5 105t15 104.5t43.5 82t71 54t98.5 19.5zM222 694q25 0 43.5 -9t34 -20.5t31 -20.5t34.5 -9q25 0 35 15.5t10 42.5h53q0 -54 -25 -82.5t-73 -28.5q-24 0 -42 9t-34.5 20t-31.5 20t-33 9q-25 0 -35.5 -15t-10.5 -42h-53q0 52 24.5 81.5t72.5 29.5z" />
<glyph unicode="&#xf6;" horiz-adv-x="581" d="M290 43q86 0 127 55.5t41 150.5q0 93 -41.5 149.5t-126.5 56.5q-84 0 -125.5 -56.5t-41.5 -149.5q0 -95 41 -150.5t126 -55.5zM290 509q57 0 99.5 -19.5t71 -54t43 -82t14.5 -104.5t-15 -105t-43.5 -82.5t-71.5 -53.5t-98 -19q-56 0 -99 19t-71.5 53.5t-43 82.5 t-14.5 105t15 104.5t43.5 82t71 54t98.5 19.5zM148 640q0 23 13.5 36.5t33.5 13.5t33 -13.5t13 -36.5t-13 -36.5t-33 -13.5t-33.5 13.5t-13.5 36.5zM348 640q0 23 13 36.5t33 13.5t33.5 -13.5t13.5 -36.5t-13.5 -36.5t-33.5 -13.5t-33 13.5t-13 36.5z" />
<glyph unicode="&#xf7;" d="M296 126q-21 0 -35 14.5t-14 37.5t14 37.5t35 14.5q20 0 34 -14.5t14 -37.5t-14 -37.5t-34 -14.5zM247 511q0 23 14 37.5t35 14.5q20 0 34 -14.5t14 -37.5q0 -22 -14 -37t-34 -15q-21 0 -35 14.5t-14 37.5zM85 373h422v-53h-422v53z" />
<glyph unicode="&#xf8;" horiz-adv-x="581" d="M290 509q76 0 129 -36l46 66l38 -26l-49 -70q32 -35 48 -84.5t16 -109.5q0 -57 -15 -105t-43.5 -82.5t-71.5 -53.5t-98 -19q-38 0 -70.5 9t-58.5 26l-43 -62l-39 25l47 67q-32 35 -48 85t-16 110q0 57 15 104.5t43.5 82t71 54t98.5 19.5zM123 249q0 -93 37 -145l226 323 q-39 28 -96 28q-84 0 -125.5 -56t-41.5 -150zM290 42q84 0 125 54.5t43 146.5q0 15 -1 29.5t-3 28.5q-9 54 -35 92l-226 -323q39 -28 97 -28z" />
<glyph unicode="&#xf9;" horiz-adv-x="565" d="M437 496h59v-496h-55l-2 96q-24 -48 -67.5 -78t-112.5 -30q-82 0 -124 46.5t-42 137.5v324h59v-316q0 -39 9 -65.5t25.5 -42.5t39 -23t49.5 -7q38 0 68 17t51 45t32 63.5t11 73.5v255zM377 588l-226 105l28 56l220 -118z" />
<glyph unicode="&#xfa;" horiz-adv-x="565" d="M437 496h59v-496h-55l-2 96q-24 -48 -67.5 -78t-112.5 -30q-82 0 -124 46.5t-42 137.5v324h59v-316q0 -39 9 -65.5t25.5 -42.5t39 -23t49.5 -7q38 0 68 17t51 45t32 63.5t11 73.5v255zM393 749l28 -56l-227 -105l-21 43z" />
<glyph unicode="&#xfb;" horiz-adv-x="565" d="M437 496h59v-496h-55l-2 96q-24 -48 -67.5 -78t-112.5 -30q-82 0 -124 46.5t-42 137.5v324h59v-316q0 -39 9 -65.5t25.5 -42.5t39 -23t49.5 -7q38 0 68 17t51 45t32 63.5t11 73.5v255zM128 612l135 126h50l135 -126l-34 -32l-126 98l-126 -98z" />
<glyph unicode="&#xfc;" horiz-adv-x="565" d="M437 496h59v-496h-55l-2 96q-24 -48 -67.5 -78t-112.5 -30q-82 0 -124 46.5t-42 137.5v324h59v-316q0 -39 9 -65.5t25.5 -42.5t39 -23t49.5 -7q38 0 68 17t51 45t32 63.5t11 73.5v255zM137 640q0 23 13.5 36.5t33.5 13.5t33 -13.5t13 -36.5t-13 -36.5t-33 -13.5 t-33.5 13.5t-13.5 36.5zM337 640q0 23 13 36.5t33 13.5t33.5 -13.5t13.5 -36.5t-13.5 -36.5t-33.5 -13.5t-33 13.5t-13 36.5z" />
<glyph unicode="&#xfd;" horiz-adv-x="490" d="M22 496h66l158 -405l161 405h61l-299 -716h-58l103 244zM370 749l28 -56l-227 -105l-21 43z" />
<glyph unicode="&#xfe;" horiz-adv-x="579" d="M140 401q22 45 66 76.5t108 31.5q51 0 89 -19.5t63.5 -53.5t38 -80.5t12.5 -100.5q0 -73 -19.5 -123t-50.5 -81t-69.5 -44.5t-77.5 -13.5q-49 0 -89.5 17t-70.5 41v-271h-59v970h59v-349zM305 455q-39 0 -69.5 -18t-52 -47.5t-32.5 -67t-11 -77.5v-133q9 -9 24.5 -20.5 t35 -21.5t42.5 -17t47 -7q77 0 122 49.5t45 159.5q0 43 -9 79.5t-27.5 63.5t-47 42t-67.5 15z" />
<glyph unicode="&#xff;" horiz-adv-x="490" d="M22 496h66l158 -405l161 405h61l-299 -716h-58l103 244zM105 640q0 23 13.5 36.5t33.5 13.5t33 -13.5t13 -36.5t-13 -36.5t-33 -13.5t-33.5 13.5t-13.5 36.5zM305 640q0 23 13 36.5t33 13.5t33.5 -13.5t13.5 -36.5t-13.5 -36.5t-33.5 -13.5t-33 13.5t-13 36.5z" />
<glyph unicode="&#x100;" horiz-adv-x="579" d="M431 196h-289l-63 -196h-60l235 703h70l236 -703h-65zM159 251h254l-126 380zM139 799v56h294v-56h-294z" />
<glyph unicode="&#x101;" horiz-adv-x="518" d="M381 240q-8 2 -22.5 4.5t-33.5 4.5t-41 3.5t-43 1.5q-74 0 -103.5 -31t-29.5 -85q0 -52 33 -77t86 -25q31 0 59 11.5t49 30t33.5 42.5t12.5 49v71zM204 -12q-26 0 -53.5 7.5t-49.5 24.5t-36 46t-14 71q0 72 46 117.5t139 45.5q22 0 45 -1.5t42.5 -4t34.5 -5t23 -3.5v49 q0 65 -37 93t-106 28q-50 0 -83 -11.5t-54 -22.5l-19 44q19 11 62 26.5t109 15.5q88 0 136 -41.5t48 -126.5v-340h-53l-2 76q-15 -25 -35 -42t-43.5 -27t-49 -14.5t-50.5 -4.5zM118 614v53h284v-53h-284z" />
<glyph unicode="&#x102;" horiz-adv-x="579" d="M431 196h-289l-63 -196h-60l235 703h70l236 -703h-65zM159 251h254l-126 380zM287 810q43 0 67 24t24 70h56q0 -29 -9 -55t-27 -46.5t-46 -32.5t-67 -12t-67 12t-46 32t-26.5 46.5t-8.5 55.5h58q0 -46 25 -70t67 -24z" />
<glyph unicode="&#x103;" horiz-adv-x="518" d="M381 240q-8 2 -22.5 4.5t-33.5 4.5t-41 3.5t-43 1.5q-74 0 -103.5 -31t-29.5 -85q0 -52 33 -77t86 -25q31 0 59 11.5t49 30t33.5 42.5t12.5 49v71zM204 -12q-26 0 -53.5 7.5t-49.5 24.5t-36 46t-14 71q0 72 46 117.5t139 45.5q22 0 45 -1.5t42.5 -4t34.5 -5t23 -3.5v49 q0 65 -37 93t-106 28q-50 0 -83 -11.5t-54 -22.5l-19 44q19 11 62 26.5t109 15.5q88 0 136 -41.5t48 -126.5v-340h-53l-2 76q-15 -25 -35 -42t-43.5 -27t-49 -14.5t-50.5 -4.5zM267 625q43 0 66.5 22t23.5 68h54q0 -29 -8.5 -54t-26 -44.5t-45 -30.5t-65.5 -11 q-39 0 -66.5 11t-45 30t-25.5 44.5t-8 54.5h56q0 -46 24 -68t66 -22z" />
<glyph unicode="&#x104;" horiz-adv-x="579" d="M431 196h-289l-63 -196h-60l235 703h70l235 -703q-26 -20 -46 -44t-20 -52q0 -22 13.5 -32t37.5 -10q13 0 18 1v-44q-7 -1 -13 -1.5t-16 -0.5q-46 0 -72 20.5t-26 53.5q0 35 18.5 60.5t47.5 48.5h-6zM159 251h254l-126 380z" />
<glyph unicode="&#x105;" horiz-adv-x="518" d="M440 -178q-7 -1 -11 -1.5t-14 -0.5q-42 0 -70 17t-28 57q0 32 18.5 57.5t48.5 48.5l-2 76q-15 -25 -35 -42t-43.5 -27t-49 -14.5t-50.5 -4.5q-26 0 -53.5 7.5t-49.5 24.5t-36 46t-14 71q0 72 46 117.5t139 45.5q22 0 45 -1.5t42.5 -4t34.5 -5t23 -3.5v49q0 65 -37 93 t-106 28q-50 0 -83 -11.5t-54 -22.5l-19 44q19 11 62 26.5t109 15.5q88 0 136 -41.5t48 -126.5v-340q-26 -20 -45.5 -44t-19.5 -52q0 -20 12 -31t39 -11q13 0 17 1v-41zM381 240q-8 2 -22.5 4.5t-33.5 4.5t-41 3.5t-43 1.5q-74 0 -103.5 -31t-29.5 -85q0 -52 33 -77t86 -25 q31 0 59 11.5t49 30t33.5 42.5t12.5 49v71z" />
<glyph unicode="&#x106;" horiz-adv-x="623" d="M371 659q-113 0 -175 -78.5t-62 -232.5q0 -158 62 -230.5t175 -72.5q33 0 60.5 6t50.5 15t41 20t31 21l29 -45q-34 -29 -89.5 -51t-126.5 -22q-153 0 -226 93t-73 266q0 82 18.5 149.5t56 115.5t94 74.5t132.5 26.5q41 0 75 -8t60 -19.5t44.5 -24t29.5 -22.5l-32 -45 q-25 21 -68 42.5t-107 21.5zM228 831l230 76l18 -60l-233 -62z" />
<glyph unicode="&#x107;" horiz-adv-x="470" d="M123 249q0 -53 12.5 -92t34 -64t52 -37t66.5 -12q46 0 75 9.5t47 18.5l22 -44q-14 -11 -49.5 -25t-98.5 -14q-106 0 -164 67t-58 192q0 58 15.5 106t44.5 82.5t70 53.5t93 19q31 0 55.5 -5t43 -12.5t30.5 -16t20 -14.5l-27 -44q-7 4 -18 10.5t-26 12.5t-34 10t-41 4 q-72 0 -118.5 -50.5t-46.5 -154.5zM364 749l28 -56l-227 -105l-21 43z" />
<glyph unicode="&#x108;" horiz-adv-x="623" d="M371 659q-113 0 -175 -78.5t-62 -232.5q0 -158 62 -230.5t175 -72.5q33 0 60.5 6t50.5 15t41 20t31 21l29 -45q-34 -29 -89.5 -51t-126.5 -22q-153 0 -226 93t-73 266q0 82 18.5 149.5t56 115.5t94 74.5t132.5 26.5q41 0 75 -8t60 -19.5t44.5 -24t29.5 -22.5l-32 -45 q-25 21 -68 42.5t-107 21.5zM504 762l-137 97l-137 -97l-33 34l142 123h56l142 -123z" />
<glyph unicode="&#x109;" horiz-adv-x="470" d="M123 249q0 -53 12.5 -92t34 -64t52 -37t66.5 -12q46 0 75 9.5t47 18.5l22 -44q-14 -11 -49.5 -25t-98.5 -14q-106 0 -164 67t-58 192q0 58 15.5 106t44.5 82.5t70 53.5t93 19q31 0 55.5 -5t43 -12.5t30.5 -16t20 -14.5l-27 -44q-7 4 -18 10.5t-26 12.5t-34 10t-41 4 q-72 0 -118.5 -50.5t-46.5 -154.5zM119 612l135 126h50l135 -126l-34 -32l-126 98l-126 -98z" />
<glyph unicode="&#x10a;" horiz-adv-x="623" d="M371 659q-113 0 -175 -78.5t-62 -232.5q0 -158 62 -230.5t175 -72.5q33 0 60.5 6t50.5 15t41 20t31 21l29 -45q-34 -29 -89.5 -51t-126.5 -22q-153 0 -226 93t-73 266q0 82 18.5 149.5t56 115.5t94 74.5t132.5 26.5q41 0 75 -8t60 -19.5t44.5 -24t29.5 -22.5l-32 -45 q-25 21 -68 42.5t-107 21.5zM318 829q0 23 14 37t34 14t33 -14t13 -37t-13 -36t-33 -13t-34 13t-14 36z" />
<glyph unicode="&#x10b;" horiz-adv-x="470" d="M123 249q0 -53 12.5 -92t34 -64t52 -37t66.5 -12q46 0 75 9.5t47 18.5l22 -44q-14 -11 -49.5 -25t-98.5 -14q-106 0 -164 67t-58 192q0 58 15.5 106t44.5 82.5t70 53.5t93 19q31 0 55.5 -5t43 -12.5t30.5 -16t20 -14.5l-27 -44q-7 4 -18 10.5t-26 12.5t-34 10t-41 4 q-72 0 -118.5 -50.5t-46.5 -154.5zM243 640q0 22 13 35.5t33 13.5t32 -13.5t12 -35.5t-12 -35t-32 -13t-33 13t-13 35z" />
<glyph unicode="&#x10c;" horiz-adv-x="623" d="M371 659q-113 0 -175 -78.5t-62 -232.5q0 -158 62 -230.5t175 -72.5q33 0 60.5 6t50.5 15t41 20t31 21l29 -45q-34 -29 -89.5 -51t-126.5 -22q-153 0 -226 93t-73 266q0 82 18.5 149.5t56 115.5t94 74.5t132.5 26.5q41 0 75 -8t60 -19.5t44.5 -24t29.5 -22.5l-32 -45 q-25 21 -68 42.5t-107 21.5zM339 762l-142 122l33 35l137 -98l137 98l33 -35l-142 -122h-56z" />
<glyph unicode="&#x10d;" horiz-adv-x="470" d="M123 249q0 -53 12.5 -92t34 -64t52 -37t66.5 -12q46 0 75 9.5t47 18.5l22 -44q-14 -11 -49.5 -25t-98.5 -14q-106 0 -164 67t-58 192q0 58 15.5 106t44.5 82.5t70 53.5t93 19q31 0 55.5 -5t43 -12.5t30.5 -16t20 -14.5l-27 -44q-7 4 -18 10.5t-26 12.5t-34 10t-41 4 q-72 0 -118.5 -50.5t-46.5 -154.5zM291 638l125 98l34 -32l-134 -126h-51l-135 126l35 32z" />
<glyph unicode="&#x10e;" horiz-adv-x="682" d="M301 703q152 0 232 -92t80 -260q0 -85 -21.5 -150.5t-62 -110t-98.5 -67.5t-130 -23h-209v703h209zM301 58q114 0 180.5 75t66.5 219q0 151 -66.5 222t-180.5 71h-146v-587h146zM291 762l-142 122l33 35l137 -98l137 98l33 -35l-142 -122h-56z" />
<glyph unicode="&#x10f;" horiz-adv-x="650" d="M291 455q-39 0 -67.5 -16t-47 -43.5t-27.5 -65.5t-9 -82q0 -54 11.5 -92.5t33.5 -62.5t53 -35t70 -11q27 0 50.5 8t42.5 20t33.5 26.5t22.5 26.5v111q0 50 -13.5 90t-36.5 68t-53 43t-63 15zM460 70q-29 -34 -71 -55.5t-102 -21.5q-39 0 -76.5 12.5t-67 42t-47 78.5 t-17.5 122q0 54 14 101.5t40 83t64 56t86 20.5q63 0 107 -30t67 -77v348h59v-750h-55zM588 703q0 25 15 38.5t35 13.5q23 0 35.5 -17t12.5 -44q0 -21 -6.5 -46.5t-17.5 -52t-25.5 -51t-31.5 -44.5l-30 22q9 15 17.5 33t15 36t11.5 34.5t8 29.5q-14 4 -26.5 17.5t-12.5 30.5z " />
<glyph unicode="&#x110;" horiz-adv-x="685" d="M18 385h77v318h209q152 0 232 -92t80 -260q0 -85 -21.5 -150.5t-62 -110t-98.5 -67.5t-130 -23h-209v331h-77v54zM304 58q114 0 180.5 75t66.5 219q0 151 -66.5 222t-180.5 71h-146v-260h162v-54h-162v-273h146z" />
<glyph unicode="&#x111;" horiz-adv-x="589" d="M443 70q-29 -34 -71 -55.5t-102 -21.5q-39 0 -76.5 12.5t-67 42t-47 78.5t-17.5 122q0 54 14 101.5t40 83t64 56t86 20.5q64 0 107.5 -30t66.5 -77v199h-199v50h199v99h59v-99h68v-50h-68v-601h-55zM274 455q-39 0 -67.5 -16t-47 -43.5t-27.5 -65.5t-9 -82 q0 -54 11.5 -92.5t33.5 -62.5t53 -35t70 -11q27 0 51 8t43 20t33 26.5t22 26.5v111q0 50 -13.5 90t-36.5 68t-53 43t-63 15z" />
<glyph unicode="&#x112;" horiz-adv-x="522" d="M92 703h388v-58h-325v-250h254v-58h-254v-279h335v-58h-398v703zM144 799v56h294v-56h-294z" />
<glyph unicode="&#x113;" horiz-adv-x="545" d="M307 43q47 0 78.5 9.5t50.5 17.5l17 -46q-15 -10 -55 -22.5t-97 -12.5q-121 0 -180 67.5t-59 191.5q0 59 15 107.5t43 82.5t68.5 52.5t91.5 18.5q48 0 86 -14.5t64.5 -47t40.5 -83t14 -122.5v-10h-364q5 -89 49.5 -139t136.5 -50zM426 280q-6 85 -40 130.5t-107 45.5 q-75 0 -112 -46t-45 -130h304zM140 614v53h284v-53h-284z" />
<glyph unicode="&#x114;" horiz-adv-x="522" d="M92 703h388v-58h-325v-250h254v-58h-254v-279h335v-58h-398v703zM293 810q43 0 67 24t24 70h56q0 -29 -9 -55t-27 -46.5t-46 -32.5t-67 -12t-67 12t-46 32t-26.5 46.5t-8.5 55.5h58q0 -46 25 -70t67 -24z" />
<glyph unicode="&#x115;" horiz-adv-x="545" d="M307 43q47 0 78.5 9.5t50.5 17.5l17 -46q-15 -10 -55 -22.5t-97 -12.5q-121 0 -180 67.5t-59 191.5q0 59 15 107.5t43 82.5t68.5 52.5t91.5 18.5q48 0 86 -14.5t64.5 -47t40.5 -83t14 -122.5v-10h-364q5 -89 49.5 -139t136.5 -50zM426 280q-6 85 -40 130.5t-107 45.5 q-75 0 -112 -46t-45 -130h304zM287 625q43 0 66.5 22t23.5 68h54q0 -29 -8.5 -54t-26 -44.5t-45 -30.5t-65.5 -11q-39 0 -66.5 11t-45 30t-25.5 44.5t-8 54.5h56q0 -46 24 -68t66 -22z" />
<glyph unicode="&#x116;" horiz-adv-x="522" d="M92 703h388v-58h-325v-250h254v-58h-254v-279h335v-58h-398v703zM248 829q0 23 14 37t34 14t33 -14t13 -37t-13 -36t-33 -13t-34 13t-14 36z" />
<glyph unicode="&#x117;" horiz-adv-x="545" d="M307 43q47 0 78.5 9.5t50.5 17.5l17 -46q-15 -10 -55 -22.5t-97 -12.5q-121 0 -180 67.5t-59 191.5q0 59 15 107.5t43 82.5t68.5 52.5t91.5 18.5q48 0 86 -14.5t64.5 -47t40.5 -83t14 -122.5v-10h-364q5 -89 49.5 -139t136.5 -50zM426 280q-6 85 -40 130.5t-107 45.5 q-75 0 -112 -46t-45 -130h304zM237 640q0 22 13 35.5t33 13.5t32 -13.5t12 -35.5t-12 -35t-32 -13t-33 13t-13 35z" />
<glyph unicode="&#x118;" horiz-adv-x="522" d="M92 703h388v-58h-325v-250h254v-58h-254v-279h335v-58q-26 -20 -46 -44t-20 -52q0 -22 13.5 -32t37.5 -10q13 0 18 1v-44q-7 -1 -13 -1.5t-16 -0.5q-46 0 -72 20.5t-26 53.5q0 35 18.5 60.5t47.5 48.5h-340v703z" />
<glyph unicode="&#x119;" horiz-adv-x="545" d="M307 43q47 0 78.5 9.5t50.5 17.5l17 -46q-8 -5 -24.5 -12t-39.5 -12q-26 -20 -45 -44t-19 -52q0 -20 12 -31t39 -11q13 0 17 1v-41q-7 -1 -11 -1.5t-14 -0.5q-42 0 -70 17t-28 57q0 29 14 52.5t38 43.5q-5 -1 -10.5 -1h-10.5q-121 0 -180 67.5t-59 191.5q0 59 15 107.5 t43 82.5t68.5 52.5t91.5 18.5q48 0 86 -14.5t64.5 -47t40.5 -83t14 -122.5v-10h-364q5 -89 49.5 -139t136.5 -50zM426 280q-6 85 -40 130.5t-107 45.5q-75 0 -112 -46t-45 -130h304z" />
<glyph unicode="&#x11a;" horiz-adv-x="522" d="M92 703h388v-58h-325v-250h254v-58h-254v-279h335v-58h-398v703zM269 762l-142 122l33 35l137 -98l137 98l33 -35l-142 -122h-56z" />
<glyph unicode="&#x11b;" horiz-adv-x="545" d="M307 43q47 0 78.5 9.5t50.5 17.5l17 -46q-15 -10 -55 -22.5t-97 -12.5q-121 0 -180 67.5t-59 191.5q0 59 15 107.5t43 82.5t68.5 52.5t91.5 18.5q48 0 86 -14.5t64.5 -47t40.5 -83t14 -122.5v-10h-364q5 -89 49.5 -139t136.5 -50zM426 280q-6 85 -40 130.5t-107 45.5 q-75 0 -112 -46t-45 -130h304zM287 638l125 98l34 -32l-134 -126h-51l-135 126l35 32z" />
<glyph unicode="&#x11c;" horiz-adv-x="652" d="M368 664q-53 0 -96.5 -19.5t-74 -59t-47.5 -99t-17 -138.5q0 -160 62.5 -232.5t185.5 -72.5q48 0 85.5 7.5t60.5 16.5v234h-150v56h208v-325q-9 -5 -27.5 -12.5t-45 -15.5t-61.5 -13.5t-78 -5.5q-154 0 -230 92t-76 271q0 80 18.5 148t56 117.5t93.5 77.5t131 28 q68 0 119.5 -17.5t92.5 -50.5l-30 -46q-13 9 -29 19.5t-37.5 19.5t-49.5 14.5t-64 5.5zM507 762l-137 97l-137 -97l-33 34l142 123h56l142 -123z" />
<glyph unicode="&#x11d;" horiz-adv-x="542" d="M416 454q28 -19 44 -52t16 -70q0 -46 -19 -78.5t-48 -53.5t-64.5 -30.5t-69.5 -9.5q-32 0 -62 5.5t-57 20.5q-14 -12 -25.5 -29t-11.5 -38q0 -17 5 -29t18 -20t35 -12t57 -5l110 -2q33 -1 63 -7t53.5 -19.5t37 -36.5t13.5 -58q0 -33 -16 -62.5t-49 -51.5t-82.5 -35 t-115.5 -13q-41 0 -78 6.5t-65 22.5t-45 41t-17 63q0 41 19.5 71.5t48.5 53.5q-19 10 -32 29t-13 48q0 33 18 60t40 45q-26 21 -41 51.5t-15 73.5q0 46 18.5 79t48 54.5t65.5 32t71 10.5q20 0 36 -2t29.5 -4.5t26 -4.5t26.5 -2h135v-47h-28q-15 0 -39.5 1t-40.5 4zM249 3 q-22 1 -47.5 1.5t-49.5 6.5q-17 -13 -35 -38t-18 -60q0 -29 12.5 -47.5t33.5 -30t48 -16t57 -4.5q46 0 83.5 7.5t63.5 22t40.5 34t14.5 43.5q0 15 -4 29t-15.5 25t-32 17.5t-52.5 7.5zM418 334q0 36 -12.5 60.5t-32.5 39.5t-46.5 21.5t-53.5 6.5q-28 0 -54.5 -7t-47 -22 t-33 -39.5t-12.5 -59.5q0 -36 12.5 -60.5t33 -39.5t46.5 -21.5t54 -6.5q27 0 53.5 6.5t47 21.5t33 39.5t12.5 60.5zM128 612l135 126h50l135 -126l-34 -32l-126 98l-126 -98z" />
<glyph unicode="&#x11e;" horiz-adv-x="652" d="M368 664q-53 0 -96.5 -19.5t-74 -59t-47.5 -99t-17 -138.5q0 -160 62.5 -232.5t185.5 -72.5q48 0 85.5 7.5t60.5 16.5v234h-150v56h208v-325q-9 -5 -27.5 -12.5t-45 -15.5t-61.5 -13.5t-78 -5.5q-154 0 -230 92t-76 271q0 80 18.5 148t56 117.5t93.5 77.5t131 28 q68 0 119.5 -17.5t92.5 -50.5l-30 -46q-13 9 -29 19.5t-37.5 19.5t-49.5 14.5t-64 5.5zM372 810q43 0 67 24t24 70h56q0 -29 -9 -55t-27 -46.5t-46 -32.5t-67 -12t-67 12t-46 32t-26.5 46.5t-8.5 55.5h58q0 -46 25 -70t67 -24z" />
<glyph unicode="&#x11f;" horiz-adv-x="542" d="M416 454q28 -19 44 -52t16 -70q0 -46 -19 -78.5t-48 -53.5t-64.5 -30.5t-69.5 -9.5q-32 0 -62 5.5t-57 20.5q-14 -12 -25.5 -29t-11.5 -38q0 -17 5 -29t18 -20t35 -12t57 -5l110 -2q33 -1 63 -7t53.5 -19.5t37 -36.5t13.5 -58q0 -33 -16 -62.5t-49 -51.5t-82.5 -35 t-115.5 -13q-41 0 -78 6.5t-65 22.5t-45 41t-17 63q0 41 19.5 71.5t48.5 53.5q-19 10 -32 29t-13 48q0 33 18 60t40 45q-26 21 -41 51.5t-15 73.5q0 46 18.5 79t48 54.5t65.5 32t71 10.5q20 0 36 -2t29.5 -4.5t26 -4.5t26.5 -2h135v-47h-28q-15 0 -39.5 1t-40.5 4zM249 3 q-22 1 -47.5 1.5t-49.5 6.5q-17 -13 -35 -38t-18 -60q0 -29 12.5 -47.5t33.5 -30t48 -16t57 -4.5q46 0 83.5 7.5t63.5 22t40.5 34t14.5 43.5q0 15 -4 29t-15.5 25t-32 17.5t-52.5 7.5zM418 334q0 36 -12.5 60.5t-32.5 39.5t-46.5 21.5t-53.5 6.5q-28 0 -54.5 -7t-47 -22 t-33 -39.5t-12.5 -59.5q0 -36 12.5 -60.5t33 -39.5t46.5 -21.5t54 -6.5q27 0 53.5 6.5t47 21.5t33 39.5t12.5 60.5zM282 625q43 0 66.5 22t23.5 68h54q0 -29 -8.5 -54t-26 -44.5t-45 -30.5t-65.5 -11q-39 0 -66.5 11t-45 30t-25.5 44.5t-8 54.5h56q0 -46 24 -68t66 -22z" />
<glyph unicode="&#x120;" horiz-adv-x="652" d="M368 664q-53 0 -96.5 -19.5t-74 -59t-47.5 -99t-17 -138.5q0 -160 62.5 -232.5t185.5 -72.5q48 0 85.5 7.5t60.5 16.5v234h-150v56h208v-325q-9 -5 -27.5 -12.5t-45 -15.5t-61.5 -13.5t-78 -5.5q-154 0 -230 92t-76 271q0 80 18.5 148t56 117.5t93.5 77.5t131 28 q68 0 119.5 -17.5t92.5 -50.5l-30 -46q-13 9 -29 19.5t-37.5 19.5t-49.5 14.5t-64 5.5zM316 829q0 23 14 37t34 14t33 -14t13 -37t-13 -36t-33 -13t-34 13t-14 36z" />
<glyph unicode="&#x121;" horiz-adv-x="542" d="M416 454q28 -19 44 -52t16 -70q0 -46 -19 -78.5t-48 -53.5t-64.5 -30.5t-69.5 -9.5q-32 0 -62 5.5t-57 20.5q-14 -12 -25.5 -29t-11.5 -38q0 -17 5 -29t18 -20t35 -12t57 -5l110 -2q33 -1 63 -7t53.5 -19.5t37 -36.5t13.5 -58q0 -33 -16 -62.5t-49 -51.5t-82.5 -35 t-115.5 -13q-41 0 -78 6.5t-65 22.5t-45 41t-17 63q0 41 19.5 71.5t48.5 53.5q-19 10 -32 29t-13 48q0 33 18 60t40 45q-26 21 -41 51.5t-15 73.5q0 46 18.5 79t48 54.5t65.5 32t71 10.5q20 0 36 -2t29.5 -4.5t26 -4.5t26.5 -2h135v-47h-28q-15 0 -39.5 1t-40.5 4zM249 3 q-22 1 -47.5 1.5t-49.5 6.5q-17 -13 -35 -38t-18 -60q0 -29 12.5 -47.5t33.5 -30t48 -16t57 -4.5q46 0 83.5 7.5t63.5 22t40.5 34t14.5 43.5q0 15 -4 29t-15.5 25t-32 17.5t-52.5 7.5zM418 334q0 36 -12.5 60.5t-32.5 39.5t-46.5 21.5t-53.5 6.5q-28 0 -54.5 -7t-47 -22 t-33 -39.5t-12.5 -59.5q0 -36 12.5 -60.5t33 -39.5t46.5 -21.5t54 -6.5q27 0 53.5 6.5t47 21.5t33 39.5t12.5 60.5zM237 640q0 22 13 35.5t33 13.5t32 -13.5t12 -35.5t-12 -35t-32 -13t-33 13t-13 35z" />
<glyph unicode="&#x122;" horiz-adv-x="652" d="M368 664q-53 0 -96.5 -19.5t-74 -59t-47.5 -99t-17 -138.5q0 -160 62.5 -232.5t185.5 -72.5q48 0 85.5 7.5t60.5 16.5v234h-150v56h208v-325q-9 -5 -27.5 -12.5t-45 -15.5t-61.5 -13.5t-78 -5.5q-154 0 -230 92t-76 271q0 80 18.5 148t56 117.5t93.5 77.5t131 28 q68 0 119.5 -17.5t92.5 -50.5l-30 -46q-13 9 -29 19.5t-37.5 19.5t-49.5 14.5t-64 5.5zM396 -102q0 -42 -20 -82t-44 -68l-31 19q14 21 25 47.5t13 42.5q-14 5 -26.5 17t-12.5 29q0 21 12.5 35t33.5 14q23 0 36.5 -15t13.5 -39z" />
<glyph unicode="&#x123;" horiz-adv-x="542" d="M416 454q28 -19 44 -52t16 -70q0 -46 -19 -78.5t-48 -53.5t-64.5 -30.5t-69.5 -9.5q-32 0 -62 5.5t-57 20.5q-14 -12 -25.5 -29t-11.5 -38q0 -17 5 -29t18 -20t35 -12t57 -5l110 -2q33 -1 63 -7t53.5 -19.5t37 -36.5t13.5 -58q0 -33 -16 -62.5t-49 -51.5t-82.5 -35 t-115.5 -13q-41 0 -78 6.5t-65 22.5t-45 41t-17 63q0 41 19.5 71.5t48.5 53.5q-19 10 -32 29t-13 48q0 33 18 60t40 45q-26 21 -41 51.5t-15 73.5q0 46 18.5 79t48 54.5t65.5 32t71 10.5q20 0 36 -2t29.5 -4.5t26 -4.5t26.5 -2h135v-47h-28q-15 0 -39.5 1t-40.5 4zM249 3 q-22 1 -47.5 1.5t-49.5 6.5q-17 -13 -35 -38t-18 -60q0 -29 12.5 -47.5t33.5 -30t48 -16t57 -4.5q46 0 83.5 7.5t63.5 22t40.5 34t14.5 43.5q0 15 -4 29t-15.5 25t-32 17.5t-52.5 7.5zM418 334q0 36 -12.5 60.5t-32.5 39.5t-46.5 21.5t-53.5 6.5q-28 0 -54.5 -7t-47 -22 t-33 -39.5t-12.5 -59.5q0 -36 12.5 -60.5t33 -39.5t46.5 -21.5t54 -6.5q27 0 53.5 6.5t47 21.5t33 39.5t12.5 60.5zM331 758q-14 -21 -24.5 -48t-12.5 -43q14 -5 25.5 -17.5t11.5 -27.5q0 -23 -13.5 -35.5t-32.5 -12.5q-22 0 -35 15.5t-13 37.5q0 42 20.5 82t44.5 68z" />
<glyph unicode="&#x124;" horiz-adv-x="667" d="M512 703h63v-703h-63v346h-357v-346h-63v703h63v-298h357v298zM478 762l-137 97l-137 -97l-33 34l142 123h56l142 -123z" />
<glyph unicode="&#x125;" horiz-adv-x="562" d="M140 401q23 48 67 78t110 30q81 0 124.5 -47t43.5 -138v-324h-59v316q0 39 -9.5 66t-26 43t-39 23t-49.5 7q-38 0 -68 -17.5t-51 -45.5t-32 -64t-11 -73v-255h-59v750h59v-349zM81 803l121 116h54l122 -116l-31 -31l-118 90l-118 -90z" />
<glyph unicode="&#x126;" horiz-adv-x="691" d="M582 525v-525h-63v346h-357v-346h-64v525h-75v54h75v124h64v-124h357v124h63v-124h86v-54h-86zM519 525h-357v-121h357v121z" />
<glyph unicode="&#x127;" horiz-adv-x="572" d="M150 658h187v-50h-187v-207q23 48 67 78t110 30q81 0 124.5 -47t43.5 -138v-324h-59v316q0 39 -9.5 66t-26 43t-39 23t-49.5 7q-38 0 -68 -17.5t-51 -45.5t-32 -64t-11 -73v-255h-59v608h-69v50h69v92h59v-92z" />
<glyph unicode="&#x128;" horiz-adv-x="247" d="M155 0h-63v703h63v-703zM50 886q25 0 44.5 -9t36 -20.5t32.5 -20.5t35 -9q47 0 47 58h53q0 -56 -26.5 -83.5t-74.5 -27.5q-25 0 -43.5 9t-35 20t-32.5 20t-34 9q-49 0 -49 -57h-53q0 54 25 82.5t75 28.5z" />
<glyph unicode="&#x129;" horiz-adv-x="229" d="M84 496h60v-496h-60v496zM40 694q25 0 43.5 -9t34 -20.5t31 -20.5t34.5 -9q25 0 35 15.5t10 42.5h53q0 -54 -25 -82.5t-73 -28.5q-24 0 -42 9t-34.5 20t-31.5 20t-33 9q-25 0 -35.5 -15t-10.5 -42h-53q0 52 24.5 81.5t72.5 29.5z" />
<glyph unicode="&#x12a;" horiz-adv-x="247" d="M155 0h-63v703h63v-703zM-20 799v56h294v-56h-294z" />
<glyph unicode="&#x12b;" horiz-adv-x="229" d="M84 496h60v-496h-60v496zM-25 614v53h284v-53h-284z" />
<glyph unicode="&#x12c;" horiz-adv-x="247" d="M155 0h-63v703h63v-703zM128 810q43 0 67 24t24 70h56q0 -29 -9 -55t-27 -46.5t-46 -32.5t-67 -12t-67 12t-46 32t-26.5 46.5t-8.5 55.5h58q0 -46 25 -70t67 -24z" />
<glyph unicode="&#x12d;" horiz-adv-x="229" d="M84 496h60v-496h-60v496zM114 625q43 0 66.5 22t23.5 68h54q0 -29 -8.5 -54t-26 -44.5t-45 -30.5t-65.5 -11q-39 0 -66.5 11t-45 30t-25.5 44.5t-8 54.5h56q0 -46 24 -68t66 -22z" />
<glyph unicode="&#x12e;" horiz-adv-x="247" d="M155 0q-26 -20 -46 -44t-20 -52q0 -22 13.5 -32t37.5 -10q13 0 18 1v-44q-7 -1 -13 -1.5t-16 -0.5q-46 0 -72 20.5t-26 53.5q0 35 18.5 60.5t47.5 48.5h-5v703h63v-703z" />
<glyph unicode="&#x12f;" horiz-adv-x="229" d="M85 496h59v-496q-26 -20 -45.5 -44t-19.5 -52q0 -20 12 -31t39 -11q13 0 17 1v-41q-7 -1 -11 -1.5t-14 -0.5q-42 0 -70 17t-28 57q0 32 18 57.5t47 48.5h-4v496zM69 662q0 22 12.5 35.5t32.5 13.5t33 -13.5t13 -35.5q0 -23 -13 -36t-33 -13t-32.5 13.5t-12.5 35.5z" />
<glyph unicode="&#x130;" horiz-adv-x="247" d="M155 0h-63v703h63v-703zM80 829q0 23 14 37t34 14t33 -14t13 -37t-13 -36t-33 -13t-34 13t-14 36z" />
<glyph unicode="&#x131;" horiz-adv-x="229" d="M84 496h60v-496h-60v496z" />
<glyph unicode="&#x132;" horiz-adv-x="717" d="M155 0h-63v703h63v-703zM568 703h63v-520q0 -107 -49.5 -153t-137.5 -46q-37 0 -67 6t-52.5 14.5t-36 16t-17.5 10.5l24 49q4 -2 16.5 -8.5t31.5 -13.5t42.5 -12.5t49.5 -5.5q34 0 59.5 7.5t41.5 25t24 46.5t8 72v512z" />
<glyph unicode="&#x133;" horiz-adv-x="454" d="M85 496h59v-496h-59v496zM69 662q0 22 12.5 35.5t32.5 13.5t33 -13.5t13 -35.5q0 -23 -13 -36t-33 -13t-32.5 13.5t-12.5 35.5zM369 -14q0 -105 -39 -157.5t-127 -52.5q-14 0 -32.5 2.5t-29.5 6.5l7 50q10 -2 23.5 -4t26.5 -2q36 0 58 10.5t34 32.5t16 55.5t4 79.5v489 h59v-510zM294 662q0 22 12.5 35.5t32.5 13.5t33 -13.5t13 -35.5q0 -23 -13 -36t-33 -13t-32.5 13.5t-12.5 35.5z" />
<glyph unicode="&#x134;" horiz-adv-x="473" d="M324 703h63v-520q0 -107 -49.5 -153t-137.5 -46q-37 0 -67 6t-52.5 14.5t-36 16t-17.5 10.5l24 49q4 -2 16.5 -8.5t31.5 -13.5t42.5 -12.5t49.5 -5.5q34 0 59.5 7.5t41.5 25t24 46.5t8 72v512zM492 762l-137 97l-137 -97l-33 34l142 123h56l142 -123z" />
<glyph unicode="&#x135;" horiz-adv-x="229" d="M144 -14q0 -105 -39 -157.5t-127 -52.5q-14 0 -32.5 2.5t-29.5 6.5l7 50q10 -2 23.5 -4t26.5 -2q36 0 58 10.5t34 32.5t16 55.5t4 79.5v489h59v-510zM-40 612l135 126h50l135 -126l-34 -32l-126 98l-126 -98z" />
<glyph unicode="&#x136;" horiz-adv-x="553" d="M155 0h-63v703h63v-324l293 324h74l-293 -325l317 -378h-81l-310 368v-368zM337 -102q0 -42 -20 -82t-44 -68l-31 19q14 21 25 47.5t13 42.5q-14 5 -26.5 17t-12.5 29q0 21 12.5 35t33.5 14q23 0 36.5 -15t13.5 -39z" />
<glyph unicode="&#x137;" horiz-adv-x="461" d="M140 273l212 223h71l-216 -223l236 -273h-76l-227 266v-266h-59v750h59v-477zM299 -102q0 -42 -20.5 -82t-44.5 -68l-29 19q14 21 24.5 48t12.5 43q-11 4 -24 16t-13 30q0 22 13 34.5t32 12.5q23 0 36 -15t13 -38z" />
<glyph unicode="&#x138;" horiz-adv-x="461" d="M442 0h-76l-226 255v-255h-59v496h59v-234l214 234h71l-218 -232z" />
<glyph unicode="&#x139;" horiz-adv-x="520" d="M159 58h325v-58h-388v703h63v-645zM31 831l230 76l18 -60l-233 -62z" />
<glyph unicode="&#x13a;" horiz-adv-x="222" d="M141 0h-60v750h60v-750zM1 831l230 76l18 -60l-233 -62z" />
<glyph unicode="&#x13b;" horiz-adv-x="520" d="M159 58h325v-58h-388v703h63v-645zM312 -102q0 -42 -20 -82t-44 -68l-31 19q14 21 25 47.5t13 42.5q-14 5 -26.5 17t-12.5 29q0 21 12.5 35t33.5 14q23 0 36.5 -15t13.5 -39z" />
<glyph unicode="&#x13c;" horiz-adv-x="222" d="M141 0h-60v750h60v-750zM156 -102q0 -42 -20.5 -82t-44.5 -68l-29 19q14 21 24.5 48t12.5 43q-11 4 -24 16t-13 30q0 22 13 34.5t32 12.5q23 0 36 -15t13 -38z" />
<glyph unicode="&#x13d;" horiz-adv-x="520" d="M159 58h325v-58h-388v703h63v-645zM322 668q0 25 15 38.5t35 13.5q23 0 35.5 -17t12.5 -44q0 -21 -6.5 -46.5t-17.5 -52t-25.5 -51t-31.5 -44.5l-30 22q9 15 17.5 33t15 36t11.5 34.5t8 29.5q-14 4 -26.5 17.5t-12.5 30.5z" />
<glyph unicode="&#x13e;" horiz-adv-x="293" d="M141 0h-60v750h60v-750zM232 703q0 25 15 38.5t35 13.5q23 0 35.5 -17t12.5 -44q0 -21 -6.5 -46.5t-17.5 -52t-25.5 -51t-31.5 -44.5l-30 22q9 15 17.5 33t15 36t11.5 34.5t8 29.5q-14 4 -26.5 17.5t-12.5 30.5z" />
<glyph unicode="&#x13f;" horiz-adv-x="520" d="M159 58h325v-58h-388v703h63v-645zM339 417q0 24 14 39t35 15t35 -14.5t14 -39.5q0 -24 -14.5 -38t-35.5 -14t-34.5 14t-13.5 38z" />
<glyph unicode="&#x140;" horiz-adv-x="344" d="M150 0h-60v750h60v-750zM240 409q0 24 14 39t35 15t35 -14.5t14 -39.5q0 -24 -14.5 -38t-35.5 -14t-34.5 14t-13.5 38z" />
<glyph unicode="&#x141;" horiz-adv-x="522" d="M166 393l200 110v-58l-200 -110v-277h325v-58h-388v302l-84 -46v58l84 45v344h63v-310z" />
<glyph unicode="&#x142;" horiz-adv-x="268" d="M163 445l85 68v-63l-85 -68v-382h-59v335l-84 -69v64l84 68v352h59v-305z" />
<glyph unicode="&#x143;" horiz-adv-x="660" d="M153 599v-599h-61v703h66l349 -596v596h61v-703h-61zM221 831l230 76l18 -60l-233 -62z" />
<glyph unicode="&#x144;" horiz-adv-x="562" d="M140 0h-59v496h55l2 -98q23 47 67.5 79t107.5 32q86 0 129 -47t43 -138v-324h-59v316q0 39 -9.5 66t-26 43t-39 23t-49.5 7q-38 0 -68 -17.5t-51 -45.5t-32 -64t-11 -73v-255zM384 749l28 -56l-227 -105l-21 43z" />
<glyph unicode="&#x145;" horiz-adv-x="660" d="M153 599v-599h-61v703h66l349 -596v596h61v-703h-61zM378 -102q0 -42 -20 -82t-44 -68l-31 19q14 21 25 47.5t13 42.5q-14 5 -26.5 17t-12.5 29q0 21 12.5 35t33.5 14q23 0 36.5 -15t13.5 -39z" />
<glyph unicode="&#x146;" horiz-adv-x="562" d="M140 0h-59v496h55l2 -98q23 47 67.5 79t107.5 32q86 0 129 -47t43 -138v-324h-59v316q0 39 -9.5 66t-26 43t-39 23t-49.5 7q-38 0 -68 -17.5t-51 -45.5t-32 -64t-11 -73v-255zM335 -102q0 -42 -20.5 -82t-44.5 -68l-29 19q14 21 24.5 48t12.5 43q-11 4 -24 16t-13 30 q0 22 13 34.5t32 12.5q23 0 36 -15t13 -38z" />
<glyph unicode="&#x147;" horiz-adv-x="660" d="M153 599v-599h-61v703h66l349 -596v596h61v-703h-61zM308 762l-142 122l33 35l137 -98l137 98l33 -35l-142 -122h-56z" />
<glyph unicode="&#x148;" horiz-adv-x="562" d="M140 0h-59v496h55l2 -98q23 47 67.5 79t107.5 32q86 0 129 -47t43 -138v-324h-59v316q0 39 -9.5 66t-26 43t-39 23t-49.5 7q-38 0 -68 -17.5t-51 -45.5t-32 -64t-11 -73v-255zM294 638l125 98l34 -32l-134 -126h-51l-135 126l35 32z" />
<glyph unicode="&#x149;" horiz-adv-x="591" d="M174 0h-59v496h55l2 -98q23 47 67.5 79t107.5 32q86 0 129 -47t43 -138v-324h-59v316q0 39 -9.5 66t-26 43t-39 23t-49.5 7q-38 0 -68 -17.5t-51 -45.5t-32 -64t-11 -73v-255zM35 697q0 24 14.5 38.5t34.5 14.5q23 0 36 -17t13 -44q0 -20 -6 -46t-17.5 -53t-27 -52.5 t-33.5 -44.5l-29 23q11 15 20 32.5t16 35.5t11 35t5 29q-14 4 -25.5 16t-11.5 33z" />
<glyph unicode="&#x14a;" horiz-adv-x="660" d="M509 373q0 152 -43 219.5t-122 67.5q-39 0 -73 -13t-60 -39.5t-41 -66t-15 -91.5v-450h-63v703h60l4 -84q15 20 34 38.5t43 32t52.5 21.5t62.5 8q109 0 167 -82.5t58 -263.5q0 -110 -14.5 -184t-41.5 -119t-65 -64t-84 -19q-17 0 -29.5 1.5t-33.5 7.5l11 53q25 -7 51 -7 q67 0 104.5 79.5t37.5 251.5z" />
<glyph unicode="&#x14b;" horiz-adv-x="562" d="M140 0h-59v496h55l2 -98q23 48 67.5 79.5t107.5 31.5q86 0 129 -47t43 -138v-363q0 -99 -40.5 -145.5t-131.5 -46.5q-7 0 -16.5 0.5t-19.5 2t-18.5 3.5t-13.5 4l7 49q10 -2 26.5 -4t29.5 -2q34 0 57 8t36.5 26.5t19 49t5.5 76.5v334q0 39 -9.5 66t-26 43t-39 23t-49.5 7 q-38 0 -68 -17.5t-51 -46t-32 -64t-11 -72.5v-255z" />
<glyph unicode="&#x14c;" horiz-adv-x="734" d="M69 352q0 82 19.5 149.5t57.5 115.5t94 74.5t128 26.5t127.5 -26.5t93 -74.5t57 -115.5t19.5 -149.5t-19.5 -149.5t-57 -116t-93.5 -75t-128 -26.5t-128 26.5t-93.5 75t-57 116t-19.5 149.5zM135 352q0 -70 14 -126.5t43 -97t72.5 -62.5t102.5 -22t102.5 22t72.5 62.5 t43 97t14 126.5t-14 126.5t-43 96.5t-72.5 62t-102.5 22t-102.5 -22t-72.5 -62t-43 -96.5t-14 -126.5zM226 799v56h294v-56h-294z" />
<glyph unicode="&#x14d;" horiz-adv-x="581" d="M290 43q86 0 127 55.5t41 150.5q0 93 -41.5 149.5t-126.5 56.5q-84 0 -125.5 -56.5t-41.5 -149.5q0 -95 41 -150.5t126 -55.5zM290 509q57 0 99.5 -19.5t71 -54t43 -82t14.5 -104.5t-15 -105t-43.5 -82.5t-71.5 -53.5t-98 -19q-56 0 -99 19t-71.5 53.5t-43 82.5 t-14.5 105t15 104.5t43.5 82t71 54t98.5 19.5zM151 614v53h284v-53h-284z" />
<glyph unicode="&#x14e;" horiz-adv-x="734" d="M69 352q0 82 19.5 149.5t57.5 115.5t94 74.5t128 26.5t127.5 -26.5t93 -74.5t57 -115.5t19.5 -149.5t-19.5 -149.5t-57 -116t-93.5 -75t-128 -26.5t-128 26.5t-93.5 75t-57 116t-19.5 149.5zM135 352q0 -70 14 -126.5t43 -97t72.5 -62.5t102.5 -22t102.5 22t72.5 62.5 t43 97t14 126.5t-14 126.5t-43 96.5t-72.5 62t-102.5 22t-102.5 -22t-72.5 -62t-43 -96.5t-14 -126.5zM374 810q43 0 67 24t24 70h56q0 -29 -9 -55t-27 -46.5t-46 -32.5t-67 -12t-67 12t-46 32t-26.5 46.5t-8.5 55.5h58q0 -46 25 -70t67 -24z" />
<glyph unicode="&#x14f;" horiz-adv-x="581" d="M290 43q86 0 127 55.5t41 150.5q0 93 -41.5 149.5t-126.5 56.5q-84 0 -125.5 -56.5t-41.5 -149.5q0 -95 41 -150.5t126 -55.5zM290 509q57 0 99.5 -19.5t71 -54t43 -82t14.5 -104.5t-15 -105t-43.5 -82.5t-71.5 -53.5t-98 -19q-56 0 -99 19t-71.5 53.5t-43 82.5 t-14.5 105t15 104.5t43.5 82t71 54t98.5 19.5zM294 625q43 0 66.5 22t23.5 68h54q0 -29 -8.5 -54t-26 -44.5t-45 -30.5t-65.5 -11q-39 0 -66.5 11t-45 30t-25.5 44.5t-8 54.5h56q0 -46 24 -68t66 -22z" />
<glyph unicode="&#x150;" horiz-adv-x="734" d="M69 352q0 82 19.5 149.5t57.5 115.5t94 74.5t128 26.5t127.5 -26.5t93 -74.5t57 -115.5t19.5 -149.5t-19.5 -149.5t-57 -116t-93.5 -75t-128 -26.5t-128 26.5t-93.5 75t-57 116t-19.5 149.5zM135 352q0 -70 14 -126.5t43 -97t72.5 -62.5t102.5 -22t102.5 22t72.5 62.5 t43 97t14 126.5t-14 126.5t-43 96.5t-72.5 62t-102.5 22t-102.5 -22t-72.5 -62t-43 -96.5t-14 -126.5zM417 794l138 148l42 -43l-146 -139zM218 794l138 148l42 -43l-146 -139z" />
<glyph unicode="&#x151;" horiz-adv-x="581" d="M290 43q86 0 127 55.5t41 150.5q0 93 -41.5 149.5t-126.5 56.5q-84 0 -125.5 -56.5t-41.5 -149.5q0 -95 41 -150.5t126 -55.5zM290 509q57 0 99.5 -19.5t71 -54t43 -82t14.5 -104.5t-15 -105t-43.5 -82.5t-71.5 -53.5t-98 -19q-56 0 -99 19t-71.5 53.5t-43 82.5 t-14.5 105t15 104.5t43.5 82t71 54t98.5 19.5zM339 599l141 161l44 -40l-149 -153zM140 599l141 161l44 -40l-149 -153z" />
<glyph unicode="&#x152;" horiz-adv-x="889" d="M851 703v-59h-324v-249h253v-58h-253v-278h334v-59h-477q-161 0 -238.5 88t-77.5 261q0 81 19.5 146.5t59 111.5t99 71t139.5 25h466zM465 59v586h-79q-129 0 -191 -74.5t-62 -221.5t61.5 -218.5t189.5 -71.5h81z" />
<glyph unicode="&#x153;" horiz-adv-x="945" d="M702 43q48 0 79.5 9.5t50.5 17.5l16 -46q-14 -10 -54 -22.5t-97 -12.5q-80 0 -132 31.5t-78 91.5q-26 -57 -75.5 -90t-121.5 -33q-56 0 -99 19t-71.5 53.5t-43 82.5t-14.5 105t15 104.5t43.5 82t71 54t98.5 19.5q77 0 125 -34t73 -92q26 58 73 92t114 34q48 0 86 -14.5 t64.5 -47t41 -83t14.5 -122.5v-10h-366q5 -89 50 -139t137 -50zM290 43q86 0 127.5 55.5t41.5 150.5q0 93 -42 149.5t-127 56.5q-84 0 -125.5 -56.5t-41.5 -149.5q0 -95 41 -150.5t126 -55.5zM821 280q-5 85 -39 130.5t-107 45.5q-75 0 -113 -46t-46 -130h305z" />
<glyph unicode="&#x154;" horiz-adv-x="577" d="M541 0h-73l-172 289h-142v-289h-62v703h185q63 0 105.5 -18t68.5 -47.5t37.5 -66t11.5 -73.5q0 -39 -11 -71t-30 -56t-44.5 -41t-53.5 -27zM438 495q0 70 -39.5 111t-128.5 41h-116v-303h120q85 0 124.5 41t39.5 110zM147 831l230 76l18 -60l-233 -62z" />
<glyph unicode="&#x155;" horiz-adv-x="374" d="M314 501q11 0 24 -1t17 -3l-5 -54q-8 2 -19 2.5t-21 0.5q-36 0 -67 -15.5t-53 -44t-34.5 -69t-12.5 -91.5v-226h-59v496h55l2 -114q10 24 26 46t38 38t49.5 25.5t59.5 9.5zM318 749l28 -56l-227 -105l-21 43z" />
<glyph unicode="&#x156;" horiz-adv-x="577" d="M541 0h-73l-172 289h-142v-289h-62v703h185q63 0 105.5 -18t68.5 -47.5t37.5 -66t11.5 -73.5q0 -39 -11 -71t-30 -56t-44.5 -41t-53.5 -27zM438 495q0 70 -39.5 111t-128.5 41h-116v-303h120q85 0 124.5 41t39.5 110zM338 -102q0 -42 -20 -82t-44 -68l-31 19 q14 21 25 47.5t13 42.5q-14 5 -26.5 17t-12.5 29q0 21 12.5 35t33.5 14q23 0 36.5 -15t13.5 -39z" />
<glyph unicode="&#x157;" horiz-adv-x="374" d="M314 501q11 0 24 -1t17 -3l-5 -54q-8 2 -19 2.5t-21 0.5q-36 0 -67 -15.5t-53 -44t-34.5 -69t-12.5 -91.5v-226h-59v496h55l2 -114q10 24 26 46t38 38t49.5 25.5t59.5 9.5zM167 -102q0 -42 -20.5 -82t-44.5 -68l-29 19q14 21 24.5 48t12.5 43q-11 4 -24 16t-13 30 q0 22 13 34.5t32 12.5q23 0 36 -15t13 -38z" />
<glyph unicode="&#x158;" horiz-adv-x="577" d="M541 0h-73l-172 289h-142v-289h-62v703h185q63 0 105.5 -18t68.5 -47.5t37.5 -66t11.5 -73.5q0 -39 -11 -71t-30 -56t-44.5 -41t-53.5 -27zM438 495q0 70 -39.5 111t-128.5 41h-116v-303h120q85 0 124.5 41t39.5 110zM241 762l-142 122l33 35l137 -98l137 98l33 -35 l-142 -122h-56z" />
<glyph unicode="&#x159;" horiz-adv-x="374" d="M314 501q11 0 24 -1t17 -3l-5 -54q-8 2 -19 2.5t-21 0.5q-36 0 -67 -15.5t-53 -44t-34.5 -69t-12.5 -91.5v-226h-59v496h55l2 -114q10 24 26 46t38 38t49.5 25.5t59.5 9.5zM212 638l125 98l34 -32l-134 -126h-51l-135 126l35 32z" />
<glyph unicode="&#x15a;" horiz-adv-x="558" d="M247 337q-84 26 -129 71.5t-45 114.5q0 41 13.5 77t41.5 63t70 42.5t99 15.5q27 0 55 -4t54 -11t48 -16.5t37 -19.5l-24 -52q-23 15 -69 30t-105 15q-76 0 -116 -35t-40 -97q0 -24 6.5 -43t21.5 -35t40 -29t62 -26l72 -25q86 -30 124.5 -75t38.5 -116q0 -41 -14.5 -77 t-43 -62.5t-72 -42t-100.5 -15.5q-43 0 -80 7t-66.5 17t-50 20.5t-29.5 17.5l26 52q14 -9 33.5 -18.5t44.5 -18t56 -14t67 -5.5q74 0 119 33t45 101q0 50 -29 84t-98 56zM154 831l230 76l18 -60l-233 -62z" />
<glyph unicode="&#x15b;" horiz-adv-x="464" d="M68 80q25 -14 65.5 -27t97.5 -13q74 0 101.5 25t27.5 63q0 36 -22 59t-84 34l-54 10q-32 6 -58 15.5t-45.5 25t-30 38t-10.5 55.5q0 69 51 106.5t133 37.5q50 0 90.5 -11t64.5 -24l-21 -46q-22 11 -54.5 20t-76.5 9q-68 0 -99.5 -21.5t-31.5 -63.5q0 -19 5.5 -33 t18 -24.5t34 -18t53.5 -13.5l55 -10q30 -6 55.5 -16.5t44 -27t29 -39t10.5 -53.5q0 -68 -48.5 -108t-136.5 -40q-62 0 -112 15t-73 30zM341 749l28 -56l-227 -105l-21 43z" />
<glyph unicode="&#x15c;" horiz-adv-x="558" d="M247 337q-84 26 -129 71.5t-45 114.5q0 41 13.5 77t41.5 63t70 42.5t99 15.5q27 0 55 -4t54 -11t48 -16.5t37 -19.5l-24 -52q-23 15 -69 30t-105 15q-76 0 -116 -35t-40 -97q0 -24 6.5 -43t21.5 -35t40 -29t62 -26l72 -25q86 -30 124.5 -75t38.5 -116q0 -41 -14.5 -77 t-43 -62.5t-72 -42t-100.5 -15.5q-43 0 -80 7t-66.5 17t-50 20.5t-29.5 17.5l26 52q14 -9 33.5 -18.5t44.5 -18t56 -14t67 -5.5q74 0 119 33t45 101q0 50 -29 84t-98 56zM428 762l-137 97l-137 -97l-33 34l142 123h56l142 -123z" />
<glyph unicode="&#x15d;" horiz-adv-x="464" d="M68 80q25 -14 65.5 -27t97.5 -13q74 0 101.5 25t27.5 63q0 36 -22 59t-84 34l-54 10q-32 6 -58 15.5t-45.5 25t-30 38t-10.5 55.5q0 69 51 106.5t133 37.5q50 0 90.5 -11t64.5 -24l-21 -46q-22 11 -54.5 20t-76.5 9q-68 0 -99.5 -21.5t-31.5 -63.5q0 -19 5.5 -33 t18 -24.5t34 -18t53.5 -13.5l55 -10q30 -6 55.5 -16.5t44 -27t29 -39t10.5 -53.5q0 -68 -48.5 -108t-136.5 -40q-62 0 -112 15t-73 30zM83 612l135 126h50l135 -126l-34 -32l-126 98l-126 -98z" />
<glyph unicode="&#x15e;" horiz-adv-x="558" d="M247 337q-84 26 -129 71.5t-45 114.5q0 41 13.5 77t41.5 63t70 42.5t99 15.5q27 0 55 -4t54 -11t48 -16.5t37 -19.5l-24 -52q-23 15 -69 30t-105 15q-76 0 -116 -35t-40 -97q0 -24 6.5 -43t21.5 -35t40 -29t62 -26l72 -25q86 -30 124.5 -75t38.5 -116q0 -39 -13 -73 t-38.5 -60.5t-64.5 -43t-90 -19.5l-7 -35q50 -4 74.5 -29t24.5 -61q0 -48 -34 -74t-89 -26q-42 0 -65.5 7t-28.5 9l10 43q17 -5 34 -9t42 -4q35 0 54 12t19 40q0 22 -16 34.5t-53 12.5q-8 0 -17 -0.5t-17 -2.5l18 83q-38 2 -70.5 9.5t-58 17t-43.5 19t-27 15.5l26 52 q14 -9 33.5 -18.5t44.5 -18t56 -14t67 -5.5q74 0 119 33t45 101q0 50 -29 84t-98 56z" />
<glyph unicode="&#x15f;" horiz-adv-x="464" d="M68 80q25 -14 65.5 -27t97.5 -13q74 0 101.5 25t27.5 63q0 36 -22 59t-84 34l-54 10q-32 6 -58 15.5t-45.5 25t-30 38t-10.5 55.5q0 69 51 106.5t133 37.5q50 0 90.5 -11t64.5 -24l-21 -46q-22 11 -54.5 20t-76.5 9q-68 0 -99.5 -21.5t-31.5 -63.5q0 -19 5.5 -33 t18 -24.5t34 -18t53.5 -13.5l55 -10q30 -6 55.5 -16.5t44 -27t29 -39t10.5 -53.5q0 -66 -45 -105t-126 -42l-8 -39q50 -4 74.5 -28t24.5 -62q0 -48 -34.5 -74t-88.5 -26q-42 0 -65.5 7t-28.5 9l11 40q17 -5 33.5 -9t41.5 -4q37 0 57 14t20 42q0 49 -74 49q-14 0 -30 -3 l18 85q-51 4 -90.5 17t-59.5 26z" />
<glyph unicode="&#x160;" horiz-adv-x="558" d="M247 337q-84 26 -129 71.5t-45 114.5q0 41 13.5 77t41.5 63t70 42.5t99 15.5q27 0 55 -4t54 -11t48 -16.5t37 -19.5l-24 -52q-23 15 -69 30t-105 15q-76 0 -116 -35t-40 -97q0 -24 6.5 -43t21.5 -35t40 -29t62 -26l72 -25q86 -30 124.5 -75t38.5 -116q0 -41 -14.5 -77 t-43 -62.5t-72 -42t-100.5 -15.5q-43 0 -80 7t-66.5 17t-50 20.5t-29.5 17.5l26 52q14 -9 33.5 -18.5t44.5 -18t56 -14t67 -5.5q74 0 119 33t45 101q0 50 -29 84t-98 56zM270 762l-142 122l33 35l137 -98l137 98l33 -35l-142 -122h-56z" />
<glyph unicode="&#x161;" horiz-adv-x="464" d="M68 80q25 -14 65.5 -27t97.5 -13q74 0 101.5 25t27.5 63q0 36 -22 59t-84 34l-54 10q-32 6 -58 15.5t-45.5 25t-30 38t-10.5 55.5q0 69 51 106.5t133 37.5q50 0 90.5 -11t64.5 -24l-21 -46q-22 11 -54.5 20t-76.5 9q-68 0 -99.5 -21.5t-31.5 -63.5q0 -19 5.5 -33 t18 -24.5t34 -18t53.5 -13.5l55 -10q30 -6 55.5 -16.5t44 -27t29 -39t10.5 -53.5q0 -68 -48.5 -108t-136.5 -40q-62 0 -112 15t-73 30zM238 638l125 98l34 -32l-134 -126h-51l-135 126l35 32z" />
<glyph unicode="&#x162;" horiz-adv-x="565" d="M251 644h-216v59h494v-59h-215v-644h-6l-10 -49q50 -4 74.5 -29t24.5 -61q0 -48 -34 -74t-89 -26q-42 0 -65.5 7t-28.5 9l10 43q17 -5 34 -9t42 -4q35 0 54 12t19 40q0 22 -16 34.5t-53 12.5q-8 0 -17 -0.5t-17 -2.5l21 97h-6v644z" />
<glyph unicode="&#x163;" horiz-adv-x="393" d="M305 47q14 0 26 1t21 3l6 -48q-10 -3 -30 -6t-44 -3q-6 0 -12 0.5t-11 0.5l-9 -44q50 -4 74.5 -29t24.5 -61q0 -48 -34 -74t-89 -26q-42 0 -65.5 7t-28.5 9l10 43q17 -5 34 -9t42 -4q35 0 54 12t19 40q0 22 -16 34.5t-53 12.5q-8 0 -17 -0.5t-17 -2.5l21 103 q-39 15 -56.5 48.5t-17.5 83.5v306h-103v52h103v146l59 16v-162h151v-52h-151v-289q0 -34 7 -55t21 -33t34.5 -16t46.5 -4z" />
<glyph unicode="&#x164;" horiz-adv-x="565" d="M251 644h-216v59h494v-59h-215v-644h-63v644zM253 762l-142 122l33 35l137 -98l137 98l33 -35l-142 -122h-56z" />
<glyph unicode="&#x165;" horiz-adv-x="399" d="M305 47q14 0 26 1t21 3l6 -48q-10 -3 -30 -6t-44 -3q-80 0 -113.5 38t-33.5 106v306h-103v52h103v146l59 16v-162h151v-52h-151v-289q0 -34 7 -55t21 -33t34.5 -16t46.5 -4zM396 696q0 -18 -5 -40t-13.5 -43.5t-18.5 -41t-20 -32.5l-31 17q5 9 10 21.5t9.5 26.5t7.5 28 t4 26q-14 4 -25 16.5t-11 29.5q0 23 13.5 36.5t32.5 13.5q23 0 35 -16t12 -42z" />
<glyph unicode="&#x166;" horiz-adv-x="565" d="M251 342h-167v55h167v247h-216v59h494v-59h-215v-247h167v-55h-167v-342h-63v342z" />
<glyph unicode="&#x167;" horiz-adv-x="393" d="M196 257v-102q0 -34 7 -55t21 -33t34.5 -16t46.5 -4q14 0 26 1t21 3l6 -48q-10 -3 -30 -6t-44 -3q-80 0 -113.5 38t-33.5 106v119h-103v51h103v136h-103v52h103v146l59 16v-162h151v-52h-151v-136h151v-51h-151z" />
<glyph unicode="&#x168;" horiz-adv-x="654" d="M325 -16q-72 0 -118.5 21.5t-74.5 60.5t-39 92.5t-11 117.5v427h63v-413q0 -71 11 -119t33.5 -76.5t57 -40.5t80.5 -12t80 12t56.5 40.5t34 76t11.5 118.5v414h63v-428q0 -64 -11.5 -117.5t-40 -92t-76 -60t-119.5 -21.5zM257 886q25 0 44.5 -9t36 -20.5t32.5 -20.5 t35 -9q47 0 47 58h53q0 -56 -26.5 -83.5t-74.5 -27.5q-25 0 -43.5 9t-35 20t-32.5 20t-34 9q-49 0 -49 -57h-53q0 54 25 82.5t75 28.5z" />
<glyph unicode="&#x169;" horiz-adv-x="565" d="M437 496h59v-496h-55l-2 96q-24 -48 -67.5 -78t-112.5 -30q-82 0 -124 46.5t-42 137.5v324h59v-316q0 -39 9 -65.5t25.5 -42.5t39 -23t49.5 -7q38 0 68 17t51 45t32 63.5t11 73.5v255zM211 694q25 0 43.5 -9t34 -20.5t31 -20.5t34.5 -9q25 0 35 15.5t10 42.5h53 q0 -54 -25 -82.5t-73 -28.5q-24 0 -42 9t-34.5 20t-31.5 20t-33 9q-25 0 -35.5 -15t-10.5 -42h-53q0 52 24.5 81.5t72.5 29.5z" />
<glyph unicode="&#x16a;" horiz-adv-x="654" d="M325 -16q-72 0 -118.5 21.5t-74.5 60.5t-39 92.5t-11 117.5v427h63v-413q0 -71 11 -119t33.5 -76.5t57 -40.5t80.5 -12t80 12t56.5 40.5t34 76t11.5 118.5v414h63v-428q0 -64 -11.5 -117.5t-40 -92t-76 -60t-119.5 -21.5zM179 799v56h294v-56h-294z" />
<glyph unicode="&#x16b;" horiz-adv-x="565" d="M437 496h59v-496h-55l-2 96q-24 -48 -67.5 -78t-112.5 -30q-82 0 -124 46.5t-42 137.5v324h59v-316q0 -39 9 -65.5t25.5 -42.5t39 -23t49.5 -7q38 0 68 17t51 45t32 63.5t11 73.5v255zM144 614v53h284v-53h-284z" />
<glyph unicode="&#x16c;" horiz-adv-x="654" d="M325 -16q-72 0 -118.5 21.5t-74.5 60.5t-39 92.5t-11 117.5v427h63v-413q0 -71 11 -119t33.5 -76.5t57 -40.5t80.5 -12t80 12t56.5 40.5t34 76t11.5 118.5v414h63v-428q0 -64 -11.5 -117.5t-40 -92t-76 -60t-119.5 -21.5zM331 810q43 0 67 24t24 70h56q0 -29 -9 -55 t-27 -46.5t-46 -32.5t-67 -12t-67 12t-46 32t-26.5 46.5t-8.5 55.5h58q0 -46 25 -70t67 -24z" />
<glyph unicode="&#x16d;" horiz-adv-x="565" d="M437 496h59v-496h-55l-2 96q-24 -48 -67.5 -78t-112.5 -30q-82 0 -124 46.5t-42 137.5v324h59v-316q0 -39 9 -65.5t25.5 -42.5t39 -23t49.5 -7q38 0 68 17t51 45t32 63.5t11 73.5v255zM286 625q43 0 66.5 22t23.5 68h54q0 -29 -8.5 -54t-26 -44.5t-45 -30.5t-65.5 -11 q-39 0 -66.5 11t-45 30t-25.5 44.5t-8 54.5h56q0 -46 24 -68t66 -22z" />
<glyph unicode="&#x16e;" horiz-adv-x="654" d="M325 -16q-72 0 -118.5 21.5t-74.5 60.5t-39 92.5t-11 117.5v427h63v-413q0 -71 11 -119t33.5 -76.5t57 -40.5t80.5 -12t80 12t56.5 40.5t34 76t11.5 118.5v414h63v-428q0 -64 -11.5 -117.5t-40 -92t-76 -60t-119.5 -21.5zM441 822q0 -47 -30 -75t-75 -28q-46 0 -76.5 28 t-30.5 74q0 47 31.5 75t75.5 28q46 0 75.5 -28t29.5 -74zM396 821q0 29 -17 45.5t-44 16.5q-25 0 -42.5 -16.5t-17.5 -45.5t17 -45.5t43 -16.5q27 0 44 16t17 46z" />
<glyph unicode="&#x16f;" horiz-adv-x="565" d="M437 496h59v-496h-55l-2 96q-24 -48 -67.5 -78t-112.5 -30q-82 0 -124 46.5t-42 137.5v324h59v-316q0 -39 9 -65.5t25.5 -42.5t39 -23t49.5 -7q38 0 68 17t51 45t32 63.5t11 73.5v255zM393 674q0 -48 -29.5 -75.5t-75.5 -27.5q-47 0 -77 27.5t-30 74.5q0 48 31 75.5 t76 27.5q47 0 76 -27.5t29 -74.5zM348 673q0 29 -17 45.5t-44 16.5q-25 0 -42.5 -16t-17.5 -46q0 -29 17 -45.5t43 -16.5q27 0 44 16.5t17 45.5z" />
<glyph unicode="&#x170;" horiz-adv-x="654" d="M325 -16q-72 0 -118.5 21.5t-74.5 60.5t-39 92.5t-11 117.5v427h63v-413q0 -71 11 -119t33.5 -76.5t57 -40.5t80.5 -12t80 12t56.5 40.5t34 76t11.5 118.5v414h63v-428q0 -64 -11.5 -117.5t-40 -92t-76 -60t-119.5 -21.5zM372 794l138 148l42 -43l-146 -139zM173 794 l138 148l42 -43l-146 -139z" />
<glyph unicode="&#x171;" horiz-adv-x="565" d="M437 496h59v-496h-55l-2 96q-24 -48 -67.5 -78t-112.5 -30q-82 0 -124 46.5t-42 137.5v324h59v-316q0 -39 9 -65.5t25.5 -42.5t39 -23t49.5 -7q38 0 68 17t51 45t32 63.5t11 73.5v255zM318 599l141 161l44 -40l-149 -153zM119 599l141 161l44 -40l-149 -153z" />
<glyph unicode="&#x172;" horiz-adv-x="654" d="M395 -181q-7 -1 -13 -1.5t-16 -0.5q-46 0 -72 20.5t-26 53.5q0 29 12.5 51.5t33.5 41.5q-68 2 -113 24t-71.5 60.5t-37 91.5t-10.5 116v427h63v-413q0 -71 11 -119t33.5 -76.5t57 -40.5t80.5 -12t80 12t56.5 40.5t34 76t11.5 118.5v414h63v-428q0 -58 -9.5 -107.5 t-32 -87t-60 -61.5t-94.5 -31q-20 -18 -35 -39t-15 -45q0 -22 13.5 -32t37.5 -10q13 0 18 1v-44z" />
<glyph unicode="&#x173;" horiz-adv-x="565" d="M487 -178q-7 -1 -11 -1.5t-14 -0.5q-42 0 -70 17t-28 57q0 32 18 57.5t47 48.5l-2 96q-24 -48 -67.5 -78t-112.5 -30q-82 0 -124 46.5t-42 137.5v324h59v-316q0 -39 9 -65.5t25.5 -42.5t39 -23t49.5 -7q38 0 68 17t51 45t32 63.5t11 73.5v255h59v-496q-26 -20 -45.5 -44 t-19.5 -52q0 -20 12 -31t39 -11q13 0 17 1v-41z" />
<glyph unicode="&#x174;" horiz-adv-x="768" d="M236 0h-69l-152 703h65l127 -609l146 592h62l142 -591l132 608h64l-160 -703h-70l-140 585zM521 762l-137 97l-137 -97l-33 34l142 123h56l142 -123z" />
<glyph unicode="&#x175;" horiz-adv-x="684" d="M22 496h63l122 -430l107 415h61l107 -415l121 430h59l-149 -496h-64l-106 408l-107 -408h-64zM186 612l135 126h50l135 -126l-34 -32l-126 98l-126 -98z" />
<glyph unicode="&#x176;" horiz-adv-x="544" d="M238 307l-221 396h72l183 -336l187 336h68l-226 -394v-309h-63v307zM411 762l-137 97l-137 -97l-33 34l142 123h56l142 -123z" />
<glyph unicode="&#x177;" horiz-adv-x="490" d="M22 496h66l158 -405l161 405h61l-299 -716h-58l103 244zM93 612l135 126h50l135 -126l-34 -32l-126 98l-126 -98z" />
<glyph unicode="&#x178;" horiz-adv-x="544" d="M238 307l-221 396h72l183 -336l187 336h68l-226 -394v-309h-63v307zM129 834q0 24 14 38t34 14q21 0 34.5 -14t13.5 -38q0 -23 -13.5 -37.5t-34.5 -14.5q-20 0 -34 14.5t-14 37.5zM327 834q0 24 14 38t34 14q21 0 35 -14t14 -38q0 -23 -14 -37.5t-35 -14.5 q-20 0 -34 14.5t-14 37.5z" />
<glyph unicode="&#x179;" horiz-adv-x="579" d="M50 50l394 595h-384v58h461v-50l-395 -595h407v-58h-483v50zM175 831l230 76l18 -60l-233 -62z" />
<glyph unicode="&#x17a;" horiz-adv-x="482" d="M56 41l297 409h-293v51h367v-42l-298 -409h301v-50h-374v41zM353 749l28 -56l-227 -105l-21 43z" />
<glyph unicode="&#x17b;" horiz-adv-x="579" d="M50 50l394 595h-384v58h461v-50l-395 -595h407v-58h-483v50zM246 829q0 23 14 37t34 14t33 -14t13 -37t-13 -36t-33 -13t-34 13t-14 36z" />
<glyph unicode="&#x17c;" horiz-adv-x="482" d="M56 41l297 409h-293v51h367v-42l-298 -409h301v-50h-374v41zM204 640q0 22 13 35.5t33 13.5t32 -13.5t12 -35.5t-12 -35t-32 -13t-33 13t-13 35z" />
<glyph unicode="&#x17d;" horiz-adv-x="579" d="M50 50l394 595h-384v58h461v-50l-395 -595h407v-58h-483v50zM272 762l-142 122l33 35l137 -98l137 98l33 -35l-142 -122h-56z" />
<glyph unicode="&#x17e;" horiz-adv-x="482" d="M56 41l297 409h-293v51h367v-42l-298 -409h301v-50h-374v41zM257 638l125 98l34 -32l-134 -126h-51l-135 126l35 32z" />
<glyph unicode="&#x17f;" horiz-adv-x="230" d="M81 550q0 46 8.5 84t28.5 65.5t53 42.5t81 15q26 0 47 -3.5t32 -6.5l-7 -49q-8 2 -25 4t-34 2q-37 0 -61 -9t-38.5 -29t-20 -51.5t-5.5 -77.5v-537h-59v550z" />
<glyph unicode="&#x181;" horiz-adv-x="674" d="M364 703q55 0 94.5 -14.5t64.5 -38.5t37 -56t12 -68q0 -34 -10 -60.5t-25.5 -46t-34 -32t-34.5 -18.5q25 -6 50 -19.5t45 -34.5t33 -51t13 -69q0 -87 -56 -141t-176 -54h-210v647q-98 0 -98 -98q0 -5 0.5 -14t2.5 -18l-51 -8q-2 8 -4 23.5t-2 24.5q0 69 39.5 107.5 t124.5 38.5h185zM385 56q86 0 123 37t37 103q0 69 -47.5 104t-135.5 35h-134v-279h157zM353 390q84 0 120.5 38t36.5 98q0 34 -13 57.5t-34 37.5t-48.5 20t-57.5 6h-129v-257h125z" />
<glyph unicode="&#x186;" horiz-adv-x="623" d="M70 108q13 -10 30 -21t39.5 -20.5t50 -15.5t60.5 -6q116 0 177.5 78.5t61.5 234.5q0 147 -57.5 224t-174.5 77q-64 0 -109.5 -21t-71.5 -42l-31 44q14 11 34 24t46.5 24t60 18.5t74.5 7.5q77 0 132.5 -25t91.5 -71.5t53.5 -112.5t17.5 -149t-18.5 -150.5t-55.5 -115.5 t-93.5 -74.5t-131.5 -26.5q-74 0 -128.5 22t-87.5 51z" />
<glyph unicode="&#x18a;" horiz-adv-x="756" d="M376 703q153 0 232.5 -91.5t79.5 -260.5q0 -85 -21.5 -150.5t-62 -110t-98.5 -67.5t-130 -23h-209v647q-98 0 -98 -98q0 -5 0.5 -14t2.5 -18l-51 -8q-2 8 -4 23.5t-2 24.5q0 69 39.5 107.5t124.5 38.5h197zM376 58q114 0 180.5 75t66.5 219q0 151 -66.5 222t-180.5 71 h-146v-587h146z" />
<glyph unicode="&#x18f;" horiz-adv-x="693" d="M132 318q7 -137 61.5 -205.5t148.5 -68.5q52 0 91.5 19.5t66.5 55t41.5 86t16.5 113.5h-426zM559 373q-4 147 -67.5 216.5t-171.5 69.5q-32 0 -59.5 -6t-50.5 -16t-41 -21.5t-30 -21.5l-31 45q10 10 30 23t47.5 25t63 20t76.5 8q151 0 225 -95t74 -265q0 -84 -19 -152.5 t-55 -116.5t-88.5 -74t-119.5 -26q-55 0 -105 20t-88 64t-60.5 115.5t-22.5 173.5v14h493z" />
<glyph unicode="&#x190;" horiz-adv-x="560" d="M310 333q-86 0 -133.5 -34.5t-47.5 -112.5q0 -38 12 -65.5t34 -44.5t53 -25t69 -8q34 0 64 5.5t54.5 14t44.5 18t34 18.5l26 -52q-12 -8 -32.5 -19t-49 -20.5t-64.5 -16t-77 -6.5q-59 0 -102.5 14.5t-72.5 40.5t-43.5 62t-14.5 79t12.5 75t32.5 55t43.5 36.5t46.5 19.5 q-19 7 -38.5 21t-36 34.5t-27 48.5t-10.5 64q0 40 14.5 74.5t42.5 59t69 38.5t95 14t106.5 -15.5t86.5 -36.5l-24 -52q-23 15 -67.5 30.5t-101.5 15.5q-78 0 -117.5 -35t-39.5 -98q0 -60 38.5 -100t120.5 -40h78v-57h-78z" />
<glyph unicode="&#x192;" d="M249 378h-101l4 50h102l11 129q8 94 56.5 147t141.5 53q29 0 51 -4.5t33 -7.5l-14 -49q-8 2 -26 5t-40 3q-39 0 -65.5 -11.5t-43 -34t-24.5 -54.5t-12 -74l-8 -102h155l-3 -50h-157l-35 -406q-9 -100 -55 -151.5t-139 -51.5q-8 0 -19 1t-22 2.5t-21 4t-17 4.5l11 49 q15 -3 34 -6t33 -3q36 0 60.5 10t40 31t23.5 54.5t12 80.5z" />
<glyph unicode="&#x198;" horiz-adv-x="567" d="M546 0h-81l-310 368v-368h-63v703h63v-324l206 262q31 39 64 52.5t62 13.5q22 0 39.5 -4t30.5 -9l-15 -52q-13 4 -26 6.5t-26 2.5q-23 -1 -45.5 -11t-42.5 -36l-173 -226z" />
<glyph unicode="&#x199;" horiz-adv-x="461" d="M443 0h-76l-227 266v-266h-59v589q0 86 39.5 128.5t107.5 42.5q17 0 33.5 -2.5t31.5 -7.5l-9 -48q-21 6 -48 6q-19 0 -36.5 -5t-30.5 -18t-21 -35.5t-8 -58.5v-318l212 223h71l-216 -223z" />
<glyph unicode="&#x1a0;" horiz-adv-x="734" d="M69 352q0 82 19.5 149.5t57.5 115.5t94 74.5t128 26.5q44 0 81 -10t68 -28q35 1 48.5 16.5t13.5 41.5q0 24 -6.5 43.5t-14.5 32.5h63q7 -14 12.5 -37t5.5 -41q0 -78 -70 -97q48 -49 72 -122t24 -165q0 -82 -19.5 -149.5t-57 -116t-93.5 -75t-128 -26.5t-128 26.5 t-93.5 75t-57 116t-19.5 149.5zM135 352q0 -70 14 -126.5t43 -97t72.5 -62.5t102.5 -22t102.5 22t72.5 62.5t43 97t14 126.5t-14 126.5t-43 96.5t-72.5 62t-102.5 22t-102.5 -22t-72.5 -62t-43 -96.5t-14 -126.5z" />
<glyph unicode="&#x1a1;" horiz-adv-x="584" d="M527 530q0 -37 -18 -59.5t-51 -32.5q29 -35 44.5 -83.5t15.5 -105.5t-15 -105t-43.5 -82.5t-71.5 -53.5t-98 -19q-56 0 -99 19t-71.5 53.5t-43 82.5t-14.5 105t15 104.5t43.5 82t71 54t98.5 19.5q70 0 121 -31q32 2 45.5 15t13.5 37t-6 43t-14 32h59q7 -14 12.5 -35.5 t5.5 -39.5zM290 43q86 0 127 55.5t41 150.5q0 93 -41.5 149.5t-126.5 56.5q-84 0 -125.5 -56.5t-41.5 -149.5q0 -95 41 -150.5t126 -55.5z" />
<glyph unicode="&#x1af;" horiz-adv-x="657" d="M325 -16q-72 0 -118.5 21.5t-74.5 60.5t-39 92.5t-11 117.5v427h63v-413q0 -71 11 -119t33.5 -76.5t57 -40.5t80.5 -12t80 12t56.5 40.5t34 76t11.5 118.5v414h45q22 0 34.5 13.5t12.5 34.5q0 20 -6 37.5t-11 28.5h59q5 -11 11 -30t6 -40q0 -41 -23 -64t-65 -29v-379 q0 -64 -11.5 -117.5t-40 -92t-76 -60t-119.5 -21.5z" />
<glyph unicode="&#x1b0;" horiz-adv-x="587" d="M425 496h36q27 0 42.5 12t15.5 36q0 16 -6.5 33t-12.5 28h59q5 -11 10.5 -27.5t5.5 -35.5q0 -36 -23.5 -60.5t-67.5 -29.5v-452h-55l-2 96q-24 -48 -67.5 -78t-112.5 -30q-82 0 -124 46.5t-42 137.5v324h59v-316q0 -39 9 -65.5t25.5 -42.5t39 -23t49.5 -7q38 0 68 17 t51 45t32 63.5t11 73.5v255z" />
<glyph unicode="&#x1b3;" horiz-adv-x="605" d="M301 0h-63v307l-221 396h72l183 -336l139 255q28 51 59.5 71t78.5 20q11 0 20 -1.5t19 -3.5l-10 -54q-17 3 -31 3q-23 -1 -43.5 -11.5t-42.5 -48.5l-160 -288v-309z" />
<glyph unicode="&#x1b4;" horiz-adv-x="557" d="M214 23l-192 473h66l157 -404l116 308q20 53 50.5 76.5t81.5 24.5q13 0 24.5 -1.5t22.5 -3.5l-9 -52q-15 4 -32 4q-28 -1 -49 -14t-37 -52l-237 -602h-59z" />
<glyph unicode="&#x1b7;" horiz-adv-x="562" d="M410 645h-333v58h410v-52l-217 -255q40 -3 80.5 -14.5t73.5 -35t54 -61.5t21 -96q0 -43 -14.5 -80t-43.5 -64.5t-73 -43.5t-102 -16q-43 0 -80 7t-66.5 17t-50 20.5t-29.5 17.5l26 52q14 -9 33.5 -18.5t44.5 -18t56 -14t67 -5.5q76 0 121.5 36t45.5 108q0 81 -55 119.5 t-182 39.5v48z" />
<glyph unicode="&#x1cd;" horiz-adv-x="579" d="M431 196h-289l-63 -196h-60l235 703h70l236 -703h-65zM159 251h254l-126 380zM259 762l-142 122l33 35l137 -98l137 98l33 -35l-142 -122h-56z" />
<glyph unicode="&#x1ce;" horiz-adv-x="518" d="M381 240q-8 2 -22.5 4.5t-33.5 4.5t-41 3.5t-43 1.5q-74 0 -103.5 -31t-29.5 -85q0 -52 33 -77t86 -25q31 0 59 11.5t49 30t33.5 42.5t12.5 49v71zM204 -12q-26 0 -53.5 7.5t-49.5 24.5t-36 46t-14 71q0 72 46 117.5t139 45.5q22 0 45 -1.5t42.5 -4t34.5 -5t23 -3.5v49 q0 65 -37 93t-106 28q-50 0 -83 -11.5t-54 -22.5l-19 44q19 11 62 26.5t109 15.5q88 0 136 -41.5t48 -126.5v-340h-53l-2 76q-15 -25 -35 -42t-43.5 -27t-49 -14.5t-50.5 -4.5zM261 638l125 98l34 -32l-134 -126h-51l-135 126l35 32z" />
<glyph unicode="&#x1cf;" horiz-adv-x="247" d="M155 0h-63v703h63v-703zM97 762l-142 122l33 35l137 -98l137 98l33 -35l-142 -122h-56z" />
<glyph unicode="&#x1d0;" horiz-adv-x="229" d="M84 496h60v-496h-60v496zM117 638l125 98l34 -32l-134 -126h-51l-135 126l35 32z" />
<glyph unicode="&#x1d1;" horiz-adv-x="734" d="M69 352q0 82 19.5 149.5t57.5 115.5t94 74.5t128 26.5t127.5 -26.5t93 -74.5t57 -115.5t19.5 -149.5t-19.5 -149.5t-57 -116t-93.5 -75t-128 -26.5t-128 26.5t-93.5 75t-57 116t-19.5 149.5zM135 352q0 -70 14 -126.5t43 -97t72.5 -62.5t102.5 -22t102.5 22t72.5 62.5 t43 97t14 126.5t-14 126.5t-43 96.5t-72.5 62t-102.5 22t-102.5 -22t-72.5 -62t-43 -96.5t-14 -126.5zM339 762l-142 122l33 35l137 -98l137 98l33 -35l-142 -122h-56z" />
<glyph unicode="&#x1d2;" horiz-adv-x="581" d="M290 43q86 0 127 55.5t41 150.5q0 93 -41.5 149.5t-126.5 56.5q-84 0 -125.5 -56.5t-41.5 -149.5q0 -95 41 -150.5t126 -55.5zM290 509q57 0 99.5 -19.5t71 -54t43 -82t14.5 -104.5t-15 -105t-43.5 -82.5t-71.5 -53.5t-98 -19q-56 0 -99 19t-71.5 53.5t-43 82.5 t-14.5 105t15 104.5t43.5 82t71 54t98.5 19.5zM291 638l125 98l34 -32l-134 -126h-51l-135 126l35 32z" />
<glyph unicode="&#x1d3;" horiz-adv-x="654" d="M325 -16q-72 0 -118.5 21.5t-74.5 60.5t-39 92.5t-11 117.5v427h63v-413q0 -71 11 -119t33.5 -76.5t57 -40.5t80.5 -12t80 12t56.5 40.5t34 76t11.5 118.5v414h63v-428q0 -64 -11.5 -117.5t-40 -92t-76 -60t-119.5 -21.5zM299 762l-142 122l33 35l137 -98l137 98l33 -35 l-142 -122h-56z" />
<glyph unicode="&#x1d4;" horiz-adv-x="565" d="M425 496h59v-496h-55l-2 96q-24 -48 -67.5 -78t-112.5 -30q-82 0 -124 46.5t-42 137.5v324h59v-316q0 -39 9 -65.5t25.5 -42.5t39 -23t49.5 -7q38 0 68 17t51 45t32 63.5t11 73.5v255zM277 638l125 98l34 -32l-134 -126h-51l-135 126l35 32z" />
<glyph unicode="&#x1e4;" horiz-adv-x="683" d="M586 32q-9 -5 -27 -13t-45 -15.5t-62 -13t-78 -5.5q-155 0 -230.5 91.5t-75.5 271.5q0 80 18.5 148t56 117.5t93.5 77.5t131 28q69 0 119.5 -17.5t92.5 -50.5l-30 -46q-13 9 -29 19.5t-37.5 19t-49.5 14.5t-64 6q-53 0 -96.5 -19.5t-74 -59t-47.5 -99t-17 -138.5 q0 -160 62.5 -232.5t185.5 -72.5q48 0 85.5 7.5t60.5 16.5v92h-150v52h150v100h-150v56h208v-156h75v-52h-75v-127z" />
<glyph unicode="&#x1e5;" horiz-adv-x="544" d="M70 340q0 44 18.5 76t48 52.5t65.5 30.5t71 10q20 0 36 -2t29.5 -4.5t26 -4.5t26.5 -2h135v-47h-28q-15 0 -39.5 1t-40.5 4q28 -18 44 -50t16 -67q0 -44 -19 -75t-48 -51t-64.5 -29t-69.5 -9q-69 0 -119 25q-14 -12 -25.5 -27.5t-11.5 -35.5q0 -16 5 -27.5t18 -19t35 -11 t56 -4.5l108 -2q32 -1 61 -7t51.5 -20t36.5 -37t16 -58h66v-44h-71q-7 -29 -26.5 -54t-51 -43.5t-75 -29t-99.5 -10.5q-39 0 -74.5 7t-63.5 23t-45 42t-18 65h-66v44h69q6 30 21 54.5t38 44.5q-20 10 -32 27.5t-12 45.5q0 30 17.5 55t39.5 42q-26 22 -40.5 53t-14.5 69z M420 340q0 34 -12.5 57.5t-32.5 38t-46.5 20.5t-53.5 6q-28 0 -54.5 -6.5t-47 -21t-33 -38t-12.5 -56.5q0 -34 12.5 -57t33 -37.5t46.5 -20.5t54 -6q27 0 53.5 6t47 20.5t33 37.5t12.5 57zM252 -188q79 0 132 25t68 68h-353q3 -27 17 -45t35 -28.5t47 -15t54 -4.5zM101 -51 h355q-3 30 -26.5 51.5t-83.5 23.5l-123 3q-15 0 -33.5 1t-36.5 6q-18 -14 -32.5 -36t-19.5 -49z" />
<glyph unicode="&#x1e6;" horiz-adv-x="652" d="M368 664q-53 0 -96.5 -19.5t-74 -59t-47.5 -99t-17 -138.5q0 -160 62.5 -232.5t185.5 -72.5q48 0 85.5 7.5t60.5 16.5v234h-150v56h208v-325q-9 -5 -27.5 -12.5t-45 -15.5t-61.5 -13.5t-78 -5.5q-154 0 -230 92t-76 271q0 80 18.5 148t56 117.5t93.5 77.5t131 28 q68 0 119.5 -17.5t92.5 -50.5l-30 -46q-13 9 -29 19.5t-37.5 19.5t-49.5 14.5t-64 5.5zM342 762l-142 122l33 35l137 -98l137 98l33 -35l-142 -122h-56z" />
<glyph unicode="&#x1e7;" horiz-adv-x="542" d="M416 454q28 -19 44 -52t16 -70q0 -46 -19 -78.5t-48 -53.5t-64.5 -30.5t-69.5 -9.5q-32 0 -62 5.5t-57 20.5q-14 -12 -25.5 -29t-11.5 -38q0 -17 5 -29t18 -20t35 -12t57 -5l110 -2q33 -1 63 -7t53.5 -19.5t37 -36.5t13.5 -58q0 -33 -16 -62.5t-49 -51.5t-82.5 -35 t-115.5 -13q-41 0 -78 6.5t-65 22.5t-45 41t-17 63q0 41 19.5 71.5t48.5 53.5q-19 10 -32 29t-13 48q0 33 18 60t40 45q-26 21 -41 51.5t-15 73.5q0 46 18.5 79t48 54.5t65.5 32t71 10.5q20 0 36 -2t29.5 -4.5t26 -4.5t26.5 -2h135v-47h-28q-15 0 -39.5 1t-40.5 4zM249 3 q-22 1 -47.5 1.5t-49.5 6.5q-17 -13 -35 -38t-18 -60q0 -29 12.5 -47.5t33.5 -30t48 -16t57 -4.5q46 0 83.5 7.5t63.5 22t40.5 34t14.5 43.5q0 15 -4 29t-15.5 25t-32 17.5t-52.5 7.5zM418 334q0 36 -12.5 60.5t-32.5 39.5t-46.5 21.5t-53.5 6.5q-28 0 -54.5 -7t-47 -22 t-33 -39.5t-12.5 -59.5q0 -36 12.5 -60.5t33 -39.5t46.5 -21.5t54 -6.5q27 0 53.5 6.5t47 21.5t33 39.5t12.5 60.5zM275 638l125 98l34 -32l-134 -126h-51l-135 126l35 32z" />
<glyph unicode="&#x1e8;" horiz-adv-x="553" d="M264 762l-142 122l33 35l137 -98l137 98l33 -35l-142 -122h-56zM155 0h-63v703h63v-324l293 324h74l-293 -325l317 -378h-81l-310 368v-368z" />
<glyph unicode="&#x1e9;" horiz-adv-x="462" d="M256 772h-54l-121 116l30 31l118 -90l118 90l31 -31zM444 0h-76l-227 266v-266h-59v750h59v-477l212 223h71l-216 -223z" />
<glyph unicode="&#x1ee;" horiz-adv-x="562" d="M410 645h-333v58h410v-52l-217 -255q40 -3 80.5 -14.5t73.5 -35t54 -61.5t21 -96q0 -43 -14.5 -80t-43.5 -64.5t-73 -43.5t-102 -16q-43 0 -80 7t-66.5 17t-50 20.5t-29.5 17.5l26 52q14 -9 33.5 -18.5t44.5 -18t56 -14t67 -5.5q76 0 121.5 36t45.5 108q0 81 -55 119.5 t-182 39.5v48zM247 762l-142 122l33 35l137 -98l137 98l33 -35l-142 -122h-56z" />
<glyph unicode="&#x1ef;" horiz-adv-x="460" d="M350 444h-316v52h380v-52l-195 -261q37 -3 74 -16.5t66.5 -38t48 -61t18.5 -87.5q0 -46 -15 -85t-43.5 -67t-70.5 -43.5t-96 -15.5q-37 0 -70 6.5t-59 16.5t-45.5 20.5t-29.5 18.5l26 46q26 -17 71.5 -35t104.5 -18q76 0 121 38.5t45 113.5t-51 117t-160 42v48zM232 638 l125 98l34 -32l-134 -126h-51l-135 126l35 32z" />
<glyph unicode="&#x1fa;" horiz-adv-x="579" d="M382 769q0 -31 -14.5 -53t-38.5 -32l231 -684h-65l-64 196h-289l-63 -196h-60l228 684q-25 10 -40 32t-15 52q0 43 28 68t68 25q42 0 68 -25t26 -67zM413 251l-126 380l-128 -380h254zM384 928l-165 -42l-15 47l162 56zM287 714q23 0 38 14t15 40t-15 40t-38 14 q-22 0 -37 -14t-15 -40t14.5 -40t37.5 -14z" />
<glyph unicode="&#x1fb;" horiz-adv-x="518" d="M381 240q-8 2 -22.5 4.5t-33.5 4.5t-41 3.5t-43 1.5q-74 0 -103.5 -31t-29.5 -85q0 -52 33 -77t86 -25q31 0 59 11.5t49 30t33.5 42.5t12.5 49v71zM204 -12q-26 0 -53.5 7.5t-49.5 24.5t-36 46t-14 71q0 72 46 117.5t139 45.5q22 0 45 -1.5t42.5 -4t34.5 -5t23 -3.5v49 q0 65 -37 93t-106 28q-50 0 -83 -11.5t-54 -22.5l-19 44q19 11 62 26.5t109 15.5q88 0 136 -41.5t48 -126.5v-340h-53l-2 76q-15 -25 -35 -42t-43.5 -27t-49 -14.5t-50.5 -4.5zM354 658q0 -44 -26 -68.5t-68 -24.5q-43 0 -69.5 24.5t-26.5 67.5q0 44 27.5 68.5t68.5 24.5 q43 0 68.5 -24.5t25.5 -67.5zM259 603q23 0 38 14t15 40t-15 40t-38 14q-22 0 -37 -14t-15 -40t14.5 -40t37.5 -14zM357 825l-165 -42l-15 46l162 56z" />
<glyph unicode="&#x1fc;" horiz-adv-x="845" d="M388 703h416v-58h-324v-250h253v-58h-253v-279h334v-58h-396v203h-229l-106 -203h-66zM219 257h199v385zM436 831l230 76l18 -60l-233 -62z" />
<glyph unicode="&#x1fd;" horiz-adv-x="862" d="M621 43q29 0 50.5 3t37 7.5t26 9t18.5 7.5l17 -46q-12 -8 -49.5 -21.5t-105.5 -13.5q-48 0 -82 11.5t-58 28.5t-38.5 37.5t-23.5 38.5q-8 -17 -22.5 -37.5t-38 -38t-58 -29.5t-82.5 -12q-72 0 -116.5 38.5t-44.5 110.5q0 78 49.5 119.5t140.5 41.5q29 0 67.5 -3t71.5 -9 v47q0 59 -37.5 91t-101.5 32q-50 0 -86.5 -12t-53.5 -22l-19 44q8 6 22.5 13t36 13.5t50 11t65.5 4.5q63 0 103.5 -27.5t62.5 -70.5q12 18 28 36t37 32t48 22.5t60 8.5q107 0 157 -67.5t50 -192.5v-17h-364q2 -42 13 -76.5t33 -59.5t55.5 -39t81.5 -14zM380 238 q-5 1 -20.5 4t-35.5 5t-42 4t-41 2q-68 0 -100.5 -27.5t-32.5 -88.5q0 -49 31.5 -75t87.5 -26q33 0 61 10t48.5 27.5t32 41t11.5 50.5v73zM742 280q-5 86 -39.5 131t-107.5 45q-72 0 -111.5 -47.5t-44.5 -128.5h303zM557 749l28 -56l-227 -105l-21 43z" />
<glyph unicode="&#x1fe;" horiz-adv-x="734" d="M157 73q-44 48 -66 119.5t-22 159.5q0 82 19.5 149.5t57 115.5t93.5 74.5t128 26.5q52 0 94 -14t77 -40l55 86l44 -27l-60 -93q44 -48 66 -119t22 -159q0 -82 -19.5 -149.5t-57 -116t-93.5 -75t-128 -26.5q-51 0 -93.5 13.5t-77.5 39.5l-50 -79l-44 28zM135 352 q0 -70 14.5 -127t43.5 -97l313 485q-27 22 -61.5 34t-77.5 12q-59 0 -102.5 -22t-72.5 -62t-43 -96.5t-14 -126.5zM599 352q0 141 -58 222l-311 -485q54 -45 137 -45q59 0 102.5 22t72.5 62.5t43 97t14 126.5zM242 831l230 76l18 -60l-233 -62z" />
<glyph unicode="&#x1ff;" horiz-adv-x="581" d="M290 509q76 0 129 -36l46 66l38 -26l-49 -70q32 -35 48 -84.5t16 -109.5q0 -57 -15 -105t-43.5 -82.5t-71.5 -53.5t-98 -19q-38 0 -70.5 9t-58.5 26l-43 -62l-39 25l47 67q-32 35 -48 85t-16 110q0 57 15 104.5t43.5 82t71 54t98.5 19.5zM123 249q0 -93 37 -145l226 323 q-39 28 -96 28q-84 0 -125.5 -56t-41.5 -150zM290 42q84 0 125 54.5t43 146.5q0 15 -1 29.5t-3 28.5q-9 54 -35 92l-226 -323q39 -28 97 -28zM389 749l28 -56l-227 -105l-21 43z" />
<glyph unicode="&#x218;" horiz-adv-x="558" d="M247 337q-84 26 -129 71.5t-45 114.5q0 41 13.5 77t41.5 63t70 42.5t99 15.5q27 0 55 -4t54 -11t48 -16.5t37 -19.5l-24 -52q-23 15 -69 30t-105 15q-76 0 -116 -35t-40 -97q0 -24 6.5 -43t21.5 -35t40 -29t62 -26l72 -25q86 -30 124.5 -75t38.5 -116q0 -41 -14.5 -77 t-43 -62.5t-72 -42t-100.5 -15.5q-43 0 -80 7t-66.5 17t-50 20.5t-29.5 17.5l26 52q14 -9 33.5 -18.5t44.5 -18t56 -14t67 -5.5q74 0 119 33t45 101q0 50 -29 84t-98 56zM331 -102q0 -42 -20 -82t-44 -68l-31 19q14 21 25 47.5t13 42.5q-14 5 -26.5 17t-12.5 29 q0 21 12.5 35t33.5 14q23 0 36.5 -15t13.5 -39z" />
<glyph unicode="&#x219;" horiz-adv-x="464" d="M68 80q25 -14 65.5 -27t97.5 -13q74 0 101.5 25t27.5 63q0 36 -22 59t-84 34l-54 10q-32 6 -58 15.5t-45.5 25t-30 38t-10.5 55.5q0 69 51 106.5t133 37.5q50 0 90.5 -11t64.5 -24l-21 -46q-22 11 -54.5 20t-76.5 9q-68 0 -99.5 -21.5t-31.5 -63.5q0 -19 5.5 -33 t18 -24.5t34 -18t53.5 -13.5l55 -10q30 -6 55.5 -16.5t44 -27t29 -39t10.5 -53.5q0 -68 -48.5 -108t-136.5 -40q-62 0 -112 15t-73 30zM281 -102q0 -42 -20.5 -82t-44.5 -68l-29 19q14 21 24.5 48t12.5 43q-11 4 -24 16t-13 30q0 22 13 34.5t32 12.5q23 0 36 -15t13 -38z " />
<glyph unicode="&#x21a;" horiz-adv-x="565" d="M251 644h-216v59h494v-59h-215v-644h-63v644zM329 -102q0 -42 -20 -82t-44 -68l-31 19q14 21 25 47.5t13 42.5q-14 5 -26.5 17t-12.5 29q0 21 12.5 35t33.5 14q23 0 36.5 -15t13.5 -39z" />
<glyph unicode="&#x21b;" horiz-adv-x="393" d="M305 47q14 0 26 1t21 3l6 -48q-10 -3 -30 -6t-44 -3q-80 0 -113.5 38t-33.5 106v306h-103v52h103v146l59 16v-162h151v-52h-151v-289q0 -34 7 -55t21 -33t34.5 -16t46.5 -4zM281 -102q0 -42 -20.5 -82t-44.5 -68l-29 19q14 21 24.5 48t12.5 43q-11 4 -24 16t-13 30 q0 22 13 34.5t32 12.5q23 0 36 -15t13 -38z" />
<glyph unicode="&#x21e;" horiz-adv-x="667" d="M512 703h63v-703h-63v346h-357v-346h-63v703h63v-298h357v298zM305 762l-142 122l33 35l137 -98l137 98l33 -35l-142 -122h-56z" />
<glyph unicode="&#x21f;" horiz-adv-x="563" d="M256 772h-54l-121 116l30 31l118 -90l118 90l31 -31zM486 0h-59v316q0 39 -9.5 66t-26 43t-39 23t-49.5 7q-38 0 -68 -17.5t-51 -45.5t-32 -64t-11 -73v-255h-59v750h59v-349q23 48 67 78t110 30q81 0 124.5 -47t43.5 -138v-324z" />
<glyph unicode="&#x250;" horiz-adv-x="518" d="M137 257q7 -2 22 -4.5t34 -4.5t41 -3.5t43 -1.5q74 0 103.5 31t29.5 85q0 52 -32.5 77t-86.5 25q-31 0 -59 -11.5t-49 -30t-33.5 -42.5t-12.5 -49v-71zM81 497h53l2 -76q30 50 78.5 69t99.5 19q26 0 53.5 -7.5t49.5 -24.5t36 -46t14 -71q0 -72 -46 -117.5t-139 -45.5 q-23 0 -45.5 2t-42 4t-34.5 4.5t-23 3.5v-49q0 -66 37 -93.5t106 -27.5q51 0 83.5 11.5t53.5 22.5l19 -44q-19 -11 -62 -26.5t-109 -15.5q-88 0 -136 41.5t-48 126.5v340z" />
<glyph unicode="&#x251;" horiz-adv-x="579" d="M441 239q0 44 -12.5 83.5t-34.5 69t-52.5 46.5t-66.5 17q-72 0 -111.5 -55t-39.5 -152q0 -54 12 -92.5t33.5 -62.5t51.5 -35.5t66 -11.5q55 0 92.5 25.5t61.5 55.5v112zM500 0h-55v71q-9 -11 -23.5 -24.5t-36 -25.5t-50 -20t-64.5 -8q-40 0 -77.5 13t-66.5 42.5 t-46.5 78.5t-17.5 121q0 54 13.5 101.5t39.5 83t65 56t89 20.5q34 0 62 -9.5t49 -24.5t36 -34t24 -38l3 93h56v-496z" />
<glyph unicode="&#x252;" horiz-adv-x="579" d="M140 129q8 -12 22 -26t33 -26.5t43 -21t51 -8.5q78 0 122.5 48t44.5 157q0 44 -9 81.5t-27 64.5t-46.5 42t-67.5 15q-33 0 -63 -14.5t-53 -42t-36.5 -67t-13.5 -89.5v-113zM81 0v496h55l2 -98q23 48 67.5 79.5t107.5 31.5q51 0 89 -19.5t63.5 -53.5t38.5 -81.5t13 -102.5 q0 -73 -19 -122.5t-49.5 -80t-69 -43.5t-76.5 -13q-60 0 -100.5 21t-66.5 56q0 -18 -0.5 -35t-0.5 -35h-54z" />
<glyph unicode="&#x253;" horiz-adv-x="579" d="M140 129q8 -12 22 -26t33 -26.5t43 -21t51 -8.5q78 0 122.5 48t44.5 157q0 44 -9 81.5t-27 64.5t-46.5 42t-67.5 15q-33 0 -63 -14.5t-53 -42t-36.5 -67t-13.5 -89.5v-113zM81 0v589q0 86 39.5 128.5t107.5 42.5q17 0 33.5 -2.5t31.5 -7.5l-9 -48q-21 6 -48 6 q-19 0 -36.5 -5t-30.5 -18t-21 -35.5t-8 -58.5v-189q22 45 66 76t107 31q51 0 89 -19.5t63.5 -53.5t38.5 -81.5t13 -102.5q0 -73 -19 -122.5t-49.5 -80t-69 -43.5t-76.5 -13q-60 0 -100.5 21t-66.5 56q0 -18 -0.5 -35t-0.5 -35h-54z" />
<glyph unicode="&#x254;" horiz-adv-x="470" d="M61 73q17 -9 46.5 -19t67.5 -10q77 0 124.5 51.5t47.5 156.5q0 104 -45 153t-115 49q-48 0 -79 -13.5t-46 -21.5l-26 42q8 6 21 14t31.5 15.5t42.5 13t56 5.5q105 0 163 -67.5t58 -193.5q0 -58 -15.5 -106t-45 -82t-72 -52.5t-97.5 -18.5q-54 0 -88.5 13.5t-51.5 25.5z " />
<glyph unicode="&#x255;" horiz-adv-x="481" d="M297 -11q-83 0 -140 40q-16 -30 -34 -68l-42 20q11 23 20.5 42.5t20.5 37.5q-60 68 -60 186q0 59 15 107t44.5 82.5t71.5 53.5t96 19q30 0 53 -5.5t41 -13t30.5 -15.5t20.5 -14l-27 -44q-14 9 -44 23t-75 14q-72 0 -118.5 -51t-46.5 -156q0 -44 8 -77.5t23 -59.5 q38 54 78.5 77t89.5 23q58 0 91 -29.5t33 -76.5q0 -28 -11.5 -49.5t-31.5 -36t-47.5 -22t-58.5 -7.5zM296 34q45 0 72.5 18.5t27.5 50.5q0 27 -19.5 44t-57.5 17q-39 0 -71 -20t-65 -71q23 -20 52 -29.5t61 -9.5z" />
<glyph unicode="&#x256;" horiz-adv-x="579" d="M500 -20q0 -85 24 -118t77 -33q11 0 25.5 2t22.5 4l7 -49q-9 -4 -28.5 -7t-32.5 -3q-80 0 -117 45t-37 138v107q-29 -32 -70 -52.5t-100 -20.5q-39 0 -76.5 12.5t-67 42t-47 78.5t-17.5 122q0 54 14 101.5t40 83t64 56t86 20.5q63 0 107 -29.5t67 -77.5v348h59v-770z M441 239q0 50 -13.5 90t-36.5 68t-53 43t-63 15q-39 0 -67.5 -16t-47 -43.5t-27.5 -65.5t-9 -82q0 -54 11.5 -92.5t33.5 -62.5t53 -35t70 -11q27 0 50.5 8t42.5 20t33.5 26.5t22.5 26.5v111z" />
<glyph unicode="&#x257;" horiz-adv-x="579" d="M441 239q0 50 -13.5 90t-36.5 68t-53 43t-63 15q-39 0 -67.5 -16t-47 -43.5t-27.5 -65.5t-9 -82q0 -54 11.5 -92.5t33.5 -62.5t53 -35t70 -11q27 0 50.5 8t42.5 20t33.5 26.5t22.5 26.5v111zM500 0h-55l-1 70q-29 -34 -71 -55.5t-102 -21.5q-39 0 -76.5 12.5t-67 42 t-47 78.5t-17.5 122q0 54 14 101.5t40 83t64 56t86 20.5q63 0 107 -29.5t67 -77.5v187q0 86 37.5 128.5t102.5 42.5q16 0 32 -2.5t30 -7.5l-9 -48q-20 6 -45 6q-18 0 -34 -5t-28 -18t-19.5 -35.5t-7.5 -58.5v-591z" />
<glyph unicode="&#x258;" horiz-adv-x="545" d="M60 242q0 139 54.5 203t149.5 64q53 0 94 -18t68.5 -52t42 -81.5t14.5 -106.5q0 -122 -59 -192t-180 -70q-57 0 -97.5 12.5t-55.5 20.5l17 46q19 -7 51 -16t77 -9q49 0 84 14.5t57 40t33 60t13 74.5h-363v10zM270 456q-77 0 -111 -46.5t-40 -129.5h304q-6 81 -42.5 128.5 t-110.5 47.5z" />
<glyph unicode="&#x259;" horiz-adv-x="547" d="M121 225q2 -89 39.5 -136t110.5 -47q75 0 112 47.5t42 135.5h-304zM426 273q-2 41 -13.5 74.5t-33 57.5t-53.5 37t-75 13q-49 0 -82.5 -14t-47.5 -23l-25 43q7 6 20.5 14.5t33 16t45.5 12.5t59 5q113 0 172 -67.5t59 -191.5q0 -59 -14.5 -107.5t-42 -82.5t-67.5 -52.5 t-91 -18.5q-45 0 -83.5 14.5t-66 47t-43 83t-15.5 122.5v17h364z" />
<glyph unicode="&#x25a;" horiz-adv-x="707" d="M475 305q3 -27 3 -55q0 -59 -15 -107.5t-43 -82.5t-69 -52.5t-93 -18.5q-91 0 -143.5 51t-64.5 137l361 152q-16 62 -57 94t-110 32q-51 0 -82.5 -13.5t-47.5 -23.5l-25 43q8 7 21.5 15t33 15.5t45 12.5t55.5 5q91 0 145.5 -40.5t75.5 -115.5l100 42l39 -11v-58 q0 -29 4.5 -48.5t13.5 -31t22 -16t30 -4.5q8 0 17 1t17 3l9 -45q-27 -8 -50 -8q-63 0 -90 36.5t-27 106.5v17zM419 245v18t-1 18l-304 -129q5 -19 15.5 -38.5t28 -35.5t42.5 -26t59 -10q75 0 116.5 51t43.5 152z" />
<glyph unicode="&#x25b;" horiz-adv-x="478" d="M356 232h-111q-54 0 -88 -21t-34 -70q0 -52 39.5 -75.5t106.5 -23.5q54 0 89.5 13t53.5 26l26 -41q-7 -6 -22.5 -15t-37.5 -17t-50.5 -13.5t-61.5 -5.5q-44 0 -81 9t-64 27t-42.5 45.5t-15.5 65.5q0 25 8 45.5t21.5 35.5t30.5 25.5t36 15.5q-14 3 -28 11t-26 21t-19.5 32 t-7.5 44q0 29 11.5 55t35 45.5t59.5 31t86 11.5q29 0 55 -6t47.5 -15t37 -19.5t24.5 -19.5l-30 -41q-18 17 -53.5 32.5t-80.5 15.5q-66 0 -99 -24t-33 -66q0 -38 23 -59t83 -21h112v-54z" />
<glyph unicode="&#x25c;" horiz-adv-x="478" d="M122 286h112q59 0 82.5 20.5t23.5 55.5q0 45 -33 69.5t-94 24.5q-53 0 -87 -15.5t-52 -32.5l-30 41q8 9 22.5 19.5t35.5 19.5t48.5 15t63.5 6q46 0 80.5 -11t58 -30t35.5 -44.5t12 -55.5q0 -25 -7.5 -43.5t-19.5 -32t-26.5 -21.5t-27.5 -11q42 -11 69 -41.5t27 -81.5 q0 -36 -15.5 -64t-42.5 -46.5t-63 -28t-78 -9.5q-34 0 -63 5.5t-52 13.5t-38.5 17t-22.5 15l26 41q18 -13 53 -26t92 -13q66 0 105 23.5t39 75.5q0 49 -34 70t-88 21h-111v54z" />
<glyph unicode="&#x25d;" horiz-adv-x="619" d="M122 286h112q59 0 82.5 20.5t23.5 55.5q0 45 -33 69.5t-94 24.5q-53 0 -87 -15.5t-52 -32.5l-30 41q8 9 22.5 19.5t35.5 19.5t48.5 15t63.5 6q85 0 130 -36t45 -88q0 -20 -8 -44l96 57l39 -11v-56q0 -29 4.5 -48.5t13.5 -31t22 -16t30 -4.5q8 0 17 1t17 3l9 -45 q-27 -8 -50 -8q-63 0 -90 36.5t-27 106.5v15l-99 -59q-13 -8 -24.5 -13t-19.5 -8q42 -11 69 -42t27 -81q0 -36 -15.5 -64t-42.5 -46.5t-63 -28t-78 -9.5q-34 0 -63 5.5t-52 13.5t-38.5 17t-22.5 15l26 41q18 -13 53 -26t92 -13q66 0 105 23.5t39 75.5q0 49 -34 70t-88 21 h-111v54z" />
<glyph unicode="&#x25e;" horiz-adv-x="554" d="M491 137q0 -36 -14.5 -64t-39.5 -46.5t-59 -28t-72 -9.5q-61 0 -106.5 18t-76 52t-46 82t-15.5 107q0 57 16 104.5t47 82.5t76.5 54.5t104.5 19.5q41 0 73 -11t53.5 -30.5t32.5 -45t11 -55.5q0 -26 -8 -45t-20 -32.5t-26.5 -21t-26.5 -10.5q42 -11 69 -41t27 -80zM309 42 q53 0 87.5 24t34.5 75q0 49 -34 70t-88 21h-81v54h82q59 0 82.5 20.5t23.5 55.5q0 45 -28.5 69.5t-82.5 24.5q-92 0 -137 -57.5t-45 -150.5q0 -100 44.5 -153t141.5 -53z" />
<glyph unicode="&#x25f;" horiz-adv-x="277" d="M186 -14q0 -106 -39 -158t-127 -52q-14 0 -32.5 2.5t-29.5 6.5l7 50q10 -2 23.5 -4t26.5 -2q36 0 58 10.5t34 32.5t16 55.5t4 79.5v232h-105v50h105v207h59v-207h69v-50h-69v-253z" />
<glyph unicode="&#x260;" horiz-adv-x="579" d="M499 -8q0 -110 -53.5 -163t-159.5 -53q-55 0 -103.5 12t-81.5 29l18 47q32 -13 73.5 -23t92.5 -10q84 0 119.5 40.5t35.5 126.5v69q-9 -11 -24 -24t-36.5 -24t-49 -18.5t-60.5 -7.5q-40 0 -77.5 13t-66.5 42.5t-46.5 78.5t-17.5 121q0 54 13.5 101.5t39.5 83t65 56 t89 20.5q34 0 62 -9.5t49 -24.5t36 -34t24 -38v196q0 86 37.5 128.5t102.5 42.5q16 0 32 -2.5t30 -7.5l-9 -48q-20 6 -45 6q-18 0 -34 -5t-28 -18t-19.5 -35.5t-7.5 -58.5v-609zM440 239q0 44 -12.5 83.5t-34.5 69t-52.5 46.5t-66.5 17q-72 0 -111.5 -55t-39.5 -152 q0 -54 12 -92.5t33.5 -62.5t51.5 -35.5t66 -11.5q55 0 92.5 25.5t61.5 55.5v112z" />
<glyph unicode="&#x261;" horiz-adv-x="579" d="M440 239q0 44 -12.5 83.5t-34.5 69t-52.5 46.5t-66.5 17q-72 0 -111.5 -55t-39.5 -152q0 -54 12 -92.5t33.5 -62.5t51.5 -35.5t66 -11.5q55 0 92.5 25.5t61.5 55.5v112zM499 -8q0 -110 -53.5 -163t-159.5 -53q-55 0 -103.5 12t-81.5 29l18 47q32 -13 73.5 -23t92.5 -10 q84 0 119.5 40.5t35.5 126.5v69q-9 -11 -24 -24t-36.5 -24t-49 -18.5t-60.5 -7.5q-40 0 -77.5 13t-66.5 42.5t-46.5 78.5t-17.5 121q0 54 13.5 101.5t39.5 83t65 56t89 20.5q34 0 62 -9.5t49 -24.5t36 -34t24 -38l3 93h56v-504z" />
<glyph unicode="&#x262;" horiz-adv-x="533" d="M463 22q-14 -7 -56 -20t-110 -13q-118 0 -176.5 65.5t-58.5 192.5q0 57 14.5 105t43.5 83t72.5 54.5t101.5 19.5q53 0 92 -13t71 -36l-26 -46q-14 10 -45.5 25t-86.5 15q-79 0 -127.5 -49.5t-48.5 -157.5q0 -204 182 -204q32 0 57 4t42 9v157h-114v52h173v-243z" />
<glyph unicode="&#x263;" horiz-adv-x="484" d="M244 -231q-51 0 -81 31t-30 76q0 14 2 27t7 27t12 31t18 39l34 70l-184 426h65l157 -381l155 381h62l-183 -424l37 -72q11 -22 18.5 -39t12.5 -31t7 -27t2 -27q0 -50 -31.5 -78.5t-79.5 -28.5zM244 -182q28 0 42.5 17.5t14.5 48.5q0 21 -10 43.5t-31 66.5l-18 38l-19 -38 q-11 -21 -18 -37t-11 -29t-5.5 -23.5t-1.5 -20.5q0 -29 14 -47.5t43 -18.5z" />
<glyph unicode="&#x264;" horiz-adv-x="541" d="M305 225l37 -56q16 -25 24 -44t8 -40q0 -40 -28 -66t-74 -26q-48 0 -75 26t-27 64q0 23 11 45t28 49l30 47l-109 176q-17 27 -33 38t-37 11q-17 0 -33 -4l-9 52q13 2 24 3.5t22 1.5q39 0 65.5 -18t49.5 -58l95 -163l91 162q22 39 48.5 57.5t67.5 18.5q10 0 20.5 -1 t22.5 -3l-9 -52q-15 4 -31 4q-22 0 -39 -12.5t-35 -41.5zM246 151q-14 -23 -19 -36t-5 -27q0 -22 14 -35.5t36 -13.5t36 14t14 35q0 14 -6 29t-21 38l-24 38z" />
<glyph unicode="&#x265;" horiz-adv-x="565" d="M484 -220h-59v312q-25 -47 -67.5 -75.5t-110.5 -28.5q-166 0 -166 184v324h59v-316q0 -39 9 -65.5t25.5 -42.5t39 -23t49.5 -7q38 0 68 17t51 45t32 63.5t11 73.5v255h59v-716z" />
<glyph unicode="&#x266;" horiz-adv-x="562" d="M81 0v599q0 86 39.5 128.5t107.5 42.5q17 0 33.5 -2.5t31.5 -7.5l-9 -48q-21 6 -48 6q-19 0 -36.5 -5t-30.5 -18t-21 -35.5t-8 -58.5v-200q23 48 67 78t110 30q81 0 124.5 -47t43.5 -138v-324h-59v316q0 39 -9.5 66t-26 43t-39 23t-49.5 7q-38 0 -68 -17.5t-51 -45.5 t-32 -64t-11 -73v-255h-59z" />
<glyph unicode="&#x267;" horiz-adv-x="562" d="M416.5 382q-9.5 27 -26 43t-39 23t-49.5 7q-38 0 -68 -17.5t-51 -45.5t-32 -64t-11 -73v-255h-59v589q0 86 39.5 128.5t107.5 42.5q17 0 33.5 -2.5t31.5 -7.5l-9 -48q-21 6 -48 6q-19 0 -36.5 -5t-30.5 -18t-21 -35.5t-8 -58.5v-190q23 48 67 78t110 30q81 0 124.5 -47 t43.5 -138v-356q0 -100 -41 -146t-122 -46q-14 0 -30.5 3t-26.5 7l7 49q9 -2 21.5 -4t24.5 -2q32 0 53 8t33 26.5t17 49t5 76.5v327q0 39 -9.5 66z" />
<glyph unicode="&#x268;" horiz-adv-x="251" d="M229 289v-50h-74v-239h-59v239h-74v50h74v207h59v-207h74zM125 613q-20 0 -32.5 13.5t-12.5 35.5t12.5 35.5t32.5 13.5t33 -13.5t13 -35.5q0 -23 -13 -36t-33 -13z" />
<glyph unicode="&#x269;" horiz-adv-x="274" d="M213 47q11 0 23 3t17 5l11 -48q-7 -4 -25 -8.5t-37 -4.5q-65 0 -93 35t-28 111v356h59v-339q0 -34 3.5 -55.5t12 -33.5t22.5 -16.5t35 -4.5z" />
<glyph unicode="&#x26a;" horiz-adv-x="243" d="M32 0v48h60v400h-60v48h179v-48h-60v-400h60v-48h-179z" />
<glyph unicode="&#x26b;" horiz-adv-x="299" d="M179 0h-60v383q-7 6 -14.5 10t-15.5 4q-21 0 -30 -17.5t-9 -44.5h-50q0 52 20 81.5t60 29.5q22 0 39 -11v315h60v-353q15 -15 31 -15q21 0 30 17.5t9 44.5h50q0 -52 -20 -81.5t-60 -29.5q-23 0 -40 11v-344z" />
<glyph unicode="&#x26c;" horiz-adv-x="378" d="M113 496q-26 0 -39 -14t-13 -36q0 -20 15 -32.5t41 -12.5h62v23q-5 72 -66 72zM239 0h-60v354h-69q-41 0 -69.5 24.5t-28.5 67.5q0 42 26.5 69.5t67.5 27.5q44 0 73 -29v236h60v-349h117v-47h-117v-354z" />
<glyph unicode="&#x26d;" horiz-adv-x="221" d="M140 -11q0 -46 6.5 -76.5t20 -49t34.5 -26.5t50 -8q12 0 28 2t25 4l7 -49q-10 -4 -30.5 -7t-34.5 -3q-86 0 -125.5 46t-39.5 146v782h59v-761z" />
<glyph unicode="&#x26e;" horiz-adv-x="567" d="M457 444h-316v-444h-60v750h60v-254h380v-52l-195 -261q37 -3 74 -16.5t66.5 -38t48 -61t18.5 -87.5q0 -46 -15 -85t-43.5 -67t-70.5 -43.5t-96 -15.5q-37 0 -70 6.5t-59 16.5t-45.5 20.5t-29.5 18.5l26 46q26 -17 71.5 -35t104.5 -18q76 0 121 38.5t45 113.5t-51 117 t-160 42v48z" />
<glyph unicode="&#x26f;" horiz-adv-x="865" d="M81 496h59v-317q0 -78 28.5 -108t82.5 -30q36 0 64 16.5t47.5 43.5t30 61t10.5 69v265h59v-317q0 -78 28.5 -108t82.5 -30q35 0 63 18t48 46.5t30.5 64t10.5 71.5v255h59v-496h-55l-2 98q-23 -48 -65 -79.5t-105 -31.5q-52 0 -92 28.5t-51 87.5q-24 -51 -68.5 -83.5 t-107.5 -32.5q-78 0 -117.5 47t-39.5 138v324z" />
<glyph unicode="&#x270;" horiz-adv-x="865" d="M784 496v-716h-59v314q-24 -47 -65.5 -77t-102.5 -30q-52 0 -92 28.5t-51 87.5q-24 -51 -68.5 -83.5t-107.5 -32.5q-78 0 -117.5 47t-39.5 138v324h59v-317q0 -78 28.5 -108t82.5 -30q36 0 64 16.5t47.5 43.5t30 61t10.5 69v265h59v-317q0 -78 28.5 -108t82.5 -30 q35 0 63 18t48 46.5t30.5 64t10.5 71.5v255h59z" />
<glyph unicode="&#x271;" horiz-adv-x="861" d="M784 -32q0 -100 -41 -146t-122 -46q-14 0 -30.5 3t-26.5 7l7 49q9 -2 21.5 -4t24.5 -2q32 0 53 8t33 26.5t17 49t5 76.5v328q0 78 -28.5 108t-82.5 30q-36 0 -64 -16.5t-47.5 -43.5t-30 -61t-10.5 -69v-265h-59v317q0 78 -28.5 108t-82.5 30q-35 0 -63 -18t-48 -46.5 t-30.5 -64t-10.5 -71.5v-255h-59v496h55l2 -98q23 48 65 79.5t105 31.5q52 0 92 -28.5t51 -87.5q24 51 68.5 83.5t107.5 32.5q78 0 117.5 -47t39.5 -138v-356z" />
<glyph unicode="&#x272;" horiz-adv-x="562" d="M485 0h-59v316q0 39 -9.5 66t-26 43t-39 23t-49.5 7q-38 0 -68 -17.5t-51 -45.5t-32 -64t-11 -73v-287q0 -100 -38.5 -146t-126.5 -46q-14 0 -34.5 3t-30.5 7l7 49q9 -2 25 -4t28 -2q32 0 53.5 8t34 26.5t18 49t5.5 76.5v507h55l2 -98q23 48 67.5 79.5t107.5 31.5 q87 0 129.5 -47t42.5 -138v-324z" />
<glyph unicode="&#x273;" horiz-adv-x="562" d="M485 -20q0 -85 24 -118t77 -33q11 0 25.5 2t22.5 4l7 -49q-9 -4 -28.5 -7t-32.5 -3q-80 0 -117 45t-37 138v357q0 39 -9.5 66t-26 43t-39 23t-49.5 7q-38 0 -68 -17.5t-51 -45.5t-32 -64t-11 -73v-255h-59v496h55l2 -98q23 48 67.5 79.5t107.5 31.5q87 0 129.5 -47 t42.5 -138v-344z" />
<glyph unicode="&#x274;" horiz-adv-x="566" d="M485 0h-55l-294 416v-416h-55v498h59l290 -412v412h55v-498z" />
<glyph unicode="&#x275;" horiz-adv-x="581" d="M290 509q57 0 99.5 -19.5t71 -54t43 -82t14.5 -104.5t-15 -105t-43.5 -82.5t-71.5 -53.5t-98 -19q-56 0 -99 19t-71.5 53.5t-43 82.5t-14.5 105t15 104.5t43.5 82t71 54t98.5 19.5zM290 43q80 0 121 48.5t46 133.5h-333q5 -85 45.5 -133.5t120.5 -48.5zM290 455 q-78 0 -119.5 -48.5t-46.5 -130.5h333q-6 82 -47.5 130.5t-119.5 48.5z" />
<glyph unicode="&#x276;" horiz-adv-x="764" d="M688 0h-384q-121 0 -181.5 63t-60.5 184q0 57 15 103t45 78.5t75.5 50t106.5 17.5h376v-49h-249v-165h196v-47h-196v-186h257v-49zM372 49v399h-66q-94 0 -138.5 -50.5t-44.5 -150.5q0 -98 44.5 -148t137.5 -50h67z" />
<glyph unicode="&#x277;" horiz-adv-x="763" d="M380 508q72 0 131 -19t101 -57t65 -94t23 -129q0 -54 -14 -95t-38.5 -68.5t-57 -42t-69.5 -14.5q-54 0 -89 26.5t-52 70.5q-17 -45 -51.5 -71t-86.5 -26q-83 0 -131 53.5t-48 157.5q0 66 18.5 122t57.5 97.5t99 65t142 23.5zM122 207q0 -81 30 -123t93 -42q55 0 81 33 t26 109v111h59v-111q0 -76 26 -109t80 -33q58 0 91 41.5t33 119.5q0 130 -70 191t-191 61t-189.5 -62.5t-68.5 -185.5z" />
<glyph unicode="&#x278;" horiz-adv-x="724" d="M391 500q64 -1 115.5 -19.5t86.5 -51.5t54 -78.5t19 -101.5t-18.5 -101.5t-54 -78.5t-86.5 -51.5t-116 -19.5v-218h-58v217q-66 1 -117 19.5t-86 51.5t-53.5 79t-18.5 102t18.5 101.5t54 78.5t86.5 51.5t116 19.5v250h58v-250zM119 249q0 -91 53 -145.5t161 -56.5v403 q-108 -2 -161 -56t-53 -145zM605 249q0 91 -53.5 144.5t-160.5 56.5v-403q107 2 160.5 56.5t53.5 145.5z" />
<glyph unicode="&#x279;" horiz-adv-x="374" d="M231 496h59v-496h-55l-2 114q-10 -24 -26 -46t-38 -38t-49 -25.5t-60 -9.5q-11 0 -24 1t-17 3l5 54q8 -2 19 -2.5t21 -0.5q36 0 67 15.5t53 44t34.5 69t12.5 91.5v226z" />
<glyph unicode="&#x27a;" horiz-adv-x="374" d="M231 270v480h59v-750h-55l-2 114q-10 -24 -26 -46t-38 -38t-49 -25.5t-60 -9.5q-11 0 -24 1t-17 3l5 54q8 -2 19 -2.5t21 -0.5q36 0 67 15.5t53 44t34.5 69t12.5 91.5z" />
<glyph unicode="&#x27b;" horiz-adv-x="374" d="M231 496h59v-507q0 -46 6 -76.5t18.5 -49t32 -26.5t46.5 -8q11 0 27 2t24 4l7 -49q-9 -4 -29 -7t-33 -3q-82 0 -120 46t-38 146v141q-21 -48 -64 -81t-107 -33q-11 0 -24 1t-17 3l5 54q8 -2 19 -2.5t21 -0.5q36 0 67 15.5t53 44t34.5 69t12.5 91.5v226z" />
<glyph unicode="&#x27c;" horiz-adv-x="374" d="M143 -220h-59v716h55l2 -114q10 24 26 46t38 38t49 25.5t60 9.5q11 0 24 -1t17 -3l-5 -54q-8 2 -19 2.5t-21 0.5q-36 0 -67 -15.5t-53 -44t-34.5 -69t-12.5 -91.5v-446z" />
<glyph unicode="&#x27d;" horiz-adv-x="374" d="M143 -11q0 -46 6 -76.5t19.5 -49t34.5 -26.5t50 -8q12 0 28.5 2t25.5 4l7 -49q-10 -4 -30.5 -7t-34.5 -3q-86 0 -125.5 46t-39.5 146v528h55l2 -114q10 24 26 46t38 38t49 25.5t60 9.5q11 0 24 -1t17 -3l-5 -54q-8 2 -19 2.5t-21 0.5q-36 0 -67 -15.5t-53 -44t-34.5 -69 t-12.5 -91.5v-237z" />
<glyph unicode="&#x27e;" horiz-adv-x="369" d="M77 277q0 62 16.5 104.5t45.5 69t67.5 38.5t82.5 12q15 0 31 -1.5t30 -3.5l-8 -53q-10 2 -24 3t-26 1q-76 0 -116 -39.5t-40 -130.5v-277h-59v277z" />
<glyph unicode="&#x27f;" horiz-adv-x="369" d="M292 0h-59v277q0 91 -40 130.5t-116 39.5q-12 0 -26 -1t-24 -3l-8 53q14 2 30 3.5t31 1.5q45 0 84 -11.5t67.5 -37.5t44.5 -67.5t16 -100.5v-284z" />
<glyph unicode="&#x280;" horiz-adv-x="526" d="M453 347q0 -48 -26 -83.5t-80 -49.5l140 -214h-70l-131 203h-144v-203h-58v496h172q55 0 92.5 -11.5t61 -32t33.5 -47.5t10 -58zM395 347q0 52 -33.5 76t-106.5 24h-113v-197h123q58 0 94 22t36 75z" />
<glyph unicode="&#x281;" horiz-adv-x="526" d="M453 149q0 -30 -10 -57t-33.5 -47.5t-61 -32.5t-92.5 -12h-172v496h58v-203h149l131 203h65l-140 -214q57 -15 81.5 -50t24.5 -83zM395 149q0 53 -36 75t-94 22h-123v-197h113q73 0 106.5 24t33.5 76z" />
<glyph unicode="&#x282;" horiz-adv-x="464" d="M82 68q34 -13 72 -20.5t77 -7.5q37 0 62 6.5t40 18.5t21 28t6 35q0 36 -22 59t-84 34l-54 10q-32 6 -58 15.5t-45.5 25t-30 38t-10.5 55.5q0 69 51 106.5t133 37.5q51 0 91 -11t64 -24l-21 -46q-22 11 -54 20t-77 9q-69 0 -100 -21.5t-31 -63.5q0 -19 5.5 -33t18 -24.5 t34 -18t53.5 -13.5l55 -10q30 -6 55.5 -16.5t44 -27t29 -39t10.5 -53.5q0 -69 -48.5 -108.5t-136.5 -39.5q-38 0 -70.5 6.5t-58.5 14.5v-21q0 -46 6 -76.5t19.5 -49t34.5 -26.5t51 -8q13 0 30 2t26 4l7 -49q-10 -4 -30.5 -7t-34.5 -3q-86 0 -125.5 46t-39.5 146v79z" />
<glyph unicode="&#x283;" horiz-adv-x="227" d="M84 -30v599q0 85 34.5 136.5t111.5 51.5q17 0 34 -2.5t28 -5.5l-7 -50q-9 2 -22.5 3.5t-28.5 1.5q-29 0 -47 -11t-28 -30t-13 -45t-3 -55v-599q0 -85 -34.5 -136.5t-111.5 -51.5q-17 0 -34 2.5t-28 5.5l7 50q9 -2 22.5 -3.5t28.5 -1.5q29 0 47 11t27.5 30t13 45t3.5 55z " />
<glyph unicode="&#x284;" horiz-adv-x="272" d="M122 -30v27h-100v50h100v522q0 85 34.5 136.5t111.5 51.5q17 0 34 -2.5t28 -5.5l-7 -50q-9 2 -22.5 3.5t-28.5 1.5q-29 0 -47 -11t-28 -30t-13 -45t-3 -55v-516h69v-50h-69v-33q0 -85 -34.5 -136.5t-111.5 -51.5q-17 0 -34 2.5t-28 5.5l7 50q9 -2 22.5 -3.5t28.5 -1.5 q29 0 47 11t27.5 30t13 45t3.5 55z" />
<glyph unicode="&#x285;" horiz-adv-x="227" d="M-65 749q11 3 26.5 5.5t31.5 2.5q80 0 115 -48t35 -130v-609q0 -29 3.5 -55t14 -45t29 -30t49.5 -11q14 0 26 1.5t20 3.5l7 -50q-11 -3 -26.5 -5.5t-31.5 -2.5q-80 0 -115 48t-35 130v609q0 29 -3.5 55t-14 45t-29 30t-49.5 11q-14 0 -26 -1.5t-20 -3.5z" />
<glyph unicode="&#x286;" horiz-adv-x="297" d="M154 569q0 85 34.5 136.5t111.5 51.5q17 0 34 -2.5t28 -5.5l-7 -50q-9 2 -22.5 3.5t-28.5 1.5q-29 0 -47 -11t-28 -30t-13 -45t-3 -55v-567q0 -71 -20 -122q12 -24 24.5 -53.5t27.5 -64.5l-44 -19q-11 26 -19.5 47.5t-16.5 40.5q-22 -28 -51.5 -42t-63.5 -14 q-48 0 -80.5 28.5t-32.5 80.5q0 53 32.5 82.5t81.5 29.5q32 0 56 -12t44 -37q3 24 3 51v577zM54 -185q57 0 83 66q-20 35 -39.5 50t-45.5 15q-28 0 -46 -18t-18 -47q0 -28 17 -47t49 -19z" />
<glyph unicode="&#x287;" horiz-adv-x="393" d="M35 493q10 3 30 6t44 3q80 0 113.5 -38t33.5 -106v-306h103v-52h-103v-146l-59 -16v162h-151v52h151v289q0 34 -7 55t-21 33t-34.5 16t-46.5 4q-31 0 -47 -4z" />
<glyph unicode="&#x288;" horiz-adv-x="397" d="M34 444v52h103v146l59 16v-162h151v-52h-151v-455q0 -46 6 -76.5t19 -49t33 -26.5t48 -8q12 0 28.5 2t24.5 4l7 -49q-9 -4 -29.5 -7t-33.5 -3q-85 0 -123.5 46t-38.5 146v476h-103z" />
<glyph unicode="&#x289;" horiz-adv-x="585" d="M494 0h-55l-2 96q-24 -48 -67.5 -78t-112.5 -30q-166 0 -166 184v80h-69v50h69v194h59v-194h285v194h59v-194h69v-50h-69v-252zM273 42q38 0 68 17t51 45t32 63.5t11 73.5v11h-285v-72q0 -39 9 -65.5t25.5 -42.5t39 -23t49.5 -7z" />
<glyph unicode="&#x28a;" horiz-adv-x="618" d="M307 41q81 0 127 49.5t46 149.5q0 46 -9.5 81t-25.5 60.5t-35.5 42.5t-40.5 28v44h194v-52h-109q13 -11 28 -28.5t28.5 -43t22.5 -58.5t9 -75q0 -53 -14.5 -99t-43.5 -80t-73 -53.5t-104 -19.5q-59 0 -102 20t-71.5 54t-42.5 80t-14 98q0 40 8.5 73.5t22 59t28.5 43.5 t29 29h-110v52h194v-44q-21 -12 -41 -29t-35.5 -42.5t-24.5 -60t-9 -80.5q0 -97 45 -148t123 -51z" />
<glyph unicode="&#x28b;" horiz-adv-x="563" d="M441 267q0 91 -29 138t-98 47h-11.5t-11.5 -1l-6 47q12 2 23 3t22 1q81 0 125.5 -58.5t44.5 -171.5v-20q0 -72 -17.5 -122.5t-48 -82t-71 -45.5t-86.5 -14q-96 0 -146 46.5t-50 137.5v324h59v-316q0 -77 37 -107.5t99 -30.5q85 0 125 56.5t40 153.5v15z" />
<glyph unicode="&#x28c;" horiz-adv-x="484" d="M209 496h64l188 -496h-65l-157 436l-155 -436h-62z" />
<glyph unicode="&#x28d;" horiz-adv-x="684" d="M171 496h63l106 -408l107 408h65l150 -496h-65l-121 430l-107 -415h-61l-107 415l-121 -430h-58z" />
<glyph unicode="&#x28e;" horiz-adv-x="490" d="M326 716h58l-103 -244l192 -472h-66l-158 405l-161 -405h-61z" />
<glyph unicode="&#x28f;" horiz-adv-x="490" d="M271 203v-203h-57v202l-192 294h71l152 -240l154 240h68z" />
<glyph unicode="&#x290;" horiz-adv-x="482" d="M426 50v-61q0 -46 6 -76.5t18.5 -49t32 -26.5t46.5 -8q11 0 27 2t24 4l7 -49q-9 -4 -28.5 -7t-32.5 -3q-81 0 -118.5 46t-37.5 146v32h-314v41l297 409h-293v51h367v-42l-298 -409h297z" />
<glyph unicode="&#x291;" horiz-adv-x="537" d="M56 0v41l297 409h-293v51h367v-42l-298 -409h122q19 42 38 73t39 51.5t43 31t51 10.5q49 0 76 -29t27 -75q0 -54 -38.5 -83t-103.5 -29h-103q-9 -20 -18 -42t-19 -48l-45 13l31 77h-173zM389 50q38 0 62 15t24 48q0 26 -14 41.5t-40 15.5q-33 0 -59.5 -27t-58.5 -93h86z " />
<glyph unicode="&#x292;" horiz-adv-x="460" d="M350 444h-316v52h380v-52l-195 -261q37 -3 74 -16.5t66.5 -38t48 -61t18.5 -87.5q0 -46 -15 -85t-43.5 -67t-70.5 -43.5t-96 -15.5q-37 0 -70 6.5t-59 16.5t-45.5 20.5t-29.5 18.5l26 46q26 -17 71.5 -35t104.5 -18q76 0 121 38.5t45 113.5t-51 117t-160 42v48z" />
<glyph unicode="&#x293;" horiz-adv-x="460" d="M350 444h-316v52h380v-52l-195 -261q37 -3 74 -16.5t66.5 -38t48 -61t18.5 -87.5q0 -50 -19 -90t-54 -67q10 -17 19 -35.5t19 -38.5l-41 -22q-10 20 -19 37t-18 33q-58 -28 -130 -28q-34 0 -65.5 6t-55.5 19.5t-38.5 35.5t-14.5 53q0 49 36.5 78t91.5 29q54 0 100 -31 t88 -92q40 40 40 109q0 75 -51 117t-160 42v48zM183 -181q62 0 104 21q-36 54 -72 79t-81 25q-35 0 -54 -16.5t-19 -42.5q0 -32 33.5 -49t88.5 -17z" />
<glyph unicode="&#x294;" horiz-adv-x="379" d="M81 297h21q42 0 78 12t62.5 37t41.5 64.5t15 93.5q0 100 -48 151t-130 51q-51 0 -83.5 -13.5t-48.5 -22.5l-26 43q7 5 20.5 13.5t33 16t46 13t59.5 5.5q57 0 101.5 -18t75 -51.5t46 -81.5t15.5 -107q0 -60 -16.5 -105t-46 -76t-69.5 -49t-87 -23v-250h-60v297z" />
<glyph unicode="&#x295;" horiz-adv-x="379" d="M298 0h-60v250q-103 11 -161 74t-58 172q0 61 15.5 110t46.5 83.5t75.5 53t103.5 18.5q33 0 59 -5.5t45 -13t32 -16t20 -13.5l-27 -44q-16 9 -48 23t-81 14q-84 0 -132 -50.5t-48 -155.5q0 -52 15 -90.5t41.5 -63.5t62.5 -37t78 -12h21v-297z" />
<glyph unicode="&#x296;" horiz-adv-x="484" d="M143 750h60v-250q103 -11 161 -74t58 -172q0 -61 -15.5 -110t-46.5 -83.5t-76 -53t-103 -18.5q-33 0 -59 5.5t-45 13t-32 16t-20 13.5l27 44q16 -9 48 -23t81 -14q84 0 132 50.5t48 155.5q0 52 -15 90.5t-42 63.5t-63.5 37t-78.5 12h-19v297z" />
<glyph unicode="&#x297;" horiz-adv-x="497" d="M460 -192q-11 -11 -48 -25t-90 -14q-59 0 -106 20t-79.5 63.5t-49.5 112t-17 164.5q0 193 63 286.5t188 93.5q27 0 49.5 -5.5t40.5 -13t30.5 -15.5t20.5 -14l-27 -44q-14 9 -43.5 23t-71.5 14q-41 0 -76 -16t-60 -53t-39 -97.5t-14 -150.5t15 -150t41 -96.5t61.5 -51.5 t76.5 -15q35 0 64.5 9t48.5 19z" />
<glyph unicode="&#x298;" horiz-adv-x="744" d="M372 -15q-74 0 -130.5 26.5t-94.5 75t-58 116t-20 149.5t20 149.5t58.5 115.5t95 74.5t130.5 26.5q73 0 129.5 -26.5t94.5 -74.5t58 -115.5t20 -149.5t-20 -149.5t-58 -116t-95 -75t-130 -26.5zM372 44q60 0 104.5 22t74 62.5t44 97t14.5 126.5t-14.5 126.5t-44 96.5 t-74 62t-104.5 22t-104.5 -22t-74 -62t-44 -96.5t-14.5 -126.5t14.5 -126.5t44 -97t74 -62.5t104.5 -22zM370 294q-23 0 -38 15.5t-15 41.5t15.5 42.5t38.5 16.5t38.5 -16t15.5 -43q0 -26 -16 -41.5t-39 -15.5z" />
<glyph unicode="&#x299;" horiz-adv-x="518" d="M467 141q0 -26 -8.5 -51t-30 -45t-58 -32.5t-91.5 -12.5h-198v496h189q52 0 85 -11t52 -29t26 -41t7 -48q0 -35 -21.5 -64.5t-56.5 -42.5q58 -14 81.5 -45.5t23.5 -73.5zM408 141q0 90 -133 90h-136v-183h138q71 0 101 24t30 69zM383 367q0 42 -27.5 61.5t-94.5 19.5 h-122v-170h120q63 0 93.5 23t30.5 66z" />
<glyph unicode="&#x29a;" horiz-adv-x="555" d="M63 134q0 50 26.5 81.5t69.5 42.5q-12 3 -26.5 10t-26.5 20.5t-20 32.5t-8 46q0 30 11 55.5t33 45t55 30.5t77 11q56 0 100 -18t75 -51t47 -80.5t16 -106.5q0 -57 -15.5 -105.5t-46 -84t-75.5 -55t-104 -19.5q-41 0 -75 9.5t-59.5 28t-39.5 45.5t-14 62zM249 42 q91 0 136.5 56.5t45.5 153.5q0 96 -44.5 150t-132.5 54q-58 0 -87 -24.5t-29 -67.5q0 -36 23 -57t83 -21h82v-54h-81q-53 0 -87.5 -21t-34.5 -71q0 -51 34.5 -74.5t91.5 -23.5z" />
<glyph unicode="&#x29b;" horiz-adv-x="533" d="M415 424q-19 11 -48.5 20.5t-69.5 9.5q-81 0 -127.5 -52t-46.5 -155q0 -204 182 -204q31 0 56.5 4t42.5 9v157h-114v52h173v-243q-14 -7 -56 -20t-110 -13q-118 0 -176.5 65.5t-58.5 192.5q0 63 16.5 111.5t46 81.5t71 50.5t92.5 17.5q55 0 105 -19v100q0 86 39.5 128.5 t107.5 42.5q17 0 33.5 -2.5t31.5 -7.5l-9 -48q-21 6 -48 6q-19 0 -36.5 -5t-30.5 -18t-21 -35.5t-8 -58.5v-144z" />
<glyph unicode="&#x29c;" horiz-adv-x="562" d="M481 0h-59v229h-282v-229h-59v496h59v-215h282v215h59v-496z" />
<glyph unicode="&#x29d;" horiz-adv-x="298" d="M154 496h59v-500q0 -71 -20 -122q12 -24 24.5 -53.5t27.5 -64.5l-44 -19q-11 26 -19.5 47.5t-16.5 40.5q-22 -28 -51.5 -42t-63.5 -14q-48 0 -80.5 28.5t-32.5 80.5q0 53 32.5 82.5t81.5 29.5q32 0 56 -12t44 -37q3 24 3 51v504zM54 -185q57 0 83 66q-20 35 -39.5 50 t-45.5 15q-28 0 -46 -18t-18 -47q0 -28 17 -47t49 -19zM183 613q-20 0 -32.5 13.5t-12.5 35.5t12.5 35.5t32.5 13.5t33 -13.5t13 -35.5q0 -23 -13 -36t-33 -13z" />
<glyph unicode="&#x29e;" horiz-adv-x="461" d="M28 496h70l223 -258v258h59v-716h-59v451l-220 -231h-73l229 236z" />
<glyph unicode="&#x29f;" horiz-adv-x="438" d="M402 0h-321v496h59v-444h262v-52z" />
<glyph unicode="&#x2a0;" horiz-adv-x="579" d="M440 -220v287q-9 -11 -24 -24t-36.5 -24t-49 -18.5t-60.5 -7.5q-40 0 -77.5 13t-66.5 42.5t-46.5 78.5t-17.5 121q0 54 13.5 101.5t39.5 83t65 56t89 20.5q34 0 62 -9.5t49 -24.5t36 -34t24 -38v186q0 86 37.5 128.5t102.5 42.5q16 0 32 -2.5t30 -7.5l-9 -48q-20 6 -45 6 q-18 0 -34 -5t-28 -18t-19.5 -35.5t-7.5 -58.5v-811h-59zM440 239q0 44 -12.5 83.5t-34.5 69t-52.5 46.5t-66.5 17q-72 0 -111.5 -55t-39.5 -152q0 -54 12 -92.5t33.5 -62.5t51.5 -35.5t66 -11.5q55 0 92.5 25.5t61.5 55.5v112z" />
<glyph unicode="&#x2a1;" horiz-adv-x="395" d="M97 297h21q42 0 78 12t62.5 37t41.5 64.5t15 93.5q0 100 -48 151t-130 51q-51 0 -83.5 -13.5t-48.5 -22.5l-26 43q7 5 20.5 13.5t33 16t46 13t59.5 5.5q57 0 101.5 -18t75 -51.5t46 -81.5t15.5 -107q0 -60 -16.5 -105t-46 -76t-69.5 -49t-87 -23v-90h75v-50h-75v-110h-60 v110h-75v50h75v137z" />
<glyph unicode="&#x2a2;" horiz-adv-x="395" d="M298 0h-60v110h-75v50h75v90q-103 11 -161 74t-58 172q0 61 15.5 110t46.5 83.5t75.5 53t103.5 18.5q33 0 59 -5.5t45 -13t32 -16t20 -13.5l-27 -44q-16 9 -48 23t-81 14q-84 0 -132 -50.5t-48 -155.5q0 -52 15 -90.5t41.5 -63.5t62.5 -37t78 -12h21v-137h75v-50h-75 v-110z" />
<glyph unicode="&#x2a3;" horiz-adv-x="925" d="M873 0h-428l-1 70q-29 -34 -71 -55.5t-102 -21.5q-39 0 -76.5 12.5t-67 42t-47 78.5t-17.5 122q0 54 14 101.5t40 83t64 56t86 20.5q63 0 107 -29.5t67 -77.5v348h59v-249h370v-42l-298 -409h301v-50zM441 239q0 50 -13.5 90t-36.5 68t-53 43t-63 15q-39 0 -67.5 -16 t-47 -43.5t-27.5 -65.5t-9 -82q0 -54 11.5 -92.5t33.5 -62.5t53 -35t70 -11q27 0 50.5 8t42.5 20t33.5 26.5t22.5 26.5v111zM796 450h-296v-408z" />
<glyph unicode="&#x2a4;" horiz-adv-x="926" d="M816 444h-316v-444h-55l-1 70q-29 -34 -71 -55.5t-102 -21.5q-39 0 -76.5 12.5t-67 42t-47 78.5t-17.5 122q0 54 14 101.5t40 83t64 56t86 20.5q63 0 107 -29.5t67 -77.5v348h59v-254h380v-52l-195 -261q37 -3 74 -16.5t66.5 -38t48 -61t18.5 -87.5q0 -46 -15 -85 t-43.5 -67t-70.5 -43.5t-96 -15.5q-37 0 -70 6.5t-59 16.5t-45.5 20.5t-29.5 18.5l26 46q26 -17 71.5 -35t104.5 -18q76 0 121 38.5t45 113.5t-51 117t-160 42v48zM441 239q0 50 -13.5 90t-36.5 68t-53 43t-63 15q-39 0 -67.5 -16t-47 -43.5t-27.5 -65.5t-9 -82 q0 -54 11.5 -92.5t33.5 -62.5t53 -35t70 -11q27 0 50.5 8t42.5 20t33.5 26.5t22.5 26.5v111z" />
<glyph unicode="&#x2a5;" horiz-adv-x="980" d="M445 0l-1 70q-29 -34 -71 -55.5t-102 -21.5q-39 0 -76.5 12.5t-67 42t-47 78.5t-17.5 122q0 54 14 101.5t40 83t64 56t86 20.5q63 0 107 -29.5t67 -77.5v348h59v-249h370v-42l-298 -409h122q19 42 38 73t39 51.5t43 31t51 10.5q49 0 76 -29t27 -75q0 -54 -38.5 -83 t-103.5 -29h-103q-9 -20 -18 -42t-19 -48l-45 13l31 77h-227zM441 239q0 50 -13.5 90t-36.5 68t-53 43t-63 15q-39 0 -67.5 -16t-47 -43.5t-27.5 -65.5t-9 -82q0 -54 11.5 -92.5t33.5 -62.5t53 -35t70 -11q27 0 50.5 8t42.5 20t33.5 26.5t22.5 26.5v111zM796 450h-296v-408z M832 50q38 0 62 15t24 48q0 26 -14 41.5t-40 15.5q-33 0 -59.5 -27t-58.5 -93h86z" />
<glyph unicode="&#x2a6;" horiz-adv-x="724" d="M538 277q60 -11 99.5 -41.5t39.5 -90.5q0 -67 -41.5 -106t-129.5 -39h-213q-87 0 -121.5 35t-34.5 103v306h-103v52h103v146l59 16v-162h213q20 6 43 9.5t48 3.5q51 0 91 -11t64 -24l-21 -46q-22 11 -54 20t-77 9q-69 0 -100 -20.5t-31 -62.5q0 -19 5.5 -32.5t18 -23.5 t34 -17.5t53.5 -13.5zM196 155q0 -34 6.5 -54.5t20 -31t34 -14t48.5 -3.5h192q69 0 96 23.5t27 61.5q0 35 -22 57.5t-84 33.5l-54 10q-32 6 -58 15t-45.5 23.5t-30 36t-10.5 52.5q0 46 28 79h-148v-289z" />
<glyph unicode="&#x2a7;" horiz-adv-x="490" d="M347 -30v30q-11 -2 -27.5 -4t-35.5 -2q-80 0 -113.5 38t-33.5 106v306h-103v52h103v146l59 16v-162h151v73q0 85 34.5 136.5t111.5 51.5q17 0 34 -2.5t28 -5.5l-7 -50q-9 2 -22.5 3.5t-28.5 1.5q-29 0 -47 -11t-28 -30t-13 -45t-3 -55v-599q0 -85 -34.5 -136.5 t-111.5 -51.5q-17 0 -34 2.5t-28 5.5l7 50q9 -2 22.5 -3.5t28.5 -1.5q29 0 47 11t27.5 30t13 45t3.5 55zM196 444v-289q0 -34 7 -55t21 -33t34.5 -16t46.5 -4h22.5t19.5 2v395h-151z" />
<glyph unicode="&#x2a8;" horiz-adv-x="749" d="M268 -6q-69 0 -100 37.5t-31 106.5v306h-103v52h103v146l59 16v-162h136v-52h-136v-289q0 -34 7 -55t18.5 -33t27.5 -16t34 -4q26 0 48.5 9.5t43.5 24.5q-45 65 -45 166q0 59 15 107t44.5 82.5t71.5 53.5t96 19q30 0 53 -5.5t41 -13t30.5 -15.5t20.5 -14l-27 -44 q-14 9 -44 23t-75 14q-72 0 -118.5 -51t-46.5 -156q0 -41 7 -73.5t20 -57.5q19 18 38.5 34.5t40.5 30t45 21.5t52 8q60 0 90 -29.5t30 -74.5q0 -57 -42.5 -87t-109.5 -30q-93 0 -154 53q-28 -20 -62 -34t-78 -14zM564 34q48 0 74 19.5t26 51.5q0 26 -17.5 42.5t-52.5 16.5 q-21 0 -39.5 -7.5t-35.5 -20t-34.5 -28.5t-35.5 -32q45 -42 115 -42z" />
<glyph unicode="&#x2a9;" horiz-adv-x="826" d="M749 -32q0 -100 -40.5 -146t-131.5 -46q-7 0 -16.5 1t-19.5 2.5t-18.5 3t-13.5 3.5l7 49q10 -2 26.5 -4t29.5 -2q34 0 57 8t36.5 26.5t19 49t5.5 76.5v327q0 39 -9.5 66t-26 43t-39 23t-49.5 7q-38 0 -68 -17.5t-51 -46t-32 -64t-11 -72.5v-255h-59v444h-153v-444h-60 v444h-98v52h98v54q0 46 8.5 84t29 65.5t53 42.5t80.5 15q26 0 47.5 -3.5t32.5 -6.5l-8 -49q-8 2 -24.5 4t-33.5 2q-37 0 -61 -9t-38.5 -29t-20 -51.5t-5.5 -77.5v-41h208l2 -98q23 48 67.5 79.5t107.5 31.5q87 0 129.5 -47t42.5 -138v-356z" />
<glyph unicode="&#x2aa;" horiz-adv-x="638" d="M452 277q30 -5 55.5 -15t44 -26t29 -38.5t10.5 -52.5q0 -67 -41.5 -106t-129.5 -39h-183q-87 0 -121.5 35t-34.5 103v612h59v-595q0 -34 6.5 -54.5t20 -31t34 -14t48.5 -3.5h162q69 0 96 23.5t27 61.5q0 35 -22 57.5t-84 33.5l-54 10q-32 6 -58 15.5t-45.5 24.5t-30 37 t-10.5 54q0 67 51 103.5t133 36.5q51 0 91 -11t64 -24l-21 -46q-22 11 -54 20t-77 9q-69 0 -100 -20.5t-31 -61.5q0 -37 23 -57t87 -31z" />
<glyph unicode="&#x2ab;" horiz-adv-x="566" d="M514 0h-433v750h60v-249h370v-42l-298 -409h301v-50zM437 450h-296v-408z" />
<glyph unicode="&#x2ac;" horiz-adv-x="560" d="M412 385h-57l-74 243l-76 -243h-56l-109 318h56l84 -266l77 255h51l76 -255l84 266h52zM412 0h-57l-74 243l-76 -243h-56l-109 318h56l84 -266l77 255h51l76 -255l84 266h52z" />
<glyph unicode="&#x2ad;" horiz-adv-x="613" d="M85 411v292h443v-292h-53v233h-337v-233h-53zM85 0v292h443v-292h-53v233h-337v-233h-53z" />
<glyph unicode="&#x2c6;" horiz-adv-x="505" d="M95 612l135 126h50l135 -126l-34 -32l-126 98l-126 -98z" />
<glyph unicode="&#x2c7;" horiz-adv-x="505" d="M256 638l125 98l34 -32l-134 -126h-51l-135 126l35 32z" />
<glyph unicode="&#x2c9;" horiz-adv-x="505" d="M111 614v53h284v-53h-284z" />
<glyph unicode="&#x2cf;" horiz-adv-x="514" d="M353 -40l28 -56l-227 -105l-21 43z" />
<glyph unicode="&#x2d8;" horiz-adv-x="505" d="M250 625q43 0 66.5 22t23.5 68h54q0 -29 -8.5 -54t-26 -44.5t-45 -30.5t-65.5 -11q-39 0 -66.5 11t-45 30t-25.5 44.5t-8 54.5h56q0 -46 24 -68t66 -22z" />
<glyph unicode="&#x2d9;" horiz-adv-x="505" d="M207 640q0 22 13 35.5t33 13.5t32 -13.5t12 -35.5t-12 -35t-32 -13t-33 13t-13 35z" />
<glyph unicode="&#x2da;" horiz-adv-x="505" d="M359 674q0 -48 -29.5 -75.5t-75.5 -27.5q-47 0 -77 27.5t-30 74.5q0 48 31 75.5t76 27.5q47 0 76 -27.5t29 -74.5zM314 673q0 29 -17 45.5t-44 16.5q-25 0 -42.5 -16t-17.5 -46q0 -29 17 -45.5t43 -16.5q27 0 44 16.5t17 45.5z" />
<glyph unicode="&#x2db;" horiz-adv-x="505" d="M303 -178q-7 -1 -11 -1.5t-14 -0.5q-42 0 -70 17t-28 57q0 32 18 57.5t47 48.5h55q-26 -20 -45.5 -44t-19.5 -52q0 -20 12 -31t39 -11q13 0 17 1v-41z" />
<glyph unicode="&#x2dc;" horiz-adv-x="505" d="M176 694q25 0 43.5 -9t34 -20.5t31 -20.5t34.5 -9q25 0 35 15.5t10 42.5h53q0 -54 -25 -82.5t-73 -28.5q-24 0 -42 9t-34.5 20t-31.5 20t-33 9q-25 0 -35.5 -15t-10.5 -42h-53q0 52 24.5 81.5t72.5 29.5z" />
<glyph unicode="&#x2dd;" horiz-adv-x="505" d="M256 599l141 161l44 -40l-149 -153zM57 599l141 161l44 -40l-149 -153z" />
<glyph unicode="&#x300;" horiz-adv-x="0" d="M103 588l-226 105l28 56l220 -118z" />
<glyph unicode="&#x301;" horiz-adv-x="0" d="M97 749l28 -56l-227 -105l-21 43z" />
<glyph unicode="&#x302;" horiz-adv-x="0" d="M-159 612l135 126h50l135 -126l-34 -32l-126 98l-126 -98z" />
<glyph unicode="&#x303;" horiz-adv-x="0" d="M-71 694q25 0 43.5 -9t34 -20.5t31 -20.5t34.5 -9q25 0 35 15.5t10 42.5h53q0 -54 -25 -82.5t-73 -28.5q-24 0 -42 9t-34.5 20t-31.5 20t-33 9q-25 0 -35.5 -15t-10.5 -42h-53q0 52 24.5 81.5t72.5 29.5z" />
<glyph unicode="&#x304;" horiz-adv-x="0" d="M-141 613v53h284v-53h-284z" />
<glyph unicode="&#x306;" horiz-adv-x="0" d="M2 625q43 0 66.5 22t23.5 68h54q0 -29 -8.5 -54t-26 -44.5t-45 -30.5t-65.5 -11q-39 0 -66.5 11t-45 30t-25.5 44.5t-8 54.5h56q0 -46 24 -68t66 -22z" />
<glyph unicode="&#x309;" horiz-adv-x="247" d="M127 673q0 16 -10.5 26.5t-32.5 10.5q-13 0 -24.5 -1t-18.5 -3v51q20 5 55 5q26 0 43.5 -7t28.5 -18t15.5 -24.5t4.5 -27.5q0 -34 -20 -59t-45 -48l-33 27q14 13 25.5 31t11.5 37z" />
<glyph unicode="&#x30c;" horiz-adv-x="0" d="M2 638l125 98l34 -32l-134 -126h-51l-135 126l35 32z" />
<glyph unicode="&#x31b;" horiz-adv-x="0" d="M-57 496q27 0 42.5 12t15.5 36q0 16 -6.5 33t-12.5 28h59q5 -11 10.5 -27.5t5.5 -35.5q0 -36 -26 -63t-88 -29v46z" />
<glyph unicode="&#x323;" horiz-adv-x="514" d="M258 -145q-20 0 -33 13t-13 35t13 35.5t33 13.5t32 -13.5t12 -35.5t-12 -35t-32 -13z" />
<glyph unicode="&#x335;" horiz-adv-x="0" d="M177 225h-353v51h353v-51z" />
<glyph unicode="&#x375;" horiz-adv-x="401" d="M221 -42l50 -31l-101 -148l-37 24z" />
<glyph unicode="&#x37e;" horiz-adv-x="254" d="M77 443q0 24 14 39t35 15t35 -14.5t14 -39.5q0 -24 -14.5 -38t-35.5 -14t-34.5 14t-13.5 38zM75 42q0 26 14.5 40.5t34.5 14.5q24 0 36.5 -16t12.5 -42q0 -45 -24 -99.5t-75 -102.5l-29 25q29 32 46 66t21 65q-13 3 -25 14.5t-12 34.5z" />
<glyph unicode="&#x384;" horiz-adv-x="401" d="M221 767l50 -31l-101 -148l-37 24z" />
<glyph unicode="&#x385;" horiz-adv-x="530" d="M281 769l56 -24l-79 -161l-41 20zM100 649q0 21 13 34.5t32 13.5q20 0 32.5 -13.5t12.5 -34.5q0 -23 -12.5 -36t-32.5 -13q-19 0 -32 13t-13 36zM340 649q0 21 13 34.5t32 13.5q20 0 32.5 -13.5t12.5 -34.5q0 -23 -12.5 -36t-32.5 -13q-19 0 -32 13t-13 36z" />
<glyph unicode="&#x386;" horiz-adv-x="579" d="M431 196h-289l-63 -196h-60l235 703h70l236 -703h-65zM159 251h254l-126 380zM84 703l61 -17l-62 -179l-45 15z" />
<glyph unicode="&#x387;" horiz-adv-x="254" d="M77 443q0 24 14 39t35 15t35 -14.5t14 -39.5q0 -24 -14.5 -38t-35.5 -14t-34.5 14t-13.5 38z" />
<glyph unicode="&#x388;" horiz-adv-x="572" d="M142 703h388v-58h-325v-250h254v-58h-254v-279h335v-58h-398v703zM22 703l61 -17l-62 -179l-45 15z" />
<glyph unicode="&#x389;" horiz-adv-x="718" d="M563 703h63v-703h-63v346h-357v-346h-63v703h63v-298h357v298zM23 703l61 -17l-62 -179l-45 15z" />
<glyph unicode="&#x38a;" horiz-adv-x="297" d="M205 0h-63v703h63v-703zM23 703l61 -17l-62 -179l-45 15z" />
<glyph unicode="&#x38c;" horiz-adv-x="756" d="M91 352q0 82 19.5 149.5t57.5 115.5t94 74.5t128 26.5t127.5 -26.5t93 -74.5t57 -115.5t19.5 -149.5t-19.5 -149.5t-57 -116t-93.5 -75t-128 -26.5t-128 26.5t-93.5 75t-57 116t-19.5 149.5zM157 352q0 -70 14 -126.5t43 -97t72.5 -62.5t102.5 -22t102.5 22t72.5 62.5 t43 97t14 126.5t-14 126.5t-43 96.5t-72.5 62t-102.5 22t-102.5 -22t-72.5 -62t-43 -96.5t-14 -126.5zM23 703l61 -17l-62 -179l-45 15z" />
<glyph unicode="&#x38e;" horiz-adv-x="643" d="M23 703l61 -17l-62 -179l-45 15zM337 307l-221 396h72l183 -336l187 336h68l-226 -394v-309h-63v307z" />
<glyph unicode="&#x38f;" horiz-adv-x="767" d="M22 703l61 -17l-62 -179l-45 15zM390 659q-54 0 -97 -18.5t-74 -56t-47.5 -93.5t-16.5 -132q0 -69 14 -120.5t36.5 -88.5t50 -61.5t54.5 -39.5v-49h-251v56h156q-17 15 -38.5 40.5t-41 63t-33 87t-13.5 112.5q0 74 18.5 139.5t56 114t94 77t133.5 28.5q75 0 130 -28.5 t91.5 -77.5t54.5 -114.5t18 -139.5q0 -60 -13 -109.5t-32.5 -87t-42 -64t-41.5 -41.5h160v-56h-251v49q28 16 55.5 41t49.5 61.5t35.5 87t13.5 119.5q0 146 -62 223.5t-167 77.5z" />
<glyph unicode="&#x390;" horiz-adv-x="272" d="M213 47q11 0 23 3t17 5l11 -48q-7 -4 -25 -8.5t-37 -4.5q-65 0 -93 35t-28 111v356h59v-339q0 -34 3.5 -55.5t12 -33.5t22.5 -16.5t35 -4.5zM140 769l56 -24l-79 -161l-41 20zM-41 649q0 21 13 34.5t32 13.5q20 0 32.5 -13.5t12.5 -34.5q0 -23 -12.5 -36t-32.5 -13 q-19 0 -32 13t-13 36zM199 649q0 21 13 34.5t32 13.5q20 0 32.5 -13.5t12.5 -34.5q0 -23 -12.5 -36t-32.5 -13q-19 0 -32 13t-13 36z" />
<glyph unicode="&#x391;" horiz-adv-x="579" d="M431 196h-289l-63 -196h-60l235 703h70l236 -703h-65zM159 251h254l-126 380z" />
<glyph unicode="&#x392;" horiz-adv-x="599" d="M289 703q55 0 94.5 -14.5t64.5 -38.5t37 -56t12 -68q0 -34 -10 -60.5t-25.5 -46t-34 -32t-34.5 -18.5q25 -6 50 -19.5t45 -34.5t33 -51t13 -69q0 -87 -56 -141t-176 -54h-210v703h197zM278 390q84 0 120.5 38t36.5 98q0 34 -13 57.5t-34 37.5t-48.5 20t-57.5 6h-129v-257 h125zM310 56q86 0 123 37t37 103q0 69 -47.5 104t-135.5 35h-134v-279h157z" />
<glyph unicode="&#x393;" horiz-adv-x="509" d="M92 703h381v-58h-318v-645h-63v703z" />
<glyph unicode="&#x394;" horiz-adv-x="576" d="M17 0l236 703h68l238 -703h-542zM95 57h380l-190 575z" />
<glyph unicode="&#x395;" horiz-adv-x="522" d="M92 703h388v-58h-325v-250h254v-58h-254v-279h335v-58h-398v703z" />
<glyph unicode="&#x396;" horiz-adv-x="579" d="M50 50l394 595h-384v58h461v-50l-395 -595h407v-58h-483v50z" />
<glyph unicode="&#x397;" horiz-adv-x="667" d="M512 703h63v-703h-63v346h-357v-346h-63v703h63v-298h357v298z" />
<glyph unicode="&#x398;" horiz-adv-x="734" d="M69 352q0 82 19.5 149.5t57.5 115.5t94 74.5t128 26.5t127.5 -26.5t93 -74.5t57 -115.5t19.5 -149.5t-19.5 -149.5t-57 -116t-93.5 -75t-128 -26.5t-128 26.5t-93.5 75t-57 116t-19.5 149.5zM135 352q0 -70 14 -126.5t43 -97t72.5 -62.5t102.5 -22t102.5 22t72.5 62.5 t43 97t14 126.5t-14 126.5t-43 96.5t-72.5 62t-102.5 22t-102.5 -22t-72.5 -62t-43 -96.5t-14 -126.5zM214 322v59h305v-59h-305z" />
<glyph unicode="&#x399;" horiz-adv-x="247" d="M155 0h-63v703h63v-703z" />
<glyph unicode="&#x39a;" horiz-adv-x="553" d="M155 0h-63v703h63v-324l293 324h74l-293 -325l317 -378h-81l-310 368v-368z" />
<glyph unicode="&#x39b;" horiz-adv-x="579" d="M287 615l-203 -615h-65l239 703h60l242 -703h-68z" />
<glyph unicode="&#x39c;" horiz-adv-x="769" d="M679 703v-703h-62v605l-210 -385h-51l-204 373v-593h-62v703h66l228 -418l227 418h68z" />
<glyph unicode="&#x39d;" horiz-adv-x="660" d="M153 599v-599h-61v703h66l349 -596v596h61v-703h-61z" />
<glyph unicode="&#x39e;" horiz-adv-x="497" d="M47 702h403v-61h-403v61zM40 61h417v-61h-417v61zM77 396h343v-61h-343v61z" />
<glyph unicode="&#x39f;" horiz-adv-x="734" d="M69 352q0 82 19.5 149.5t57.5 115.5t94 74.5t128 26.5t127.5 -26.5t93 -74.5t57 -115.5t19.5 -149.5t-19.5 -149.5t-57 -116t-93.5 -75t-128 -26.5t-128 26.5t-93.5 75t-57 116t-19.5 149.5zM135 352q0 -70 14 -126.5t43 -97t72.5 -62.5t102.5 -22t102.5 22t72.5 62.5 t43 97t14 126.5t-14 126.5t-43 96.5t-72.5 62t-102.5 22t-102.5 -22t-72.5 -62t-43 -96.5t-14 -126.5z" />
<glyph unicode="&#x3a0;" horiz-adv-x="650" d="M92 703h466v-703h-63v643h-340v-643h-63v703z" />
<glyph unicode="&#x3a1;" horiz-adv-x="566" d="M448 488q0 83 -43 121t-119 38h-132v-315h123q83 0 127 39t44 117zM511 488q0 -42 -13 -80.5t-41.5 -68t-72.5 -47t-105 -17.5h-125v-275h-62v703h196q58 0 100 -17t69.5 -46t40.5 -68t13 -84z" />
<glyph unicode="&#x3a3;" horiz-adv-x="549" d="M114 58h409v-58h-483v50l237 310l-225 291v52h449v-58h-372l219 -282z" />
<glyph unicode="&#x3a4;" horiz-adv-x="565" d="M251 644h-216v59h494v-59h-215v-644h-63v644z" />
<glyph unicode="&#x3a5;" horiz-adv-x="544" d="M238 307l-221 396h72l183 -336l187 336h68l-226 -394v-309h-63v307z" />
<glyph unicode="&#x3a6;" horiz-adv-x="797" d="M430 0h-61v98q-72 1 -128.5 21.5t-95.5 56.5t-59.5 85.5t-20.5 109.5t20.5 109t59.5 84.5t95.5 56t128.5 22.5v83h61v-83q71 -2 127 -22.5t95 -56t59.5 -84.5t20.5 -109t-20.5 -109t-59.5 -85t-95 -56.5t-127 -22.5v-98zM128 371q0 -100 60 -157t181 -60v433 q-121 -3 -181 -59.5t-60 -156.5zM669 371q0 100 -59 156t-180 60v-433q121 3 180 60t59 157z" />
<glyph unicode="&#x3a7;" horiz-adv-x="598" d="M33 0l231 373l-198 330h73l162 -277l171 277h69l-203 -328l225 -375h-74l-190 319l-194 -319h-72z" />
<glyph unicode="&#x3a8;" horiz-adv-x="815" d="M735 451q0 -56 -16.5 -104t-51.5 -84t-91.5 -57.5t-135.5 -24.5v-181h-63v181q-80 2 -136.5 23.5t-92 58t-52 85t-16.5 104.5v251h63v-242q0 -99 56 -158.5t178 -64.5v465h63v-465q121 5 176.5 64.5t55.5 157.5v243h63v-252z" />
<glyph unicode="&#x3a9;" horiz-adv-x="759" d="M382 659q-54 0 -97 -18.5t-74 -56t-47.5 -93.5t-16.5 -132q0 -69 14 -120.5t36.5 -88.5t50 -61.5t54.5 -39.5v-49h-251v56h156q-17 15 -38.5 40.5t-41 63t-33 87t-13.5 112.5q0 74 18.5 139.5t56 114t94 77t133.5 28.5q75 0 130 -28.5t91.5 -77.5t54.5 -114.5t18 -139.5 q0 -60 -13 -109.5t-32.5 -87t-42 -64t-41.5 -41.5h160v-56h-251v49q28 16 55.5 41t49.5 61.5t35.5 87t13.5 119.5q0 146 -62 223.5t-167 77.5z" />
<glyph unicode="&#x3aa;" horiz-adv-x="245" d="M155 0h-63v703h63v-703zM-23 847q0 23 13.5 36.5t33.5 13.5t33 -13.5t13 -36.5t-13 -36.5t-33 -13.5t-33.5 13.5t-13.5 36.5zM177 847q0 23 13 36.5t33 13.5t33.5 -13.5t13.5 -36.5t-13.5 -36.5t-33.5 -13.5t-33 13.5t-13 36.5z" />
<glyph unicode="&#x3ab;" horiz-adv-x="544" d="M238 307l-221 396h72l183 -336l187 336h68l-226 -394v-309h-63v307zM125 847q0 23 13.5 36.5t33.5 13.5t33 -13.5t13 -36.5t-13 -36.5t-33 -13.5t-33.5 13.5t-13.5 36.5zM325 847q0 23 13 36.5t33 13.5t33.5 -13.5t13.5 -36.5t-13.5 -36.5t-33.5 -13.5t-33 13.5t-13 36.5 z" />
<glyph unicode="&#x3ac;" horiz-adv-x="602" d="M548 47q9 0 19 2t14 4l10 -45q-5 -4 -21 -8t-32 -4q-42 0 -65.5 24.5t-26.5 69.5q-8 -15 -23.5 -32t-37.5 -31.5t-50 -24t-61 -9.5q-40 0 -78 12.5t-67.5 42t-47.5 78.5t-18 122q0 54 14 101.5t40 83t64 56t86 20.5q63 0 107 -29t67 -76v92h59v-387q0 -62 48 -62z M275 455q-39 0 -67.5 -16t-47 -43.5t-27.5 -65.5t-9 -82q0 -54 11.5 -92.5t31.5 -62.5t48 -35t61 -11q37 0 65.5 13t49 31.5t33 38.5t17.5 35v78q0 49 -14 88t-37 66.5t-53 42.5t-62 15zM331 767l50 -31l-101 -148l-37 24z" />
<glyph unicode="&#x3ad;" horiz-adv-x="478" d="M356 232h-111q-54 0 -88 -21t-34 -70q0 -52 39.5 -75.5t106.5 -23.5q54 0 89.5 13t53.5 26l26 -41q-7 -6 -22.5 -15t-37.5 -17t-50.5 -13.5t-61.5 -5.5q-44 0 -81 9t-64 27t-42.5 45.5t-15.5 65.5q0 25 8 45.5t21.5 35.5t30.5 25.5t36 15.5q-14 3 -28 11t-26 21t-19.5 32 t-7.5 44q0 29 11.5 55t35 45.5t59.5 31t86 11.5q29 0 55 -6t47.5 -15t37 -19.5t24.5 -19.5l-30 -41q-18 17 -53.5 32.5t-80.5 15.5q-66 0 -99 -24t-33 -66q0 -38 23 -59t83 -21h112v-54zM306 767l50 -31l-101 -148l-37 24z" />
<glyph unicode="&#x3ae;" horiz-adv-x="557" d="M140 0h-59v496h55l2 -98q23 47 66.5 79t105.5 32q85 0 127.5 -47t42.5 -138v-544h-59v536q0 39 -9 66t-25.5 43t-39 23t-48.5 7q-38 0 -67.5 -17.5t-49.5 -45.5t-31 -64t-11 -73v-255zM333 767l50 -31l-101 -148l-37 24z" />
<glyph unicode="&#x3af;" horiz-adv-x="272" d="M213 47q11 0 23 3t17 5l11 -48q-7 -4 -25 -8.5t-37 -4.5q-65 0 -93 35t-28 111v356h59v-339q0 -34 3.5 -55.5t12 -33.5t22.5 -16.5t35 -4.5zM142 767l50 -31l-101 -148l-37 24z" />
<glyph unicode="&#x3b0;" horiz-adv-x="560" d="M279 -11q-98 0 -149 51t-51 142v314h59v-306q0 -72 38.5 -109.5t103.5 -37.5t103.5 34.5t38.5 112.5v306h59v-314q0 -91 -54 -142t-148 -51zM296 769l56 -24l-79 -161l-41 20zM115 649q0 21 13 34.5t32 13.5q20 0 32.5 -13.5t12.5 -34.5q0 -23 -12.5 -36t-32.5 -13 q-19 0 -32 13t-13 36zM355 649q0 21 13 34.5t32 13.5q20 0 32.5 -13.5t12.5 -34.5q0 -23 -12.5 -36t-32.5 -13q-19 0 -32 13t-13 36z" />
<glyph unicode="&#x3b1;" horiz-adv-x="602" d="M548 47q9 0 19 2t14 4l10 -45q-5 -4 -21 -8t-32 -4q-42 0 -65.5 24.5t-26.5 69.5q-8 -15 -23.5 -32t-37.5 -31.5t-50 -24t-61 -9.5q-40 0 -78 12.5t-67.5 42t-47.5 78.5t-18 122q0 54 14 101.5t40 83t64 56t86 20.5q63 0 107 -29t67 -76v92h59v-387q0 -62 48 -62z M275 455q-39 0 -67.5 -16t-47 -43.5t-27.5 -65.5t-9 -82q0 -54 11.5 -92.5t31.5 -62.5t48 -35t61 -11q37 0 65.5 13t49 31.5t33 38.5t17.5 35v78q0 49 -14 88t-37 66.5t-53 42.5t-62 15z" />
<glyph unicode="&#x3b2;" horiz-adv-x="566" d="M303 -7q-29 0 -53.5 6t-45.5 15.5t-37 21.5t-27 23v-279h-59v729q0 116 49.5 182t157.5 66q43 0 77.5 -14t58.5 -37.5t37 -55t13 -66.5q0 -60 -31 -101.5t-76 -55.5q30 -7 57 -22t47.5 -40t32.5 -61.5t12 -85.5q0 -51 -16.5 -92.5t-45 -71t-67.5 -45.5t-84 -16zM302 46 q32 0 60 10.5t48.5 32t32.5 55t12 79.5q0 48 -14.5 81t-38.5 53.5t-55.5 30t-65.5 9.5h-47v53h58q52 0 88 36t36 98q0 54 -34.5 87.5t-97.5 33.5q-81 0 -112.5 -51.5t-31.5 -148.5v-377q6 -12 20 -26.5t34 -26.5t47.5 -20.5t60.5 -8.5z" />
<glyph unicode="&#x3b3;" horiz-adv-x="501" d="M281 33v-253h-60v243l-199 473h66l163 -405l166 405h61z" />
<glyph unicode="&#x3b4;" horiz-adv-x="567" d="M122 750h336v-51h-252l148 -154q36 -37 63.5 -70t47 -68.5t29.5 -75.5t10 -90q0 -57 -16 -103.5t-44.5 -79.5t-68.5 -51t-88 -18q-49 0 -90 15.5t-71 47t-46.5 78.5t-16.5 110q0 58 18 103t48 76t70 47t84 16q19 0 42 -6.5t34 -14.5l-237 248v41zM289 43q36 0 64.5 14 t49 40t31 62t10.5 81q0 50 -12 86t-33.5 59t-50.5 33.5t-63 10.5q-77 0 -119 -51t-42 -138q0 -52 12.5 -89.5t34 -61.5t52 -35t66.5 -11z" />
<glyph unicode="&#x3b5;" horiz-adv-x="478" d="M356 232h-111q-54 0 -88 -21t-34 -70q0 -52 39.5 -75.5t106.5 -23.5q54 0 89.5 13t53.5 26l26 -41q-7 -6 -22.5 -15t-37.5 -17t-50.5 -13.5t-61.5 -5.5q-44 0 -81 9t-64 27t-42.5 45.5t-15.5 65.5q0 25 8 45.5t21.5 35.5t30.5 25.5t36 15.5q-14 3 -28 11t-26 21t-19.5 32 t-7.5 44q0 29 11.5 55t35 45.5t59.5 31t86 11.5q29 0 55 -6t47.5 -15t37 -19.5t24.5 -19.5l-30 -41q-18 17 -53.5 32.5t-80.5 15.5q-66 0 -99 -24t-33 -66q0 -38 23 -59t83 -21h112v-54z" />
<glyph unicode="&#x3b6;" horiz-adv-x="431" d="M241 22q-47 4 -80.5 20t-55.5 41.5t-32 59.5t-10 74q0 60 21.5 116t59 114t87 119t106.5 132h-258v52h333v-38q-22 -28 -51.5 -64t-61.5 -76.5t-63.5 -84t-56 -88t-40 -87t-15.5 -81.5q0 -71 28.5 -109t103.5 -46l59 -6q48 -5 74 -32.5t26 -75.5q0 -16 -4 -31.5t-9 -27.5 t-9.5 -20.5t-6.5 -11.5l-44 20q3 6 9 23.5t6 35.5q0 34 -17.5 49.5t-52.5 18.5z" />
<glyph unicode="&#x3b7;" horiz-adv-x="557" d="M140 0h-59v496h55l2 -98q23 47 66.5 79t105.5 32q85 0 127.5 -47t42.5 -138v-544h-59v536q0 39 -9 66t-25.5 43t-39 23t-48.5 7q-38 0 -67.5 -17.5t-49.5 -45.5t-31 -64t-11 -73v-255z" />
<glyph unicode="&#x3b8;" horiz-adv-x="566" d="M63 370q0 187 55 287t167 100t165 -100.5t53 -286.5q0 -189 -53 -284.5t-167 -95.5t-167 97t-53 283zM286 44q79 0 117.5 74t40.5 234h-322q2 -160 42.5 -234t121.5 -74zM283 703q-77 0 -116.5 -71t-44.5 -227h321q-4 156 -44 227t-116 71z" />
<glyph unicode="&#x3b9;" horiz-adv-x="274" d="M213 47q11 0 23 3t17 5l11 -48q-7 -4 -25 -8.5t-37 -4.5q-65 0 -93 35t-28 111v356h59v-339q0 -34 3.5 -55.5t12 -33.5t22.5 -16.5t35 -4.5z" />
<glyph unicode="&#x3ba;" horiz-adv-x="474" d="M140 262l228 234h70l-230 -234l248 -262h-76l-240 255v-255h-59v496h59v-234z" />
<glyph unicode="&#x3bb;" horiz-adv-x="494" d="M254 426l-166 -426h-62l201 495l-36 102q-15 42 -33.5 60t-50.5 18q-12 0 -27 -3.5t-28 -8.5l-14 45q12 7 34.5 13t41.5 6q47 0 78 -24t52 -83l224 -620h-62z" />
<glyph unicode="&#x3bc;" horiz-adv-x="562" d="M481 496v-496h-55l-2 96q-8 -16 -22 -35t-34 -35t-47.5 -27t-62.5 -11q-42 0 -73.5 18.5t-45.5 38.5v-265h-58v716h59v-315q0 -38 9 -64.5t25.5 -43t39 -24t49.5 -7.5q39 0 68.5 17.5t49.5 46.5t30.5 66t10.5 77v247h59z" />
<glyph unicode="&#x3bd;" horiz-adv-x="484" d="M210 0l-188 496h65l157 -436l155 436h62l-187 -496h-64z" />
<glyph unicode="&#x3be;" horiz-adv-x="458" d="M329 70q51 -5 77 -33t26 -73q0 -17 -4 -33t-9 -28.5t-9.5 -20.5t-6.5 -11l-44 20q3 6 9 23.5t6 36.5q0 32 -17 48t-52 19l-63 6q-48 4 -82 22t-55.5 45t-31.5 62t-10 75q0 39 12 71t30.5 56t42 40.5t46.5 24.5q-14 4 -32 16t-33.5 30.5t-26 45t-10.5 59.5q0 37 14 70.5 t40.5 59t64.5 41t85 15.5q52 0 88 -14t62 -33l-26 -44q-21 13 -49 25.5t-75 12.5q-28 0 -54 -8.5t-46 -25t-32 -41.5t-12 -58t11 -56.5t30 -38.5t44 -22t52 -7h88v-54h-97q-31 0 -59 -9.5t-49.5 -30t-34.5 -51.5t-13 -73q0 -32 7 -58t23 -45.5t42 -32t64 -16.5z" />
<glyph unicode="&#x3bf;" horiz-adv-x="576" d="M288 43q85 0 125 55.5t40 150.5q0 93 -40.5 149.5t-124.5 56.5q-83 0 -123.5 -56.5t-40.5 -149.5q0 -95 40 -150.5t124 -55.5zM288 509q56 0 98 -19.5t70.5 -54t42.5 -82t14 -104.5t-14.5 -105t-43 -82.5t-70.5 -53.5t-97 -19q-56 0 -98 19t-70 53.5t-42.5 82.5 t-14.5 105t14.5 104.5t43 82t70.5 54t97 19.5z" />
<glyph unicode="&#x3c0;" horiz-adv-x="626" d="M532 47q13 0 25.5 3t17.5 5l8 -48q-8 -5 -25 -9t-35 -4q-56 0 -83.5 31.5t-27.5 105.5v311h-215v-442h-59v442h-108v54h550v-54h-108v-300q0 -54 13.5 -74.5t46.5 -20.5z" />
<glyph unicode="&#x3c1;" horiz-adv-x="580" d="M299 455q-78 0 -118.5 -52t-40.5 -151v-123q8 -13 22.5 -27.5t34.5 -27t45.5 -20.5t55.5 -8q35 0 64 12t50 37.5t32.5 65t11.5 94.5q0 44 -9 80.5t-28 63t-48.5 41.5t-71.5 15zM302 509q51 0 90.5 -18t67.5 -51t42.5 -80t14.5 -105q0 -73 -19.5 -123t-50.5 -81 t-69.5 -44.5t-77.5 -13.5q-53 0 -95 20.5t-65 47.5v-281h-59v471q0 67 17 116t46.5 80.5t70 46.5t87.5 15z" />
<glyph unicode="&#x3c2;" horiz-adv-x="469" d="M63 253q0 58 15.5 105.5t44.5 81t70 51.5t93 18q31 0 55.5 -5t43 -12.5t30.5 -16t20 -14.5l-27 -44q-7 4 -18 10.5t-26 12.5t-34 10t-41 4q-72 0 -118.5 -49t-46.5 -151q0 -36 7 -67t22.5 -54.5t41.5 -38t65 -18.5l65 -6q49 -5 74.5 -33t25.5 -72q0 -18 -4 -33.5 t-9 -28.5t-9.5 -21t-6.5 -11l-44 20q3 6 9 24t6 38q0 32 -17.5 47t-52.5 18l-54 5q-45 4 -79 22.5t-56.5 49t-33.5 71t-11 87.5z" />
<glyph unicode="&#x3c3;" horiz-adv-x="594" d="M542 496v-49h-115q29 -31 53 -85t24 -129q0 -51 -15.5 -95.5t-44 -77.5t-69 -52t-91.5 -19q-54 0 -95.5 19t-69 53t-42 79.5t-14.5 99.5q0 60 17 107.5t48.5 80.5t76.5 50.5t102 17.5h235zM289 43q69 0 112 52.5t43 145.5q0 37 -7.5 69.5t-18.5 58.5t-25 45.5t-27 29.5 h-62q-88 0 -134 -50.5t-46 -144.5q0 -95 40 -150.5t125 -55.5z" />
<glyph unicode="&#x3c4;" horiz-adv-x="466" d="M322 47q26 0 42.5 5t24.5 9l14 -46q-8 -5 -31.5 -13t-61.5 -8q-68 0 -104.5 36.5t-36.5 110.5v303h-165v52h425v-52h-201v-282q0 -35 6 -57t18 -35t29.5 -18t40.5 -5z" />
<glyph unicode="&#x3c5;" horiz-adv-x="560" d="M279 -11q-98 0 -149 51t-51 142v314h59v-306q0 -72 38.5 -109.5t103.5 -37.5t103.5 34.5t38.5 112.5v306h59v-314q0 -91 -54 -142t-148 -51z" />
<glyph unicode="&#x3c6;" horiz-adv-x="702" d="M319 -10q-128 8 -192 78.5t-64 189.5q0 48 13 88.5t31.5 72t39 53.5t34.5 33l37 -38q-12 -10 -28 -28t-31 -43.5t-25.5 -59t-10.5 -75.5q0 -102 53 -156.5t143 -61.5v458q11 2 32 3t31 1q52 0 99 -15.5t82 -46.5t55.5 -78.5t20.5 -110.5q0 -59 -19.5 -106t-55 -81 t-83.5 -53.5t-105 -23.5v-210h-57v210zM376 43q93 7 148 61t55 151q0 92 -50.5 145t-137.5 53q-3 0 -6 -0.5t-5 -0.5h-4v-409z" />
<glyph unicode="&#x3c7;" horiz-adv-x="463" d="M372 496h62l-169 -337l188 -379h-65l-157 321l-157 -321h-64l190 374l-168 342h63l139 -285z" />
<glyph unicode="&#x3c8;" horiz-adv-x="719" d="M640 228q0 -51 -12.5 -93.5t-41.5 -73.5t-77 -49.5t-120 -21.5v-210h-58v210q-72 3 -120.5 21.5t-77.5 49.5t-41.5 73.5t-12.5 93.5v268h59v-259q0 -48 10 -83.5t33 -59.5t59.5 -36.5t90.5 -15.5v454h58v-454q53 3 90 15.5t59.5 36.5t32.5 59.5t10 83.5v259h59v-268z" />
<glyph unicode="&#x3c9;" horiz-adv-x="783" d="M122 227q0 -91 31.5 -138t97.5 -47q57 0 84 33t27 109v151h59v-151q0 -76 27 -109t83 -33q61 0 95.5 46.5t34.5 134.5q0 61 -12.5 103t-30.5 69t-38 41.5t-35 22.5l29 46q23 -12 48.5 -34.5t47.5 -56.5t36 -79.5t14 -105.5q0 -59 -14.5 -103.5t-39.5 -75t-58.5 -46 t-72.5 -15.5q-55 0 -91.5 26.5t-53.5 70.5q-17 -45 -52.5 -71t-89.5 -26q-86 0 -135.5 58t-49.5 173q0 61 14 108.5t36 82.5t47.5 58t48.5 36l29 -46q-15 -8 -35 -24t-38 -44t-30.5 -68t-12.5 -96z" />
<glyph unicode="&#x3ca;" horiz-adv-x="272" d="M213 47q11 0 23 3t17 5l11 -48q-7 -4 -25 -8.5t-37 -4.5q-65 0 -93 35t-28 111v356h59v-339q0 -34 3.5 -55.5t12 -33.5t22.5 -16.5t35 -4.5zM-33 649q0 23 13.5 36.5t33.5 13.5t33 -13.5t13 -36.5t-13 -36.5t-33 -13.5t-33.5 13.5t-13.5 36.5zM167 649q0 23 13 36.5 t33 13.5t33.5 -13.5t13.5 -36.5t-13.5 -36.5t-33.5 -13.5t-33 13.5t-13 36.5z" />
<glyph unicode="&#x3cb;" horiz-adv-x="560" d="M279 -11q-98 0 -149 51t-51 142v314h59v-306q0 -72 38.5 -109.5t103.5 -37.5t103.5 34.5t38.5 112.5v306h59v-314q0 -91 -54 -142t-148 -51zM135 649q0 23 13.5 36.5t33.5 13.5t33 -13.5t13 -36.5t-13 -36.5t-33 -13.5t-33.5 13.5t-13.5 36.5zM335 649q0 23 13 36.5 t33 13.5t33.5 -13.5t13.5 -36.5t-13.5 -36.5t-33.5 -13.5t-33 13.5t-13 36.5z" />
<glyph unicode="&#x3cc;" horiz-adv-x="576" d="M288 43q85 0 125 55.5t40 150.5q0 93 -40.5 149.5t-124.5 56.5q-83 0 -123.5 -56.5t-40.5 -149.5q0 -95 40 -150.5t124 -55.5zM288 509q56 0 98 -19.5t70.5 -54t42.5 -82t14 -104.5t-14.5 -105t-43 -82.5t-70.5 -53.5t-97 -19q-56 0 -98 19t-70 53.5t-42.5 82.5 t-14.5 105t14.5 104.5t43 82t70.5 54t97 19.5zM331 767l50 -31l-101 -148l-37 24z" />
<glyph unicode="&#x3cd;" horiz-adv-x="560" d="M279 -11q-98 0 -149 51t-51 142v314h59v-306q0 -72 38.5 -109.5t103.5 -37.5t103.5 34.5t38.5 112.5v306h59v-314q0 -91 -54 -142t-148 -51zM319 767l50 -31l-101 -148l-37 24z" />
<glyph unicode="&#x3ce;" horiz-adv-x="783" d="M122 227q0 -91 31.5 -138t97.5 -47q57 0 84 33t27 109v151h59v-151q0 -76 27 -109t83 -33q61 0 95.5 46.5t34.5 134.5q0 61 -12.5 103t-30.5 69t-38 41.5t-35 22.5l29 46q23 -12 48.5 -34.5t47.5 -56.5t36 -79.5t14 -105.5q0 -59 -14.5 -103.5t-39.5 -75t-58.5 -46 t-72.5 -15.5q-55 0 -91.5 26.5t-53.5 70.5q-17 -45 -52.5 -71t-89.5 -26q-86 0 -135.5 58t-49.5 173q0 61 14 108.5t36 82.5t47.5 58t48.5 36l29 -46q-15 -8 -35 -24t-38 -44t-30.5 -68t-12.5 -96zM446 767l50 -31l-101 -148l-37 24z" />
<glyph unicode="&#x400;" horiz-adv-x="522" d="M92 703h388v-58h-325v-250h254v-58h-254v-279h335v-58h-398v703zM393 763l-233 98l26 58l227 -112z" />
<glyph unicode="&#x401;" horiz-adv-x="522" d="M92 703h388v-58h-325v-250h254v-58h-254v-279h335v-58h-398v703zM141 834q0 24 14 38t34 14q21 0 34.5 -14t13.5 -38q0 -23 -13.5 -37.5t-34.5 -14.5q-20 0 -34 14.5t-14 37.5zM339 834q0 24 14 38t34 14q21 0 35 -14t14 -38q0 -23 -14 -37.5t-35 -14.5q-20 0 -34 14.5 t-14 37.5z" />
<glyph unicode="&#x402;" horiz-adv-x="721" d="M278 394q22 9 62.5 20t97.5 11q106 0 165.5 -57.5t59.5 -163.5q0 -51 -17.5 -90.5t-47 -66.5t-69 -40.5t-84.5 -13.5q-17 0 -35 1.5t-33 6.5l11 53q14 -4 29 -5t27 -1q33 0 61.5 9t49.5 28t32.5 48.5t11.5 69.5q0 37 -9.5 67t-30 51.5t-53 33.5t-79.5 12q-51 0 -88.5 -10 t-60.5 -19v-338h-63v644h-180v59h463v-59h-220v-250z" />
<glyph unicode="&#x403;" horiz-adv-x="515" d="M92 703h381v-58h-318v-645h-63v703zM168 831l230 76l18 -60l-233 -62z" />
<glyph unicode="&#x404;" horiz-adv-x="623" d="M371 659q-106 0 -166.5 -67.5t-69.5 -201.5h321v-57h-322q3 -151 64.5 -219.5t172.5 -68.5q33 0 60.5 6t50.5 15t41 20t31 21l29 -45q-34 -29 -89.5 -51t-126.5 -22q-153 0 -226 93t-73 266q0 82 18.5 149.5t56 115.5t94 74.5t132.5 26.5q41 0 75 -8t60 -19.5t44.5 -24 t29.5 -22.5l-32 -45q-25 21 -68 42.5t-107 21.5z" />
<glyph unicode="&#x405;" horiz-adv-x="558" d="M247 337q-84 26 -129 71.5t-45 114.5q0 41 13.5 77t41.5 63t70 42.5t99 15.5q27 0 55 -4t54 -11t48 -16.5t37 -19.5l-24 -52q-23 15 -69 30t-105 15q-76 0 -116 -35t-40 -97q0 -24 6.5 -43t21.5 -35t40 -29t62 -26l72 -25q86 -30 124.5 -75t38.5 -116q0 -41 -14.5 -77 t-43 -62.5t-72 -42t-100.5 -15.5q-43 0 -80 7t-66.5 17t-50 20.5t-29.5 17.5l26 52q14 -9 33.5 -18.5t44.5 -18t56 -14t67 -5.5q74 0 119 33t45 101q0 50 -29 84t-98 56z" />
<glyph unicode="&#x406;" horiz-adv-x="247" d="M155 0h-63v703h63v-703z" />
<glyph unicode="&#x407;" horiz-adv-x="247" d="M155 0h-63v703h63v-703zM-23 834q0 24 14 38t34 14q21 0 34.5 -14t13.5 -38q0 -23 -13.5 -37.5t-34.5 -14.5q-20 0 -34 14.5t-14 37.5zM175 834q0 24 14 38t34 14q21 0 35 -14t14 -38q0 -23 -14 -37.5t-35 -14.5q-20 0 -34 14.5t-14 37.5z" />
<glyph unicode="&#x408;" horiz-adv-x="473" d="M324 703h63v-520q0 -107 -49.5 -153t-137.5 -46q-37 0 -67 6t-52.5 14.5t-36 16t-17.5 10.5l24 49q4 -2 16.5 -8.5t31.5 -13.5t42.5 -12.5t49.5 -5.5q34 0 59.5 7.5t41.5 25t24 46.5t8 72v512z" />
<glyph unicode="&#x409;" horiz-adv-x="956" d="M841 213q0 83 -43 120t-119 37h-130v-313h127q80 0 122.5 39t42.5 117zM263 504q-2 -44 -6 -108.5t-14 -128.5q-6 -36 -16.5 -82.5t-31.5 -88t-55 -69.5t-87 -28h-9.5t-10.5 1v57q44 0 71 20.5t42.5 52t23.5 70.5t14 77q9 57 13.5 119.5t6.5 119.5l7 187h338v-276h132 q58 0 100 -16.5t69.5 -45.5t40.5 -68t13 -84q0 -42 -13 -80.5t-40 -68t-70 -47t-103 -17.5h-192v645h-218z" />
<glyph unicode="&#x40a;" horiz-adv-x="960" d="M846 209q0 83 -43 118t-119 35h-130v-305h127q80 0 122.5 37t42.5 115zM491 362h-336v-362h-63v703h63v-284h336v284h63v-284h132q58 0 100 -16t69.5 -44.5t40.5 -66.5t13 -83q0 -42 -13 -79.5t-40 -66.5t-70 -46t-103 -17h-192v362z" />
<glyph unicode="&#x40b;" horiz-adv-x="726" d="M278 394q18 7 63.5 17.5t108.5 10.5q54 0 93 -15.5t64 -43t37 -66.5t12 -87v-210h-63v200q0 37 -6.5 67t-24.5 51.5t-49 33.5t-80 12q-55 0 -94.5 -8.5t-60.5 -16.5v-339h-63v644h-180v59h463v-59h-220v-250z" />
<glyph unicode="&#x40c;" horiz-adv-x="553" d="M155 0h-63v703h63v-324l293 324h74l-293 -325l317 -378h-81l-310 368v-368zM206 831l230 76l18 -60l-233 -62z" />
<glyph unicode="&#x40d;" horiz-adv-x="668" d="M155 111l353 592h68v-703h-63v607l-362 -607h-59v703h63v-592zM430 763l-233 98l26 58l227 -112z" />
<glyph unicode="&#x40e;" horiz-adv-x="560" d="M291 291l187 412h66l-327 -703h-66l107 223l-242 480h71zM284 810q43 0 67 24t24 70h56q0 -29 -9 -55t-27 -46.5t-46 -32.5t-67 -12t-67 12t-46 32t-26.5 46.5t-8.5 55.5h58q0 -46 25 -70t67 -24z" />
<glyph unicode="&#x40f;" horiz-adv-x="663" d="M92 0v703h63v-646h353v646h63v-703h-210v-159h-59v159h-210z" />
<glyph unicode="&#x410;" horiz-adv-x="579" d="M431 196h-289l-63 -196h-60l235 703h70l236 -703h-65zM159 251h254l-126 380z" />
<glyph unicode="&#x411;" horiz-adv-x="579" d="M458 210q0 80 -43 116t-119 36h-142v-305h139q80 0 122.5 39t42.5 114zM154 419h144q58 0 100 -16.5t69.5 -45t40.5 -66.5t13 -81q0 -40 -13 -78t-40 -67t-70 -47t-103 -18h-203v703h386v-58h-324v-226z" />
<glyph unicode="&#x412;" horiz-adv-x="599" d="M289 703q55 0 94.5 -14.5t64.5 -38.5t37 -56t12 -68q0 -34 -10 -60.5t-25.5 -46t-34 -32t-34.5 -18.5q25 -6 50 -19.5t45 -34.5t33 -51t13 -69q0 -87 -56 -141t-176 -54h-210v703h197zM278 390q84 0 120.5 38t36.5 98q0 34 -13 57.5t-34 37.5t-48.5 20t-57.5 6h-129v-257 h125zM310 56q86 0 123 37t37 103q0 69 -47.5 104t-135.5 35h-134v-279h157z" />
<glyph unicode="&#x413;" horiz-adv-x="509" d="M92 703h381v-58h-318v-645h-63v703z" />
<glyph unicode="&#x414;" horiz-adv-x="660" d="M87 57q33 42 54 92t34 107.5t18.5 122t8.5 134.5l7 190h350v-646h65v-216h-59v159h-473v-159h-59v216h54zM261 503q-2 -60 -7.5 -121t-17 -119t-31 -110.5t-49.5 -95.5h340v588h-230z" />
<glyph unicode="&#x415;" horiz-adv-x="522" d="M92 703h388v-58h-325v-250h254v-58h-254v-279h335v-58h-398v703z" />
<glyph unicode="&#x416;" horiz-adv-x="811" d="M86 0h-74l291 373l-272 330h75l267 -325v325h61v-325l267 325h71l-268 -325l295 -378h-78l-287 370v-370h-61v370z" />
<glyph unicode="&#x417;" horiz-adv-x="566" d="M176 333v57h78q82 0 120.5 40t38.5 100q0 66 -39.5 99.5t-115.5 33.5q-59 0 -103.5 -15.5t-67.5 -30.5l-24 52q15 10 37 19.5t48 17t54.5 11.5t55.5 4q57 0 98.5 -14t68 -38.5t39.5 -59t13 -75.5q0 -33 -11 -61t-27.5 -49t-36 -35.5t-37.5 -21.5q24 -6 48 -19.5t43.5 -36 t31.5 -54t12 -72.5q0 -43 -14.5 -79.5t-43 -63.5t-72 -42t-100.5 -15q-43 0 -80 7t-66.5 17t-50 20.5t-29.5 17.5l26 52q14 -9 33.5 -18.5t44.5 -18t56 -14t67 -5.5q74 0 119 34t45 106q0 80 -46.5 115t-134.5 35h-78z" />
<glyph unicode="&#x418;" horiz-adv-x="668" d="M155 111l353 592h68v-703h-63v607l-362 -607h-59v703h63v-592z" />
<glyph unicode="&#x419;" horiz-adv-x="668" d="M155 111l353 592h68v-703h-63v607l-362 -607h-59v703h63v-592zM336 810q43 0 67 24t24 70h56q0 -29 -9 -55t-27 -46.5t-46 -32.5t-67 -12t-67 12t-46 32t-26.5 46.5t-8.5 55.5h58q0 -46 25 -70t67 -24z" />
<glyph unicode="&#x41a;" horiz-adv-x="553" d="M155 0h-63v703h63v-324l293 324h74l-293 -325l317 -378h-81l-310 368v-368z" />
<glyph unicode="&#x41b;" horiz-adv-x="657" d="M263 504q-2 -44 -6 -108.5t-14 -128.5q-6 -36 -16.5 -82.5t-31.5 -88t-55 -69.5t-87 -28h-9.5t-10.5 1v57q44 0 71 20.5t42.5 52t23.5 70.5t14 77q9 57 13.5 119.5t6.5 119.5l7 187h354v-703h-63v645h-234z" />
<glyph unicode="&#x41c;" horiz-adv-x="769" d="M679 703v-703h-62v605l-210 -385h-51l-204 373v-593h-62v703h66l228 -418l227 418h68z" />
<glyph unicode="&#x41d;" horiz-adv-x="667" d="M512 703h63v-703h-63v346h-357v-346h-63v703h63v-298h357v298z" />
<glyph unicode="&#x41e;" horiz-adv-x="734" d="M69 352q0 82 19.5 149.5t57.5 115.5t94 74.5t128 26.5t127.5 -26.5t93 -74.5t57 -115.5t19.5 -149.5t-19.5 -149.5t-57 -116t-93.5 -75t-128 -26.5t-128 26.5t-93.5 75t-57 116t-19.5 149.5zM135 352q0 -70 14 -126.5t43 -97t72.5 -62.5t102.5 -22t102.5 22t72.5 62.5 t43 97t14 126.5t-14 126.5t-43 96.5t-72.5 62t-102.5 22t-102.5 -22t-72.5 -62t-43 -96.5t-14 -126.5z" />
<glyph unicode="&#x41f;" horiz-adv-x="665" d="M573 703v-703h-63v645h-355v-645h-63v703h481z" />
<glyph unicode="&#x420;" horiz-adv-x="566" d="M448 488q0 83 -43 121t-119 38h-132v-315h123q83 0 127 39t44 117zM511 488q0 -42 -13 -80.5t-41.5 -68t-72.5 -47t-105 -17.5h-125v-275h-62v703h196q58 0 100 -17t69.5 -46t40.5 -68t13 -84z" />
<glyph unicode="&#x421;" horiz-adv-x="623" d="M371 659q-113 0 -175 -78.5t-62 -232.5q0 -158 62 -230.5t175 -72.5q33 0 60.5 6t50.5 15t41 20t31 21l29 -45q-34 -29 -89.5 -51t-126.5 -22q-153 0 -226 93t-73 266q0 82 18.5 149.5t56 115.5t94 74.5t132.5 26.5q41 0 75 -8t60 -19.5t44.5 -24t29.5 -22.5l-32 -45 q-25 21 -68 42.5t-107 21.5z" />
<glyph unicode="&#x422;" horiz-adv-x="565" d="M251 644h-216v59h494v-59h-215v-644h-63v644z" />
<glyph unicode="&#x423;" horiz-adv-x="560" d="M291 291l187 412h66l-327 -703h-66l107 223l-242 480h71z" />
<glyph unicode="&#x424;" horiz-adv-x="797" d="M430 726v-83q71 -2 127 -22.5t95 -56t59.5 -84.5t20.5 -109t-20.5 -109t-59.5 -85t-95 -56.5t-127 -22.5v-98h-61v98q-72 1 -128.5 21.5t-95.5 56.5t-59.5 85.5t-20.5 109.5t20.5 109t59.5 84.5t95.5 56t128.5 22.5v83h61zM369 587q-121 -3 -181 -59.5t-60 -156.5 t60 -157t181 -60v433zM430 154q121 3 180 60t59 157t-59 156t-180 60v-433z" />
<glyph unicode="&#x425;" horiz-adv-x="598" d="M33 0l231 373l-198 330h73l162 -277l171 277h69l-203 -328l225 -375h-74l-190 319l-194 -319h-72z" />
<glyph unicode="&#x426;" horiz-adv-x="664" d="M628 57v-216h-59v159h-477v703h63v-646h345v646h63v-646h65z" />
<glyph unicode="&#x427;" horiz-adv-x="604" d="M449 703h63v-703h-63v323q-18 -7 -64.5 -17.5t-112.5 -10.5q-56 0 -96.5 15t-66 43t-37.5 66.5t-12 86.5v197h63v-187q0 -37 7 -67t25.5 -51.5t50.5 -33t83 -11.5q59 0 99 8.5t61 16.5v325z" />
<glyph unicode="&#x428;" horiz-adv-x="889" d="M92 0v703h63v-646h262v646h63v-646h262v646h63v-703h-713z" />
<glyph unicode="&#x429;" horiz-adv-x="900" d="M92 0v703h63v-646h259v646h63v-646h259v646h63v-646h65v-216h-59v159h-713z" />
<glyph unicode="&#x42a;" horiz-adv-x="689" d="M414 427q58 0 100 -16.5t69.5 -45.5t40.5 -68t13 -84q0 -42 -13 -80.5t-40 -68t-70 -47t-103 -17.5h-196v644h-180v59h243v-276h136zM574 213q0 83 -43 120t-119 37h-134v-313h131q80 0 122.5 39t42.5 117z" />
<glyph unicode="&#x42b;" horiz-adv-x="759" d="M447 213q0 83 -43 120t-119 37h-130v-313h127q80 0 122.5 39t42.5 117zM510 213q0 -42 -13 -80.5t-40 -68t-70 -47t-103 -17.5h-192v703h63v-276h132q58 0 100 -16.5t69.5 -45.5t40.5 -68t13 -84zM667 0h-63v703h63v-703z" />
<glyph unicode="&#x42c;" horiz-adv-x="573" d="M458 213q0 83 -43 120t-119 37h-141v-313h138q80 0 122.5 39t42.5 117zM521 213q0 -42 -13 -80.5t-40 -68t-70 -47t-103 -17.5h-203v703h63v-276h143q58 0 100 -16.5t69.5 -45.5t40.5 -68t13 -84z" />
<glyph unicode="&#x42d;" horiz-adv-x="628" d="M257 45q110 0 170.5 72.5t65.5 215.5h-322v57h321q-4 70 -22.5 120.5t-49 83.5t-72 49t-90.5 16q-64 0 -106.5 -21.5t-67.5 -42.5l-31 45q10 10 29 23t45.5 24.5t60.5 19.5t75 8q70 0 125 -24.5t93 -70.5t58 -113t20 -152q0 -83 -18.5 -150.5t-56 -115.5t-94.5 -74 t-133 -26q-71 0 -127 20.5t-90 49.5l29 49q13 -10 32 -21t42.5 -20.5t52 -15.5t61.5 -6z" />
<glyph unicode="&#x42e;" horiz-adv-x="935" d="M582 -15q-67 0 -118.5 25t-87 70t-55 108t-22.5 140h-144v-328h-63v703h63v-318h145q4 75 24 136t55.5 105t86.5 68t117 24q69 0 122 -26.5t88.5 -74.5t54 -115.5t18.5 -149.5t-18.5 -149.5t-54.5 -116t-89 -75t-122 -26.5zM364 352q0 -70 13 -126.5t40 -97t68 -62.5 t97 -22q55 0 96 22t68 62.5t40.5 97t13.5 126.5t-13.5 126.5t-40.5 96.5t-68 62t-96 22q-56 0 -97 -22t-68 -62t-40 -96.5t-13 -126.5z" />
<glyph unicode="&#x42f;" horiz-adv-x="577" d="M69 491q0 37 12 75t38.5 68.5t69.5 49.5t105 19h191v-703h-62v289h-161l-158 -289h-69l167 303q-60 20 -96.5 69.5t-36.5 118.5zM131 494q0 -69 40.5 -109.5t125.5 -40.5h126v303h-122q-89 0 -129.5 -41.5t-40.5 -111.5z" />
<glyph unicode="&#x430;" horiz-adv-x="518" d="M381 240q-8 2 -22.5 4.5t-33.5 4.5t-41 3.5t-43 1.5q-74 0 -103.5 -31t-29.5 -85q0 -52 33 -77t86 -25q31 0 59 11.5t49 30t33.5 42.5t12.5 49v71zM204 -12q-26 0 -53.5 7.5t-49.5 24.5t-36 46t-14 71q0 72 46 117.5t139 45.5q22 0 45 -1.5t42.5 -4t34.5 -5t23 -3.5v49 q0 65 -37 93t-106 28q-50 0 -83 -11.5t-54 -22.5l-19 44q19 11 62 26.5t109 15.5q88 0 136 -41.5t48 -126.5v-340h-53l-2 76q-15 -25 -35 -42t-43.5 -27t-49 -14.5t-50.5 -4.5z" />
<glyph unicode="&#x431;" horiz-adv-x="591" d="M123 372q27 63 76.5 94t113.5 31q46 0 85.5 -17t68.5 -49t45 -78t16 -104q0 -122 -59 -191t-169 -69q-62 0 -105.5 22t-71.5 64t-40.5 102t-12.5 136q0 96 12 170.5t44.5 128t91 85t151.5 41.5l19 2q38 4 60.5 7.5t35.5 8.5l10 -52q-22 -9 -94 -16l-19 -2 q-69 -7 -116.5 -26t-77.5 -55.5t-45 -93t-19 -139.5zM300 43q86 0 127 52.5t41 152.5q0 43 -10 79t-30.5 62t-51 40.5t-71.5 14.5q-40 0 -71.5 -15t-53 -40.5t-33 -61t-11.5 -75.5q0 -100 41 -154.5t123 -54.5z" />
<glyph unicode="&#x432;" horiz-adv-x="518" d="M467 141q0 -26 -8.5 -51t-30 -45t-58 -32.5t-91.5 -12.5h-198v496h189q52 0 85 -11t52 -29t26 -41t7 -48q0 -35 -21.5 -64.5t-56.5 -42.5q58 -14 81.5 -45.5t23.5 -73.5zM408 141q0 90 -133 90h-136v-183h138q71 0 101 24t30 69zM383 367q0 42 -27.5 61.5t-94.5 19.5 h-122v-170h120q63 0 93.5 23t30.5 66z" />
<glyph unicode="&#x433;" horiz-adv-x="430" d="M409 496v-52h-269v-444h-59v496h328z" />
<glyph unicode="&#x434;" horiz-adv-x="557" d="M218 444l-3 -56q-4 -68 -9 -118t-14 -89.5t-22.5 -70.5t-32.5 -59h272v393h-191zM468 51h59v-181h-55v130h-396v-130h-55v181h51q21 27 36 57.5t25 69.5t16.5 90.5t9.5 122.5l5 105h304v-445z" />
<glyph unicode="&#x435;" horiz-adv-x="545" d="M307 43q47 0 78.5 9.5t50.5 17.5l17 -46q-15 -10 -55 -22.5t-97 -12.5q-121 0 -180 67.5t-59 191.5q0 59 15 107.5t43 82.5t68.5 52.5t91.5 18.5q48 0 86 -14.5t64.5 -47t40.5 -83t14 -122.5v-10h-364q5 -89 49.5 -139t136.5 -50zM426 280q-6 85 -40 130.5t-107 45.5 q-75 0 -112 -46t-45 -130h304z" />
<glyph unicode="&#x436;" horiz-adv-x="669" d="M239 260l-217 236h73l209 -235v235h58v-235l210 235h70l-215 -233l230 -263h-73l-222 257v-257h-58v257l-223 -257h-70z" />
<glyph unicode="&#x437;" horiz-adv-x="465" d="M209 457q-50 0 -83 -10.5t-54 -21.5l-19 44q19 11 60.5 25.5t99.5 14.5q50 0 84.5 -11.5t55.5 -30t30.5 -43t9.5 -50.5q0 -39 -24.5 -70.5t-60.5 -43.5q57 -14 81.5 -48.5t24.5 -80.5q0 -30 -13.5 -56t-38.5 -45t-61 -30t-80 -11q-63 0 -110.5 15t-70.5 30l21 46 q25 -14 63.5 -26.5t95.5 -12.5q74 0 104.5 26.5t30.5 67.5q0 94 -134 94h-85v51h77q60 0 91 23.5t31 66.5q0 42 -32.5 64.5t-93.5 22.5z" />
<glyph unicode="&#x438;" horiz-adv-x="567" d="M141 0h-60v496h59v-414l284 414h62v-496h-59v417z" />
<glyph unicode="&#x439;" horiz-adv-x="567" d="M141 0h-60v496h59v-414l284 414h62v-496h-59v417zM284 625q43 0 66.5 22t23.5 68h54q0 -29 -8.5 -54t-26 -44.5t-45 -30.5t-65.5 -11q-39 0 -66.5 11t-45 30t-25.5 44.5t-8 54.5h56q0 -46 24 -68t66 -22z" />
<glyph unicode="&#x43a;" horiz-adv-x="482" d="M210 262l254 -262h-77l-247 256v-256h-59v496h59v-235l236 235h73z" />
<glyph unicode="&#x43b;" horiz-adv-x="558" d="M222 444l-4 -75q-5 -81 -11.5 -140.5t-19.5 -102.5q-20 -67 -57.5 -97t-92.5 -30q-11 0 -16 1v51q40 0 67 17.5t44 71.5q11 37 18 94.5t12 143.5l6 118h309v-496h-59v444h-196z" />
<glyph unicode="&#x43c;" horiz-adv-x="637" d="M556 496v-496h-58v405l-160 -256h-44l-156 251v-400h-57v496h60l177 -286l177 286h61z" />
<glyph unicode="&#x43d;" horiz-adv-x="562" d="M481 0h-59v229h-282v-229h-59v496h59v-215h282v215h59v-496z" />
<glyph unicode="&#x43e;" horiz-adv-x="581" d="M290 43q86 0 127 55.5t41 150.5q0 93 -41.5 149.5t-126.5 56.5q-84 0 -125.5 -56.5t-41.5 -149.5q0 -95 41 -150.5t126 -55.5zM290 509q57 0 99.5 -19.5t71 -54t43 -82t14.5 -104.5t-15 -105t-43.5 -82.5t-71.5 -53.5t-98 -19q-56 0 -99 19t-71.5 53.5t-43 82.5 t-14.5 105t15 104.5t43.5 82t71 54t98.5 19.5z" />
<glyph unicode="&#x43f;" horiz-adv-x="557" d="M476 0h-59v444h-277v-444h-59v496h395v-496z" />
<glyph unicode="&#x440;" horiz-adv-x="579" d="M306 455q-39 0 -70 -17.5t-52 -47t-32.5 -67t-11.5 -76.5v-135q9 -9 24.5 -20.5t35 -21.5t42.5 -17t47 -7q77 0 122 49.5t45 159.5q0 43 -9 79.5t-27.5 63.5t-46.5 42t-67 15zM314 509q51 0 89 -19.5t63.5 -53.5t38 -80.5t12.5 -100.5q0 -73 -19.5 -123t-50.5 -81 t-69.5 -44.5t-77.5 -13.5q-49 0 -89.5 17t-70.5 41v-271h-59v716h55l2 -98q21 45 66 78t110 33z" />
<glyph unicode="&#x441;" horiz-adv-x="470" d="M123 249q0 -53 12.5 -92t34 -64t52 -37t66.5 -12q46 0 75 9.5t47 18.5l22 -44q-14 -11 -49.5 -25t-98.5 -14q-106 0 -164 67t-58 192q0 58 15.5 106t44.5 82.5t70 53.5t93 19q31 0 55.5 -5t43 -12.5t30.5 -16t20 -14.5l-27 -44q-7 4 -18 10.5t-26 12.5t-34 10t-41 4 q-72 0 -118.5 -50.5t-46.5 -154.5z" />
<glyph unicode="&#x442;" horiz-adv-x="461" d="M440 496v-52h-180v-444h-59v444h-180v52h419z" />
<glyph unicode="&#x443;" horiz-adv-x="490" d="M22 496h66l158 -405l161 405h61l-299 -716h-58l103 244z" />
<glyph unicode="&#x444;" horiz-adv-x="724" d="M391 500q64 -1 115.5 -19.5t86.5 -51.5t54 -78.5t19 -101.5t-18.5 -101.5t-54 -78.5t-86.5 -51.5t-116 -19.5v-218h-58v217q-66 1 -117 19.5t-86 51.5t-53.5 79t-18.5 102t18.5 101.5t54 78.5t86.5 51.5t116 19.5v250h58v-250zM119 249q0 -91 53 -145.5t161 -56.5v403 q-108 -2 -161 -56t-53 -145zM605 249q0 91 -53.5 144.5t-160.5 56.5v-403q107 2 160.5 56.5t53.5 145.5z" />
<glyph unicode="&#x445;" horiz-adv-x="476" d="M367 496h63l-161 -233l181 -263h-69l-149 218l-143 -218h-64l176 258l-162 238h68l130 -194z" />
<glyph unicode="&#x446;" horiz-adv-x="556" d="M471 -130v130h-390v496h59v-445h268v445h59v-445h59v-181h-55z" />
<glyph unicode="&#x447;" horiz-adv-x="526" d="M56 496h59v-142q0 -27 6 -49t21.5 -38t41.5 -24.5t67 -8.5q51 0 85.5 7t49.5 12v243h59v-496h-59v202q-15 -5 -52.5 -13t-97.5 -8q-48 0 -82.5 12t-56 33.5t-31.5 52t-10 67.5v150z" />
<glyph unicode="&#x448;" horiz-adv-x="753" d="M81 496h59v-445h207v445h59v-445h207v445h59v-496h-591v496z" />
<glyph unicode="&#x449;" horiz-adv-x="757" d="M81 0v496h59v-445h205v445h59v-445h205v445h59v-445h59v-181h-55v130h-591z" />
<glyph unicode="&#x44a;" horiz-adv-x="586" d="M487 156q0 105 -137 105h-129v-212h127q73 0 106 27.5t33 79.5zM221 496v-186h130q54 0 91 -12.5t60 -33.5t33 -49t10 -59q0 -30 -10 -58t-33 -49.5t-60.5 -35t-92.5 -13.5h-186v444h-139v52h197z" />
<glyph unicode="&#x44b;" horiz-adv-x="681" d="M401 156q0 105 -137 105h-124v-212h122q73 0 106 27.5t33 79.5zM459 156q0 -30 -10 -58t-33 -49.5t-60.5 -35t-92.5 -13.5h-182v496h59v-186h125q54 0 91 -12.5t60 -33.5t33 -49t10 -59zM540 496h60v-496h-60v496z" />
<glyph unicode="&#x44c;" horiz-adv-x="511" d="M412 156q0 105 -137 105h-135v-212h133q73 0 106 27.5t33 79.5zM470 156q0 -30 -10 -58t-33 -49.5t-60.5 -35t-92.5 -13.5h-193v496h59v-186h136q54 0 91 -12.5t60 -33.5t33 -49t10 -59z" />
<glyph unicode="&#x44d;" horiz-adv-x="482" d="M198 -11q-32 0 -58.5 4.5t-47 11.5t-35 14.5t-21.5 12.5l22 46q18 -9 52 -22t85 -13q69 0 114 46t50 140h-224v51h224q-8 91 -52.5 133t-109.5 42q-47 0 -77 -13.5t-44 -22.5l-25 43q7 6 20 14.5t31 15.5t42.5 12t56.5 5q49 0 89 -17.5t69 -50.5t45 -81t16 -110 q0 -58 -14.5 -106t-43 -82.5t-70 -53.5t-94.5 -19z" />
<glyph unicode="&#x44e;" horiz-adv-x="755" d="M474 -11q-51 0 -90.5 17t-67 48.5t-42.5 74.5t-18 96h-116v-225h-59v496h59v-220h117q3 52 18.5 94.5t43 73.5t66.5 48t89 17q54 0 95 -19.5t68.5 -54t41.5 -82t14 -104.5t-14.5 -105t-42 -82.5t-68.5 -53.5t-94 -19zM474 43q81 0 119.5 55.5t38.5 150.5 q0 93 -39.5 149.5t-118.5 56.5q-81 0 -119.5 -55.5t-38.5 -150.5q0 -93 39 -149.5t119 -56.5z" />
<glyph unicode="&#x44f;" horiz-adv-x="517" d="M67 347q0 30 10 57t33.5 47.5t61 32.5t92.5 12h172v-496h-58v203h-149l-131 -203h-65l140 214q-57 15 -81.5 50t-24.5 83zM125 347q0 -53 36 -75t94 -22h123v197h-113q-73 0 -106.5 -24t-33.5 -76z" />
<glyph unicode="&#x450;" horiz-adv-x="545" d="M307 43q47 0 78.5 9.5t50.5 17.5l17 -46q-15 -10 -55 -22.5t-97 -12.5q-121 0 -180 67.5t-59 191.5q0 59 15 107.5t43 82.5t68.5 52.5t91.5 18.5q48 0 86 -14.5t64.5 -47t40.5 -83t14 -122.5v-10h-364q5 -89 49.5 -139t136.5 -50zM426 280q-6 85 -40 130.5t-107 45.5 q-75 0 -112 -46t-45 -130h304zM396 588l-226 105l28 56l220 -118z" />
<glyph unicode="&#x451;" horiz-adv-x="545" d="M307 43q47 0 78.5 9.5t50.5 17.5l17 -46q-15 -10 -55 -22.5t-97 -12.5q-121 0 -180 67.5t-59 191.5q0 59 15 107.5t43 82.5t68.5 52.5t91.5 18.5q48 0 86 -14.5t64.5 -47t40.5 -83t14 -122.5v-10h-364q5 -89 49.5 -139t136.5 -50zM426 280q-6 85 -40 130.5t-107 45.5 q-75 0 -112 -46t-45 -130h304zM138 640q0 23 13.5 36.5t33.5 13.5t33 -13.5t13 -36.5t-13 -36.5t-33 -13.5t-33.5 13.5t-13.5 36.5zM338 640q0 23 13 36.5t33 13.5t33.5 -13.5t13.5 -36.5t-13.5 -36.5t-33.5 -13.5t-33 13.5t-13 36.5z" />
<glyph unicode="&#x452;" horiz-adv-x="572" d="M495 -14q0 -105 -39 -157.5t-127 -52.5q-14 0 -32.5 2.5t-29.5 6.5l7 50q10 -2 23.5 -4t26.5 -2q36 0 58 10.5t34 32.5t16 55.5t4 79.5v309q0 39 -9.5 66t-26 43t-39 23t-49.5 7q-38 0 -68 -17.5t-51 -45.5t-32 -64t-11 -73v-255h-59v608h-69v50h69v92h59v-92h187v-50 h-187v-207q23 48 67 78t110 30q81 0 124.5 -47t43.5 -138v-338z" />
<glyph unicode="&#x453;" horiz-adv-x="430" d="M409 496v-52h-269v-444h-59v496h328zM349 749l28 -56l-227 -105l-21 43z" />
<glyph unicode="&#x454;" horiz-adv-x="470" d="M123 229q5 -96 50.5 -140.5t114.5 -44.5q46 0 75 9.5t47 18.5l22 -44q-14 -11 -49.5 -25t-98.5 -14q-106 0 -164 67t-58 192q0 58 15.5 106t44.5 82.5t70 53.5t93 19q31 0 55.5 -5t43 -12.5t30.5 -16t20 -14.5l-27 -44q-7 4 -18 10.5t-26 12.5t-34 10t-41 4 q-67 0 -112 -43t-52 -131h214v-51h-215z" />
<glyph unicode="&#x455;" horiz-adv-x="464" d="M68 80q25 -14 65.5 -27t97.5 -13q74 0 101.5 25t27.5 63q0 36 -22 59t-84 34l-54 10q-32 6 -58 15.5t-45.5 25t-30 38t-10.5 55.5q0 69 51 106.5t133 37.5q50 0 90.5 -11t64.5 -24l-21 -46q-22 11 -54.5 20t-76.5 9q-68 0 -99.5 -21.5t-31.5 -63.5q0 -19 5.5 -33 t18 -24.5t34 -18t53.5 -13.5l55 -10q30 -6 55.5 -16.5t44 -27t29 -39t10.5 -53.5q0 -68 -48.5 -108t-136.5 -40q-62 0 -112 15t-73 30z" />
<glyph unicode="&#x456;" horiz-adv-x="229" d="M85 496h59v-496h-59v496zM69 662q0 22 12.5 35.5t32.5 13.5t33 -13.5t13 -35.5q0 -23 -13 -36t-33 -13t-32.5 13.5t-12.5 35.5z" />
<glyph unicode="&#x457;" horiz-adv-x="229" d="M84 496h60v-496h-60v496zM-33 661q0 23 13.5 36.5t33.5 13.5t33 -13.5t13 -36.5t-13 -36.5t-33 -13.5t-33.5 13.5t-13.5 36.5zM167 661q0 23 13 36.5t33 13.5t33.5 -13.5t13.5 -36.5t-13.5 -36.5t-33.5 -13.5t-33 13.5t-13 36.5z" />
<glyph unicode="&#x458;" horiz-adv-x="229" d="M144 -14q0 -105 -39 -157.5t-127 -52.5q-14 0 -32.5 2.5t-29.5 6.5l7 50q10 -2 23.5 -4t26.5 -2q36 0 58 10.5t34 32.5t16 55.5t4 79.5v489h59v-510zM69 662q0 22 12.5 35.5t32.5 13.5t33 -13.5t13 -35.5q0 -23 -13 -36t-33 -13t-32.5 13.5t-12.5 35.5z" />
<glyph unicode="&#x459;" horiz-adv-x="821" d="M722 155q0 104 -137 104h-124v-210h122q73 0 106 27t33 79zM461 496v-188h125q54 0 91 -12t60 -33t33 -49t10 -59q0 -30 -10 -57.5t-33 -49.5t-60.5 -35t-92.5 -13h-181v444h-181l-4 -75q-5 -81 -11.5 -140.5t-19.5 -102.5q-20 -67 -57.5 -97t-92.5 -30q-11 0 -16 1v51 q40 0 67 17.5t44 71.5q11 37 18 94.5t12 143.5l6 118h293z" />
<glyph unicode="&#x45a;" horiz-adv-x="831" d="M608 302q54 0 91 -12t60 -32t33 -47.5t10 -57.5q0 -29 -10 -56.5t-33 -49t-60.5 -34.5t-92.5 -13h-181v253h-267v-253h-59v496h59v-194h267v194h58v-194h125zM744 153q0 100 -137 100h-124v-204h122q73 0 106 26.5t33 77.5z" />
<glyph unicode="&#x45b;" horiz-adv-x="572" d="M150 658h187v-50h-187v-207q23 48 67 78t110 30q81 0 124.5 -47t43.5 -138v-324h-59v316q0 39 -9.5 66t-26 43t-39 23t-49.5 7q-38 0 -68 -17.5t-51 -45.5t-32 -64t-11 -73v-255h-59v608h-69v50h69v92h59v-92z" />
<glyph unicode="&#x45c;" horiz-adv-x="482" d="M210 262l254 -262h-77l-247 256v-256h-59v496h59v-235l236 235h73zM356 749l28 -56l-227 -105l-21 43z" />
<glyph unicode="&#x45d;" horiz-adv-x="567" d="M141 0h-60v496h59v-414l284 414h62v-496h-59v417zM379 588l-226 105l28 56l220 -118z" />
<glyph unicode="&#x45e;" horiz-adv-x="490" d="M22 496h66l158 -405l161 405h61l-299 -716h-58l103 244zM248 625q43 0 66.5 22t23.5 68h54q0 -29 -8.5 -54t-26 -44.5t-45 -30.5t-65.5 -11q-39 0 -66.5 11t-45 30t-25.5 44.5t-8 54.5h56q0 -46 24 -68t66 -22z" />
<glyph unicode="&#x45f;" horiz-adv-x="553" d="M81 0v496h59v-445h273v445h59v-496h-168v-130h-55v130h-168z" />
<glyph unicode="&#x462;" horiz-adv-x="702" d="M581 210q0 80 -43 116t-119 36h-142v-305h139q80 0 122.5 39t42.5 114zM505 632v-58h-228v-155h144q58 0 100 -16.5t69.5 -45t40.5 -66.5t13 -81q0 -40 -13 -78t-40 -67t-70 -47t-103 -18h-203v574h-180v58h180v94h62v-94h228z" />
<glyph unicode="&#x463;" horiz-adv-x="593" d="M494 156q0 105 -137 105h-135v-212h133q73 0 106 27.5t33 79.5zM163 750h59v-254h187v-50h-187v-136h136q54 0 91 -12.5t60 -33.5t33 -49t10 -59q0 -30 -10 -58t-33 -49.5t-60.5 -35t-92.5 -13.5h-193v446h-139v50h139v254z" />
<glyph unicode="&#x472;" horiz-adv-x="734" d="M69 352q0 82 19.5 149.5t57.5 115.5t94 74.5t128 26.5t127.5 -26.5t93 -74.5t57 -115.5t19.5 -149.5t-19.5 -149.5t-57 -116t-93.5 -75t-128 -26.5t-128 26.5t-93.5 75t-57 116t-19.5 149.5zM361 326q-26 14 -53 26.5t-56 12.5q-32 0 -59 -13t-57 -47q4 -60 20.5 -108 t45.5 -82t70 -52.5t95 -18.5q58 0 101.5 21.5t72 60.5t43 94.5t15.5 123.5q-26 -28 -59 -41t-66 -13q-31 0 -59 11t-54 25zM367 659q-57 0 -100 -20.5t-72 -58.5t-44 -92t-16 -120q26 27 58.5 40.5t66.5 13.5q31 0 59 -11t54 -25t53 -26.5t56 -12.5q32 0 58.5 13t56.5 46 q-5 58 -22 105t-45.5 80t-69 50.5t-93.5 17.5z" />
<glyph unicode="&#x473;" horiz-adv-x="581" d="M290 509q57 0 99.5 -19.5t71 -54t43 -82t14.5 -104.5t-15 -105t-43.5 -82.5t-71.5 -53.5t-98 -19q-56 0 -99 19t-71.5 53.5t-43 82.5t-14.5 105t15 104.5t43.5 82t71 54t98.5 19.5zM284 225q-17 10 -35.5 18.5t-38.5 8.5q-23 0 -42.5 -8t-42.5 -33q8 -78 48.5 -123 t116.5 -45q84 0 125 52.5t43 143.5q-20 -20 -43.5 -30t-48.5 -10q-23 0 -42.5 7.5t-39.5 18.5zM290 455q-81 0 -122.5 -52t-44.5 -140q39 39 91 39q23 0 42.5 -7.5t39.5 -18.5q17 -10 35.5 -18.5t38.5 -8.5q23 0 43 7.5t43 33.5q-9 76 -50 120.5t-116 44.5z" />
<glyph unicode="&#x474;" horiz-adv-x="623" d="M439 582q8 26 19.5 48.5t28 39t40 26t56.5 9.5q4 0 14.5 -0.5t15.5 -1.5l-5 -54q-6 1 -13 1h-12q-41 0 -61 -26.5t-32 -66.5l-172 -557h-61l-240 703h68l203 -615z" />
<glyph unicode="&#x475;" horiz-adv-x="517" d="M363 407q6 19 14 35.5t20.5 28.5t31 19t46.5 7q8 0 16.5 -0.5t14.5 -2.5l-5 -50q-10 2 -24 2q-31 0 -42.5 -16t-21.5 -43l-137 -387h-65l-189 496h65l158 -436z" />
<glyph unicode="&#x48a;" horiz-adv-x="669" d="M632 57v-29q0 -51 -16 -89.5t-40 -73.5l-25 -36l-46 33l24 35q21 30 32.5 55.5t11.5 47.5h-68v607l-355 -607h-58v703h63v-592l346 592h67v-646h64zM479 904q0 -29 -9 -55t-27 -46.5t-46 -32.5t-67 -12t-67 12t-46 32t-26.5 46.5t-8.5 55.5h58q0 -46 25 -70t67 -24 q43 0 67 24t24 70h56z" />
<glyph unicode="&#x48b;" horiz-adv-x="575" d="M427 0v417l-286 -417h-60v496h59v-414l284 414h62v-445h60v-25q0 -46 -14.5 -78.5t-36.5 -64.5l-18 -25l-41 29l17 25q19 27 28.5 47.5t9.5 40.5h-64zM284 625q43 0 66.5 22t23.5 68h54q0 -29 -8.5 -54t-26 -44.5t-45 -30.5t-65.5 -11q-39 0 -66.5 11t-45 30t-25.5 44.5 t-8 54.5h56q0 -46 24 -68t66 -22z" />
<glyph unicode="&#x48c;" horiz-adv-x="581" d="M324 617v-53h-162v-145h144q58 0 100 -16.5t69.5 -45t40.5 -66.5t13 -81q0 -40 -13 -78t-40 -67t-70 -47t-103 -18h-204v564h-77v53h77v86h63v-86h162zM466 210q0 80 -43 116t-119 36h-142v-305h139q80 0 122.5 39t42.5 114z" />
<glyph unicode="&#x48d;" horiz-adv-x="514" d="M281 296q54 0 91 -11t60 -30.5t33 -46.5t10 -58q0 -30 -10 -57t-33 -48t-60.5 -33t-92.5 -12h-188v384h-69v48h69v74h58v-74h154v-48h-154v-88h132zM417 150q0 53 -34 75t-103 22h-131v-198h129q73 0 106 24.5t33 76.5z" />
<glyph unicode="&#x48e;" horiz-adv-x="566" d="M511 488q0 -55 -23 -103.5t-74 -77.5l59 -90l-47 -30l-63 98q-36 -10 -84 -10h-125v-275h-62v703h196q58 0 100 -17t69.5 -46t40.5 -68t13 -84zM448 488q0 83 -43 121t-119 38h-132v-315h123q14 0 27.5 1.5t25.5 3.5l-51 80l45 30l59 -91q65 39 65 132z" />
<glyph unicode="&#x48f;" horiz-adv-x="579" d="M377 6q-19 -7 -38.5 -10t-38.5 -3q-49 0 -89.5 17t-70.5 41v-271h-59v716h55l2 -98q21 45 66 78t110 33q51 0 89 -19.5t63.5 -53.5t38 -80.5t12.5 -100.5q0 -87 -26.5 -141t-67.5 -83l52 -84l-45 -27zM306 455q-39 0 -70 -17.5t-52 -47t-32.5 -67t-11.5 -76.5v-135 q9 -9 24.5 -20.5t35 -21.5t42.5 -17t47 -7q16 0 30.5 1.5t28.5 6.5l-59 99l42 27l62 -101q30 24 46.5 67t16.5 109q0 43 -9 79.5t-27.5 63.5t-46.5 42t-67 15z" />
<glyph unicode="&#x490;" horiz-adv-x="515" d="M421 826h58v-182h-324v-644h-63v703h329v123z" />
<glyph unicode="&#x491;" horiz-adv-x="430" d="M140 444v-444h-59v496h274v120h54v-172h-269z" />
<glyph unicode="&#x492;" horiz-adv-x="518" d="M95 342h-77v55h77v306h387v-59h-324v-247h162v-55h-162v-342h-63v342z" />
<glyph unicode="&#x493;" horiz-adv-x="440" d="M419 496v-52h-269v-162h137v-50h-137v-232h-59v232h-69v50h69v214h328z" />
<glyph unicode="&#x494;" horiz-adv-x="587" d="M154 0h-62v703h362v-58h-300v-257q24 11 58.5 18.5t79.5 7.5q54 0 98 -17t75.5 -53t48.5 -91t17 -131q0 -81 -21.5 -139t-56 -94.5t-79 -53.5t-89.5 -17q-20 0 -45.5 2.5t-37.5 7.5l11 54q16 -5 39.5 -6.5t36.5 -1.5q32 0 64 12.5t57 41t40.5 76t15.5 116.5 q0 124 -45 180.5t-141 56.5q-38 0 -70 -7.5t-56 -18.5v-331z" />
<glyph unicode="&#x495;" horiz-adv-x="529" d="M140 264q22 9 52.5 16t72.5 7q99 0 157.5 -60t58.5 -190q0 -72 -18.5 -121t-49.5 -80t-70 -44.5t-80 -13.5q-24 0 -44 2.5t-31 6.5l7 51q9 -2 29 -5t43 -3q28 0 55.5 9.5t49 32.5t34.5 63t13 100q0 107 -39.5 153t-124.5 46q-34 0 -63 -6t-52 -17v-211h-59v496h328v-52 h-269v-180z" />
<glyph unicode="&#x496;" horiz-adv-x="852" d="M434 370v-370h-61v370l-287 -370h-74l291 373l-272 330h75l267 -325v325h61v-325l267 325h71l-268 -325l250 -321h68v-216h-59v159h-42z" />
<glyph unicode="&#x497;" horiz-adv-x="701" d="M362 257v-257h-58v257l-223 -257h-70l228 260l-217 236h73l209 -235v235h58v-235l210 235h70l-215 -233l185 -212h61v-181h-55v130h-34z" />
<glyph unicode="&#x498;" horiz-adv-x="566" d="M176 333v57h78q82 0 120.5 40t38.5 100q0 66 -39.5 99.5t-115.5 33.5q-59 0 -103.5 -15.5t-67.5 -30.5l-24 52q15 10 37 19.5t48 17t54.5 11.5t55.5 4q57 0 98.5 -14t68 -38.5t39.5 -59t13 -75.5q0 -33 -11 -61t-27.5 -49t-36 -35.5t-37.5 -21.5q24 -6 48 -19.5t43.5 -36 t31.5 -54t12 -72.5q0 -42 -14 -78t-41.5 -62.5t-69 -42.5t-96.5 -17l-7 -34q50 -4 74.5 -29t24.5 -61q0 -48 -34 -74t-89 -26q-42 0 -65.5 7t-28.5 9l10 43q17 -5 34 -9t42 -4q35 0 54 12t19 40q0 22 -16 34.5t-53 12.5q-8 0 -17 -0.5t-17 -2.5l18 84q-35 3 -65 10.5 t-53.5 16.5t-40.5 18t-25 15l26 52q14 -9 33.5 -18.5t44.5 -18t56 -14t67 -5.5q74 0 119 34t45 106q0 80 -46.5 115t-134.5 35h-78z" />
<glyph unicode="&#x499;" horiz-adv-x="465" d="M209 457q-50 0 -83 -10.5t-54 -21.5l-19 44q19 11 60.5 25.5t99.5 14.5q50 0 84.5 -11.5t55.5 -30t30.5 -43t9.5 -50.5q0 -39 -24.5 -70.5t-60.5 -43.5q57 -14 81.5 -48.5t24.5 -80.5q0 -58 -47.5 -97.5t-128.5 -43.5l-8 -39q50 -4 74.5 -28.5t24.5 -59.5 q0 -48 -34.5 -72t-88.5 -24q-42 0 -64.5 7t-27.5 9l11 40q17 -5 32.5 -9t40.5 -4q37 0 57 13t20 39q0 21 -18 34t-56 13q-14 0 -30 -3l18 84q-51 5 -90 17.5t-59 26.5l21 46q25 -14 63.5 -26.5t95.5 -12.5q74 0 104.5 26.5t30.5 67.5q0 94 -134 94h-85v51h77q60 0 91 23.5 t31 66.5q0 42 -32.5 64.5t-93.5 22.5z" />
<glyph unicode="&#x49a;" horiz-adv-x="596" d="M155 0h-63v703h63v-324l293 324h74l-293 -325l269 -321h68v-216h-59v159h-42l-310 368v-368z" />
<glyph unicode="&#x49b;" horiz-adv-x="504" d="M140 256v-256h-59v496h59v-235l236 235h73l-239 -234l205 -211h61v-181h-55v130h-34z" />
<glyph unicode="&#x49c;" horiz-adv-x="606" d="M594 0h-73l-245 354v-146h-51v141h-70v-349h-63v703h63v-303h70v115h51v-120l228 308h69l-243 -326z" />
<glyph unicode="&#x49d;" horiz-adv-x="516" d="M423 496h65l-190 -237l206 -259h-69l-183 234v-111h-47v108h-66v-231h-58v496h58v-217h66v105h47v-107z" />
<glyph unicode="&#x49e;" horiz-adv-x="574" d="M162 0h-63v565h-77v52h77v86h63v-86h90v-52h-90v-193l314 331h74l-313 -330l330 -373h-82l-323 366v-366z" />
<glyph unicode="&#x49f;" horiz-adv-x="492" d="M91 0v403h-69v48h69v55h58v-55h77v-48h-77v-144l244 237h73l-246 -234l254 -262h-77l-248 256v-256h-58z" />
<glyph unicode="&#x4a0;" horiz-adv-x="669" d="M564 703h74l-286 -325l310 -378h-81l-303 368v-368h-63v644h-180v59h243v-324z" />
<glyph unicode="&#x4a1;" horiz-adv-x="554" d="M448 496h73l-230 -233l245 -263h-77l-238 256v-256h-58v444h-139v52h197v-234z" />
<glyph unicode="&#x4a2;" horiz-adv-x="676" d="M638 57v-216h-59v159h-67v346h-357v-346h-63v703h63v-298h357v298h63v-646h63z" />
<glyph unicode="&#x4a3;" horiz-adv-x="570" d="M422 0v229h-282v-229h-59v496h59v-215h282v215h59v-445h59v-181h-55v130h-63z" />
<glyph unicode="&#x4a4;" horiz-adv-x="778" d="M567 0h-63v346h-349v-346h-63v703h63v-298h349v298h236v-58h-173v-645z" />
<glyph unicode="&#x4a5;" horiz-adv-x="631" d="M607 496v-52h-132v-444h-59v229h-276v-229h-59v496h59v-215h276v215h191z" />
<glyph unicode="&#x4a6;" horiz-adv-x="981" d="M554 0h-63v645h-335v-645h-63v703h461v-315q24 11 58 18.5t77 7.5q53 0 96.5 -17t74.5 -53t48 -91t17 -131q0 -81 -21 -139t-55 -94.5t-78 -53.5t-89 -17q-20 0 -45.5 2.5t-37.5 7.5l11 54q16 -5 39.5 -6.5t36.5 -1.5q32 0 63.5 12.5t56 41t39.5 76t15 116.5 q0 124 -44.5 180t-138.5 57q-36 0 -67.5 -7.5t-55.5 -18.5v-331z" />
<glyph unicode="&#x4a7;" horiz-adv-x="835" d="M459 0h-59v444h-260v-444h-59v496h378v-232q22 9 52.5 16t69.5 7q48 0 87.5 -14.5t67.5 -45.5t43 -78t15 -112q0 -72 -18.5 -121t-49 -80t-69 -44.5t-78.5 -13.5q-24 0 -44 2.5t-31 6.5l7 51q9 -2 29 -5t43 -3q27 0 53.5 9.5t48 32.5t34.5 63t13 100q0 107 -39 153 t-122 46q-32 0 -60.5 -6t-51.5 -17v-211z" />
<glyph unicode="&#x4a8;" horiz-adv-x="770" d="M698 -11q7 0 19 0.5t24 2.5l4 -53q-23 -4 -51 -4q-61 0 -112.5 17t-95.5 49q-48 -15 -99 -15q-76 0 -135.5 26.5t-100 74.5t-61.5 115.5t-21 149.5t20.5 149.5t60.5 115.5t98.5 74.5t134.5 26.5q43 0 73.5 -8t51.5 -19l-23 -51q-19 9 -44 14.5t-59 5.5q-63 0 -109 -22 t-77 -62.5t-46 -97t-15 -126.5t16 -127t47.5 -97.5t78.5 -63t110 -22.5q13 0 25.5 1t24.5 3q-44 50 -68.5 121t-24.5 156q0 71 15.5 119t41.5 77.5t59 42t68 12.5q40 0 73 -16.5t56 -48t36 -76t13 -99.5q0 -114 -45 -191t-115 -116q29 -18 64 -28t88 -10zM407 323 q0 -88 24 -152t69 -106q65 30 104 96t39 169q0 95 -30.5 140t-84.5 45q-52 0 -86.5 -45.5t-34.5 -146.5z" />
</font>
</defs>
</svg>
