<svg xmlns="http://www.w3.org/2000/svg">
<defs>
<font id="PalatinoLinotype-Roman" horiz-adv-x="1024" >
  <font-face 
    font-family="Palatino Linotype"
    font-weight="400"
    font-stretch="normal"
    units-per-em="2048"
    panose-1="2 4 5 2 5 5 5 3 3 4"
    ascent="1638"
    descent="-410"
    x-height="932"
    cap-height="1413"
    bbox="-348 -597 2907 2150"
    underline-thickness="120"
    underline-position="-148"
    unicode-range="U+0020-U+FFFC"
  />
<missing-glyph horiz-adv-x="1097" 
d="M483 475l-26.001 42.998c42 14.667 63 37 63 67c0 51.333 -25 77 -75 77c-36.667 0 -65.5 -14 -86.5 -42s-31.5 -64 -31.5 -108c0 -44.667 16.333 -84.167 49 -118.5s74 -51.5 124 -51.5c62.667 0 114.167 21.333 154.5 64s60.5 95 60.5 157c0 78 -26 143.333 -78 196
s-115 79 -189 79c-81.333 0 -150.833 -30 -208.5 -90s-86.5 -132 -86.5 -216c0 -111.333 37 -203.666 111 -276.999s165.667 -110 275 -110c115.333 0 210.5 42.5 285.5 127.5s112.5 189.5 112.5 313.5c0 110.667 -30.5 202.167 -91.5 274.5s-145.833 120.833 -254.5 145.5
l39 73c122 -26.667 220 -83.834 294 -171.501s111 -192.5 111 -314.5c0 -144.667 -48 -268.5 -144 -371.5s-214 -154.5 -354 -154.5c-139.333 0 -253.166 43.333 -341.499 130s-132.5 197.334 -132.5 332.001c0 106 37.833 197.667 113.5 275s165.834 116 270.501 116
c97.333 0 181.166 -31.833 251.499 -95.5s105.5 -146.167 105.5 -247.5c0 -87.333 -29.833 -160.666 -89.5 -219.999s-131.5 -89 -215.5 -89c-76 0 -136.5 23.333 -181.5 70s-67.5 107 -67.5 181c0 56.667 18 105.667 54 147s83.333 62 142 62
c43.333 0 77.833 -13 103.5 -39s38.5 -58.333 38.5 -97c0 -64 -35 -103 -105 -117z" />
    <glyph glyph-name="uniFB00" unicode="ff" horiz-adv-x="1333" 
d="M865 885l-0.00292969 59.9951c0 84 5 144.167 15 180.5s25.333 68.833 46 97.5s60.167 73.167 118.5 133.5s101.166 96.333 128.499 108s56 17.5 86 17.5c27.333 0 54.666 -5 81.999 -15v-164l-23 -9c-37.333 33.333 -80.666 50 -129.999 50
c-34.667 0 -64.667 -7.16699 -90 -21.5s-42.666 -37.666 -51.999 -69.999s-14 -85.833 -14 -160.5v-207h107c55.333 0 107.333 2 156 6l10 -11l-18 -88l-9 -10c-20 0.666992 -33 1 -39 1l-131 1h-76v-403c0 -21.333 1.5 -70.166 4.5 -146.499s5.83301 -121.166 8.5 -134.499
s7.16699 -23 13.5 -29s16.666 -10.333 30.999 -13s60.166 -5 137.499 -7l8 -8v-42l-8 -9c-20.667 0 -59.667 1.33301 -117 4c-52 2.66699 -105.667 4 -161 4c-76.667 0 -157 -2.66699 -241 -8l-8 9v42l8 8c64.667 4 101.334 7 110.001 9s16 6.16699 22 12.5
s10.167 16 12.5 29s5 56 8 129s4.5 128.167 4.5 165.5v388h-484v-403c0 -21.333 1.5 -70.166 4.5 -146.499s5.83301 -121.166 8.5 -134.499s7.16699 -23 13.5 -29s16.666 -10.333 30.999 -13s51.833 -5 112.5 -7l8 -8v-42l-8 -9c-25.333 1.33301 -60 3 -104 5
s-93.667 3 -149 3c-72 -0 -152.333 -2.66699 -241 -8l-8 9v42l8 8c64.667 4 101.334 7 110.001 9s16 6.16699 22 12.5s10.167 16 12.5 29s5 56 8 129s4.5 128.167 4.5 165.5v386l-129 -7l-9 8v25l7 10l131 67v60c0 66.667 3 117.167 9 151.5s17.167 66 33.5 95
s44.833 65.667 85.5 110s76.334 80.666 107.001 108.999s57.334 47.333 80.001 57s49.334 14.5 80.001 14.5c25.333 0 52.666 -5 81.999 -15l-1 -164l-23 -9c-37.333 33.333 -80.666 50 -129.999 50c-34.667 0 -64.667 -7.16699 -90 -21.5s-42.666 -37.666 -51.999 -69.999
s-14 -85.833 -14 -160.5v-207h484z" />
    <glyph glyph-name="uniFB01" unicode="fi" horiz-adv-x="1239" 
d="M381 885l247.996 -0.000976562c84.667 0 152.834 4.83301 204.501 14.5s112.5 27.5 182.5 53.5l18 -13c-6.66699 -87.333 -10 -198.333 -10 -333v-226c0 -14.667 1.33301 -61.834 4 -141.501s5.5 -126.167 8.5 -139.5s7.5 -23 13.5 -29s13.333 -9.83301 22 -11.5
s44.667 -4.5 108 -8.5l9 -8v-42l-9 -9c-82.667 5.33301 -162.667 8 -240 8c-72 0 -152 -2.66699 -240 -8l-9 9v42l9 8c64 4 100.333 7 109 9s16.167 6.16699 22.5 12.5s10.666 16 12.999 29s4.83301 56 7.5 129s4 128.167 4 165.5v197c0 27.333 -1.33301 67.666 -4 120.999
s-6 82.333 -10 87s-9.5 8.83398 -16.5 12.501s-35.5 5.5 -85.5 5.5l-97 -1l-6 -29l-10 -5h-246v-403c0 -21.333 1.5 -70.166 4.5 -146.499s5.83301 -121.166 8.5 -134.499s7.16699 -23 13.5 -29s16.666 -10.333 30.999 -13s51.833 -5 112.5 -7l8 -8v-42l-8 -9
c-22 0.666992 -52.667 2 -92 4c-52 2.66699 -105.667 4 -161 4c-72 -0 -152.333 -2.66699 -241 -8l-8 9v42l8 8c64.667 4 101.334 7 110.001 9s16 6.16699 22 12.5s10.167 16 12.5 29s5 56 8 129s4.5 128.167 4.5 165.5v386l-129 -7l-9 8v25l7 10l131 67v60
c0 66.667 3 117.167 9 151.5s17.167 66 33.5 95s44.833 65.667 85.5 110s76.334 80.666 107.001 108.999s57.334 47.333 80.001 57s49.334 14.5 80.001 14.5c25.333 0 52.666 -5 81.999 -15l-1 -164l-23 -9c-37.333 33.333 -80.666 50 -129.999 50
c-34.667 0 -64.667 -7.16699 -90 -21.5s-42.666 -37.666 -51.999 -69.999s-14 -85.833 -14 -160.5v-207zM930.996 1400c30.667 0 57 -10.833 79 -32.5s33 -48.5 33 -80.5c0 -30.667 -10.833 -57 -32.5 -79s-48.167 -33 -79.5 -33s-58 10.833 -80 32.5s-33 48.167 -33 79.5
s11.167 58 33.5 80s48.833 33 79.5 33z" />
    <glyph glyph-name="uniFB02" unicode="fl" horiz-adv-x="1245" 
d="M381 885h107.006c55.333 0 107.666 2 156.999 6l9 -11l-18 -88l-9 -10c-20 0.666992 -33 1 -39 1l-130 1h-77v-403c0 -21.333 1.5 -70.166 4.5 -146.499s5.83301 -121.166 8.5 -134.499s7.16699 -23 13.5 -29s16.666 -10.333 30.999 -13s51.833 -5 112.5 -7l8 -8v-42
l-8 -9l-112 5c-38.667 2 -85.667 3 -141 3c-72 0 -152.333 -2.66699 -241 -8l-8 9v42l8 8c64.667 4 101.334 7 110.001 9s16 6.16699 22 12.5s10.167 16 12.5 29s5 56 8 129s4.5 128.167 4.5 165.5v386l-129 -7l-9 8v25l7 10l131 67v60c0 66.667 3 117.167 9 151.5
s17 66 33 95s44.667 65.833 86 110.5s77.333 81 108 109s57.334 46.833 80.001 56.5s47.667 14.5 75 14.5c26.667 0 62 -5 106 -15v-59c120.667 14 224.667 38.333 312 73l19 -12c-7.33301 -76.667 -11 -230.334 -11 -461.001v-627c0 -14.667 1.33301 -61.834 4 -141.501
s5.5 -126.167 8.5 -139.5s7.66699 -23 14 -29s13.666 -9.83301 21.999 -11.5s44.166 -4.5 107.499 -8.5l9 -8v-42l-8 -9c-83.333 5.33301 -163.666 8 -240.999 8c-71.333 -0 -151.333 -2.66699 -240 -8l-8 9v42l8 8c64.667 4 101.167 7 109.5 9s15.666 6.16699 21.999 12.5
s10.666 16 12.999 29s5 56 8 129s4.5 128.167 4.5 165.5v518l-5 240c-2 92.667 -4.83301 145.667 -8.5 159s-9.83398 22.333 -18.501 27s-49 7 -121 7v-44l-22 -9c-48.667 33.333 -99.334 50 -152.001 50c-39.333 0 -70.833 -8 -94.5 -24s-39.834 -39.5 -48.501 -70.5
s-13 -83.5 -13 -157.5v-207z" />
    <glyph glyph-name="uniFB03" unicode="ffi" horiz-adv-x="1884" 
d="M859 784l-478.006 -0.00292969v-403c0 -21.333 1.5 -70.166 4.5 -146.499s5.83301 -121.166 8.5 -134.499s7.16699 -23 13.5 -29s16.666 -10.333 30.999 -13s51.833 -5 112.5 -7l8 -8v-42l-8 -9c-30 2 -65.833 3.83301 -107.5 5.5s-90.167 2.5 -145.5 2.5
c-72 0 -152.333 -2.66699 -241 -8l-8 9v42l8 8c64.667 4 101.334 7 110.001 9s16 6.16699 22 12.5s10.167 16 12.5 29s5 56 8 129s4.5 128.167 4.5 165.5v386l-129 -7l-9 8v25l7 10l131 67v60c0 66.667 3 117.167 9 151.5s17.167 66 33.5 95s44.833 65.667 85.5 110
s76.334 80.666 107.001 108.999s57.334 47.333 80.001 57s49.334 14.5 80.001 14.5c25.333 0 52.666 -5 81.999 -15l-1 -164l-23 -9c-37.333 33.333 -80.666 50 -129.999 50c-34.667 0 -64.667 -7.16699 -90 -21.5s-42.666 -37.666 -51.999 -69.999s-14 -85.833 -14 -160.5
v-207h478v60c0 66.667 3 117.167 9 151.5s17 66 33 95s44.5 65.667 85.5 110s76.833 80.666 107.5 108.999s57.334 47.333 80.001 57s49 14.5 79 14.5c27.333 0 54.666 -5 81.999 -15v-164l-23 -9c-37.333 33.333 -80.666 50 -129.999 50
c-34.667 0 -64.667 -7.16699 -90 -21.5s-42.666 -37.666 -51.999 -69.999s-14 -85.833 -14 -160.5v-207h248c84.667 0 152.667 4.83301 204 14.5s112.333 27.5 183 53.5l18 -13c-7.33301 -87.333 -11 -198.333 -11 -333v-226c0 -14.667 1.5 -61.834 4.5 -141.501
s6 -126.167 9 -139.5s7.5 -23 13.5 -29s13.167 -9.83301 21.5 -11.5s44.5 -4.5 108.5 -8.5l8 -8v-42l-8 -9c-82.667 5.33301 -162.667 8 -240 8c-76.667 0 -157 -2.66699 -241 -8l-8 9v42l9 8c64 4 100.333 7 109 9s16 6.16699 22 12.5s10.167 16 12.5 29s5 56 8 129
s4.5 128.167 4.5 165.5v197c0 27.333 -1.33301 67.666 -4 120.999s-6 82.333 -10 87s-9.5 8.83398 -16.5 12.501s-35.5 5.5 -85.5 5.5l-97 -1l-6 -29l-10 -5h-246v-403c0 -21.333 1.5 -70.166 4.5 -146.499s5.83301 -121.166 8.5 -134.499s7.16699 -23 13.5 -29
s16.666 -10.333 30.999 -13s51.833 -5 112.5 -7l8 -8v-42l-8 -9c-38 2 -75.833 3.83301 -113.5 5.5s-84.167 2.5 -139.5 2.5c-72 -0 -152.333 -2.66699 -241 -8l-8 9v42l8 8c64.667 4 101.334 7 110.001 9s16 6.16699 22 12.5s10.167 16 12.5 29s5 56 8 129
s4.5 128.167 4.5 165.5v388zM1575.99 1400c30.667 0 57 -10.833 79 -32.5s33 -48.5 33 -80.5c0 -30.667 -11 -57 -33 -79s-48.333 -33 -79 -33c-31.333 0 -58 10.833 -80 32.5s-33 48.167 -33 79.5s11 58 33 80s48.667 33 80 33z" />
    <glyph glyph-name="uniFB04" unicode="ffl" horiz-adv-x="1894" 
d="M863 784l-482.002 -0.00195312v-403c0 -21.333 1.5 -70.166 4.5 -146.499s5.83301 -121.166 8.5 -134.499s7.16699 -23 13.5 -29s16.666 -10.333 30.999 -13s51.833 -5 112.5 -7l8 -8v-42l-8 -9c-113.333 5.33301 -197.666 8 -252.999 8
c-72 -0 -152.333 -2.66699 -241 -8l-8 9v42l8 8c64.667 4 101.334 7 110.001 9s16 6.16699 22 12.5s10.167 16 12.5 29s5 56 8 129s4.5 128.167 4.5 165.5v386l-129 -7l-9 8v25l7 10l131 67v60c0 66.667 3 117.167 9 151.5s17.167 66 33.5 95s44.833 65.667 85.5 110
s76.334 80.666 107.001 108.999s57.334 47.333 80.001 57s49.334 14.5 80.001 14.5c25.333 0 52.666 -5 81.999 -15l-1 -164l-23 -9c-37.333 33.333 -80.666 50 -129.999 50c-34.667 0 -64.667 -7.16699 -90 -21.5s-42.666 -37.666 -51.999 -69.999s-14 -85.833 -14 -160.5
v-207h482v60c0 66.667 2.83301 117.167 8.5 151.5s16.667 66 33 95s45 65.833 86 110.5s76.833 81 107.5 109s57.5 46.833 80.5 56.5s48.167 14.5 75.5 14.5c24.667 0 60 -5 106 -15v-59c120.667 14 224.667 38.333 312 73l18 -12
c-7.33301 -76.667 -11 -230.334 -11 -461.001v-627c0 -14.667 1.5 -61.834 4.5 -141.501s6 -126.167 9 -139.5s7.5 -23 13.5 -29s13.167 -9.83301 21.5 -11.5s44.5 -4.5 108.5 -8.5l8 -8v-42l-8 -9c-82.667 5.33301 -162.667 8 -240 8c-76.667 0 -157 -2.66699 -241 -8l-8 9
v42l9 8c64 4 100.333 7 109 9s16 6.16699 22 12.5s10.167 16 12.5 29s5 56 8 129s4.5 128.167 4.5 165.5v518l-4 240c-2 92.667 -4.83301 145.667 -8.5 159s-9.83398 22.333 -18.501 27s-49 7 -121 7v-44l-22 -9c-49.333 33.333 -100 50 -152 50c-39.333 0 -71 -8 -95 -24
s-40.167 -39.5 -48.5 -70.5s-12.5 -83.5 -12.5 -157.5v-207h106c55.333 0 107.666 2 156.999 6l9 -11l-17 -88l-9 -10c-20.667 0.666992 -33.667 1 -39 1l-131 1h-76v-403c0 -21.333 1.33301 -70.166 4 -146.499s5.33398 -121.166 8.00098 -134.499s7.16699 -23 13.5 -29
s16.666 -10.333 30.999 -13s51.833 -5 112.5 -7l9 -8v-42l-9 -9c-113.333 5.33301 -197.666 8 -252.999 8c-76.667 -0 -156.667 -2.66699 -240 -8l-9 9v42l9 8c64.667 4 101.167 7 109.5 9s15.666 6.16699 21.999 12.5s10.666 16 12.999 29s5 56 8 129
s4.5 128.167 4.5 165.5v388z" />
    <glyph glyph-name="f_b.liga" unicode="fb" horiz-adv-x="1830" 
d="M959 51l-80.9941 -76.002l-33 13c12.667 121.333 19 259.333 19 414v530c0 29.333 -0.666992 72.333 -2 129l-5 154c-2 46 -3.83301 76.5 -5.5 91.5s-4.16699 24.833 -7.5 29.5s-8.83301 7.66699 -16.5 9s-27.5 2 -59.5 2h-57v-44l-24 -9
c-37.333 33.333 -87.333 50 -150 50c-40 0 -72 -8.16699 -96 -24.5s-40 -40.666 -48 -72.999s-12 -83.833 -12 -154.5v-207h107c18 0 41.667 0.666992 71 2l86 4l9 -11l-18 -88l-9 -10c-8.66699 0 -21.667 0.333008 -39 1l-207 1v-403c0 -47.333 1.33301 -101 4 -161l5 -108
c3.33301 -20 9.66602 -33.667 18.999 -41s19.833 -11.666 31.5 -12.999s48.5 -3.66602 110.5 -6.99902l8 -8v-42l-8 -9c-125.333 5.33301 -209.666 8 -252.999 8c-72 0 -152.333 -2.66699 -241 -8l-8 9v42l8 8l104 7c11.333 0.666992 20.666 4.66699 27.999 12
s11.666 16 12.999 26s3.66602 56.333 6.99902 139s5 136.334 5 161.001v388l-129 -9l-9 8v25l7 10l131 67v60c0 60.667 2.5 108.5 7.5 143.5s17.833 70.333 38.5 106s50.167 74.167 88.5 115.5s71 74.5 98 99.5s54 43.333 81 55s54.167 17.5 81.5 17.5c34 0 68 -5 102 -15
v-59c123.333 20 227.333 44.333 312 73l19 -12c-7.33301 -76.667 -11 -230.334 -11 -461.001v-255c48 63.333 99.667 112.833 155 148.5s124.666 53.5 207.999 53.5c110.667 0 199.5 -38.167 266.5 -114.5s100.5 -173.166 100.5 -290.499
c0 -68.667 -10.5 -132.334 -31.5 -191.001s-50.5 -110.667 -88.5 -156c-18 -20.667 -53 -50.334 -105 -89.001c-80.667 -58.667 -136.334 -95 -167.001 -109c-50.667 -23.333 -105.667 -35 -165 -35c-84.667 0 -166.334 27 -245.001 81zM1031.01 632.998l0.000976562 -375
c0 -32 3.5 -54.5 10.5 -67.5s23.667 -29.167 50 -48.5s56 -34.5 89 -45.5s67.167 -16.5 102.5 -16.5c95.333 0 169.666 36.167 222.999 108.5s80 165.833 80 280.5c0 106.667 -25 192.5 -75 257.5s-120 97.5 -210 97.5c-60.667 0 -117 -18 -169 -54
s-85.667 -81.667 -101 -137z" />
    <glyph glyph-name="f_f_b.liga" unicode="ffb" horiz-adv-x="2481" 
d="M1609 51l-80.9941 -76.0078l-33 13c12.667 121.333 19 259.333 19 414v530c0 44 -1.66699 118.5 -5 223.5s-6.16602 161.167 -8.49902 168.5s-7 13 -14 17s-29.833 6 -68.5 6h-57v-44l-24 -9c-37.333 33.333 -87.333 50 -150 50c-40 0 -72 -8.16699 -96 -24.5
s-40 -40.666 -48 -72.999s-12 -83.833 -12 -154.5v-207h107c18 0 41.667 0.666992 71 2l86 4l9 -11l-18 -88l-9 -10c-8.66699 0 -21.667 0.333008 -39 1l-207 1v-403c0 -47.333 1.33301 -100.333 4 -159l6 -109c1.33301 -20.667 7 -34.667 17 -42
s20.833 -11.666 32.5 -12.999s48.5 -3.66602 110.5 -6.99902l8 -8v-42l-8 -9c-126 5.33301 -210.333 8 -253 8c-72 0 -152.333 -2.66699 -241 -8l-8 9v42l8 8l104 7c11.333 0.666992 20.666 4.66699 27.999 12s11.666 16 12.999 26s3.66602 56.333 6.99902 139
s5 136.334 5 161.001v388h-483v-403c0 -47.333 1.33301 -101.666 4 -162.999l5 -107c3.33301 -19.333 9.66602 -32.666 18.999 -39.999s19.833 -11.666 31.5 -12.999s48.5 -3.66602 110.5 -6.99902l8 -8v-42l-8 -9c-126 5.33301 -210.333 8 -253 8
c-72 -0 -152.333 -2.66699 -241 -8l-8 9v42l8 8l104 7c10 0.666992 19.333 4.83398 28 12.501s13.5 20.167 14.5 37.5s3 63 6 137s4.5 124.333 4.5 151v388l-129 -9l-9 8v25l7 10l131 67v60c0 60.667 2.5 108.5 7.5 143.5s17.833 70.333 38.5 106s50.167 74.167 88.5 115.5
s71 74.5 98 99.5s54 43.333 81 55s54.167 17.5 81.5 17.5c25.333 0 52.666 -5 81.999 -15v-164l-24 -9c-37.333 33.333 -80.666 50 -129.999 50c-40 0 -72 -8.16699 -96 -24.5s-40 -40.666 -48 -72.999s-12 -83.833 -12 -154.5v-207h483v60c0 60.667 2.5 108.5 7.5 143.5
s17.833 70.333 38.5 106s50.167 74.167 88.5 115.5s71 74.5 98 99.5s54 43.333 81 55s54.167 17.5 81.5 17.5c34 0 68 -5 102 -15v-59c119.333 18 223.333 42.333 312 73l19 -12c-7.33301 -76.667 -11 -230.334 -11 -461.001v-255c48 63.333 99.667 112.833 155 148.5
s124.666 53.5 207.999 53.5c110.667 0 199.5 -38.167 266.5 -114.5s100.5 -173.166 100.5 -290.499c0 -68.667 -10.5 -132.334 -31.5 -191.001s-50.5 -110.667 -88.5 -156c-18 -20.667 -53 -50.334 -105 -89.001c-80.667 -58.667 -136.334 -95 -167.001 -109
c-50.667 -23.333 -105.667 -35 -165 -35c-84.667 0 -166.334 27 -245.001 81zM1681.01 632.992l0.000976562 -375c0 -32 3.5 -54.5 10.5 -67.5s23.667 -29.167 50 -48.5s56 -34.5 89 -45.5s67.167 -16.5 102.5 -16.5c95.333 0 169.666 36.167 222.999 108.5
s80 165.833 80 280.5c0 106.667 -25 192.5 -75 257.5s-120 97.5 -210 97.5c-60.667 0 -117 -18 -169 -54s-85.667 -81.667 -101 -137z" />
    <glyph glyph-name="f_h.liga" unicode="fh" horiz-adv-x="1875" 
d="M1854 0l-8.00391 -8.00293c-53.333 5.33301 -110.666 8 -171.999 8c-15.333 0 -64 -2.66699 -146 -8l-12 11c8.66699 95.333 13 208.333 13 339v131c0 68 -1.16699 119.5 -3.5 154.5s-12.5 68.5 -30.5 100.5s-43.167 56.5 -75.5 73.5s-71.166 25.5 -116.499 25.5
c-74 0 -137.5 -22.333 -190.5 -67s-79.5 -86.334 -79.5 -125.001l-2 -78v-176c0 -46 1.66699 -97 5 -153l7 -116c1.33301 -21.333 6.66602 -35.166 15.999 -41.499s17.5 -10.333 24.5 -12s41.833 -4.16699 104.5 -7.5l8 -8v-42l-8 -9c-126 5.33301 -206 8 -240 8
c-72 0 -152.333 -2.66699 -241 -8l-8 9v42l8 8l104 7c10.667 0.666992 19.667 4.5 27 11.5s11.833 14.5 13.5 22.5s4.16699 52 7.5 132s5 137.333 5 172v518c0 12.667 -1 65 -3 157s-4 154.833 -6 188.5s-4.16699 54.5 -6.5 62.5s-7.66602 14.167 -15.999 18.5
s-28.833 6.5 -61.5 6.5h-60v-44l-22 -9c-48.667 33.333 -99.334 50 -152.001 50c-38 0 -68.833 -7.83301 -92.5 -23.5s-40.167 -38.5 -49.5 -68.5s-14 -83.333 -14 -160v-207h107c58 0 110.333 2 157 6l9 -11l-18 -88l-9 -10c-18 0.666992 -31 1 -39 1l-207 1v-403
c0 -47.333 1.66699 -102.666 5 -165.999l6 -103c2 -20 7.66699 -33.667 17 -41s19.833 -11.666 31.5 -12.999s48.5 -3.66602 110.5 -6.99902l8 -8v-42l-8 -9c-126 5.33301 -210.333 8 -253 8c-72 -0 -152.333 -2.66699 -241 -8l-8 9v42l8 8l104 7
c10 0.666992 19.333 4.83398 28 12.501s13.5 20.167 14.5 37.5s3 63 6 137s4.5 124.333 4.5 151v386l-129 -7l-9 8v25l7 10l131 67v60c0 79.333 4.83301 138 14.5 176s30.834 78.833 63.501 122.5s70.834 87 114.501 130s79.167 71.833 106.5 86.5s58 22 92 22
c26.667 0 62 -5 106 -15v-59c125.333 17.333 229.333 41.666 312 72.999l19 -12c-7.33301 -76.667 -11 -230.334 -11 -461.001v-247c8 5.33301 34.333 28 79 68l77 69c17.333 16 33.166 27.167 47.499 33.5s33.333 11.833 57 16.5s51.834 7 84.501 7
c60.667 0 119.167 -14.667 175.5 -44s94.5 -66.166 114.5 -110.499s30 -108.833 30 -193.5v-176c0 -6 1.16699 -58.5 3.5 -157.5s4.83301 -155.167 7.5 -168.5s7 -24 13 -32s16.833 -13.667 32.5 -17s46.834 -5 93.501 -5l8 -8v-43z" />
    <glyph glyph-name="f_f_h.liga" unicode="ffh" horiz-adv-x="2526" 
d="M2504 0l-8.00195 -8.00879c-53.333 5.33301 -110.666 8 -172 8c-15.333 0 -64 -2.66699 -146 -8l-12 11c8.66699 95.333 13 208.333 13 339v131c0 68 -1.16699 119.5 -3.5 154.5s-12.5 68.5 -30.5 100.5s-43.167 56.5 -75.5 73.5s-71.166 25.5 -116.499 25.5
c-74 0 -137.5 -22.333 -190.5 -67s-79.5 -86.334 -79.5 -125.001l-2 -78v-176c0 -46 1 -97.667 3 -155l4 -114c2.66699 -21.333 9.16699 -35.166 19.5 -41.499s19 -10.333 26 -12s41.833 -4.16699 104.5 -7.5l8 -8v-42l-8 -9c-126 5.33301 -206 8 -240 8
c-72 0 -152.333 -2.66699 -241 -8l-8 9v42l8 8l104 7c10 0.666992 19.333 4.83398 28 12.501s13.5 20.167 14.5 37.5s3 63 6 137s4.5 124.333 4.5 151v518c0 12.667 -1 65 -3 157s-4 154.833 -6 188.5s-4.16699 54.5 -6.5 62.5s-7.66602 14.167 -15.999 18.5
s-28.833 6.5 -61.5 6.5h-60v-44l-22 -9c-48.667 33.333 -99.334 50 -152.001 50c-38 0 -68.833 -7.83301 -92.5 -23.5s-40.167 -38.5 -49.5 -68.5s-14 -83.333 -14 -160v-207h107c58 0 110.333 2 157 6l9 -11l-18 -88l-9 -10c-18 0.666992 -31 1 -39 1l-207 1v-403
c0 -47.333 1 -100.333 3 -159l6 -111c3.33301 -19.333 9.66602 -32.666 18.999 -39.999s19.833 -11.666 31.5 -12.999s48.5 -3.66602 110.5 -6.99902l8 -8v-42l-8 -9c-126 5.33301 -210.333 8 -253 8c-72 0 -152.333 -2.66699 -241 -8l-8 9v42l8 8l104 7
c10.667 0.666992 19.667 4.5 27 11.5s11.833 14.5 13.5 22.5s4.16699 52 7.5 132s5 137.333 5 172v388h-483v-403c0 -47.333 1.33301 -107.666 4 -180.999l6 -89c2.66699 -19.333 8.66699 -32.666 18 -39.999s19.833 -11.666 31.5 -12.999s48.5 -3.66602 110.5 -6.99902
l8 -8v-42l-8 -9c-126 5.33301 -210.333 8 -253 8c-72 0 -152.333 -2.66699 -241 -8l-8 9v42l8 8l104 7c10 0.666992 19.333 4.83398 28 12.501s13.5 20.167 14.5 37.5s3 63 6 137s4.5 124.333 4.5 151v386l-129 -7l-9 8v25l7 10l131 67v60c0 60.667 2.5 108.5 7.5 143.5
s17.833 70.333 38.5 106s50.167 74.167 88.5 115.5s71 74.5 98 99.5s54 43.333 81 55s54.167 17.5 81.5 17.5c25.333 0 52.666 -5 81.999 -15v-164l-24 -9c-37.333 33.333 -80.666 50 -129.999 50c-40 0 -72 -8.16699 -96 -24.5s-40 -40.666 -48 -72.999
s-12 -83.833 -12 -154.5v-207h483v60c0 79.333 4.83301 138 14.5 176s30.834 78.833 63.501 122.5s70.834 87 114.501 130s79.167 71.833 106.5 86.5s58 22 92 22c26.667 0 62 -5 106 -15v-59c125.333 17.333 229.333 41.666 312 72.999l19 -12
c-7.33301 -76.667 -11 -230.334 -11 -461.001v-247c8 5.33301 34.333 28 79 68l77 69c17.333 16 33.166 27.167 47.499 33.5s33.333 11.833 57 16.5s51.834 7 84.501 7c60.667 0 119.167 -14.667 175.5 -44s94.5 -66.166 114.5 -110.499s30 -108.833 30 -193.5v-176
c0 -6 1.16699 -58.5 3.5 -157.5s4.83301 -155.167 7.5 -168.5s7 -24 13 -32s16.833 -13.667 32.5 -17s46.834 -5 93.5 -5l8 -8v-43z" />
    <glyph glyph-name="f_k.liga" unicode="fk" horiz-adv-x="1798" 
d="M1773 37c-50 -12.667 -113.657 -33.0059 -190.99 -61.0059l-131 122l-172 169l-147 140l-101 93v-119c0 -46 1.66699 -97 5 -153l7 -116c1.33301 -21.333 6.66602 -35.166 15.999 -41.499s17.5 -10.333 24.5 -12s41.833 -4.16699 104.5 -7.5l8 -8v-42l-8 -9
c-126 5.33301 -206 8 -240 8c-72 0 -152.333 -2.66699 -241 -8l-8 9v42l8 8l104 7c11.333 0.666992 20.666 4.66699 27.999 12s11.666 16 12.999 26s3.66602 56.333 6.99902 139s5 136.334 5 161.001v518c0 36.667 -1.33301 115.167 -4 235.5s-6.83398 183.333 -12.501 189
s-32.5 8.5 -80.5 8.5h-56v-44l-22 -9c-48.667 33.333 -99.334 50 -152.001 50c-38 0 -68.833 -7.83301 -92.5 -23.5s-40.167 -38.5 -49.5 -68.5s-14 -83.333 -14 -160v-207h107c58 0 110.333 2 157 6l9 -11l-18 -88l-9 -10c-18 0.666992 -31 1 -39 1l-207 1v-403
c0 -47.333 1.66699 -105.666 5 -174.999l7 -98c1.33301 -17.333 6.66602 -29.666 15.999 -36.999s19.833 -11.666 31.5 -12.999s48.5 -3.66602 110.5 -6.99902l8 -8v-42l-8 -9c-126 5.33301 -210.333 8 -253 8c-72 -0 -152.333 -2.66699 -241 -8l-8 9v42l8 8l104 7
c11.333 0.666992 20.666 4.66699 27.999 12s11.666 16 12.999 26s3.66602 56.333 6.99902 139s5 136.334 5 161.001v386l-129 -7l-9 8v25l7 10l131 67v60c0 72 3.66699 126.5 11 163.5s24.5 74.833 51.5 113.5s67.167 84.667 120.5 138s92.833 87 118.5 101s55.5 21 89.5 21
c26.667 0 62 -5 106 -15v-59c120.667 17.333 224.667 41.666 312 72.999l19 -12c-7.33301 -76.667 -11 -230.334 -11 -461.001v-469c82 54.667 176.167 130.667 282.5 228s165.5 153.666 177.5 168.999c46.667 -2 80.667 -3 102 -3c9.33301 0 40.333 1 93 3l9 -9v-39l-8 -9
c-32.667 -2 -57.5 -5.83301 -74.5 -11.5s-43 -20.667 -78 -45s-109.833 -80.833 -224.5 -169.5l-99 -81l137 -141l172 -170c68 -65.333 116 -109.166 144 -131.499s49.667 -36.166 65 -41.499s30 -8 44 -8v-43z" />
    <glyph glyph-name="f_f_k.liga" unicode="ffk" horiz-adv-x="2449" 
d="M2423 37c-50 -12.667 -113.663 -33.0098 -190.996 -61.0098l-131 122l-172 169l-147 140l-101 93v-119c0 -46 1 -104.667 3 -176l4 -80c1.33301 -30.667 6.83301 -49 16.5 -55s18.667 -9.83301 27 -11.5s43.833 -4.16699 106.5 -7.5l8 -8v-42l-8 -9
c-126 5.33301 -206 8 -240 8c-72 0 -152.333 -2.66699 -241 -8l-8 9v42l8 8l104 7c11.333 0.666992 20.666 4.66699 27.999 12s11.666 16 12.999 26s3.66602 56.333 6.99902 139s5 136.334 5 161.001v518c0 36.667 -1.33301 115.167 -4 235.5s-6.83398 183.333 -12.501 189
s-32.5 8.5 -80.5 8.5h-56v-44l-22 -9c-48.667 33.333 -99.334 50 -152.001 50c-38 0 -68.833 -7.83301 -92.5 -23.5s-40.167 -38.5 -49.5 -68.5s-14 -83.333 -14 -160v-207h107c58 0 110.333 2 157 6l9 -11l-18 -88l-9 -10c-18 0.666992 -31 1 -39 1l-207 1v-405
c0 -46 1 -99 3 -159l6 -105c2.66699 -24.667 8.83398 -40 18.501 -46s20.334 -9.66699 32.001 -11s48.5 -3.66602 110.5 -6.99902l8 -8v-42l-8 -9c-126 5.33301 -210.333 8 -253 8c-72 0 -152.333 -2.66699 -241 -8l-8 9v42l8 8l104 7
c10.667 0.666992 19.667 4.33398 27 11.001s11.833 14.834 13.5 24.501s4.16699 56.334 7.5 140.001s5 137.167 5 160.5v390h-483v-403c0 -47.333 1.66699 -104.666 5 -171.999l7 -101c1.33301 -17.333 6.66602 -29.666 15.999 -36.999s19.833 -11.666 31.5 -12.999
s48.167 -3.66602 109.5 -6.99902l8 -8v-42l-8 -9c-126 5.33301 -210 8 -252 8c-72 0 -152.333 -2.66699 -241 -8l-8 9v42l8 8l104 7c10 0.666992 19.333 4.83398 28 12.501s13.5 20.167 14.5 37.5s3 63 6 137s4.5 124.333 4.5 151v388l-129 -9l-9 8v25l7 10l131 67v60
c0 60.667 2.5 108.5 7.5 143.5s17.833 70.333 38.5 106s50.167 74.167 88.5 115.5s71 74.5 98 99.5s54 43.333 81 55s54.167 17.5 81.5 17.5c25.333 0 52.666 -5 81.999 -15v-164l-24 -9c-37.333 33.333 -80.666 50 -129.999 50c-40 0 -72 -8.16699 -96 -24.5
s-40 -40.666 -48 -72.999s-12 -83.833 -12 -154.5v-207h483v60c0 72 3.66699 126.5 11 163.5s24.5 74.833 51.5 113.5s67.167 84.667 120.5 138s92.833 87 118.5 101s55.5 21 89.5 21c26.667 0 62 -5 106 -15v-59c120.667 17.333 224.667 41.666 312 72.999l19 -12
c-7.33301 -76.667 -11 -230.334 -11 -461.001v-469c82 54.667 176.167 130.667 282.5 228s165.5 153.666 177.5 168.999c46.667 -2 80.667 -3 102 -3c9.33301 0 40.333 1 93 3l9 -9v-39l-8 -9c-32.667 -2 -57.5 -5.83301 -74.5 -11.5s-43 -20.667 -78 -45
s-109.833 -80.833 -224.5 -169.5l-99 -81l137 -141l172 -170c68 -65.333 116 -109.166 144 -131.499s49.667 -36.166 65 -41.499s30 -8 44 -8v-43z" />
    <glyph glyph-name="f_j.liga" unicode="fj" horiz-adv-x="1173" 
d="M1034 940c-4.66699 -61.333 -6.99902 -183.671 -6.99902 -367.004v-503c0 -136.667 -11.333 -248.167 -34 -334.5s-64 -159.5 -124 -219.5s-129 -90 -207 -90c-5.33301 0 -12.666 0.333008 -21.999 1l-10 57l10 13c14 -1.33301 25.333 -2 34 -2c42 0 79 19.5 111 58.5
s51.833 96.333 59.5 172s11.5 170.834 11.5 285.501v582c0 18.667 -0.666992 55.5 -2 110.5s-2.83301 85.667 -4.5 92s-5.33398 12.666 -11.001 18.999s-26.5 9.83301 -62.5 10.5l-85 2l-22 -43h-288v-403c0 -47.333 1.66699 -106.333 5 -177l5 -91
c2.66699 -20.667 8.66699 -34.667 18 -42s19.833 -11.666 31.5 -12.999s48.5 -3.66602 110.5 -6.99902l8 -8v-42l-8 -9c-126 5.33301 -210.333 8 -253 8c-72 0 -152.333 -2.66699 -241 -8l-8 9v42l8 8l104 7c10 0.666992 19.333 4.83398 28 12.501s13.5 20.167 14.5 37.5
s3 63 6 137s4.5 124.333 4.5 151v388l-129 -9l-9 8v25l7 10l131 67v60c0 60.667 2.5 108.5 7.5 143.5s17.833 70.333 38.5 106s50.167 74.167 88.5 115.5s71 74.5 98 99.5s54 43.333 81 55s54.167 17.5 81.5 17.5c25.333 0 52.666 -5 81.999 -15v-164l-24 -9
c-37.333 33.333 -80.666 50 -129.999 50c-40 0 -72 -8.16699 -96 -24.5s-40 -40.666 -48 -72.999s-12 -83.833 -12 -154.5v-207h246c70 0 126.667 3 170 9s89.666 17 138.999 33l80 26zM936.001 1175c-30.667 0 -57 11 -79 33s-33 48.333 -33 79c0 31.333 10.833 58 32.5 80
s48.167 33 79.5 33c32 0 58.833 -10.833 80.5 -32.5s32.5 -48.5 32.5 -80.5c0 -31.333 -11 -57.833 -33 -79.5s-48.667 -32.5 -80 -32.5z" />
    <glyph glyph-name="t_t.liga" unicode="tt" horiz-adv-x="1273" 
d="M1257 879l-19.001 -84.0029l-8 -9c-34 0.666992 -71.667 1 -113 1c-37.333 0 -85.333 -0.333008 -144 -1l-6 -407c0 -99.333 2.83301 -163.333 8.5 -192s18.5 -50 38.5 -64s47.667 -21 83 -21c44.667 0 86 11.667 124 35l24 -36
c-16 -11.333 -54.333 -44.666 -115 -99.999c-34.667 -16 -70 -24 -106 -24c-150 0 -225 72.667 -225 218l5 171v420h-436l-6 -407c0 -99.333 2.83301 -163.333 8.5 -192s18.5 -50 38.5 -64s47.667 -21 83 -21c44.667 0 86 11.667 124 35l24 -36
c-16 -11.333 -54.333 -44.666 -115 -99.999c-34.667 -16 -70 -24 -106 -24c-150 0 -225 72.667 -225 218l5 171v415h-41c-30 0 -64.333 -1.33301 -103 -4l-9 8v26l7 10c62.667 23.333 113.334 45 152.001 65c0 174 -2 275.333 -6 304c68.667 24 125 49.667 169 77l24 -20
c-6.66699 -43.333 -14.667 -163.666 -24 -360.999h439c0 188.667 -1 290 -3 304c68.667 24 125 49.667 169 77l24 -20c-6.66699 -42 -14.667 -164 -24 -366c33.333 -0.666992 69.333 -1 108 -1c78.667 0 135 2 169 6z" />
    <glyph glyph-name="t_z.liga" unicode="t&#x7a;" horiz-adv-x="1563" 
d="M1492 274l-12.999 -102.999c-6.66699 -51.333 -11.334 -108.333 -14.001 -171l-8 -8c-200 6 -351.667 9 -455 9c-98 0 -234 -3 -408 -9l-9 8l-7 57l-93 -67c-21.333 -8.66699 -46 -13 -74 -13c-144.667 0 -217 72.667 -217 218c0 29.333 0.333008 51.666 1 66.999l3 69
c0.666992 15.333 1 27 1 35v415h-41c-30 0 -64.333 -1.33301 -103 -4l-9 8v26l7 10c62.667 23.333 113.334 45 152.001 65c0 156.667 -2 258 -6 304c68.667 24 125 49.667 169 77l24 -20c-7.33301 -55.333 -15.333 -177.333 -24 -366c33.333 -0.666992 69.333 -1 108 -1
c48.667 0 115.667 1.33301 201 4l-1 42l8 7l469 -7c44.667 -0.666992 86 -1 124 -1c69.333 0 131.333 2.66699 186 8l8 -8v-48c-33.333 -34.667 -123 -144.667 -269 -330l-276 -352l-95 -126h70l179 2c68 0.666992 132.667 3.33398 194 8.00098s94.666 9.16699 99.999 13.5
s10.5 11.166 15.5 20.499s12.333 35 22 77s15.5 70.333 17.5 85l9 8h45zM1238 857.001h-236.002c-44 0 -84.833 -1 -122.5 -3s-66.5 -4.5 -86.5 -7.5s-32 -8.33301 -36 -16s-7 -17.5 -9 -29.5s-7.66699 -43.667 -17 -95l-6 -32l-8 -8h-40l-9 9l7 111l-163 1
c-37.333 0 -85.333 -0.333008 -144 -1l-6 -407l2 -129c0 -104.667 42.667 -157 128 -157c24.667 0 54.334 7 89.001 21l19 -35c42.667 38.667 103.334 103.667 182.001 195l320 395c32 39.333 77.333 102 136 188z" />
    <glyph glyph-name=".notdef" horiz-adv-x="1097" 
d="M483 475l-26.001 42.998c42 14.667 63 37 63 67c0 51.333 -25 77 -75 77c-36.667 0 -65.5 -14 -86.5 -42s-31.5 -64 -31.5 -108c0 -44.667 16.333 -84.167 49 -118.5s74 -51.5 124 -51.5c62.667 0 114.167 21.333 154.5 64s60.5 95 60.5 157c0 78 -26 143.333 -78 196
s-115 79 -189 79c-81.333 0 -150.833 -30 -208.5 -90s-86.5 -132 -86.5 -216c0 -111.333 37 -203.666 111 -276.999s165.667 -110 275 -110c115.333 0 210.5 42.5 285.5 127.5s112.5 189.5 112.5 313.5c0 110.667 -30.5 202.167 -91.5 274.5s-145.833 120.833 -254.5 145.5
l39 73c122 -26.667 220 -83.834 294 -171.501s111 -192.5 111 -314.5c0 -144.667 -48 -268.5 -144 -371.5s-214 -154.5 -354 -154.5c-139.333 0 -253.166 43.333 -341.499 130s-132.5 197.334 -132.5 332.001c0 106 37.833 197.667 113.5 275s165.834 116 270.501 116
c97.333 0 181.166 -31.833 251.499 -95.5s105.5 -146.167 105.5 -247.5c0 -87.333 -29.833 -160.666 -89.5 -219.999s-131.5 -89 -215.5 -89c-76 0 -136.5 23.333 -181.5 70s-67.5 107 -67.5 181c0 56.667 18 105.667 54 147s83.333 62 142 62
c43.333 0 77.833 -13 103.5 -39s38.5 -58.333 38.5 -97c0 -64 -35 -103 -105 -117z" />
    <glyph glyph-name="space" unicode=" " horiz-adv-x="512" 
 />
    <glyph glyph-name="space" unicode="&#xa0;" horiz-adv-x="512" 
 />
    <glyph glyph-name="exclam" unicode="!" horiz-adv-x="569" 
d="M379 1428v-106c0 -4 -7.33301 -82 -22 -234c-22 -224 -40.667 -440.667 -56 -650l-55 -50l-19 10c-5.33301 134 -21 331.667 -47 593l-20 226c-2.66699 41.333 -4 85 -4 131c54 25.333 106 52 156 80h67zM261 221c32 0 59.833 -11.3311 83.5 -33.998
s35.5 -51.334 35.5 -86.001c0 -32.667 -11.667 -60.667 -35 -84s-51.333 -35 -84 -35c-33.333 0 -61.666 11.667 -84.999 35s-35 51.333 -35 84c0 33.333 11.667 61.666 35 84.999s51.666 35 84.999 35z" />
    <glyph glyph-name="quotedbl" unicode="&#x22;" horiz-adv-x="760" 
d="M174 960l-60 354.998c-6 33.333 -9 53.333 -9 60c0 20 8.33301 37.667 25 53s38.334 23 65.001 23c27.333 0 49.166 -7.66699 65.499 -23s24.5 -32.666 24.5 -51.999c0 -7.33301 -2.66699 -27.666 -8 -60.999l-61 -355h-42zM544 959.998l-60 354.998
c-6 33.333 -9 53.333 -9 60c0 20 8.33301 37.667 25 53s38.334 23 65.001 23c27.333 0 49.166 -7.66699 65.499 -23s24.5 -32.666 24.5 -51.999c0 -7.33301 -2.66699 -27.666 -8 -60.999l-61 -355h-42z" />
    <glyph glyph-name="quotedbl" unicode="&#x2ba;" horiz-adv-x="760" 
d="M174 960l-60 354.998c-6 33.333 -9 53.333 -9 60c0 20 8.33301 37.667 25 53s38.334 23 65.001 23c27.333 0 49.166 -7.66699 65.499 -23s24.5 -32.666 24.5 -51.999c0 -7.33301 -2.66699 -27.666 -8 -60.999l-61 -355h-42zM544 959.998l-60 354.998
c-6 33.333 -9 53.333 -9 60c0 20 8.33301 37.667 25 53s38.334 23 65.001 23c27.333 0 49.166 -7.66699 65.499 -23s24.5 -32.666 24.5 -51.999c0 -7.33301 -2.66699 -27.666 -8 -60.999l-61 -355h-42z" />
    <glyph glyph-name="numbersign" unicode="#" horiz-adv-x="981" 
d="M172 0l69 381h-148l24 134h148l76 423h-148l24 133h148l60 334h74l-60 -334h227l60 334h75l-60 -334h147l-23 -133h-148l-76 -423h147l-24 -134h-147l-69 -381h-74l68 381h-227l-69 -381h-74zM339 515h227l76 423h-227z" />
    <glyph glyph-name="dollar" unicode="$" 
d="M58 60c11.333 72.667 20.6689 167.665 28.002 284.998l9 8h45l8 -9c2 -103.333 4 -162.666 6 -177.999c40.667 -40.667 82.834 -71.667 126.501 -93s99.167 -32 166.5 -32v566c-69.333 10 -125.833 20.833 -169.5 32.5s-83 32 -118 61s-60.833 63.667 -77.5 104
s-25 86.5 -25 138.5c0 100 31.833 189.333 95.5 268s161.834 128.334 294.501 149.001c-0.666992 64 -2 106 -4 126l10 9h71l10 -9c-1.33301 -5.33301 -2.66602 -46 -3.99902 -122c161.333 -12.667 272.666 -40 333.999 -82l4 -13
c-5.33301 -20.667 -9.5 -40.167 -12.5 -58.5s-5.83301 -43.833 -8.5 -76.5l-8 -104l-8 -9h-40l-8 8c-2.66699 65.333 -8.33398 120.333 -17.001 165c-55.333 62.667 -134 95 -236 97v-528c82 -11.333 147.167 -23.5 195.5 -36.5s90.5 -33 126.5 -60s62.667 -60.333 80 -100
s26 -84.834 26 -135.501c0 -79.333 -17.333 -151.833 -52 -217.5s-80.334 -117.667 -137.001 -156s-136.334 -67.833 -239.001 -88.5c1.33301 -102 3.33301 -168 6 -198l-9 -9h-74l-10 9c1.33301 22 2.66602 86.667 3.99902 194
c-141.333 2.66699 -268.333 29.334 -381 80.001zM447.003 1287c-42 -4.66699 -79.167 -15.668 -111.5 -33.001s-60.833 -47.166 -85.5 -89.499s-37 -94.833 -37 -157.5c0 -84.667 23 -143 69 -175s101 -51.333 165 -58v513zM530.003 45.9971
c77.333 2 141.167 32.333 191.5 91s75.5 130.667 75.5 216c0 66.667 -18.5 120 -55.5 160s-107.5 68 -211.5 84v-551z" />
    <glyph glyph-name="percent" unicode="%" horiz-adv-x="1720" 
d="M1303 1466l-789 -1531l-12 -6h-72l-6 10l789 1531l10 7h74zM91 1093c0 91.333 32.6699 170.831 98.0029 238.498s148.666 101.5 249.999 101.5c62 0 118.333 -13 169 -39s89.5 -65.167 116.5 -117.5s40.5 -108.166 40.5 -167.499c0 -57.333 -14.333 -114.5 -43 -171.5
s-70.834 -101.333 -126.501 -133s-114.834 -47.5 -177.501 -47.5c-92 0 -169.5 31.833 -232.5 95.5s-94.5 143.834 -94.5 240.501zM249.003 1085c0 -97.333 16.167 -167.667 48.5 -211s74.833 -65 127.5 -65c58.667 0 104 27.333 136 82s48 128.667 48 222
c0 84 -14 150.333 -42 199s-71.333 73 -130 73c-59.333 0 -105.5 -26.5 -138.5 -79.5s-49.5 -126.5 -49.5 -220.5zM955.003 307.997c0 91.333 32.4971 170.833 97.4971 238.5s148.167 101.5 249.5 101.5c62.667 0 119.334 -13 170.001 -39s89.334 -65.167 116.001 -117.5
s40 -108.166 40 -167.499c0 -56 -13.833 -112.333 -41.5 -169s-69.167 -101.334 -124.5 -134.001s-115.333 -49 -180 -49c-93.333 0 -171.166 32 -233.499 96s-93.5 144 -93.5 240zM1113 299.997c0 -56.667 6 -105.334 18 -146.001s32 -72.5 60 -95.5s60.667 -34.5 98 -34.5
c58 0 103.167 26.833 135.5 80.5s48.5 128.167 48.5 223.5c0 82 -13.5 147.833 -40.5 197.5s-70.833 74.5 -131.5 74.5c-56 0 -101.333 -25.167 -136 -75.5s-52 -125.166 -52 -224.499z" />
    <glyph glyph-name="ampersand" unicode="&#x26;" horiz-adv-x="1593" 
d="M1532 100c-54 -38 -110.002 -81.002 -168.002 -129.002c-21.333 -4.66699 -44.666 -7 -69.999 -7c-59.333 0 -119 12.333 -179 37s-123.667 64.667 -191 120c-88 -65.333 -162 -108 -222 -128s-124 -30 -192 -30c-135.333 0 -238.833 40.5 -310.5 121.5
s-107.5 173.833 -107.5 278.5c0 178.667 104.667 324.334 314 437.001c-40 96 -60 183 -60 261c0 32 4.5 62.5 13.5 91.5s19.167 51.5 30.5 67.5s31 36.167 59 60.5l81 69c26 21.667 50.833 37 74.5 46s49.167 13.5 76.5 13.5c61.333 0 107.5 -17.5 138.5 -52.5
s46.5 -80.167 46.5 -135.5c0 -139.333 -97 -275 -291 -407c42 -84.667 105.333 -180 190 -286s159.334 -184.333 224.001 -235c68 74.667 102 156.334 102 245.001c0 35.333 -4.16699 65.333 -12.5 90s-19.166 41.167 -32.499 49.5s-37 12.5 -71 12.5l-107 2l-9 13l65 95
c39.333 -6 96.333 -9 171 -9c39.333 0 99 1.66699 179 5c81.333 2.66699 158 4 230 4l9 -9c-10 -39.333 -16.667 -79.666 -20 -120.999l-10 -8c-76.667 12.667 -159.334 19 -248.001 19c-3.33301 0 -13.333 -0.333008 -30 -1c8 -28 12 -57.667 12 -89
c0 -117.333 -55.667 -232.333 -167 -345c122 -87.333 242 -131 360 -131c17.333 0 32.333 2.16699 45 6.5s33 14.166 61 29.499l12 -6l7 -31zM541.998 881.998c54.667 38.667 99.667 83.999 135 135.999s53 101.667 53 149c0 32.667 -10.167 62.834 -30.5 90.501
s-46.833 41.5 -79.5 41.5c-34 0 -64.167 -14.167 -90.5 -42.5s-39.5 -70.833 -39.5 -127.5c0 -64.667 17.333 -147 52 -247zM858.998 171.997c-124 131.333 -212.832 234.167 -266.499 308.5s-104.834 154.833 -153.501 241.5c-66 -46.667 -111 -94 -135 -142
s-36 -97.333 -36 -148c0 -91.333 33.167 -173 99.5 -245s146.5 -108 240.5 -108c86 0 169.667 31 251 93z" />
    <glyph glyph-name="quotesingle" unicode="'" horiz-adv-x="426" 
d="M192 960l-60 354.998c-6 33.333 -9 53.333 -9 60c0 20 8.33301 37.667 25 53s38.334 23 65.001 23c27.333 0 49.166 -7.66699 65.499 -23s24.5 -32.666 24.5 -51.999c0 -7.33301 -2.66699 -27.666 -8 -60.999l-61 -355h-42z" />
    <glyph glyph-name="quotesingle" unicode="&#x2b9;" horiz-adv-x="426" 
d="M192 960l-60 354.998c-6 33.333 -9 53.333 -9 60c0 20 8.33301 37.667 25 53s38.334 23 65.001 23c27.333 0 49.166 -7.66699 65.499 -23s24.5 -32.666 24.5 -51.999c0 -7.33301 -2.66699 -27.666 -8 -60.999l-61 -355h-42z" />
    <glyph glyph-name="parenleft" unicode="(" horiz-adv-x="682" 
d="M558 -473c-139.333 118 -246.999 259.834 -322.999 425.501s-114 342.834 -114 531.501c0 153.333 21.333 289.666 64 408.999s102.167 229 178.5 329s143.833 171 202.5 213l11 -1l31 -39v-11c-208 -224 -312 -516.667 -312 -878c0 -200 23.167 -370.833 69.5 -512.5
s127.166 -281.834 242.499 -420.501l-1 -12l-37 -33z" />
    <glyph glyph-name="parenright" unicode=")" horiz-adv-x="682" 
d="M124 -473l-11.999 1.00098l-38 33v12c115.333 138.667 196.166 279 242.499 421s69.5 312.667 69.5 512c0 361.333 -104 654 -312 878v11l31 39l11 1c102.667 -75.333 202.5 -195.833 299.5 -361.5s145.5 -362.167 145.5 -589.5c0 -184 -36.833 -358.833 -110.5 -524.5
s-182.5 -309.834 -326.5 -432.501z" />
    <glyph glyph-name="asterisk" unicode="*" horiz-adv-x="797" 
d="M112 831c-23.333 61.333 -41.333 102.333 -54 123l10 28c13.333 3.33301 48.333 16.5 105 39.5s108 45.167 154 66.5l-260 125c-1.33301 0 -4 0.666992 -8 2l-4 22c14 22.667 37.667 64 71 124h24l207 -216l59 285l16 11c44 -14.667 87.333 -26.667 130 -36l5 -20
l-67 -112.5c-29.333 -49 -56.666 -99.5 -81.999 -151.5c54.667 7.33301 101 14.666 139 21.999c85.333 16.667 132.333 25 141 25l19 -14c2 -34 10.333 -77.667 25 -131l-20 -16c-88.667 22 -190 39.667 -304 53c31.333 -59.333 54.666 -102.333 69.999 -129
c35.333 -61.333 56 -99.666 62 -114.999l-3 -26c-17.333 -8 -42.333 -22 -75 -42c-21.333 -12.667 -37 -21.667 -47 -27l-25 9l-43 302l-218 -204z" />
    <glyph glyph-name="plus" unicode="+" 
d="M994 576h-424v-424h-116v424h-424v112h424v424h116v-424h424v-112z" />
    <glyph glyph-name="comma" unicode="," horiz-adv-x="512" 
d="M-14 -288c41.333 68.667 71 120.333 89 155s33.833 71.167 47.5 109.5s22.667 67.833 27 88.5s10.5 63.334 18.5 128.001c3.33301 1.33301 22 6 56 14c46.667 11.333 96 26.666 148 45.999l25 -28c-84.667 -196.667 -185 -363 -301 -499l-85 -39z" />
    <glyph glyph-name="hyphen" unicode="-" horiz-adv-x="682" 
d="M45 430v14l45 134h535v-15l-48 -133h-532z" />
    <glyph glyph-name="hyphen" unicode="&#x2011;" horiz-adv-x="682" 
d="M45 430v14l45 134h535v-15l-48 -133h-532z" />
    <glyph glyph-name="hyphen" unicode="&#x2010;" horiz-adv-x="682" 
d="M45 430v14l45 134h535v-15l-48 -133h-532z" />
    <glyph glyph-name="hyphen" unicode="&#xad;" horiz-adv-x="682" 
d="M45 430v14l45 134h535v-15l-48 -133h-532z" />
    <glyph glyph-name="period" unicode="." horiz-adv-x="512" 
d="M256 221c32 0 59.833 -11.3311 83.5 -33.998s35.5 -51.334 35.5 -86.001c0 -32.667 -11.667 -60.667 -35 -84s-51.333 -35 -84 -35c-33.333 0 -61.666 11.5 -84.999 34.5s-35 51.167 -35 84.5s11.667 61.666 35 84.999s51.666 35 84.999 35z" />
    <glyph glyph-name="slash" unicode="/" horiz-adv-x="656" 
d="M0 -236l540 1717l10 8h100l6 -10l-540 -1716l-11 -9h-98z" />
    <glyph glyph-name="zero" unicode="0" 
d="M62 611c0 118.667 6.00098 225.501 18.001 320.501s38.5 179.667 79.5 254s92.333 130 154 167s131.834 55.5 210.501 55.5c89.333 0 167.833 -23 235.5 -69s116.334 -116.667 146.001 -212s44.5 -225 44.5 -389c0 -266.667 -40.833 -463 -122.5 -589
s-194.834 -189 -339.501 -189c-72.667 0 -136.834 15.667 -192.501 47s-101.334 76.666 -137.001 135.999s-60.667 129.333 -75 210s-21.5 166.667 -21.5 258zM234.001 669.001c0 -126.667 9.50098 -242.001 28.501 -346.001s50.667 -178.833 95 -224.5
s97.166 -68.5 158.499 -68.5c59.333 0 108.833 20.333 148.5 61s68.667 110.334 87 209.001s27.5 220.667 27.5 366c0 228 -21.667 396.667 -65 506s-115 164 -215 164c-87.333 0 -153.333 -42.333 -198 -127s-67 -264.667 -67 -540z" />
    <glyph glyph-name="one" unicode="1" 
d="M153 1130l-17.999 5.99902l-10 82l10 10c66.667 19.333 151 50.333 253 93s175 75.334 219 98.001l26 -10c-10.667 -292 -16 -467.333 -16 -526v-371c0 -91.333 1 -177.166 3 -257.499s5 -127.666 9 -141.999s10.833 -25.5 20.5 -33.5s23.167 -13.167 40.5 -15.5
s69 -5.83301 155 -10.5l7 -8v-45l-7 -8c-146 5.33301 -249 8 -309 8c-45.333 0 -156.333 -2.66699 -333 -8l-7 8v45l8 8c100 7.33301 157.167 12.666 171.5 15.999s25.333 9.16602 33 17.499s13.834 24.166 18.501 47.499s8.5 92.333 11.5 207s4.5 173.334 4.5 176.001v394
c0 193.333 -0.5 298.333 -1.5 315s-6.83301 25 -17.5 25c-2.66699 0 -6.33398 -0.666992 -11.001 -2s-19.334 -7.33301 -44.001 -18l-99 -44c-41.333 -18 -80.333 -37 -117 -57z" />
    <glyph glyph-name="two" unicode="2" 
d="M46 -10l-12.001 10.0029v46l335 355c138 146 227.333 259 268 339s61 154.667 61 224c0 81.333 -24.667 149 -74 203s-116 81 -200 81c-54 0 -101 -8.33301 -141 -25s-66.833 -35.334 -80.5 -56.001s-33.5 -78.667 -59.5 -174l-9 -8h-41l-10 9c15.333 90 26 179 32 267
c62.667 61.333 121.167 100.5 175.5 117.5s111.166 25.5 170.499 25.5c70.667 0 138.334 -13.333 203.001 -40s116.667 -69.834 156 -129.501s59 -128.834 59 -207.501c0 -58.667 -11.5 -117.5 -34.5 -176.5s-56.667 -116 -101 -171s-104.833 -120.833 -181.5 -197.5
l-312 -318h395c121.333 0 222.333 4.33301 303 13l7 -8c-4 -22.667 -6 -52.334 -6 -89.001c0 -33.333 2 -59.666 6 -78.999l-7 -11c-48 2.66699 -121.667 5 -221 7s-165 3 -197 3c-64.667 0 -151.667 -0.833008 -261 -2.5s-183.666 -4.16699 -222.999 -7.5z" />
    <glyph glyph-name="three" unicode="3" 
d="M104 23c-12 78.667 -34.334 173.335 -67.001 284.002l5 15l37 14l14 -7c23.333 -61.333 48.333 -112 75 -152s65 -70.667 115 -92s104 -32 162 -32c73.333 0 131.5 15.333 174.5 46s76.167 72.334 99.5 125.001s35 112 35 178c0 88.667 -23.167 158.334 -69.5 209.001
s-110.5 76 -192.5 76c-28 0 -53 -2.66699 -75 -8s-56 -17.333 -102 -36l-11 10l22 109c54 -3.33301 90 -5 108 -5c78 0 139.833 27.667 185.5 83s68.5 120.666 68.5 195.999c0 66 -23.833 121.333 -71.5 166s-106.5 67 -176.5 67c-46 0 -89.5 -9.33301 -130.5 -28
s-74.833 -41.334 -101.5 -68.001c-11.333 -22.667 -29.333 -67.334 -54 -134.001l-10 -9h-45l-8 9l60 232c83.333 94 196.333 141 339 141c108.667 0 196.5 -28.833 263.5 -86.5s100.5 -130.167 100.5 -217.5c0 -66.667 -19.667 -127.834 -59 -183.501
s-94 -108.167 -164 -157.5c115.333 -14 196.5 -48.5 243.5 -103.5s70.5 -121.5 70.5 -199.5c0 -128 -58 -243.167 -174 -345.5s-250 -153.5 -402 -153.5c-45.333 0 -87.666 3.83301 -126.999 11.5s-85.333 23.167 -138 46.5z" />
    <glyph glyph-name="four" unicode="4" 
d="M329 -8l-8.00098 7.99805v43l8 8c98.667 2.66699 157.167 5.66699 175.5 9s31.833 10.333 40.5 21s15.167 36.667 19.5 78s6.5 85.333 6.5 132v74h-219c-127.333 0 -235 -2 -323 -6l-17 54c116 217.333 309.667 532 581 944l141 57l25 -12
c-7.33301 -113.333 -11 -253.666 -11 -420.999l-3 -282v-207c92 0.666992 163 2.66699 213 6l9 -10c-1.33301 -25.333 -2 -43.666 -2 -54.999c0.666992 -22 1.66699 -43.667 3 -65l-10 -9c-64.667 4 -118.667 6 -162 6h-51v-67c0 -74.667 2 -127.667 6 -159
s10.333 -51.5 19 -60.5s26.167 -15.667 52.5 -20s71.833 -6.83301 136.5 -7.5l9 -8v-43l-8 -8c-117.333 5.33301 -215.666 8 -294.999 8c-129.333 -0 -241.333 -2.66699 -336 -8zM143.999 491.998l427 -0.000976562l9 711c-64 -91.333 -144.667 -216.666 -242 -375.999
s-162 -271 -194 -335z" />
    <glyph glyph-name="five" unicode="5" 
d="M131 14c-16 52 -49.0059 138.001 -99.0059 258.001l2 13l35 20l12 -3c55.333 -100.667 89.833 -157.834 103.5 -171.501s44.834 -29.667 93.501 -48s100 -27.5 154 -27.5c67.333 0 127 14.667 179 44s90.667 72.666 116 129.999s38 122.333 38 195
c0 71.333 -12.5 132.833 -37.5 184.5s-63.167 90.834 -114.5 117.501s-106.666 40 -165.999 40c-37.333 0 -71.166 -5 -101.499 -15s-55.666 -22.833 -75.999 -38.5s-44.5 -38.834 -72.5 -69.501l-41 12l11 215c2.66699 40.667 4 81.667 4 123v178
c0 53.333 -1.66699 104.333 -5 153c-2 30 -3 49 -3 57l13 10c102 -8 218.333 -12 349 -12c99.333 0 218.333 4 357 12l4 -10c-4.66699 -32.667 -7 -63 -7 -91c0 -14 1 -37.333 3 -70l-10 -6c-76 5.33301 -178 8 -306 8c-174 0 -275 -0.666992 -303 -2
c-10 -78.667 -17 -217.334 -21 -416.001c54.667 40 104 67.167 148 81.5s91.667 21.5 143 21.5c72.667 0 142.334 -16.667 209.001 -50s116.5 -81.666 149.5 -144.999s49.5 -131.666 49.5 -204.999c0 -135.333 -55.833 -259.833 -167.5 -373.5s-254.5 -170.5 -428.5 -170.5
c-46.667 0 -85.167 4 -115.5 12s-63.166 21 -98.499 39z" />
    <glyph glyph-name="six" unicode="6" 
d="M864 1383v-12.001c-72.667 -15.333 -155.5 -51.666 -248.5 -108.999s-171.167 -134.333 -234.5 -231s-100 -213.334 -110 -350.001c22.667 16 48.667 35.333 78 58c38 28.667 65.833 48.334 83.5 59.001s41.334 20 71.001 28s63.834 12 102.501 12
c68.667 0 130.334 -15.167 185.001 -45.5s95.667 -75 123 -134s41 -127.833 41 -206.5c0 -111.333 -27 -204.5 -81 -279.5s-111.333 -128.667 -172 -161s-130.334 -48.5 -209.001 -48.5c-134 0 -238 50.167 -312 150.5s-111 230.833 -111 391.5
c0 106.667 15.5 209.167 46.5 307.5s78.167 187.333 141.5 267s144.166 150.5 242.499 212.5s195.166 104 290.499 126zM252 428.999c0 -66 9.5 -131.331 28.5 -195.998s49.5 -114.667 91.5 -150s91.333 -53 148 -53c48.667 0 93.667 13.667 135 41
s72.833 70.166 94.5 128.499s32.5 119.833 32.5 184.5s-10.667 122.5 -32 173.5s-52.333 90.667 -93 119s-88 42.5 -142 42.5c-40 0 -80 -9.66699 -120 -29s-70.833 -41.333 -92.5 -66s-35.5 -50.834 -41.5 -78.501s-9 -66.5 -9 -116.5z" />
    <glyph glyph-name="seven" unicode="7" 
d="M135 -8l-20.999 21l149 232l183 292l172 281l150 258l76 136l-10 10h-310c-78 0 -147.333 -1.33301 -208 -4s-96.334 -6.5 -107.001 -11.5s-18.167 -11.167 -22.5 -18.5s-9.16602 -32.666 -14.499 -75.999l-18 -141l-9 -8h-42l-9 8l5 274
c0 31.333 -1.66699 79.666 -5 144.999l20 10c36.667 -4 111.167 -8.33301 223.5 -13s187.5 -7 225.5 -7c135.333 0 283 4.66699 443 14l8 -8v-52l-144 -255l-299 -554.5c-112 -213.667 -193.667 -388.5 -245 -524.5l-10 -8c-38 3.33301 -66.667 5 -86 5
c-30.667 0 -62.334 -1.66699 -95.001 -5z" />
    <glyph glyph-name="eight" unicode="8" 
d="M336 709c-74 39.333 -130.166 84.501 -168.499 135.501s-57.5 112.833 -57.5 185.5c0 102 37.667 189.5 113 262.5s178 109.5 308 109.5c66 0 127.167 -11.5 183.5 -34.5s99.833 -57.333 130.5 -103s46 -96.5 46 -152.5c0 -58.667 -18 -114.834 -54 -168.501
s-99.667 -108.167 -191 -163.5v-9c78 -37.333 135.833 -69 173.5 -95s68.5 -61.167 92.5 -105.5s36 -95.5 36 -153.5c0 -79.333 -22.833 -155.5 -68.5 -228.5s-105.834 -128.5 -180.501 -166.5s-152 -57 -232 -57c-116.667 0 -213 32.667 -289 98s-114 152.333 -114 261
c0 88 26.167 163.833 78.5 227.5s116.833 113.167 193.5 148.5v9zM569.001 805.001c71.333 44.667 119.669 89.5 145.002 134.5s38 93.5 38 145.5c0 76.667 -22 137.334 -66 182.001s-103 67 -177 67c-70.667 0 -129.334 -19.833 -176.001 -59.5s-70 -95.167 -70 -166.5
c0 -54 15.167 -100.833 45.5 -140.5s117.166 -93.834 260.499 -162.501zM417.004 673.001c-78.667 -46.667 -133.333 -96.834 -164 -150.501s-46 -114.5 -46 -182.5c0 -95.333 26.667 -170.166 80 -224.499s122 -81.5 206 -81.5c57.333 0 109.333 13.333 156 40
s81.5 63.167 104.5 109.5s34.5 96.833 34.5 151.5c0 78.667 -27.5 140 -82.5 184s-151.167 95.333 -288.5 154z" />
    <glyph glyph-name="nine" unicode="9" 
d="M133 -8l0.000976562 18.998c185.333 42.667 331 124.167 437 244.5s165.667 267.5 179 441.5c-98 -116.667 -207.667 -175 -329 -175c-76.667 0 -143.5 18.333 -200.5 55s-99.167 84.334 -126.5 143.001s-41 127.334 -41 206.001c0 144.667 43.5 260.667 130.5 348
s194.833 131 323.5 131c130 0 235.167 -47 315.5 -141s120.5 -229.333 120.5 -406c0 -78 -7.33301 -152.833 -22 -224.5s-42.334 -145.167 -83.001 -220.5s-94.5 -145.333 -161.5 -210s-142.667 -118.5 -227 -161.5s-167.5 -70.167 -249.5 -81.5zM225.001 990.998
c0 -58 10.167 -114.832 30.5 -170.499s51.5 -98.667 93.5 -129s91.333 -45.5 148 -45.5c78.667 0 142 26.5 190 79.5s72 132.167 72 237.5c0 109.333 -23.667 198.833 -71 268.5s-112.333 104.5 -195 104.5c-79.333 0 -143.833 -29.333 -193.5 -88
s-74.5 -144.334 -74.5 -257.001z" />
    <glyph glyph-name="colon" unicode=":" horiz-adv-x="512" 
d="M256 928c32.667 0 60.665 -11.6689 83.998 -35.002s35 -51.666 35 -84.999c0 -32.667 -11.667 -60.667 -35 -84s-51.333 -35 -84 -35c-33.333 0 -61.666 11.667 -84.999 35s-35 51.333 -35 84c0 34.667 11.833 63.334 35.5 86.001s51.834 34 84.501 34zM255.998 220.998
c32 0 59.833 -11.3311 83.5 -33.998s35.5 -51.334 35.5 -86.001c0 -32.667 -11.667 -60.667 -35 -84s-51.333 -35 -84 -35c-33.333 0 -61.666 11.5 -84.999 34.5s-35 51.167 -35 84.5s11.667 61.666 35 84.999s51.666 35 84.999 35z" />
    <glyph glyph-name="semicolon" unicode=";" horiz-adv-x="512" 
d="M292 928c32.667 0 60.665 -11.832 83.998 -35.499s35 -51.834 35 -84.501s-11.667 -60.667 -35 -84s-51.333 -35 -84 -35c-33.333 0 -61.666 11.667 -84.999 35s-35 51.333 -35 84c0 34 11.833 62.5 35.5 85.5s51.834 34.5 84.501 34.5zM20.998 -289.999
c40.667 68 70.167 119.667 88.5 155s34.333 72.166 48 110.499s22.667 67.833 27 88.5s10.5 63.334 18.5 128.001c3.33301 0.666992 25.5 6 66.5 16s86.833 25 137.5 45l25 -29c-84.667 -197.333 -185 -364 -301 -500l-84 -37z" />
    <glyph glyph-name="less" unicode="&#x3c;" 
d="M994 116l-964 466v100l964 466v-126l-816 -390l816 -390v-126z" />
    <glyph glyph-name="equal" unicode="=" 
d="M994 728h-964v112h964v-112zM994 424h-964v112h964v-112z" />
    <glyph glyph-name="greater" unicode="&#x3e;" 
d="M994 582l-964 -466v126l816 390l-816 390v126l964 -466v-100z" />
    <glyph glyph-name="question" unicode="?" horiz-adv-x="909" 
d="M386 351c-54.667 42 -81.9971 92.002 -81.9971 150.002c0 39.333 9.66699 76.5 29 111.5s62.666 90.167 129.999 165.5c53.333 59.333 92.666 110.666 117.999 153.999s38 86.333 38 129c0 66 -24.333 120.833 -73 164.5s-108 65.5 -178 65.5c-39.333 0 -82 -9 -128 -27
c-18.667 -18 -35.334 -43 -50.001 -75l-38 -76l-12 -8l-44 5l-6 14l77 232c78 50.667 163 76 255 76c70.667 0 135.5 -12.833 194.5 -38.5s105.333 -63.834 139 -114.501s50.5 -107.667 50.5 -171c0 -42 -6.83301 -81.333 -20.5 -118s-33.667 -72.5 -60 -107.5
s-76.833 -85.833 -151.5 -152.5c-47.333 -42 -83.5 -76.333 -108.5 -103s-43.833 -52.5 -56.5 -77.5s-19 -47.833 -19 -68.5c0 -34.667 13.333 -66.667 40 -96l-2 -14l-26 -20h-16zM405.003 221.002c33.333 0 61.667 -11.668 85 -35.001s35 -51.666 35 -84.999
c0 -32.667 -11.667 -60.667 -35 -84s-51.666 -35 -84.999 -35c-32.667 0 -60.834 11.667 -84.501 35s-35.5 51.333 -35.5 84c0 34 12 62.5 36 85.5s52 34.5 84 34.5z" />
    <glyph glyph-name="at" unicode="@" horiz-adv-x="1399" 
d="M1144 183l8 -7.99805c-8 -15.333 -13 -31.333 -15 -48c-136.667 -112.667 -298.667 -169 -486 -169c-176 0 -320.5 55.667 -433.5 167s-169.5 253.333 -169.5 426c0 196 70.833 361.167 212.5 495.5s315.167 201.5 520.5 201.5c164.667 0 300.834 -44.667 408.501 -134
s161.5 -208 161.5 -356c0 -126.667 -39.667 -242.167 -119 -346.5s-167.333 -156.5 -264 -156.5c-44 0 -79.5 12.167 -106.5 36.5s-40.5 55.166 -40.5 92.499c0 8 0.666992 19 2 33l-11 2c-30 -50 -63.167 -88 -99.5 -114s-80.5 -39 -132.5 -39
c-68.667 0 -120.167 22.5 -154.5 67.5s-51.5 108.167 -51.5 189.5c0 116 35.5 223.833 106.5 323.5s162.167 149.5 273.5 149.5c76.667 0 128.667 -30.333 156 -91l13 70l106 23l11 -11c-17.333 -64.667 -41.166 -167.334 -71.499 -308.001s-45.5 -230 -45.5 -268
c0 -32 7.5 -56.333 22.5 -73s35.5 -25 61.5 -25c42 0 82.833 18.333 122.5 55s72.667 89.167 99 157.5s39.5 145.166 39.5 230.499c0 151.333 -46.667 263.166 -140 335.499s-207 108.5 -341 108.5c-99.333 0 -197.833 -24.833 -295.5 -74.5
s-176.834 -125.667 -237.501 -228s-91 -218.166 -91 -347.499c0 -101.333 20.167 -193.166 60.5 -275.499s99.666 -146.5 177.999 -192.5s171.5 -69 279.5 -69c91.333 0 177.833 16.167 259.5 48.5s149.5 72.833 203.5 121.5zM511 524.002
c0 -70.667 9.83105 -121.168 29.498 -151.501s47.834 -45.5 84.501 -45.5c22.667 0 43.167 5 61.5 15s36.833 26.167 55.5 48.5s38 55.333 58 99s37.833 99.334 53.5 167.001s23.5 120.5 23.5 158.5c0 40 -9.66699 72.333 -29 97s-47 37 -83 37
c-40 0 -78.167 -17.5 -114.5 -52.5s-68.666 -88.667 -96.999 -161s-42.5 -142.833 -42.5 -211.5z" />
    <glyph glyph-name="A" unicode="A" horiz-adv-x="1593" 
d="M44 -8l-8.99902 8v52l9 8c48.667 0.666992 80 3.16699 94 7.5s26.5 13 37.5 26s33.167 55.5 66.5 127.5l105 228l272 616l153 362h65l427 -1004l57 -134c16.667 -38 35.834 -79.333 57.501 -124s36.667 -71 45 -79s18.666 -14.167 30.999 -18.5
s39.833 -6.83301 82.5 -7.5l8 -8v-52l-8 -8c-70.667 6 -134.334 9 -191.001 9c-110.667 -3.33301 -221.334 -6.33301 -332.001 -9l-8 8v52l8 8c74.667 1.33301 121.334 4.5 140.001 9.5s28 16.5 28 34.5c0 14.667 -4.66699 34 -14 58l-123 305h-579l-109 -256
c-19.333 -46 -29 -79.667 -29 -101c0 -16.667 9 -29 27 -37s63.333 -12.333 136 -13l9 -8v-52l-8 -8c-86 5.33301 -161.333 8 -226 8c-73.333 -0 -147.333 -2.66699 -222 -8zM500.001 553h506l-251 603zM780.001 -60z" />
    <glyph glyph-name="B" unicode="B" horiz-adv-x="1251" 
d="M36 1349l-8 7v50l8 7c114 -5.33301 202 -8 264 -8c23.333 0 115.666 2.66699 276.999 8c52 1.33301 89.667 2 113 2c90 0 161.333 -9 214 -27s95 -49.833 127 -95.5s48 -97.5 48 -155.5c0 -74 -26.667 -142.667 -80 -206s-140 -108.666 -260 -135.999
c72 -6.66699 131.333 -16.334 178 -29.001s87 -32.167 121 -58.5s60.833 -60.5 80.5 -102.5s29.5 -90.667 29.5 -146c0 -43.333 -6.66699 -87.333 -20 -132s-37.833 -89 -73.5 -133s-78.834 -81.667 -129.501 -113s-102.5 -54 -155.5 -68s-118.833 -21 -197.5 -21
c-16 0 -64 1.66699 -144 5c-88.667 2 -136.667 3 -144 3c-45.333 -0 -101 -2.66699 -167 -8l-8 8v33l8 10c38.667 17.333 61 29.333 67 36s10.833 65.667 14.5 177s5.5 196.333 5.5 255v367l-1 227c0 49.333 -0.666992 89.5 -2 120.5s-3.16602 53.167 -5.49902 66.5
s-6.16602 22.666 -11.499 27.999s-12.833 9.83301 -22.5 13.5s-26.167 6.83398 -49.5 9.50098zM395 824c33.333 -2.66699 71 -4 113 -4c138 0 234 24.667 288 74s81 117 81 203c0 50 -10.333 92.5 -31 127.5s-53.167 61.833 -97.5 80.5s-104.5 28 -180.5 28
c-62 0 -116.667 -5 -164 -15c-6 -60 -9 -164.667 -9 -314v-180zM397 95c51.333 -12 104 -18 158 -18c95.333 0 170 15.333 224 46s93.833 73.167 119.5 127.5s38.5 113.5 38.5 177.5c0 96 -27.167 172.833 -81.5 230.5s-171.833 86.5 -352.5 86.5
c-30 0 -66 -1.33301 -108 -4v-341z" />
    <glyph glyph-name="C" unicode="C" horiz-adv-x="1452" 
d="M1395 169l-38.002 -93.002c-148 -75.333 -306 -113 -474 -113c-240.667 0 -436.167 68.333 -586.5 205s-225.5 315.334 -225.5 536.001c0 152 37.5 284.833 112.5 398.5s174 198.667 297 255s261.167 84.5 414.5 84.5c88.667 0 176.334 -9.33301 263.001 -28
s159 -41 217 -67l7 -10c-15.333 -37.333 -29.666 -129.666 -42.999 -276.999l-7 -8h-47l-8 8l-10 170c-48.667 38.667 -107.5 68.834 -176.5 90.501s-140.833 32.5 -215.5 32.5c-112.667 0 -213.667 -24.167 -303 -72.5s-158.666 -118.333 -207.999 -210
s-74 -203.834 -74 -336.501c0 -133.333 29 -250.333 87 -351s137.167 -178 237.5 -232s217.5 -81 351.5 -81c59.333 0 116.333 5.66699 171 17s100.167 25.333 136.5 42s71.166 37 104.499 61z" />
    <glyph glyph-name="D" unicode="D" horiz-adv-x="1585" 
d="M30 1406l8 7.00195c115.333 -5.33301 194 -8 236 -8l468 10c133.333 0 242.666 -12.5 327.999 -37.5s161.166 -68.333 227.499 -130s116.666 -133.334 150.999 -215.001s51.5 -168.834 51.5 -261.501c0 -90 -15.667 -179 -47 -267s-75.833 -166.833 -133.5 -236.5
s-123.334 -125.834 -197.001 -168.501s-147.5 -71.167 -221.5 -85.5s-149.667 -21.5 -227 -21.5c-52 0 -150 2 -294 6c-47.333 1.33301 -78.666 2 -93.999 2c-46 0 -101.667 -2.66699 -167 -8l-8 8v33l8 10c39.333 20 61.833 32.5 67.5 37.5s10.334 63.333 14.001 175
s5.5 196.834 5.5 255.501v367l-1 227c0 49.333 -0.666992 89.5 -2 120.5s-3.66602 53.167 -6.99902 66.5s-7.16602 22.666 -11.499 27.999s-11.333 9.83301 -21 13.5s-26.167 6.83398 -49.5 9.50098l-76 6l-8 7v50zM400 101.002c68 -13.333 146.334 -20.001 235.001 -20.001
c155.333 0 279.5 26 372.5 78s162.5 129 208.5 231s69 217 69 345c0 188.667 -50.333 335 -151 439s-259.334 156 -476.001 156c-89.333 0 -175.333 -6.66699 -258 -20c-5.33301 -109.333 -8 -232.666 -8 -369.999v-314l2 -294c0 -57.333 2 -134.333 6 -231z" />
    <glyph glyph-name="E" unicode="E" horiz-adv-x="1251" 
d="M73 1406l7.99512 7c228.667 -4 375 -6 439 -6c218.667 0 413.334 2 584.001 6l5 -7c-16.667 -64 -29 -164.333 -37 -301l-6 -8h-49l-9 8c0.666992 6 1 11.333 1 16c0 56.667 -4.33301 110.667 -13 162c-42 18.667 -100.167 30.834 -174.5 36.501
s-130.166 8.5 -167.499 8.5c-52.667 0 -120 -3.66699 -202 -11l-4 -160l-3 -183l-3 -203c72 -4 138.333 -6 199 -6c61.333 0 112.666 2 153.999 6s65.5 8.16699 72.5 12.5s12.333 12.666 16 24.999s6.83398 34.166 9.50098 65.499l4 62l8 8h46l8 -8
c-1.33301 -72.667 -3 -145.667 -5 -219l5 -225l-8 -8h-46l-8 8l-7 60c-6 46.667 -10.333 74.5 -13 83.5s-8.83398 16.833 -18.501 23.5s-34.5 12 -74.5 16s-95 6 -165 6c-38.667 0 -97.667 -1.66699 -177 -5c-3.33301 -56 -5 -149.333 -5 -280c0 -140 1.66699 -243 5 -309
h184c162 0 263.333 2 304 6s79.334 13.667 116.001 29c6 15.333 15.833 50.833 29.5 106.5s21.5 90.5 23.5 104.5l10 7h48l8 -7c-6 -28.667 -11.833 -78.667 -17.5 -150s-8.5 -132.333 -8.5 -183l-7 -8c-127.333 4 -294 6 -500 6l-272 2
c-63.333 0 -129.333 -2.66699 -198 -8l-8 8v33l8 10c39.333 20 61.833 32.5 67.5 37.5s10.334 63.333 14.001 175s5.5 196.834 5.5 255.501v367l-1 227c0 49.333 -0.666992 89.5 -2 120.5s-3.66602 53.167 -6.99902 66.5s-7.16602 22.666 -11.499 27.999
s-11.333 9.83301 -21 13.5s-26.167 6.83398 -49.5 9.50098l-76 6l-8 7v50zM639.995 -60z" />
    <glyph glyph-name="F" unicode="F" horiz-adv-x="1139" 
d="M436 674l-0.00195312 -203.003l1 -195c0.666992 -72.667 2.66699 -120.834 6 -144.501s8.16602 -39 14.499 -46s18.5 -13 36.5 -18s62.333 -8.83301 133 -11.5l8 -6v-50l-8 -8c-169.333 5.33301 -265 8 -287 8c-21.333 0 -116.666 -2.66699 -285.999 -8l-8 8v50l8 6
c62.667 2.66699 104.167 6 124.5 10s34 9.33301 41 16s12.667 20 17 40s6.83301 65.333 7.5 136l1 213v463l-2 195c-0.666992 76 -2.5 125 -5.5 147s-7.66699 36.667 -14 44s-18.5 13.333 -36.5 18s-62.333 8.33398 -133 11.001l-8 7v50l8 7c282.667 -4 447.667 -6 495 -6
c158.667 0 321.334 2 488.001 6l8 -7c-10.667 -33.333 -17.667 -71.166 -21 -113.499s-7 -102.166 -11 -179.499l-8 -8h-47l-7 8c-1.33301 4.66699 -4.33301 30.334 -9 77.001c-3.33301 36.667 -8.66602 70.334 -15.999 101.001c-69.333 23.333 -165 35 -287 35
c-54.667 0 -118.667 -4 -192 -12c-7.33301 -52 -11 -178.667 -11 -380v-173c84.667 -1.33301 142.334 -2 173.001 -2c56.667 0 105.334 2.16699 146.001 6.5s65 8.5 73 12.5s14.167 11.5 18.5 22.5s8.5 35.167 12.5 72.5l6 54l7 8h51l8 -9l-7 -219c0 -25.333 1 -62 3 -110
c2.66699 -54.667 4 -97 4 -127l-9 -8h-50l-7 8l-4 85c-2 33.333 -5.33301 57.666 -10 72.999s-12.334 25.333 -23.001 30s-34.334 9 -71.001 13s-93 6 -169 6c-67.333 0 -118 -1 -152 -3z" />
    <glyph glyph-name="G" unicode="G" horiz-adv-x="1563" 
d="M1498 545l-0.000976562 -29.9971l-4 -12l-49 -29c-12 -7.33301 -19 -13 -21 -17s-4.5 -23.833 -7.5 -59.5s-4.5 -79.167 -4.5 -130.5c0 -58 3.66699 -121 11 -189l-6 -10c-182.667 -70 -370.334 -105 -563.001 -105c-148 0 -281.667 28 -401 84s-214 139 -284 249
s-105 240.667 -105 392c0 230.667 78.833 414 236.5 550s363.5 204 617.5 204c186.667 0 354.334 -31.667 503.001 -95l7 -11c-12 -44.667 -26 -138.334 -42 -281.001l-8 -7h-46l-8 8l-5 106c-2 34.667 -4.16699 55 -6.5 61s-9.5 13.833 -21.5 23.5s-42.833 25 -92.5 46
s-99.5 36.333 -149.5 46s-103.667 14.5 -161 14.5c-122 0 -230 -25.333 -324 -76s-164.833 -124.5 -212.5 -221.5s-71.5 -204.833 -71.5 -323.5c0 -122.667 25.667 -236.834 77 -342.501s125 -188.167 221 -247.5s207.667 -89 335 -89c55.333 0 111.833 5.5 169.5 16.5
s105.167 26.5 142.5 46.5c6 21.333 9 64.333 9 129v111c0 52.667 -3.33301 85.5 -10 98.5s-23.167 22.167 -49.5 27.5s-83.166 8.66602 -170.499 9.99902l-9 9v44l9 9l61 -2c104.667 -3.33301 190 -5 256 -5c38 0 93.667 2 167 6z" />
    <glyph glyph-name="H" unicode="H" horiz-adv-x="1704" 
d="M59 1413c170 -5.33301 265.329 -8.00195 285.996 -8.00195c22 0 117.667 2.66699 287 8l8 -7v-50l-8 -7c-46 -1.33301 -81.5 -3.33301 -106.5 -6s-43.167 -7.66699 -54.5 -15s-18.833 -24.5 -22.5 -51.5s-5.5 -64.5 -5.5 -112.5l-2 -230v-140c146 -4 284.333 -6 415 -6
c178.667 0 314.667 2 408 6v140l-2 195c-0.666992 76 -2.66699 125 -6 147s-8 36.667 -14 44s-18 13.333 -36 18s-62.667 8.33398 -134 11.001l-7 7v50l7 7c170.667 -5.33301 266.334 -8 287.001 -8c22.667 0 118.334 2.66699 287.001 8l8 -7v-50l-8 -7
c-46.667 -1.33301 -82.5 -3.33301 -107.5 -6s-43.167 -7.66699 -54.5 -15s-18.666 -24.5 -21.999 -51.5s-5.33301 -64.5 -6 -112.5l-2 -230v-463l2 -195c0.666992 -75.333 2.66699 -124 6 -146s8.16602 -36.667 14.499 -44s18.333 -13.5 36 -18.5
s62.167 -8.83301 133.5 -11.5l8 -6v-50l-8 -8c-170.667 5.33301 -266.334 8 -287.001 8c-21.333 0 -117 -2.66699 -287 -8l-7 8v50l7 6c62.667 2.66699 104.334 6 125.001 10s34.334 9.16699 41.001 15.5s12.334 19.833 17.001 40.5s7 66.667 7 138l2 211v228
c-197.333 4 -335.666 6 -414.999 6c-81.333 0 -217.333 -2 -408 -6v-228l1 -195c0.666992 -75.333 2.66699 -124 6 -146s8.16602 -36.667 14.499 -44s18.5 -13.5 36.5 -18.5s62.333 -8.83301 133 -11.5l8 -6v-50l-8 -8c-170 5.33301 -265.667 8 -287 8
c-20.667 0 -116 -2.66699 -286 -8l-8 8v50l8 6c62 2.66699 103.333 6 124 10s34.5 9.16699 41.5 15.5s12.667 19.833 17 40.5s6.83301 66.667 7.5 138l1 211v463l-2 195c-0.666992 76 -2.5 125 -5.5 147s-7.66699 36.667 -14 44s-18.5 13.333 -36.5 18
s-62.333 8.33398 -133 11.001l-8 7v50z" />
    <glyph glyph-name="I" unicode="I" horiz-adv-x="690" 
d="M59 1413l125 -4.00098c82 -2.66699 135.667 -4 161 -4c22.667 0 118.334 2.66699 287.001 8l8 -7v-50l-8 -7c-46 -1.33301 -81.5 -3.33301 -106.5 -6s-43.167 -7.66699 -54.5 -15s-18.833 -24.5 -22.5 -51.5s-5.5 -64.5 -5.5 -112.5l-2 -230v-463l1 -195
c0.666992 -75.333 2.66699 -124 6 -146s8.16602 -36.667 14.499 -44s18.5 -13.5 36.5 -18.5s62.333 -8.83301 133 -11.5l8 -6v-50l-8 -8c-3.33301 0 -62 2 -176 6c-47.333 1.33301 -84.333 2 -111 2c-20.667 0 -116 -2.66699 -286 -8l-8 8v50l8 6
c62 2.66699 103.333 6 124 10s34.5 9.16699 41.5 15.5s12.667 19.833 17 40.5s6.83301 66.667 7.5 138l1 211v463l-2 195c-0.666992 76 -2.5 125 -5.5 147s-7.66699 36.667 -14 44s-18.5 13.333 -36.5 18s-62.333 8.33398 -133 11.001l-8 7v50zM345 -60.001z" />
    <glyph glyph-name="J" unicode="J" horiz-adv-x="682" 
d="M635 1406l0.000976562 -50.0029l-7 -7c-46.667 -1.33301 -82.5 -3.33301 -107.5 -6s-43.167 -7.66699 -54.5 -15s-18.833 -24.5 -22.5 -51.5s-5.5 -64.5 -5.5 -112.5l-2 -230v-718c0 -105.333 -9.33301 -191.5 -28 -258.5s-51.334 -129 -98.001 -186
s-94.834 -99.333 -144.501 -127s-98.834 -41.5 -147.501 -41.5c-14 0 -28 1.66699 -42 5c1.33301 26.667 2.33301 53.334 3 80.001c0 16.667 -1 41.334 -3 74.001l19 13c34 -25.333 69.667 -38 107 -38c32.667 0 59.5 6.16699 80.5 18.5s35.833 29 44.5 50s14 59.5 16 115.5
s3 104 3 144v869l-2 195c-0.666992 76 -2.66699 125 -6 147s-8.16602 36.667 -14.499 44s-18.333 13.333 -36 18s-62.167 8.33398 -133.5 11.001l-7 7v50l7 7c168.667 -5.33301 264.334 -8 287.001 -8c23.333 0 119 2.66699 287 8z" />
    <glyph glyph-name="K" unicode="K" horiz-adv-x="1487" 
d="M441 724c167.333 151.333 288.168 264.166 362.501 338.499l184 184c48.333 48.333 77.166 79.5 86.499 93.5v65l10 8c50.667 -2.66699 106 -4 166 -4c13.333 0 66 1 158 3l10 -9v-47l-8 -8c-62 0 -104.333 -3.5 -127 -10.5s-55.834 -28.333 -99.501 -64
s-93.834 -79.5 -150.501 -131.5l-405 -370l602 -557c96.667 -90 150.834 -139 162.501 -147s35.834 -12.667 72.501 -14l7 -8v-42l-7 -8c-38.667 2.66699 -78.667 4 -120 4c-24.667 0 -78.667 -1.33301 -162 -4l-159.5 152l-582.5 536v-213l1 -195
c0.666992 -75.333 2.66699 -124 6 -146s8.16602 -36.667 14.499 -44s18.5 -13.5 36.5 -18.5s62.333 -8.83301 133 -11.5l8 -6v-50l-8 -8c-3.33301 0 -62 2 -176 6c-47.333 1.33301 -84.333 2 -111 2c-20.667 0 -116 -2.66699 -286 -8l-8 8v50l8 6
c62 2.66699 103.333 6 124 10s34.5 9.16699 41.5 15.5s12.667 19.833 17 40.5s6.83301 66.667 7.5 138l1 211v463l-2 195c-0.666992 76 -2.5 125 -5.5 147s-7.66699 36.667 -14 44s-18.5 13.333 -36.5 18s-62.333 8.33398 -133 11.001l-8 7v50l8 7l125 -4
c82 -2.66699 135.667 -4 161 -4c22.667 0 118.334 2.66699 287.001 8l8 -7v-50l-8 -7c-46 -1.33301 -81.5 -3.33301 -106.5 -6s-43.167 -7.66699 -54.5 -15s-18.833 -24.5 -22.5 -51.5s-5.5 -64.5 -5.5 -112.5l-2 -230v-210z" />
    <glyph glyph-name="L" unicode="L" horiz-adv-x="1251" 
d="M37 1406l8 7c165.333 -5.33301 260.666 -8 285.999 -8c22.667 0 118.334 2.66699 287.001 8l8 -7v-50l-8 -7c-46 -1.33301 -81.5 -3.33301 -106.5 -6s-43.167 -7.66699 -54.5 -15s-18.833 -24.5 -22.5 -51.5s-5.5 -64.5 -5.5 -112.5l-2 -230v-442
c0 -110.667 0.666992 -188 2 -232l5 -173h204c162.667 0 264.167 2 304.5 6s79.166 13.667 116.499 29c7.33301 16.667 17.833 55 31.5 115s20.834 94.667 21.501 104l9 8h49l7 -8c-5.33301 -26.667 -10.833 -78.334 -16.5 -155.001s-8.5 -138.667 -8.5 -186l-8 -8
c-126.667 4 -293 6 -499 6l-292 2c-66.667 0 -134.667 -2.66699 -204 -8l-8 8v33l8 10c41.333 21.333 64 34.333 68 39s8.16699 47.667 12.5 129s6.5 179.333 6.5 294v429l-2 195c-0.666992 76 -2.5 125 -5.5 147s-7.66699 36.667 -14 44s-18.5 13.333 -36.5 18
s-62.333 8.33398 -133 11.001l-8 7v50z" />
    <glyph glyph-name="M" unicode="M" horiz-adv-x="1937" 
d="M1881 1410l9.00195 -8.00195v-49l-8 -7c-73.333 -2 -118.833 -5.66699 -136.5 -11s-30.167 -14.166 -37.5 -26.499s-11.5 -36.5 -12.5 -72.5s-2.83301 -137.667 -5.5 -305v-461c0 -66.667 1 -142 3 -226s6.16699 -132.833 12.5 -146.5s17.833 -23.667 34.5 -30
s64 -10.5 142 -12.5l8 -7v-49l-9 -8c-108.667 6 -203.334 9 -284.001 9c-54.667 0 -147.667 -3 -279 -9l-9 8v48l8 8c73.333 2 118.833 5.66699 136.5 11s30.167 14.166 37.5 26.499s11.666 36.833 12.999 73.5s3 138 5 304v734l-345 -722
c-86.667 -180.667 -162.334 -350.667 -227.001 -510h-39l-92 206l-478 993v-699c0 -65.333 0.833008 -140.5 2.5 -225.5s5.83398 -134.167 12.501 -147.5s18.334 -23.333 35.001 -30s64 -10.667 142 -12l8 -8v-48l-9 -9l-64 3c-66 3.33301 -122.667 5 -170 5
c-21.333 0 -101 -2.66699 -239 -8l-8 8v48l8 9c73.333 1.33301 118.666 4.66602 135.999 9.99902s29.833 14.333 37.5 27s12 36.334 13 71.001s2.5 137 4.5 307v458c0 60.667 -0.833008 134.5 -2.5 221.5s-5.66699 137.333 -12 151s-17.833 23.834 -34.5 30.501
s-64 10.667 -142 12l-8 8v48l9 9c46 -3.33301 108 -5 186 -5c73.333 0 137.333 1.66699 192 5c56 -129.333 109.667 -246.333 161 -351l379 -778l342 713c92.667 192.667 155 331.334 187 416.001c64 -3.33301 127 -5 189 -5c56 0 122 1.66699 198 5z" />
    <glyph glyph-name="N" unicode="N" horiz-adv-x="1702" 
d="M66 -7l-9.00098 9v46l9 8c40.667 0.666992 73.167 3 97.5 7s40 10.667 47 20s11.667 24.333 14 45s4.66602 67.334 6.99902 140.001s3.5 124.667 3.5 156v808c0 34 -6.16699 59.167 -18.5 75.5s-29.166 26.666 -50.499 30.999s-57.666 6.83301 -108.999 7.5l-8 8v47l8 9
c92 -3.33301 152.333 -5 181 -5c67.333 0 122.666 1.66699 165.999 5l319 -414l469 -588c56.667 -71.333 114.334 -139 173.001 -203v774c0 24 -1.16699 75.167 -3.5 153.5s-5.16602 128 -8.49902 149s-9.16602 35.167 -17.499 42.5s-24 12.833 -47 16.5
s-54.167 5.83398 -93.5 6.50098l-8 8v46l8 9c54 -3.33301 131 -5 231 -5c91.333 0 157.666 1.66699 198.999 5l9 -9v-46l-8 -8c-44 -0.666992 -78 -3.16699 -102 -7.5s-39 -11.5 -45 -21.5s-10.167 -24.667 -12.5 -44s-4.66602 -65.333 -6.99902 -138s-3.5 -125 -3.5 -157
v-475l1 -275l4 -271c-33.333 11.333 -91 25.333 -173 42l-71 84l-213 260l-678 847v-767c0 -30.667 1.16699 -85.334 3.5 -164.001s5.16602 -126.334 8.49902 -143.001s7.66602 -28.167 12.999 -34.5s16.833 -12.166 34.5 -17.499s54.167 -8.33301 109.5 -9l8 -8v-47l-8 -8
c-34.667 4.66699 -90.667 7 -168 7c-99.333 0 -186.333 -2.33301 -261 -7z" />
    <glyph glyph-name="O" unicode="O" horiz-adv-x="1610" 
d="M48 689c0 100 14.332 193.332 42.999 279.999s77.5 166.834 146.5 240.501s152.167 130.667 249.5 171s207.333 60.5 330 60.5c227.333 0 408.333 -61.833 543 -185.5s202 -292.5 202 -506.5c0 -150.667 -33 -286 -99 -406s-160.5 -213.333 -283.5 -280
s-261.167 -100 -414.5 -100c-108.667 0 -208.667 18.167 -300 54.5s-169.166 90.5 -233.499 162.5s-111 155.333 -140 250s-43.5 181 -43.5 259zM255.999 754.999c0 -81.333 13.1699 -168.834 39.5029 -262.501s65.666 -174 117.999 -241s112.666 -116.833 180.999 -149.5
s146.166 -49 233.499 -49c103.333 0 195.333 23.667 276 71s142 120.833 184 220.5s63 211.5 63 335.5c0 134.667 -24 256.334 -72 365.001s-116.333 187.667 -205 237s-187 74 -295 74c-162 0 -289.667 -50.667 -383 -152s-140 -251 -140 -449zM795.002 -60.002z" />
    <glyph glyph-name="P" unicode="P" horiz-adv-x="1237" 
d="M59 1413c168 -5.33301 275.001 -8.00195 321.001 -8.00195c62.667 0 133 1.66699 211 5c82.667 2.66699 133.667 4 153 4c93.333 0 170.5 -9.66699 231.5 -29s111.5 -54.666 151.5 -105.999s60 -113.333 60 -186c0 -60 -14 -118 -42 -174s-67 -103.667 -117 -143
s-100.667 -67.5 -152 -84.5s-104.666 -25.5 -159.999 -25.5c-41.333 0 -87.333 4.66699 -138 14l-17 61l9 10c50 -11.333 90.667 -17 122 -17c87.333 0 157.5 28.833 210.5 86.5s79.5 131.5 79.5 221.5c0 90.667 -27.5 163 -82.5 217s-138.167 81 -249.5 81
c-60.667 0 -127.334 -11.333 -200.001 -34c-6 -51.333 -9 -175.333 -9 -372v-463l1 -195c0.666992 -75.333 2.66699 -124 6 -146s8.16602 -36.667 14.499 -44s18.5 -13.5 36.5 -18.5s62.333 -8.83301 133 -11.5l8 -6v-50l-8 -8c-170 5.33301 -265.667 8 -287 8
c-22.667 0 -118 -2.66699 -286 -8l-8 8v50l8 6c62 2.66699 103.333 6 124 10s34.5 9.16699 41.5 15.5s12.667 19.833 17 40.5s6.83301 66.667 7.5 138l1 211v463l-2 195c-0.666992 76 -2.5 125 -5.5 147s-7.66699 36.667 -14 44s-18.5 13.333 -36.5 18
s-62.333 8.33398 -133 11.001l-8 7v50z" />
    <glyph glyph-name="Q" unicode="Q" horiz-adv-x="1610" 
d="M541 -252l0.000976562 46.001l6 12c106 82 190.667 134.333 254 157c-175.333 0 -314.833 29.5 -418.5 88.5s-185.334 147.167 -245.001 264.5s-89.5 246.666 -89.5 387.999c0 216 71.5 392.833 214.5 530.5s327.833 206.5 554.5 206.5c147.333 0 277.333 -27 390 -81
s200 -133.333 262 -238s93 -228.667 93 -372c0 -61.333 -6.83301 -126 -20.5 -194s-39.834 -137.667 -78.501 -209s-88.834 -134 -150.501 -188s-135 -98.667 -220 -134s-174.833 -56 -269.5 -62c56 -8 129.667 -30.333 221 -67c115.333 -46 201.5 -76.833 258.5 -92.5
s106.167 -23.5 147.5 -23.5c27.333 0 60.333 6 99 18l10 -7v-34l-4 -10c-9.33301 -7.33301 -24 -16.333 -44 -27c-57.333 -32.667 -95.333 -58.667 -114 -78c-11.333 0 -35.333 2.66699 -72 8s-73.667 13.5 -111 24.5s-95.666 30.167 -174.999 57.5
c-169.333 58 -273.666 87 -312.999 87c-17.333 0 -34.833 -3.5 -52.5 -10.5s-42.167 -19.833 -73.5 -38.5l-49 -28zM256.001 755.001c0 -81.333 13.1699 -168.834 39.5029 -262.501s65.666 -174 117.999 -241s112.666 -116.833 180.999 -149.5s146.166 -49 233.499 -49
c103.333 0 195.333 23.667 276 71s142 120.833 184 220.5s63 211.5 63 335.5c0 134.667 -24 256.334 -72 365.001s-116.333 187.667 -205 237s-187 74 -295 74c-162 0 -289.667 -50.667 -383 -152s-140 -251 -140 -449z" />
    <glyph glyph-name="R" unicode="R" horiz-adv-x="1368" 
d="M42 1406l8.00195 6.99805c122 -5.33301 217 -8 285 -8c75.333 0 177 2.33301 305 7c47.333 1.33301 81.666 2 102.999 2c168.667 0 283 -30.667 343 -92s90 -134 90 -218c0 -56 -14.667 -111 -44 -165s-72.666 -100.167 -129.999 -138.5s-136.333 -67.166 -237 -86.499
l101 -135l142 -188l148 -196.5c52.667 -69 86.667 -108 102 -117s28.5 -14.5 39.5 -16.5s28.5 -3 52.5 -3l8 -8v-47l-9 -9c-32 4 -70 6 -114 6c-47.333 0 -99 -2 -155 -6c-46 56 -118.333 153 -217 291c-114.667 160 -232 308.333 -352 445l10 31c34.667 -2 61.667 -3 81 -3
c115.333 0 205.666 27.667 270.999 83s98 132 98 230c0 88 -29.333 154.5 -88 199.5s-138 67.5 -238 67.5c-70 0 -136 -9.66699 -198 -29c-10 -14.667 -15 -139.667 -15 -375v-463l1 -195c0.666992 -75.333 2.66699 -124 6 -146s8.16602 -36.667 14.499 -44
s18.5 -13.5 36.5 -18.5s62.333 -8.83301 133 -11.5l8 -6v-50l-8 -8c-3.33301 0 -62 2 -176 6c-47.333 1.33301 -84.333 2 -111 2c-20.667 0 -116 -2.66699 -286 -8l-8 8v50l8 6c62 2.66699 103.333 6 124 10s34.5 9.16699 41.5 15.5s12.667 19.833 17 40.5
s6.83301 66.667 7.5 138l1 211v463l-2 195c-0.666992 76 -2.5 125 -5.5 147s-7.66699 36.667 -14 44s-18.5 13.333 -36.5 18s-62.333 8.33398 -133 11.001l-8 7v50z" />
    <glyph glyph-name="S" unicode="S" horiz-adv-x="1075" 
d="M79 344l8.00684 7.99805h49l8 -8c3.33301 -85.333 7.83301 -137.5 13.5 -156.5s23.667 -39 54 -60s70.666 -38.167 120.999 -51.5s101.166 -20 152.499 -20c70.667 0 134.167 13 190.5 39s100.166 64.167 131.499 114.5s47 106.833 47 169.5c0 44 -7.5 82.333 -22.5 115
s-36 58.834 -63 78.501s-57.833 34.334 -92.5 44.001s-86.334 20.167 -155.001 31.5c-66.667 10.667 -118.834 20.334 -156.501 29.001s-75.167 22 -112.5 40s-68.5 40.833 -93.5 68.5s-45 61.667 -60 102s-22.5 83.5 -22.5 129.5c0 124.667 43.333 226.834 130 306.501
s203 119.5 349 119.5c58 0 121.167 -7.16699 189.5 -21.5s130.5 -35.5 186.5 -63.5l7 -12c-14.667 -61.333 -23.667 -148.666 -27 -261.999l-9 -8h-52l-8 7c-1.33301 80 -3.33301 130.333 -6 151s-33 46.334 -91 77.001s-121 46 -189 46
c-56.667 0 -109.667 -11.333 -159 -34s-86.666 -58.334 -111.999 -107.001s-38 -98.334 -38 -149.001c0 -39.333 7.66699 -74.166 23 -104.499s35.166 -54.333 59.499 -72s52.666 -30.834 84.999 -39.501s91.5 -19.334 177.5 -32.001
c118 -16.667 203.833 -36.834 257.5 -60.501s96.667 -61.167 129 -112.5s48.5 -113.333 48.5 -186c0 -142 -57.833 -260.333 -173.5 -355s-255.834 -142 -420.501 -142c-138 0 -259 24.667 -363 74l-6 13c6.66699 42 11.667 140 15 294z" />
    <glyph glyph-name="T" unicode="T" horiz-adv-x="1255" 
d="M1207 1413l9.00195 -9.00195c-6 -60 -9 -164.667 -9 -314l-8 -8h-47l-8 9l-11 92c-5.33301 49.333 -9.5 79.5 -12.5 90.5s-7.83301 19 -14.5 24s-28.334 9.16699 -65.001 12.5s-77.667 5 -123 5h-189c-5.33301 -150.667 -8 -237.667 -8 -261v-583l2 -195
c0.666992 -75.333 2.5 -124.166 5.5 -146.499s7.66699 -37 14 -44s18.5 -13 36.5 -18s62.667 -8.83301 134 -11.5l7 -6v-50l-7 -8c-170.667 5.33301 -266 8 -286 8c-21.333 0 -116.333 -2.66699 -285 -8l-8 8v50l8 6c62.667 2.66699 104.167 6 124.5 10s34 9.16699 41 15.5
s12.833 19.833 17.5 40.5s7 66.667 7 138l2 211v583c0 10.667 -2.66699 97.667 -8 261h-149c-61.333 0 -114.333 -1.33301 -159 -4s-70.5 -9.5 -77.5 -20.5s-13.5 -46.833 -19.5 -107.5l-10 -92l-9 -9h-46l-8 8c-1.33301 160.667 -4.33301 265.334 -9 314.001l9 9
c116 -5.33301 309 -8 579 -8c275.333 0 468.666 2.66699 579.999 8z" />
    <glyph glyph-name="U" unicode="U" horiz-adv-x="1593" 
d="M30 1406l8 6.99609c165.333 -5.33301 260.666 -8 285.999 -8c22.667 0 118.334 2.66699 287.001 8l8 -7v-50l-8 -7c-46 -1.33301 -81.5 -3.33301 -106.5 -6s-43.167 -7.66699 -54.5 -15s-18.833 -24.5 -22.5 -51.5s-5.5 -64.5 -5.5 -112.5l-2 -230v-318
c0 -104.667 2.16699 -181.5 6.5 -230.5s13.666 -90.333 27.999 -124s36.166 -62.667 65.499 -87s71.333 -44.166 126 -59.499s116.667 -23 186 -23c73.333 0 141.833 10.167 205.5 30.5s112.167 49.833 145.5 88.5s55.166 89.5 65.499 152.5s15.5 150.5 15.5 262.5v308
c0 52 -0.833008 123.5 -2.5 214.5s-5.66699 143.333 -12 157s-18 24 -35 31s-64.167 11.167 -141.5 12.5l-8 8v47l8 9c98.667 -5.33301 177.667 -8 237 -8c50.667 0 129.334 2.66699 236.001 8l9 -8v-48l-9 -8c-62.667 -1.33301 -103.5 -3.83301 -122.5 -7.5
s-32.333 -9.16699 -40 -16.5s-13.334 -18.666 -17.001 -33.999s-6.16699 -59.333 -7.5 -132l-3 -225v-304c0 -121.333 -4.66699 -217 -14 -287s-30.166 -127.5 -62.499 -172.5s-70.666 -82.667 -114.999 -113s-101.166 -53.666 -170.499 -69.999s-141.333 -24.5 -216 -24.5
c-93.333 0 -175.833 10.333 -247.5 31s-128.167 48 -169.5 82s-71 69.833 -89 107.5s-29.667 82 -35 133s-8 128.833 -8 233.5v384l-2 195c-0.666992 76 -2.5 125 -5.5 147s-7.66699 36.667 -14 44s-18.5 13.333 -36.5 18s-62.333 8.33398 -133 11.001l-8 7v50z
M805 -60.0039z" />
    <glyph glyph-name="V" unicode="V" horiz-adv-x="1479" 
d="M688 -18c-10 29.333 -51.667 141.33 -125 335.997l-340 841c-38.667 96 -63 150.5 -73 163.5s-50 21.833 -120 26.5l-9 9v46l9 9c102 -5.33301 188.667 -8 260 -8c66.667 0 155 2.66699 265 8l8 -8v-55l-8 -8c-80.667 0 -128.834 -2.5 -144.501 -7.5
s-23.5 -14.5 -23.5 -28.5c0 -8 10.667 -43.5 32 -106.5s40.333 -116.167 57 -159.5l313 -791l261 656c18 44.667 44.333 116.667 79 216s52 159 52 179c0 16.667 -8.16699 27.334 -24.5 32.001s-65.166 10.334 -146.499 17.001l-9 8v48l9 8c116.667 -5.33301 191 -8 223 -8
c26 0 93.333 2.66699 202 8l8 -8v-48l-8 -8c-48 -2 -77 -5.66699 -87 -11s-18.833 -15.666 -26.5 -30.999s-31.5 -68 -71.5 -158l-312 -768c-70 -171.333 -119.667 -304.333 -149 -399h-101z" />
    <glyph glyph-name="W" unicode="W" horiz-adv-x="2048" 
d="M471 -19l-91 417.002l-193 823c-15.333 65.333 -31.333 101.833 -48 109.5s-52.667 14.834 -108 21.501l-8 8v44l8 9c96 -5.33301 181 -8 255 -8c55.333 0 136 2.66699 242 8l9 -9v-44l-8 -8c-74 -2.66699 -118.5 -6.33398 -133.5 -11.001s-22.5 -15.667 -22.5 -33
c0 -14 6.66699 -58.167 20 -132.5s25.333 -134.833 36 -181.5l157 -693l247 615c64.667 162.667 128.334 333 191.001 511h64c53.333 -167.333 108.333 -329.666 165 -486.999l235 -652l170 597c17.333 62.667 38.666 145 63.999 247s38 161 38 177
c0 18 -8.33301 29.167 -25 33.5s-64.667 7.5 -144 9.5l-8 9v44l8 8c113.333 -5.33301 181.666 -8 204.999 -8c21.333 0 90.666 2.66699 207.999 8l8 -8v-45l-8 -7c-38 -1.33301 -63.333 -4.83301 -76 -10.5s-23.667 -14.334 -33 -26.001s-22.666 -45.834 -39.999 -102.501
l-58 -186l-103 -337c-14.667 -48.667 -41.667 -147.334 -81 -296.001l-111 -414h-102c-69.333 206.667 -126.666 372 -171.999 496l-228 617l-199 -494l-107 -280l-67 -181l-55 -158h-101z" />
    <glyph glyph-name="X" unicode="X" horiz-adv-x="1366" 
d="M31 5l0.00292969 48.001l8 8c44.667 0.666992 74.667 4.83398 90 12.501s35 26.667 59 57s71 94.166 141 191.499l273 379l-177 301c-13.333 22.667 -42.5 66.5 -87.5 131.5s-80.333 110.167 -106 135.5s-44.834 40 -57.501 44s-47.667 6 -105 6l-9 9v42l9 9l283 47
c24.667 -16 51.167 -42.5 79.5 -79.5s69.5 -102.167 123.5 -195.5l168 -292l382 558c56.667 -2 91 -3 103 -3c5.33301 0 36.333 1 93 3l8 -9v-45l-8 -8c-42 -2 -69.833 -5.83301 -83.5 -11.5s-31.334 -19.834 -53.001 -42.501s-65.834 -79 -132.501 -169l-186 -252l-75 -100
l339 -548c32 -52 57.833 -90.833 77.5 -116.5s35.5 -41 47.5 -46s39.333 -7.83301 82 -8.5l8 -8v-49l-8 -8c-63.333 2.66699 -108 4 -134 4c-34 0 -85.333 -1.33301 -154 -4c-40 59.333 -77 118.333 -111 177l-263 449l-73 -101c-96 -132 -209 -307 -339 -525
c-43.333 2.66699 -77.333 4 -102 4c-25.333 0 -59 -1.33301 -101 -4z" />
    <glyph glyph-name="Y" unicode="Y" horiz-adv-x="1366" 
d="M15 1319l-9.00195 9v42l9 9l283 47c20 -14 39.5 -31.667 58.5 -53s46.667 -61.166 83 -119.499s83.166 -139.666 140.499 -243.999l165 -313.5l102 162l115 192l212 363c26 -2.66699 51.333 -4 76 -4c15.333 0 38.666 1.33301 69.999 4l8 -8v-19
c-33.333 -36.667 -85 -103.167 -155 -199.5s-122.167 -171.666 -156.5 -225.999l-126.5 -205c-50 -82.333 -77.333 -131.833 -82 -148.5s-7 -36.334 -7 -59.001v-147l1 -150c0.666992 -58 2.83398 -98.5 6.50098 -121.5s8.66699 -38 15 -45s18.333 -12.833 36 -17.5
s61.834 -8.33398 132.501 -11.001l8 -6v-50l-8 -8c-3.33301 0 -62 2 -176 6c-47.333 1.33301 -84.333 2 -111 2c-21.333 0 -116.666 -2.66699 -285.999 -8l-8 8v50l8 6c63.333 2.66699 105 6 125 10s33.5 9.16699 40.5 15.5s12.5 18.666 16.5 36.999s6.33301 55.833 7 112.5
l2 171v190c-14.667 36 -63.667 122.333 -147 259l-88 143c-28 45.333 -63.167 98.166 -105.5 158.499s-75.166 101.333 -98.499 123s-41.333 34.334 -54 38.001s-46.667 5.5 -102 5.5zM699.998 -60z" />
    <glyph glyph-name="Z" unicode="Z" horiz-adv-x="1366" 
d="M36 1v47.999l241 298l571 735c86.667 110.667 145 190 175 238h-41l-161 1c-141.333 0 -255.166 -2.16699 -341.499 -6.5s-143.333 -8.83301 -171 -13.5s-44.667 -11.167 -51 -19.5s-11.5 -28.166 -15.5 -59.499l-14 -132l-9 -9h-47l-9 9c3.33301 50.667 5 91 5 121
c0 81.333 -1.66699 145.666 -5 192.999l9 9c238 -5.33301 404.333 -8 499 -8c157.333 0 364 2.66699 620 8l9 -9v-51c-73.333 -86.667 -124.666 -148.667 -153.999 -186l-833 -1073l405 -7c80.667 0 162 2 244 6s136 8 162 12s43.833 9.83301 53.5 17.5
s16.167 15.334 19.5 23.001s8.66602 30.5 15.999 68.5l22 134l9 8h47l8 -8c-4.66699 -42.667 -9.33398 -158.667 -14.001 -348l-9 -8c-281.333 5.33301 -503.333 8 -666 8c-114 -0 -302.333 -2.66699 -565 -8z" />
    <glyph glyph-name="bracketleft" unicode="[" horiz-adv-x="682" 
d="M587 -366l0.00195312 -52.001l-9 -10c-0.666992 0 -14.667 0.333008 -42 1c-70.667 2.66699 -118.667 4 -144 4c-56 0 -123.667 -1.66699 -203 -5l-21 18c8 124.667 12 287 12 487c0 590 -0.5 935.833 -1.5 1037.5s-4.5 193.5 -10.5 275.5l18 23
c77.333 -3.33301 140.666 -5 189.999 -5c46 0 113.333 1.66699 202 5l9 -7v-57l-5 -7c-14 -1.33301 -33.333 -2.66602 -58 -3.99902c-75.333 -4 -118.833 -8.33301 -130.5 -13s-20.667 -12.167 -27 -22.5s-11.333 -43 -15 -98s-6 -157.667 -7 -308
s-1.5 -273.833 -1.5 -370.5v-415l3 -236c2 -99.333 7.33301 -162 16 -188c2.66699 -8.66699 7.5 -16 14.5 -22s19.833 -11 38.5 -15c9.33301 -2 63.666 -4 162.999 -6z" />
    <glyph glyph-name="backslash" unicode="\" horiz-adv-x="1241" 
d="M926 -236l-7 -10h-98l-11 9l-540 1716l7 10h99l10 -8z" />
    <glyph glyph-name="bracketright" unicode="]" horiz-adv-x="682" 
d="M85 -418l-0.00195312 52l9 10l131 3c22.667 0.666992 41.667 4.16699 57 10.5s25 16.666 29 30.999s7.16699 37 9.5 68s4.33301 106.5 6 226.5s2.5 234 2.5 342l-1 346l-2 340c-1.33301 116 -4.16602 192.333 -8.49902 229s-9.16602 58.834 -14.499 66.501
s-13.5 13.834 -24.5 18.501s-54.5 9 -130.5 13c-25.333 1.33301 -44.666 2.66602 -57.999 3.99902l-5 7v57l9 7c89.333 -3.33301 156.666 -5 201.999 -5c50 0 113.333 1.66699 190 5l18 -23c-7.33301 -71.333 -11.333 -359.333 -12 -864c0 -365.333 0.5 -588.833 1.5 -670.5
s4.5 -170.167 10.5 -265.5l-21 -18c-80 3.33301 -147.667 5 -203 5c-25.333 0 -87.333 -1.66699 -186 -5z" />
    <glyph glyph-name="asciicircum" unicode="^" 
d="M969 671h-127l-330 624l-330 -624h-127l395 749h124z" />
    <glyph glyph-name="underscore" unicode="_" 
d="M0 -328v120h1024v-120h-1024z" />
    <glyph glyph-name="grave" unicode="`" horiz-adv-x="682" 
d="M510 1117l-3 -13l-29 -15l-13 4l-294 374l17 25l13 3l72 -14c15.333 -3.33301 43.333 -8.33301 84 -15z" />
    <glyph glyph-name="a" unicode="a" 
d="M212 678l-39.001 10.001l-8 10v124c118.667 88 234 132 346 132c76.667 0 140.334 -14.333 191.001 -43s87.334 -64.5 110.001 -107.5s34 -93.167 34 -150.5l-5 -201v-298c0 -40.667 2.83301 -65.334 8.5 -74.001s12.167 -14.5 19.5 -17.5s21 -5.5 41 -7.5l57 -5l8 -9
v-40l-8 -8c-48.667 4 -94 6 -136 6c-40 0 -88 -2 -144 -6l-15 14l4 161l-218 -170c-36.667 -15.333 -76.667 -23 -120 -23c-53.333 0 -99.166 9.66699 -137.499 29s-67.666 46.333 -87.999 81s-30.5 76.667 -30.5 126c0 98 30.667 174.5 92 229.5
s228.666 101.833 501.999 140.5c0 98.667 -22 168.167 -66 208.5s-103 60.5 -177 60.5c-38.667 0 -73.834 -5.66699 -105.501 -17s-49.834 -20.5 -54.501 -27.5s-22.667 -47.833 -54 -122.5zM675.999 520.001c-186.667 -31.333 -303.001 -65 -349.001 -101
s-69 -91.667 -69 -167c0 -104 51.667 -156 155 -156c88.667 0 176.334 51.333 263.001 154v270zM484.998 -59.999z" />
    <glyph glyph-name="b" unicode="b" horiz-adv-x="1133" 
d="M-13 1347l-9.00098 9v42l8 9c127.333 14.667 234.666 39.334 321.999 74.001l19 -12c-7.33301 -76.667 -11 -230.334 -11 -461.001v-255c12.667 16.667 36.334 42.167 71.001 76.5s62.834 58.5 84.501 72.5s51.334 26.333 89.001 37s77.167 16 118.5 16
c75.333 0 141.5 -18.667 198.5 -56s99.333 -87.166 127 -149.499s41.5 -128.833 41.5 -199.5c0 -67.333 -11.5 -131.333 -34.5 -192s-50.167 -110.667 -81.5 -150c-18.667 -22.667 -51.667 -51.334 -99 -86.001c-92.667 -67.333 -157.834 -109.5 -195.501 -126.5
s-86.5 -25.5 -146.5 -25.5c-46.667 0 -89 6.5 -127 19.5s-77.333 33.5 -118 61.5l-81 -76l-33 13c12.667 121.333 19 259.333 19 414v530l-4 192c-2 73.333 -4.16699 124.833 -6.5 154.5s-5.5 47.167 -9.5 52.5s-10.833 9.33301 -20.5 12s-50.167 4 -121.5 4zM315.999 633
l-0.00195312 -374.999c0 -31.333 1.5 -51.833 4.5 -61.5s16.333 -24.334 40 -44.001s54.167 -36.667 91.5 -51s76 -21.5 116 -21.5c94.667 0 168.834 36.667 222.501 110s80.5 166.333 80.5 279c0 70.667 -11.167 133.167 -33.5 187.5s-55.833 95.833 -100.5 124.5
s-95 43 -151 43c-66 0 -124.167 -19.5 -174.5 -58.5s-82.166 -83.167 -95.499 -132.5z" />
    <glyph glyph-name="c" unicode="c" horiz-adv-x="909" 
d="M868 107l-39.9941 -67.001c-86 -47.333 -182 -71 -288 -71c-146.667 0 -260 43.667 -340 131s-120 200 -120 338c0 62.667 6.83301 118.5 20.5 167.5s31 89.5 52 121.5s44.167 57.333 69.5 76s68.166 44.667 128.499 78s105.833 55.166 136.5 65.499s73 15.5 127 15.5
c103.333 0 188 -19.667 254 -59c-12.667 -75.333 -22.334 -159.333 -29.001 -252l-9 -8h-41l-9 9c-2.66699 56 -6.33398 93.667 -11.001 113s-31.167 40 -79.5 62s-99.833 33 -154.5 33s-103.334 -11.5 -146.001 -34.5s-74.834 -60.667 -96.501 -113
s-32.5 -114.833 -32.5 -187.5c0 -61.333 8.66699 -121.166 26 -179.499s40.166 -106.666 68.499 -144.999s65.833 -69.166 112.5 -92.499s98.667 -35 156 -35c36 0 71.167 4.66699 105.5 14s73.833 24.666 118.5 45.999z" />
    <glyph glyph-name="d" unicode="d" horiz-adv-x="1251" 
d="M673 1356l0.000976562 42l8 9c127.333 14.667 234.666 39.334 321.999 74.001l19 -12c-7.33301 -76.667 -11 -230.334 -11 -461.001v-655c0 -67.333 1.16699 -126.166 3.5 -176.499s6.5 -80.166 12.5 -89.499s15.833 -17 29.5 -23s52.5 -11.667 116.5 -17l9 -8v-38l-9 -9
c-72 4.66699 -128 7 -168 7c-36 0 -87.333 -2.33301 -154 -7l-11 11c2 65.333 3 111 3 137c0 3.33301 0.333008 16 1 38c-36.667 -26.667 -73.334 -56.334 -110.001 -89.001c-54 -48 -89.333 -78 -106 -90c-30.667 -15.333 -74.334 -23 -131.001 -23
c-92 0 -170.167 22.667 -234.5 68s-110.166 103.166 -137.499 173.499s-41 142.5 -41 216.5c0 75.333 14.167 147.833 42.5 217.5s68.666 120.5 120.999 152.5s109.333 65.167 171 99.5s122.834 51.5 183.501 51.5c84.667 0 165.334 -21 242.001 -63l-4 223
c-1.33301 77.333 -3.33301 131.166 -6 161.499s-6 48.333 -10 54s-10.833 9.83398 -20.5 12.501s-50.167 4 -121.5 4zM844.001 721c-41.333 46.667 -87.1689 82.334 -137.502 107.001s-100.833 37 -151.5 37c-56 0 -108.167 -15.167 -156.5 -45.5
s-83.166 -75.333 -104.499 -135s-32 -124.5 -32 -194.5c0 -116.667 29.5 -210.334 88.5 -281.001s133.167 -106 222.5 -106c48.667 0 91.834 11.167 129.501 33.5s68.667 52.5 93 90.5s38.5 76 42.5 114s6 107.667 6 209v171z" />
    <glyph glyph-name="e" unicode="e" horiz-adv-x="981" 
d="M884 147l-32.001 -71.9971c-69.333 -44.667 -131.166 -73.667 -185.499 -87s-102.833 -20 -145.5 -20c-80 0 -155.833 15.667 -227.5 47s-130 84.333 -175 159s-67.5 164.667 -67.5 270c0 70 8.66699 133.167 26 189.5s35.5 98.166 54.5 125.499
s51.167 57.666 96.5 90.999s93.333 60 144 80s105.334 30 164.001 30c80 0 150.5 -18.833 211.5 -56.5s103.833 -85.834 128.5 -144.501s37 -121 37 -187c0 -20.667 -1 -40.667 -3 -60l-11 -11c-45.333 -10 -106.333 -16.667 -183 -20s-127.334 -5 -152.001 -5h-321
c1.33301 -138 36 -239.667 104 -305s151.333 -98 250 -98c46.667 0 91.5 8 134.5 24s88.5 38.333 136.5 67zM242.999 556.003c12 -2 58.166 -4.33203 138.499 -6.99902s139.833 -4 178.5 -4c92.667 0 149 1.66699 169 5c0.666992 16 1 28.333 1 37
c0 103.333 -21 180.166 -63 230.499s-99.333 75.5 -172 75.5c-79.333 0 -141.166 -28.333 -185.499 -85s-66.5 -140.667 -66.5 -252zM509.998 -59.9961z" />
    <glyph glyph-name="f" unicode="f" horiz-adv-x="682" 
d="M576 51l7.99805 -8.00195v-42l-8 -9c-20.667 0 -59.667 1.33301 -117 4c-52 2.66699 -105.667 4 -161 4c-72 0 -152.333 -2.66699 -241 -8l-8 9v42l8 8c64.667 4 101.334 7 110.001 9s16 6.16699 22 12.5s10.167 16 12.5 29s5 56 8 129s4.5 128.167 4.5 165.5v386
l-129 -7l-9 8v25l7 10l131 67v60c0 66.667 3 117.167 9 151.5s17.167 66 33.5 95s44.833 65.667 85.5 110s76.334 80.666 107.001 108.999s57.334 47.333 80.001 57s49.334 14.5 80.001 14.5c25.333 0 52.666 -5 81.999 -15l-1 -164l-23 -9
c-37.333 33.333 -80.666 50 -129.999 50c-34.667 0 -64.667 -7.16699 -90 -21.5s-42.666 -37.666 -51.999 -69.999s-14 -85.833 -14 -160.5v-207h107c55.333 0 107.666 2 156.999 6l9 -11l-18 -88l-9 -10c-20 0.666992 -33 1 -39 1l-130 1h-77v-403
c0 -21.333 1.5 -70.166 4.5 -146.499s5.83301 -121.166 8.5 -134.499s7.16699 -23 13.5 -29s16.666 -10.333 30.999 -13s60.166 -5 137.499 -7z" />
    <glyph glyph-name="g" unicode="g" horiz-adv-x="1139" 
d="M1103 884l7.99902 -18.0029c-27.333 -42 -44.333 -69.333 -51 -82h-186c18.667 -36.667 28 -75 28 -115c0 -47.333 -10.833 -93.333 -32.5 -138s-51.834 -82.667 -90.501 -114s-82.5 -56.333 -131.5 -75s-104.833 -28 -167.5 -28h-46
c-39.333 -31.333 -64.666 -54.666 -75.999 -69.999s-17 -31 -17 -47c0 -29.333 13.5 -50 40.5 -62s82.833 -18 167.5 -18l224 3c70.667 0 124.834 -8.33301 162.501 -25s68.167 -46.5 91.5 -89.5s35 -88.5 35 -136.5c0 -73.333 -23.833 -146.5 -71.5 -219.5
s-116.5 -128.5 -206.5 -166.5s-186 -57 -288 -57c-58 0 -112.5 6.33301 -163.5 19s-95.667 31.834 -134 57.501s-69.166 59.167 -92.499 100.5s-35 84.333 -35 129c0 24.667 3.66699 50.5 11 77.5s21.333 56.167 42 87.5l181 101c-58 18 -94.5 35.833 -109.5 53.5
s-22.5 38.834 -22.5 63.501c0 25.333 8.33301 55.333 25 90l161 116c-94.667 24.667 -158.5 61.667 -191.5 111s-49.5 103.333 -49.5 162c0 54 11.667 105.5 35 154.5s58.5 88.167 105.5 117.5s99.667 52.5 158 69.5s111.5 25.5 159.5 25.5
c83.333 0 162.666 -27 237.999 -81c120.667 0 217 1.33301 289 4zM289.999 651.997c0 -40.667 7.99902 -84.332 23.999 -130.999s41.833 -82 77.5 -106s75.834 -36 120.501 -36c59.333 0 110.5 19.333 153.5 58s64.5 99 64.5 181c0 69.333 -19.667 131.666 -59 186.999
s-95 83 -167 83c-60.667 0 -111.5 -19.833 -152.5 -59.5s-61.5 -98.5 -61.5 -176.5zM582.998 -19.001c-107.333 0 -169.165 -1.33105 -185.498 -3.99805s-39.5 -14 -69.5 -34s-54.5 -47.167 -73.5 -81.5s-28.5 -72.833 -28.5 -115.5c0 -75.333 28 -136.666 84 -183.999
s130.667 -71 224 -71c70 0 134.667 14.667 194 44s103.166 68.666 131.499 117.999s42.5 96.666 42.5 141.999s-11.833 84.166 -35.5 116.499s-54.334 52 -92.001 59s-101.5 10.5 -191.5 10.5z" />
    <glyph glyph-name="h" unicode="h" horiz-adv-x="1192" 
d="M340 1481l19 -12c-7.33301 -76.667 -11 -230.334 -11 -461.001v-247c56 46 108 91.667 156 137c14 12.667 27.333 22 40 28s33.167 12.333 61.5 19s57.5 10 87.5 10c50.667 0 99.834 -10.333 147.501 -31s83.667 -45.167 108 -73.5s41.166 -61.833 50.499 -100.5
s14 -86.334 14 -143.001v-176c0 -11.333 1.66699 -94.333 5 -249c2 -63.333 9.16699 -101 21.5 -113s53.5 -18 123.5 -18l8 -8v-43l-8 -8c-84.667 5.33301 -142 8 -172 8c-15.333 0 -64 -2.66699 -146 -8l-12 11c8.66699 86.667 13 199.667 13 339v131
c0 78.667 -1.83301 135.334 -5.5 170.001s-14.834 66.167 -33.501 94.5s-43.5 50.333 -74.5 66s-68.5 23.5 -112.5 23.5c-45.333 0 -83.166 -6.16699 -113.499 -18.5s-61.166 -33.166 -92.499 -62.499s-50.166 -53.833 -56.499 -73.5s-9.5 -57.5 -9.5 -113.5v-178
c0 -14.667 1.33301 -61.834 4 -141.501s5.5 -126.167 8.5 -139.5s7.5 -23 13.5 -29s13.333 -9.83301 22 -11.5s44.667 -4.5 108 -8.5l9 -8v-42l-8 -9c-83.333 5.33301 -163.666 8 -240.999 8c-76.667 0 -156.667 -2.66699 -240 -8l-9 9v42l9 8c64.667 4 101.167 7 109.5 9
s15.666 6.16699 21.999 12.5s10.666 16 12.999 29s5 56 8 129s4.5 128.167 4.5 165.5v518l-4 212c-2 74 -4.16699 125.333 -6.5 154s-5.5 45.667 -9.5 51s-11 9.33301 -21 12s-50.333 4 -121 4l-9 9v42l8 9c127.333 14.667 234.666 39.334 321.999 74.001z" />
    <glyph glyph-name="i" unicode="i" horiz-adv-x="596" 
d="M288 1400c31.333 0 58 -11 80 -33s33 -48.667 33 -80c0 -30.667 -11 -57 -33 -79s-48.667 -33 -80 -33c-30.667 0 -57.167 10.833 -79.5 32.5s-33.5 48.167 -33.5 79.5s11.167 58 33.5 80s48.833 33 79.5 33zM373 953l19.0039 -12.999
c-7.33301 -87.333 -11 -198.333 -11 -333v-226c0 -14.667 1.33301 -61.834 4 -141.501s5.5 -126.167 8.5 -139.5s7.5 -23 13.5 -29s13.333 -9.83301 22 -11.5s44.667 -4.5 108 -8.5l9 -8v-42l-8 -9c-83.333 5.33301 -163.666 8 -240.999 8
c-76.667 -0 -156.667 -2.66699 -240 -8l-9 9v42l9 8c64.667 4 101.167 7 109.5 9s15.666 6.16699 21.999 12.5s10.666 16 12.999 29s5 56 8 129s4.5 128.167 4.5 165.5v197c0 26.667 -1.33301 63 -4 109s-4.83398 74.333 -6.50098 85s-6.83398 18.5 -15.501 23.5
s-26 7.5 -52 7.5l-84 1l-9 8v43l8 8c127.333 15.333 234.666 40.333 321.999 75zM295.004 -59.999z" />
    <glyph glyph-name="j" unicode="j" horiz-adv-x="479" 
d="M242 1400c30.667 0 57 -10.833 79 -32.5s33 -48.5 33 -80.5c0 -30.667 -11 -57 -33 -79s-48.333 -33 -79 -33c-31.333 0 -58 11 -80 33s-33 48.333 -33 79c0 31.333 11 58 33 80s48.667 33 80 33zM-9 870l9 7.99707c126.667 15.333 234 40.333 322 75l18 -13
c-7.33301 -87.333 -11 -209.666 -11 -366.999v-184l3 -319c0 -110 -9 -211.667 -27 -305s-58.333 -173.166 -121 -239.499s-135 -99.5 -217 -99.5c-4.66699 0 -11.667 0.333008 -21 1l-10 57l9 13c14.667 -1.33301 26.334 -2 35.001 -2c22 0 43.667 6.16699 65 18.5
s40.666 31.5 57.999 57.5s30 58.167 38 96.5s13.5 98.333 16.5 180s4.5 136.167 4.5 163.5v582c0 26.667 -1.16699 62.834 -3.5 108.501s-4.5 74.167 -6.5 85.5s-7.5 19.333 -16.5 24s-25.833 7 -50.5 7l-85 1l-9 8v43z" />
    <glyph glyph-name="k" unicode="k" horiz-adv-x="1139" 
d="M364 1481l19.001 -12c-7.33301 -76.667 -11 -230.334 -11 -461.001v-469c22.667 13.333 67.334 46.833 134.001 100.5s137.167 115 211.5 184s112.5 106.5 114.5 112.5c56.667 -2 90.667 -3 102 -3c15.333 0 46.333 1 93 3l9 -9v-39l-8 -9
c-33.333 -2 -58.833 -6.33301 -76.5 -13s-53.667 -28.667 -108 -66s-118.5 -86.333 -192.5 -147l-97 -79c35.333 -41.333 97.166 -106.166 185.499 -194.499s159.833 -156.833 214.5 -205.5s90.334 -76.5 107.001 -83.5s34.334 -10.5 53.001 -10.5v-43
c-24.667 -4.66699 -88.334 -25 -191.001 -61c-69.333 60 -113.333 99.667 -132 119l-74 76l-88 89c-27.333 27.333 -64 62 -110 104l-147 136v-119c0 -14.667 1.33301 -61.834 4 -141.501s5.5 -126.167 8.5 -139.5s7.5 -23 13.5 -29s13.333 -9.83301 22 -11.5
s44.667 -4.5 108 -8.5l9 -8v-42l-8 -9c-83.333 5.33301 -163.666 8 -240.999 8c-76.667 0 -156.667 -2.66699 -240 -8l-9 9v42l9 8c64.667 4 101.167 7 109.5 9s15.666 6.16699 21.999 12.5s10.666 16 12.999 29s5 56 8 129s4.5 128.167 4.5 165.5v518l-4 212
c-2 74 -4.16699 125.333 -6.5 154s-5.5 45.667 -9.5 51s-11 9.33301 -21 12s-50.333 4 -121 4l-9 9v42l8 9c127.333 14.667 234.666 39.334 321.999 74.001z" />
    <glyph glyph-name="l" unicode="l" horiz-adv-x="596" 
d="M374 1481l19.002 -11.999c-7.33301 -76.667 -11 -230.334 -11 -461.001v-627c0 -14.667 1.33301 -61.834 4 -141.501s5.5 -126.167 8.5 -139.5s7.5 -23 13.5 -29s13.333 -9.83301 22 -11.5s44.667 -4.5 108 -8.5l9 -8v-42l-8 -9c-83.333 5.33301 -163.666 8 -240.999 8
c-76.667 0 -156.667 -2.66699 -240 -8l-9 9v42l9 8c64.667 4 101.167 7 109.5 9s15.666 6.16699 21.999 12.5s10.666 16 12.999 29s5 56 8 129s4.5 128.167 4.5 165.5v518l-4 212c-2 74 -4.16699 125.333 -6.5 154s-5.5 45.667 -9.5 51s-11 9.33301 -21 12s-50.333 4 -121 4
l-9 9v42l8 9c127.333 14.667 234.666 39.334 321.999 74.001z" />
    <glyph glyph-name="m" unicode="m" horiz-adv-x="1808" 
d="M368 953l19.0078 -12.9971c-4 -44 -6.66699 -96.667 -8 -158l95 87c26.667 24.667 44.334 40.5 53.001 47.5s29 15.167 61 24.5s65.667 14 101 14c66.667 0 125 -16.5 175 -49.5s87 -78.5 111 -136.5c90 85.333 142.5 132.666 157.5 141.999s38.833 18.833 71.5 28.5
s65.334 14.5 98.001 14.5c52.667 0 101 -11.333 145 -34s79 -52.334 105 -89.001s41.167 -76.334 45.5 -119.001s6.5 -101.334 6.5 -176.001v-105c0 -11.333 2 -94.333 6 -249c1.33301 -63.333 8.33301 -101 21 -113s53.667 -18 123 -18l8 -8v-43l-8 -8
c-84.667 5.33301 -142 8 -172 8c-16.667 0 -65 -2.66699 -145 -8l-13 11c8.66699 86.667 13 199.667 13 339v120c0 106 -5 180.167 -15 222.5s-33.333 77 -70 104s-80.334 40.5 -131.001 40.5c-36 0 -69.667 -7.16699 -101 -21.5s-59.5 -35.666 -84.5 -63.999
s-38.833 -54.666 -41.5 -78.999s-4 -69.166 -4 -134.499v-125c0 -29.333 1.33301 -84.333 4 -165s5.5 -127.667 8.5 -141s7.66699 -22.833 14 -28.5s13.666 -9.33398 21.999 -11.001s44.166 -4.5 107.499 -8.5l9 -8v-42l-8 -9c-83.333 5.33301 -163.666 8 -240.999 8
c-71.333 0 -151.333 -2.66699 -240 -8l-9 9v42l9 8c64.667 4 101.167 7 109.5 9s15.666 6.16699 21.999 12.5s10.666 16 12.999 29s5 56 8 129s4.5 128.167 4.5 165.5v114c0 75.333 -5.16699 133.333 -15.5 174s-32.5 75 -66.5 103s-76.667 42 -128 42
c-40 0 -76.5 -7.83301 -109.5 -23.5s-60 -35 -81 -58s-34 -44.5 -39 -64.5s-7.5 -63.333 -7.5 -130v-148c0 -29.333 1.33301 -84.333 4 -165s5.5 -127.667 8.5 -141s7.66699 -22.833 14 -28.5s13.666 -9.33398 21.999 -11.001s44.166 -4.5 107.499 -8.5l9 -8v-42l-8 -9
c-83.333 5.33301 -163.666 8 -240.999 8c-76.667 -0 -156.667 -2.66699 -240 -8l-9 9v42l9 8c64.667 4 101.167 7 109.5 9s15.666 6.16699 21.999 12.5s10.666 16 12.999 29s5 56 8 129s4.5 128.167 4.5 165.5v197c0 26.667 -1.33301 63 -4 109s-4.83398 74.333 -6.50098 85
s-6.83398 18.5 -15.501 23.5s-26 7.5 -52 7.5l-84 1l-9 8v43l8 8c127.333 15.333 234.666 40.333 321.999 75z" />
    <glyph glyph-name="n" unicode="n" horiz-adv-x="1192" 
d="M342 953l19.0068 -12.999c-4 -44.667 -6.66699 -103.334 -8 -176.001c53.333 44 104 88.667 152 134c14 12.667 27.167 22 39.5 28s32.833 12.333 61.5 19s58 10 88 10c50.667 0 99.834 -10.333 147.501 -31s83.667 -45.167 108 -73.5s41.166 -61.833 50.499 -100.5
s14 -86.334 14 -143.001v-176c0 -11.333 1.66699 -94.333 5 -249c1.33301 -63.333 8.33301 -101 21 -113s54 -18 124 -18l8 -8v-43l-8 -8c-84.667 5.33301 -142 8 -172 8c-17.333 0 -66 -2.66699 -146 -8l-12 11c8.66699 86.667 13 199.667 13 339v131
c0 78.667 -1.83301 135.334 -5.5 170.001s-14.834 66.167 -33.501 94.5s-43.667 50.333 -75 66s-68.666 23.5 -111.999 23.5c-34.667 0 -64.334 -3.5 -89.001 -10.5s-52.334 -21.333 -83.001 -43s-53.334 -42 -68.001 -61s-23.5 -36.667 -26.5 -53
s-4.5 -51.166 -4.5 -104.499v-174c0 -14.667 1.33301 -61.834 4 -141.501s5.5 -126.167 8.5 -139.5s7.5 -23 13.5 -29s13.333 -9.83301 22 -11.5s44.667 -4.5 108 -8.5l9 -8v-42l-8 -9c-83.333 5.33301 -163.666 8 -240.999 8c-76.667 -0 -156.667 -2.66699 -240 -8l-9 9v42
l9 8c64.667 4 101.167 7 109.5 9s15.666 6.16699 21.999 12.5s10.666 16 12.999 29s5 56 8 129s4.5 128.167 4.5 165.5v197c0 26.667 -1.33301 63 -4 109s-4.83398 74.333 -6.50098 85s-6.83398 18.5 -15.501 23.5s-26 7.5 -52 7.5l-84 1l-9 8v43l8 8
c127.333 15.333 234.666 40.333 321.999 75z" />
    <glyph glyph-name="o" unicode="o" horiz-adv-x="1118" 
d="M68 458c0 79.333 16.332 155.833 48.999 229.5s89.5 137.334 170.5 191.001s177.167 80.5 288.5 80.5c140 0 254 -44.167 342 -132.5s132 -201.833 132 -340.5c0 -152.667 -50.5 -278.334 -151.5 -377.001s-222.833 -148 -365.5 -148
c-93.333 0 -176.666 25.167 -249.999 75.5s-127.5 111.833 -162.5 184.5s-52.5 151.667 -52.5 237zM256.999 527c0 -93.333 12.002 -176.831 36.002 -250.498s62 -132.834 114 -177.501s111.333 -67 178 -67c78.667 0 143.667 31.167 195 93.5s77 156.166 77 281.499
c0 142 -27.833 258.333 -83.5 349s-135.834 136 -240.501 136c-86.667 0 -154.334 -31.333 -203.001 -94s-73 -153 -73 -271zM545.001 -59.998z" />
    <glyph glyph-name="p" unicode="p" horiz-adv-x="1231" 
d="M370 965l19.001 -12.002c-6.66699 -76 -10.334 -143.333 -11.001 -202c90.667 82.667 153.834 137.334 189.501 164.001s97.167 40 184.5 40c54.667 0 104.334 -7.5 149.001 -22.5s86 -39.667 124 -74s68 -77.333 90 -129s33 -111.5 33 -179.5
c0 -48 -7.66699 -96.667 -23 -146s-35.5 -95 -60.5 -137s-45 -69.833 -60 -83.5s-45.833 -34.167 -92.5 -61.5c-42 -25.333 -83.667 -52.666 -125 -81.999c-28.667 -20.667 -48.667 -34 -60 -40s-30.333 -12 -57 -18s-55 -9 -85 -9c-69.333 0 -138.333 17.667 -207 53v-213
c0 -14.667 1.33301 -61.834 4 -141.501s5.5 -126.167 8.5 -139.5s7.5 -23 13.5 -29s13.333 -9.83301 22 -11.5s44.667 -4.5 108 -8.5l9 -8v-42l-8 -9c-83.333 5.33301 -163.333 8 -240 8s-156.667 -2.66699 -240 -8l-9 9v42l9 8c64 4 100.333 7 109 9
s16.167 6.16699 22.5 12.5s10.666 16.5 12.999 30.5s5 58.667 8 134s4.5 132 4.5 170v766c0 34.667 -1.5 74.834 -4.5 120.501s-5.5 72.167 -7.5 79.5s-6.83301 13.333 -14.5 18s-24.834 7 -51.501 7l-84 1l-9 8v43l8 8c127.333 15.333 234.333 40.333 321 75z
M378.001 197.998c30.667 -31.333 68.666 -58.501 113.999 -81.501s95.333 -34.5 150 -34.5c64.667 0 121.834 16.333 171.501 49s88.167 80.5 115.5 143.5s41 132.833 41 209.5c0 62 -12.167 119.667 -36.5 173s-62 95.333 -113 126s-105.167 46 -162.5 46
c-35.333 0 -69.666 -6.16699 -102.999 -18.5s-64.5 -30.5 -93.5 -54.5s-49.833 -46.833 -62.5 -68.5s-19.334 -39.667 -20.001 -54s-1 -30.166 -1 -47.499v-388z" />
    <glyph glyph-name="q" unicode="q" horiz-adv-x="1147" 
d="M992 950l37.002 -21.999c-19.333 -52.667 -31.5 -93.667 -36.5 -123s-8.83301 -75.833 -11.5 -139.5s-4 -137.167 -4 -220.5v-632c0 -14.667 1.33301 -61.834 4 -141.501s5.5 -126.167 8.5 -139.5s7.66699 -23 14 -29s13.666 -9.83301 21.999 -11.5
s44.166 -4.5 107.499 -8.5l9 -8v-42l-8 -9c-83.333 5.33301 -163.666 8 -240.999 8c-71.333 0 -151.333 -2.66699 -240 -8l-8 9v42l8 8c64.667 4 101.167 7 109.5 9s15.666 6.16699 21.999 12.5s10.666 16.5 12.999 30.5s5 58.667 8 134s4.5 132 4.5 170v297l-214 -134
c-16 -10 -25.5 -15.667 -28.5 -17s-13.5 -3 -31.5 -5s-38.333 -3 -61 -3c-122 0 -218.5 44.833 -289.5 134.5s-106.5 195.5 -106.5 317.5c0 81.333 15.667 158.666 47 231.999c24 54.667 62.667 101.334 116 140.001c16 11.333 75 45.333 177 102c64 34.667 133 52 207 52
c84.667 0 172.334 -23.333 263.001 -70zM810.002 769.001c-22.667 22.667 -57.333 45.667 -104 69s-96 35 -148 35c-88.667 0 -160.667 -34.667 -216 -104s-83 -160 -83 -272c0 -74 13.833 -144.833 41.5 -212.5s65.334 -116.5 113.001 -146.5s99.5 -45 155.5 -45
c89.333 0 169.666 44 240.999 132c2 166.667 3 262 3 286c0 110.667 -1 196.667 -3 258z" />
    <glyph glyph-name="r" unicode="r" horiz-adv-x="809" 
d="M384 953l19.0068 -12.998c-4 -38.667 -7 -107.334 -9 -206.001l75 95c24.667 31.333 46.5 55.5 65.5 72.5s41.167 30.167 66.5 39.5s51.333 14 78 14c29.333 0 57 -6 83 -18l7 -14c-10.667 -88.667 -16.667 -166.667 -18 -234h-45c-26.667 61.333 -69.667 92 -129 92
c-41.333 0 -77.333 -13.167 -108 -39.5s-51.167 -59.333 -61.5 -99s-15.5 -89.834 -15.5 -150.501v-111c0 -20 1.33301 -69 4 -147s5.5 -123 8.5 -135s7.66699 -20.833 14 -26.5s14.666 -9.5 24.999 -11.5s57.833 -5.33301 142.5 -10l9 -8v-42l-9 -9
c-88.667 5.33301 -181.334 8 -278.001 8c-76.667 -0 -156.667 -2.66699 -240 -8l-9 9v42l9 8c64.667 4 101.167 7 109.5 9s15.666 6.16699 21.999 12.5s10.666 16 12.999 29s5 56 8 129s4.5 128.167 4.5 165.5v197c0 26.667 -1.33301 63 -4 109s-4.83398 74.333 -6.50098 85
s-6.83398 18.5 -15.501 23.5s-26 7.5 -52 7.5l-84 1l-9 8v43l8 8c127.333 15.333 234.666 40.333 321.999 75z" />
    <glyph glyph-name="s" unicode="s" horiz-adv-x="868" 
d="M101 294h42.998l9 -9c1.33301 -56 4.66602 -104 9.99902 -144c20.667 -31.333 56.334 -56.833 107.001 -76.5s100.667 -29.5 150 -29.5c70.667 0 127.167 19 169.5 57s63.5 83.333 63.5 136c0 28.667 -7.66699 53.5 -23 74.5s-38.5 38.333 -69.5 52
s-86.5 29.834 -166.5 48.501c-68.667 16 -116.667 28.5 -144 37.5s-53.666 24.167 -78.999 45.5s-44.666 47.5 -57.999 78.5s-20 65.167 -20 102.5c0 89.333 35.5 160.833 106.5 214.5s159.5 80.5 265.5 80.5c44.667 0 93.334 -6.16699 146.001 -18.5
s92.667 -24.166 120 -35.499l9 -14c-5.33301 -26.667 -8.66602 -96.667 -9.99902 -210l-9 -9h-40l-9 9c-2.66699 40.667 -6.33398 69.167 -11.001 85.5s-16.667 34 -36 53s-46.666 35 -81.999 48s-72.666 19.5 -111.999 19.5c-40.667 0 -74.834 -6 -102.501 -18
s-50 -30.167 -67 -54.5s-25.5 -53.833 -25.5 -88.5c0 -25.333 5.16699 -48 15.5 -68s26.166 -36.167 47.499 -48.5s43.666 -21.166 66.999 -26.499l109 -28c93.333 -22.667 160.166 -42.334 200.499 -59.001s71.5 -41.834 93.5 -75.501s33 -74.5 33 -122.5
c0 -92 -38 -171 -114 -237s-173.667 -99 -293 -99c-42 0 -94.167 4.66699 -156.5 14s-115.5 19.666 -159.5 30.999l-5 13l10 67c3.33301 20.667 5.33301 41.5 6 62.5s1.33398 65.167 2.00098 132.5z" />
    <glyph glyph-name="t" unicode="t" horiz-adv-x="668" 
d="M46 785l-0.00195312 26l7 10c62.667 23.333 113.334 45 152.001 65c0 174 -2 275.333 -6 304c68.667 24 125 49.667 169 77l24 -20c-6.66699 -42 -14.667 -164 -24 -366c33.333 -0.666992 69.333 -1 108 -1c78.667 0 135 2 169 6l7 -7l-19 -84l-8 -9
c-34 0.666992 -71.667 1 -113 1c-37.333 0 -85.333 -0.333008 -144 -1l-6 -407c0 -94 2.16699 -155.5 6.5 -184.5s16.333 -51.667 36 -68s48.834 -24.5 87.501 -24.5c44.667 0 86 11.667 124 35l24 -36c-16 -11.333 -54.333 -44.666 -115 -99.999
c-34.667 -16 -70 -24 -106 -24c-150 0 -225 72.667 -225 218c0 53.333 1.33301 98.666 4 135.999c0.666992 11.333 1 23 1 35v415h-41c-30 0 -64.333 -1.33301 -103 -4z" />
    <glyph glyph-name="u" unicode="u" horiz-adv-x="1235" 
d="M346 953l19.0078 -13.001c-7.33301 -87.333 -11 -198.333 -11 -333v-233c0 -85.333 6.5 -144.666 19.5 -177.999s35.5 -58.833 67.5 -76.5s70 -26.5 114 -26.5c48.667 0 93 9.5 133 28.5s73.5 45.833 100.5 80.5s42.5 58 46.5 70s6.66699 45.667 8 101l3 112v108
c0 26.667 -1.33301 63 -4 109s-4.83398 74.333 -6.50098 85s-6.83398 18.5 -15.501 23.5s-26 7.5 -52 7.5l-84 1l-9 8v43l8 8c127.333 15.333 234.666 40.333 321.999 75l19 -13c-7.33301 -87.333 -11 -198.333 -11 -333v-176c0 -10 1.66699 -91.667 5 -245
c1.33301 -56.667 4.83301 -91.167 10.5 -103.5s13.5 -21 23.5 -26s39.667 -7.5 89 -7.5h28l9 -8v-40l-8 -9c-94 5.33301 -157 8 -189 8c-40.667 0 -87.667 -2.33301 -141 -7l-9 8c4 68 7 125.667 9 173c-42 -32.667 -90 -76.334 -144 -131.001
c-20.667 -20.667 -50.334 -38 -89.001 -52s-82.667 -21 -132 -21c-74.667 0 -132.834 11.833 -174.501 35.5s-71.167 56.334 -88.5 98.001s-26 113.5 -26 215.5l1 79v195c0 26.667 -1.33301 63 -4 109s-4.83398 74.333 -6.50098 85s-6.83398 18.5 -15.501 23.5
s-26 7.5 -52 7.5l-84 1l-9 8v43l8 8c127.333 15.333 234.666 40.333 321.999 75zM595.008 -60.001z" />
    <glyph glyph-name="v" unicode="v" horiz-adv-x="1157" 
d="M510 -18l-62.002 156.998l-74 171l-205 477c-13.333 31.333 -25.166 52 -35.499 62s-20.833 16 -31.5 18s-32 3.66699 -64 5l-8 8v43l9 9c93.333 -4.66699 167.333 -7 222 -7c77.333 0 155 2.33301 233 7l8 -8v-44l-8 -8c-69.333 -2 -109.666 -6.83301 -120.999 -14.5
s-17 -17.5 -17 -29.5c0 -20 13.333 -63 40 -129l122 -304l96 -227l100 227l83 206c32 78 52.667 133.333 62 166s14 54.334 14 65.001c0 12.667 -7.33301 21.834 -22 27.501s-51.667 9.83398 -111 12.501l-8 8v43l9 9c82.667 -4.66699 144.667 -7 186 -7
c34.667 0 94 2.33301 178 7l9 -9v-43l-8 -8c-39.333 -3.33301 -65.5 -9 -78.5 -17s-25.667 -23.5 -38 -46.5s-47.833 -94.5 -106.5 -214.5l-96 -205c-16 -34.667 -73.667 -170.334 -173 -407.001h-104z" />
    <glyph glyph-name="w" unicode="w" horiz-adv-x="1708" 
d="M429 -19l-135.001 448.002l-73.5 234c-23.667 72 -39.334 117.833 -47.001 137.5s-15.834 33.834 -24.501 42.501s-18 14.667 -28 18s-38.333 7.66602 -85 12.999l-7 8v41l9 9c48 -4.66699 122.333 -7 223 -7c108.667 0 190.334 2.33301 245.001 7l9 -9v-41l-7 -8
c-72.667 -0.666992 -115.834 -4.66699 -129.501 -12s-20.5 -18.666 -20.5 -33.999s9.66699 -56.333 29 -123l93 -322c14.667 -50 33.334 -108.333 56.001 -175c18 43.333 43.333 101.333 76 174l147 329c35.333 78 68 156.667 98 236h49l90 -242l115 -290l89 -220l75 197
c43.333 112.667 77 206.667 101 282s36 123.666 36 144.999s-7.33301 35.333 -22 42s-54 11 -118 13l-9 8v42l9 8c77.333 -4.66699 142.333 -7 195 -7c66.667 0 129.334 2.33301 188.001 7l8 -8v-41l-8 -9c-36 -1.33301 -60.5 -5.33301 -73.5 -12
s-27.667 -22.834 -44 -48.501s-41.166 -77.834 -74.499 -156.501l-99 -235l-45 -112l-71 -186c-22 -58 -38 -105.667 -48 -143h-94l-48 125l-228 573l-96 -207l-111 -248l-98 -243h-96z" />
    <glyph glyph-name="x" unicode="x" horiz-adv-x="1057" 
d="M44 -7l-7.99805 8.99805v40l9 8c24.667 0.666992 44.834 4.5 60.501 11.5s34.667 21.667 57 44s61.833 68.166 118.5 137.499l161 199l-85 127c-12.667 18.667 -38.834 55.334 -78.501 110.001s-72.834 95.834 -99.501 123.501s-46.5 44.834 -59.5 51.501
s-26.167 10 -39.5 10c-6 0 -14 -0.333008 -24 -1l-10 7l-8 40l8 10c68 8 143 20.667 225 38c46 -38 114 -127 204 -267l74 -117l63 80c48.667 63.333 117 158.333 205 285c31.333 -4.66699 56.333 -7 75 -7c17.333 0 40.666 2.33301 69.999 7l8 -8v-40l-8 -8
c-22 -2 -38 -5.33301 -48 -10s-28.333 -20 -55 -46s-62.334 -66 -107.001 -120l-60 -72c-12 -14 -23.667 -28.333 -35 -43l-62 -80l37 -57l120.5 -168.5c63.667 -88.333 108.334 -147.333 134.001 -177s44 -47 55 -52s29.167 -7.5 54.5 -7.5l8 -8v-41l-8 -8
c-49.333 4.66699 -87.333 7 -114 7c-8 0 -50.667 -2.33301 -128 -7c-54.667 68.667 -109.667 145.667 -165 231l-102 154c-68.667 -78 -160.667 -206.333 -276 -385c-45.333 4.66699 -72.333 7 -81 7c-13.333 0 -42 -2.33301 -86 -7z" />
    <glyph glyph-name="y" unicode="y" horiz-adv-x="1139" 
d="M45 -543c22.667 56 39.667 107.33 51 153.997h24c32.667 -35.333 68 -53 106 -53c47.333 0 88.5 23.5 123.5 70.5s84.5 150.833 148.5 311.5c-25.333 71.333 -51 138.666 -77 201.999l-159 394l-74 174.5c-32.667 75.667 -52.167 117.334 -58.5 125.001
s-14.5 14.834 -24.5 21.501s-37 13 -81 19l-8 8v40l9 8c76.667 -4.66699 155.334 -7 236.001 -7c94.667 0 167.667 2.33301 219 7l8 -8v-40l-7 -8c-7.33301 -0.666992 -27.833 -2.16699 -61.5 -4.5s-54.667 -7.66602 -63 -15.999s-12.5 -17.833 -12.5 -28.5
c0 -11.333 10.333 -48.166 31 -110.499s40.667 -117.5 60 -165.5l63 -156c41.333 -102.667 73.333 -178.334 96 -227.001l53 117c18.667 42.667 45.334 107.334 80.001 194.001l83 212c21.333 54.667 33.5 88.667 36.5 102s4.5 23 4.5 29c0 14.667 -5.33301 24.667 -16 30
s-34.334 10 -71.001 14l-42 6l-7 8v44l8 8c56 -4.66699 122.333 -7 199 -7c70 0 126 2.33301 168 7l8 -8v-44l-8 -8c-24.667 -0.666992 -44.334 -4 -59.001 -10s-28.667 -16.667 -42 -32s-37.333 -58.5 -72 -129.5l-104 -220.5l-98 -215l-231 -540
c-20 -46.667 -44.833 -96.667 -74.5 -150s-66 -91.833 -109 -115.5s-88.5 -35.5 -136.5 -35.5c-42 0 -81.667 11 -119 33zM815 -60.0029z" />
    <glyph glyph-name="z" unicode="z" 
d="M54 -8l-9.00195 8l-9 38c86 91.333 168.333 186.333 247 285l221 274c69.333 84 134 170.667 194 260h-236c-18.667 0 -61.667 -1.5 -129 -4.5s-104.666 -8.33301 -111.999 -16s-17.333 -51.167 -30 -130.5l-6 -32l-8 -8h-40l-9 9c6.66699 105.333 10 166.333 10 183
c0 16 -0.666992 38.667 -2 68l8 7c248 -5.33301 445.667 -8 593 -8c78.667 0 140.667 2.66699 186 8l8 -8v-48c-46 -50.667 -117.667 -138 -215 -262l-262 -333c-77.333 -98 -131.666 -169 -162.999 -213h70l200 3c73.333 0.666992 135 3.66699 185 9
s79.167 9.83301 87.5 13.5s13.5 7 15.5 10s7.83301 23.833 17.5 62.5s17.167 74.667 22.5 108l9 8h45l9 -9c-16 -118.667 -25 -210 -27 -274l-8 -8c-200 6 -351.667 9 -455 9c-91.333 0 -227.333 -3 -408 -9z" />
    <glyph glyph-name="braceleft" unicode="{" horiz-adv-x="682" 
d="M592 -356c-129.333 0 -215.003 22.335 -257.003 67.002c-38.667 41.333 -58 126.333 -58 255v345c0 58.667 -4.16699 102 -12.5 130s-24.166 52.333 -47.499 73c-27.333 24 -60 36 -98 36v25c62 0 105.333 25.333 130 76c18.667 38 28 89.667 28 155v379
c0 58 5.66699 106.667 17 146c18.667 65.333 57.334 109.666 116.001 132.999c40.667 16 101.334 24 182.001 24v-25c-57.333 0 -99.333 -19 -126 -57s-40 -100.667 -40 -188v-378c0 -78.667 -10 -137.334 -30 -176.001c-25.333 -48 -72 -82 -140 -102
c70 -20.667 117 -54.667 141 -102c19.333 -37.333 29 -97 29 -179v-371c0 -126 29 -202.333 87 -229c18 -8 44.333 -12 79 -12v-25z" />
    <glyph glyph-name="bar" unicode="|" 
d="M454 0v1497h115v-1497h-115z" />
    <glyph glyph-name="braceright" unicode="}" horiz-adv-x="682" 
d="M564 550c-38 0 -70.6699 -12.0029 -98.0029 -36.0029c-23.333 -20.667 -39.166 -45 -47.499 -73s-12.5 -71.333 -12.5 -130v-345c0 -128.667 -19.333 -213.667 -58 -255c-42 -44.667 -127.667 -67 -257 -67v25c60.667 0 102.667 18.667 126 56
c26.667 42.667 40 104.334 40 185.001v371c0 82 9.66699 141.667 29 179c24 47.333 71 81.333 141 102c-68 20 -114.667 54 -140 102c-20 38.667 -30 97.334 -30 176.001v378c0 87.333 -13.333 150 -40 188s-68.667 57 -126 57v25c80.667 0 141.334 -8 182.001 -24
c58.667 -23.333 97.334 -67.666 116.001 -132.999c11.333 -39.333 17 -88 17 -146v-379c0 -65.333 9.33301 -117 28 -155c24.667 -50.667 68 -76 130 -76v-25z" />
    <glyph glyph-name="asciitilde" unicode="~" 
d="M968 710c-68.667 -132.667 -151.667 -199 -249 -199c-38.667 0 -129.667 29.333 -273 88c-62 25.333 -105.333 38 -130 38c-28.667 0 -56.5 -8.5 -83.5 -25.5s-64.5 -63.833 -112.5 -140.5l-64 73c55.333 89.333 101.833 146.5 139.5 171.5s76.167 37.5 115.5 37.5
c44.667 0 116.667 -21.333 216 -64c96 -41.333 158.667 -62 188 -62c72 0 135.333 51 190 153z" />
    <glyph glyph-name="exclamdown" unicode="&#xa1;" horiz-adv-x="569" 
d="M275 690c-32.667 0 -60.832 11.499 -84.499 34.499s-35.5 51.5 -35.5 85.5c0 32.667 11.667 60.834 35 84.501s51.666 35.5 84.999 35.5c32.667 0 60.667 -11.667 84 -35s35 -51.666 35 -84.999c0 -34.667 -11.833 -63.334 -35.5 -86.001s-51.5 -34 -83.5 -34z
M157.002 -516.001l0.000976562 104.999c0 4 7.33301 82 22 234c21.333 224.667 40 441.334 56 650.001l55 50l19 -9c5.33301 -134 20.666 -332 45.999 -594l20 -225c2.66699 -41.333 4 -85.333 4 -132c-54 -24.667 -106 -51 -156 -79h-66z" />
    <glyph glyph-name="cent" unicode="&#xa2;" 
d="M616 -29l0.000976562 -23.001c0 -56.667 1.66699 -107.667 5 -153l-9 -7h-74l-9 7c0.666992 20.667 1 42.334 1 65.001c0 18.667 0.666992 40 2 64v48c-126 9.33301 -225.333 54.166 -298 134.499s-109 183.833 -109 310.5c0 58.667 6.83301 111.167 20.5 157.5
s31 84.833 52 115.5s45.167 55.667 72.5 75s71.333 44.5 132 75.5s104 50.5 130 58.5v88c0 44 -1 81 -3 111l9 7h71l10 -7c-2 -22 -3 -57.333 -3 -106v-79c15.333 0.666992 32 1 50 1c98.667 0 181 -18.667 247 -56c-12.667 -72 -22.334 -151.667 -29.001 -239l-9 -8h-41
l-9 9c-2.66699 60.667 -7 98.167 -13 112.5s-29.167 31 -69.5 50s-82.5 30.167 -126.5 33.5v-743c26 -2.66699 45.333 -4 58 -4c62 0 134.667 19.333 218 58l21 -25l-40 -64c-79.333 -41.333 -165 -63.666 -257 -66.999zM532.001 813.999
c-152 -20.667 -228.001 -124.333 -228.001 -311c0 -86.667 18.333 -169 55 -247s94.334 -132 173.001 -162v720z" />
    <glyph glyph-name="sterling" unicode="&#xa3;" 
d="M24 -40l-0.00390625 102.999c26.667 24 60.334 47 101.001 69c29.333 43.333 53.166 96.833 71.499 160.5s27.5 155.834 27.5 276.501l-1 68c-92 0 -155 -2.33301 -189 -7l-10 10l14 73l9 8c40.667 -3.33301 99.334 -5 176.001 -5v68c0 15.333 1.66699 57.666 5 126.999
s11.833 124.833 25.5 166.5s34.834 76.5 63.501 104.5s76 64.5 142 109.5s121.667 75 167 90s94 22.5 146 22.5c84.667 0 151 -16.333 199 -49l6 -15c-10.667 -71.333 -17.334 -156.666 -20.001 -255.999l-9 -9h-41l-9 9c-0.666992 3.33301 -1.66699 18 -3 44
c-4.66699 69.333 -27.834 116.833 -69.501 142.5s-88.834 38.5 -141.501 38.5c-68.667 0 -126.167 -20.5 -172.5 -61.5s-76 -100.833 -89 -179.5s-21.833 -196 -26.5 -352h119c94.667 0 178.334 1.66699 251.001 5l7 -5l-17 -76l-10 -8
c-97.333 3.33301 -182.666 5 -255.999 5h-102c-6.66699 -111.333 -29.667 -208.333 -69 -291s-79.666 -154 -120.999 -214c82.667 19.333 151.334 29 206.001 29c52 0 124.333 -5.33301 217 -16c96 -10.667 163.333 -16 202 -16c22 0 38 3.66699 48 11s17 25.666 21 54.999
l15 108l8 9h44l8 -8c-5.33301 -96 -8.66602 -196 -9.99902 -300c-29.333 -16 -51.833 -26 -67.5 -30s-33.5 -6 -53.5 -6c-66.667 0 -143 10.667 -229 32c-110 27.333 -185.333 44 -226 50s-80 9 -118 9c-30.667 0 -64.667 -3.33301 -102 -10
c-6.66699 -6 -15.667 -15.333 -27 -28c-20 -23.333 -40.667 -43.666 -62 -60.999h-48z" />
    <glyph glyph-name="currency" unicode="&#xa4;" 
d="M30 858l75.999 76.999l182 -197c66.667 55.333 141.334 83 224.001 83c42.667 0 80.834 -6.33301 114.501 -19s70.167 -34 109.5 -64l181 196l76 -76l-199 -184c41.333 -61.333 62 -127 62 -197s-20.667 -135.667 -62 -197l199 -184l-76 -76l-181 196
c-66.667 -55.333 -141.334 -83 -224.001 -83c-34.667 0 -70 5.16699 -106 15.5s-75.333 32.833 -118 67.5l-182 -196l-76 76l199 184c-40.667 60 -61 125.667 -61 197c0 70.667 20.333 136.334 61 197.001zM251.999 476.999c0 -71.333 25.333 -132.5 76 -183.5
s112 -76.5 184 -76.5c70.667 0 131.5 25.5 182.5 76.5s76.5 112.167 76.5 183.5s-25.167 132.5 -75.5 183.5s-111.5 76.5 -183.5 76.5c-72.667 0 -134.167 -25.667 -184.5 -77s-75.5 -112.333 -75.5 -183z" />
    <glyph glyph-name="yen" unicode="&#xa5;" 
d="M612 420l-0.00195312 -79.002l1 -21c0.666992 -16.667 1 -42.667 1 -78c0 -93.333 7.66699 -147.166 23 -161.499s71 -22.833 167 -25.5l7 -6v-50l-7 -8c-193.333 6 -291.666 9 -294.999 9c-24.667 0 -113 -3 -265 -9l-8 8v50l8 6c95.333 2.66699 151 11.5 167 26.5
s24 69.167 24 162.5l1 100v76h-312l-8 8v64l9 8h311v32c0 14.667 -1.33301 27.834 -4 39.501s-20 53.5 -52 125.5h-255l-9 8v65l8 8h220l-155 328c-45.333 95.333 -80.166 155 -104.499 179s-56.166 37.333 -95.499 40l-9 8v44l7 9c29.333 4 73.666 13 132.999 27
c44 10 72 15 84 15c18 0 33.167 -4.66699 45.5 -14s24 -24.833 35 -46.5s30.833 -68.834 59.5 -141.501l211 -529l143 331l81 189c26.667 62 52.334 127.333 77.001 196c4.66699 0 14.667 -0.333008 30 -1c29.333 -2.66699 46 -4 50 -4c1.33301 0 27.333 1.66699 78 5v-28
c-78.667 -109.333 -167 -265.666 -265 -468.999l-67 -138h240l8 -8v-65l-8 -8h-274c-14.667 -36.667 -24.334 -63.5 -29.001 -80.5s-7 -37.167 -7 -60.5v-56h309l9 -8v-64l-9 -8h-309z" />
    <glyph glyph-name="brokenbar" unicode="&#xa6;" 
d="M454 1497h115v-591h-115v591zM454 0v591h115v-591h-115z" />
    <glyph glyph-name="section" unicode="&#xa7;" 
d="M92 -351c14 81.333 22.334 179.668 25.001 295.001l8 9h48l9 -9c2.66699 -52 8 -110 16 -174c42.667 -48.667 90.834 -81.334 144.501 -98.001s103.167 -25 148.5 -25c56 0 107.5 11.167 154.5 33.5s82.167 54.166 105.5 95.499s35 83.333 35 126
c0 40 -10.5 76.333 -31.5 109s-57.833 60.334 -110.5 83.001s-134.667 53 -246 91c-108.667 37.333 -183.5 68.166 -224.5 92.499s-70.833 55.333 -89.5 93s-28 77.167 -28 118.5c0 38 7.16699 74.833 21.5 110.5s33.666 66.834 57.999 93.501s54.166 53.334 89.499 80.001
c-78.667 56.667 -118 126.667 -118 210c0 102 43 203.333 129 304s202.667 151 350 151c95.333 0 181.333 -22.667 258 -68l5 -14c-13.333 -102.667 -21.666 -200.667 -24.999 -294l-7 -7h-49l-8 7c-4 94 -7.33301 149.667 -10 167c-62 66 -143 99 -243 99
c-86 0 -154.5 -22.667 -205.5 -68s-76.5 -101.333 -76.5 -168c0 -36.667 7.66699 -69.334 23 -98.001s42.5 -54.167 81.5 -76.5s120.833 -53.166 245.5 -92.499l136 -45c46 -15.333 82.167 -30.5 108.5 -45.5s49.5 -33.833 69.5 -56.5s35.5 -48.5 46.5 -77.5
s16.5 -59.5 16.5 -91.5c0 -58.667 -14.167 -110.834 -42.5 -156.501s-67.833 -89.5 -118.5 -131.5c48 -32 80.333 -64 97 -96s25 -70 25 -114c0 -110.667 -48 -215.667 -144 -315s-217.333 -149 -364 -149c-120.667 0 -223.334 30 -308.001 90zM745.001 246.002
c27.333 40 45.998 73 55.998 99s15 52.667 15 80c0 48 -15.667 88.833 -47 122.5s-98.666 67.167 -201.999 100.5s-199.666 66 -288.999 98c-24 -20.667 -44.5 -46.667 -61.5 -78s-25.5 -64 -25.5 -98c0 -25.333 5.66699 -49.5 17 -72.5s29 -44 53 -63
s55.667 -35.5 95 -49.5l213 -76c103.333 -36 162 -57 176 -63z" />
    <glyph glyph-name="dieresis" unicode="&#xa8;" horiz-adv-x="682" 
d="M552 1163c-30 0 -55.667 10.667 -77 32s-32 47 -32 77c0 30.667 10.5 56.5 31.5 77.5s46.833 31.5 77.5 31.5s56.5 -10.5 77.5 -31.5s31.5 -46.833 31.5 -77.5c0 -30 -10.667 -55.667 -32 -77s-47 -32 -77 -32zM129 1163c-30 0 -55.667 10.667 -77 32s-32 47 -32 77
s10.667 55.667 32 77s47 32 77 32c30.667 0 56.5 -10.5 77.5 -31.5s31.5 -46.833 31.5 -77.5c0 -30 -10.667 -55.667 -32 -77s-47 -32 -77 -32z" />
    <glyph glyph-name="copyright" unicode="&#xa9;" horiz-adv-x="1530" 
d="M22 705c0 124.667 31.6699 245.5 95.0029 362.5s154.166 209.667 272.499 278s243.5 102.5 375.5 102.5c131.333 0 254.666 -33.167 369.999 -99.5s206.166 -157.333 272.499 -273s99.5 -239.167 99.5 -370.5c0 -132.667 -33.167 -256.5 -99.5 -371.5
s-156.833 -205.5 -271.5 -271.5s-238.334 -99 -371.001 -99c-132 0 -257.167 34 -375.5 102s-209.166 160.667 -272.499 278s-95 238 -95 362zM113.003 705c0 -112 28.1709 -219.001 84.5039 -321.001s135.666 -182.667 237.999 -242s212.166 -89 329.499 -89
c115.333 0 223.666 29 324.999 87s181.166 137.833 239.499 239.5s87.5 210.167 87.5 325.5c0 116.667 -29.167 225.334 -87.5 326.001s-138 180.167 -239 238.5s-209.5 87.5 -325.5 87.5s-226 -29.833 -330 -89.5s-183.667 -141 -239 -244s-83 -209.167 -83 -318.5z
M1058.01 500.999l40.998 -17.998c-30 -58.667 -61.333 -101.667 -94 -129s-69.5 -47 -110.5 -59s-82.167 -18 -123.5 -18c-119.333 0 -216.666 39.5 -291.999 118.5s-113 180.167 -113 303.5c0 124 38.167 225.833 114.5 305.5s179.5 119.5 309.5 119.5
c100.667 0 197 -17.667 289 -53v-219h-53c-6.66699 86 -29.667 144 -69 174s-89.666 45 -150.999 45c-62.667 0 -115.5 -14.833 -158.5 -44.5s-77.5 -69.834 -103.5 -120.501s-39 -111.334 -39 -182.001c0 -80 15 -148.333 45 -205s65 -100.167 105 -130.5
s91.333 -45.5 154 -45.5c40.667 0 77 6.5 109 19.5s57.833 30 77.5 51s40.5 50.167 62.5 87.5z" />
    <glyph glyph-name="ordfeminine" unicode="&#xaa;" horiz-adv-x="682" 
d="M631 843l-10 -8.99902c-30.667 2.66699 -59 4 -85 4s-56.333 -1.33301 -91 -4l-14 13c0.666992 8 1.33398 35.333 2.00098 82l-122 -101c-23.333 -9.33301 -48.666 -14 -75.999 -14c-47.333 0 -86.5 14.167 -117.5 42.5s-46.5 66.5 -46.5 114.5
c0 57.333 17.667 101.333 53 132c26.667 24 70.667 44 132 60c53.333 14 112.666 24.667 177.999 32c0 69.333 -16 115.333 -48 138c-22 15.333 -52.667 23 -92 23c-27.333 0 -53 -6 -77 -18c-12.667 -6.66699 -20 -13.667 -22 -21l-26 -73l-10 -6l-29 7l-9 10
c0.666992 9.33301 1 21.333 1 36v44c74.667 54.667 147.334 82 218.001 82c61.333 0 111.666 -15.667 150.999 -47c42 -34 62.333 -80.333 61 -139l-3 -118v-176c0 -20.667 1.33301 -33.334 4 -38.001c3.33301 -6.66699 13.666 -11 30.999 -13l38 -4l9 -9v-30zM612 648.001
h-542v76h542v-76zM434 996.001v148.001c-83.333 -14 -135.333 -25.333 -156 -34c-56.667 -22.667 -85 -61.334 -85 -116.001c0 -61.333 29 -92 87 -92c46.667 0 98 31.333 154 94z" />
    <glyph glyph-name="guillemotleft" unicode="&#xab;" 
d="M102 448v24c10 10.667 41.667 42 95 94l114 110l139 143l12 2l37 -26l2 -11c-125.333 -163.333 -202.666 -271.333 -231.999 -324c16.667 -27.333 50.167 -76.333 100.5 -147s94.166 -129.667 131.499 -177l-2 -11l-37 -26l-12 2l-250 251zM512 448v24
c10 10.667 41.667 42 95 94l113 110l140 143l12 2l37 -26l1 -11c-124.667 -163.333 -201.667 -271.333 -231 -324c16 -27.333 49.333 -76.333 100 -147l131 -177l-1 -11l-37 -26l-12 2l-251 251z" />
    <glyph glyph-name="logicalnot" unicode="&#xac;" 
d="M994 280h-116v432h-848v112h964v-544z" />
    <glyph glyph-name="registered" unicode="&#xae;" horiz-adv-x="1530" 
d="M22 705c0 124.667 31.6699 245.5 95.0029 362.5s154.166 209.667 272.499 278s243.5 102.5 375.5 102.5c131.333 0 254.666 -33.167 369.999 -99.5s206.166 -157.333 272.499 -273s99.5 -239.167 99.5 -370.5c0 -132.667 -33.167 -256.5 -99.5 -371.5
s-156.833 -205.5 -271.5 -271.5s-238.334 -99 -371.001 -99c-132 0 -257.167 34 -375.5 102s-209.166 160.667 -272.499 278s-95 238 -95 362zM113.003 705c0 -112 28.1709 -219.001 84.5039 -321.001s135.666 -182.667 237.999 -242s212.166 -89 329.499 -89
c115.333 0 223.666 29 324.999 87s181.166 137.833 239.499 239.5s87.5 210.167 87.5 325.5c0 116.667 -29.167 225.334 -87.5 326.001s-138 180.167 -239 238.5s-209.5 87.5 -325.5 87.5s-226 -29.833 -330 -89.5s-183.667 -141 -239 -244s-83 -209.167 -83 -318.5z
M423.007 326.999l-0.00195312 30.998c14.667 0.666992 23.667 1 27 1c26 0 43 2 51 6s13.5 10.833 16.5 20.5s4.5 29.5 4.5 59.5v573c0 34 -2.16699 55.667 -6.5 65s-11.166 15.166 -20.499 17.499s-33.333 3.83301 -72 4.5v32h335c48 0 92.333 -4.33301 133 -13
s71.5 -20.5 92.5 -35.5s38.5 -35.833 52.5 -62.5s21 -56.667 21 -90c0 -52 -18.833 -97.833 -56.5 -137.5s-94.834 -65.5 -171.501 -77.5c26.667 -7.33301 48.667 -17.666 66 -30.999s34.333 -33.166 51 -59.499s37.667 -68.166 63 -125.499
c26.667 -60.667 47.834 -100 63.501 -118s42.5 -27.667 80.5 -29v-31h-80c-35.333 0 -62.666 4 -81.999 12s-37 25.5 -53 52.5s-40.667 82.167 -74 165.5c-18 46 -33.5 77.5 -46.5 94.5s-26.833 29.333 -41.5 37s-43.334 11.5 -86.001 11.5h-56v-255
c0 -31.333 1.5 -51.5 4.5 -60.5s8.83301 -15.5 17.5 -19.5s25.334 -6 50.001 -6c5.33301 0 14.333 -0.333008 27 -1v-31h-310zM634.005 740.997l56 -0.000976562c86 0 149.333 14.333 190 43s61 74.334 61 137.001c0 118 -64 177 -192 177h-59c-20 0 -33 -2.66699 -39 -8
s-10.333 -10.5 -13 -15.5s-4 -22.167 -4 -51.5v-282z" />
    <glyph glyph-name="macron" unicode="&#xaf;" horiz-adv-x="682" 
d="M656 1215h-630v105h630v-105z" />
    <glyph glyph-name="macron" unicode="&#x2c9;" horiz-adv-x="682" 
d="M656 1215h-630v105h630v-105z" />
    <glyph glyph-name="degree" unicode="&#xb0;" horiz-adv-x="819" 
d="M410 1411c52.667 0 103.168 -13.334 151.501 -40.001s86.5 -64.167 114.5 -112.5s42 -100.166 42 -155.499c0 -84.667 -30 -157.167 -90 -217.5s-132.667 -90.5 -218 -90.5s-158 30.167 -218 90.5s-90 132.833 -90 217.5c0 54.667 14.167 106.5 42.5 155.5
s66.666 86.667 114.999 113s98.5 39.5 150.5 39.5zM410.001 1330c-62 0 -115.332 -22.166 -159.999 -66.499s-67 -97.833 -67 -160.5c0 -62 22.333 -115.167 67 -159.5s98 -66.5 160 -66.5c62.667 0 116 22 160 66s66 97.333 66 160c0 40 -10.333 78.167 -31 114.5
s-48.834 64.166 -84.501 83.499s-72.5 29 -110.5 29z" />
    <glyph glyph-name="plusminus" unicode="&#xb1;" 
d="M994 606h-424v-369h-116v369h-424v112h424v369h116v-369h424v-112zM994 0h-964v112h964v-112z" />
    <glyph glyph-name="uni00B2" unicode="&#xb2;" horiz-adv-x="655" 
d="M40 554l-12.001 9.99902v34l206 211c82 84 135.667 149.333 161 196s38 91.334 38 134.001c0 43.333 -14.167 80.5 -42.5 111.5s-67.5 46.5 -117.5 46.5c-30 0 -58 -5 -84 -15s-42.333 -22.167 -49 -36.5s-17 -46.5 -31 -96.5l-10 -8h-30l-12 10
c10 55.333 16.667 110 20 164c40 37.333 77.167 61.333 111.5 72s70.166 16 107.499 16c76.667 0 139.667 -20.667 189 -62s74 -97 74 -167c0 -35.333 -7.16699 -71 -21.5 -107s-35.166 -70.333 -62.499 -103s-64.666 -72 -111.999 -118l-177 -174h222
c70.667 0 133.334 2.66699 188.001 8l10 -10c-2.66699 -14.667 -4 -33 -4 -55c0 -18.667 1.33301 -34.667 4 -48l-9 -13c-76.667 4 -162.667 6 -258 6c-142.667 0 -242.334 -2 -299.001 -6z" />
    <glyph glyph-name="uni00B3" unicode="&#xb3;" horiz-adv-x="655" 
d="M72 576c-7.33301 48 -21.3311 105.668 -41.998 173.001l5 15l29 10l14 -7c10.667 -28 24.167 -55.333 40.5 -82s39.666 -46.5 69.999 -59.5s63.166 -19.5 98.499 -19.5c42.667 0 76.667 8.66699 102 26s44.833 41 58.5 71s20.5 64 20.5 102c0 50.667 -13.5 90 -40.5 118
s-64.167 42 -111.5 42c-17.333 0 -32.5 -1.5 -45.5 -4.5s-34.5 -10.5 -64.5 -22.5l-14 12l16 75c36 -2 60 -3 72 -3c46.667 0 83 15.833 109 47.5s39 68.167 39 109.5c0 38 -14.167 69.167 -42.5 93.5s-62.166 36.5 -101.499 36.5c-52 0 -97.333 -18 -136 -54
c-6.66699 -13.333 -17.334 -39.666 -32.001 -78.999l-10 -8h-33l-10 11l38 142c52.667 58.667 123.667 88 213 88c67.333 0 122.5 -17.833 165.5 -53.5s64.5 -80.5 64.5 -134.5c0 -31.333 -8 -61.833 -24 -91.5s-49.333 -64.5 -100 -104.5
c66 -10.667 112.333 -32.834 139 -66.501s40 -72.834 40 -117.501c0 -77.333 -36 -146.833 -108 -208.5s-155.333 -92.5 -250 -92.5c-58 0 -114.333 12 -169 36z" />
    <glyph glyph-name="acute" unicode="&#xb4;" horiz-adv-x="682" 
d="M510 1467l-294 -374l-13 -4l-29 15l-3 13l153 349l156 29l13 -3z" />
    <glyph glyph-name="uni00B5" unicode="&#xb5;" horiz-adv-x="1325" 
d="M1287 98l-7.99805 -46c-82.667 -46.667 -156.334 -70 -221.001 -70c-36.667 0 -65.5 8.16699 -86.5 24.5s-35.333 37.666 -43 63.999s-12.167 66.166 -13.5 119.499l-15 9c-54.667 -76 -111.167 -132.667 -169.5 -170s-124.833 -56 -199.5 -56
c-97.333 0 -169.333 30.667 -216 92l-20 -4c4 -263.333 21 -461.333 51 -594l-15 -22c-37.333 -6 -78.333 -10 -123 -12l-18 14c6.66699 279.333 13 558.333 19 837c0 298.667 -7.33301 515.667 -22 651l174 18l21 -20c-10 -92 -15 -202 -15 -330
c0 -224 20.5 -366 61.5 -426s100.833 -90 179.5 -90c62.667 0 118 17 166 51s83.333 80 106 138s34 141.667 34 251c0 164.667 -2.66699 300.667 -8 408l170 18l21 -20c-4.66699 -44 -9.83398 -124.333 -15.501 -241s-8.5 -203 -8.5 -259
c0 -99.333 2.5 -172.666 7.5 -219.999s17.167 -82.166 36.5 -104.499s46 -33.5 80 -33.5c26.667 0 56.667 7.66699 90 23z" />
    <glyph glyph-name="uni00B5" unicode="&#x3bc;" horiz-adv-x="1325" 
d="M1287 98l-7.99805 -46c-82.667 -46.667 -156.334 -70 -221.001 -70c-36.667 0 -65.5 8.16699 -86.5 24.5s-35.333 37.666 -43 63.999s-12.167 66.166 -13.5 119.499l-15 9c-54.667 -76 -111.167 -132.667 -169.5 -170s-124.833 -56 -199.5 -56
c-97.333 0 -169.333 30.667 -216 92l-20 -4c4 -263.333 21 -461.333 51 -594l-15 -22c-37.333 -6 -78.333 -10 -123 -12l-18 14c6.66699 279.333 13 558.333 19 837c0 298.667 -7.33301 515.667 -22 651l174 18l21 -20c-10 -92 -15 -202 -15 -330
c0 -224 20.5 -366 61.5 -426s100.833 -90 179.5 -90c62.667 0 118 17 166 51s83.333 80 106 138s34 141.667 34 251c0 164.667 -2.66699 300.667 -8 408l170 18l21 -20c-4.66699 -44 -9.83398 -124.333 -15.501 -241s-8.5 -203 -8.5 -259
c0 -99.333 2.5 -172.666 7.5 -219.999s17.167 -82.166 36.5 -104.499s46 -33.5 80 -33.5c26.667 0 56.667 7.66699 90 23z" />
    <glyph glyph-name="paragraph" unicode="&#xb6;" horiz-adv-x="1286" 
d="M372 -304l-0.000976562 65.001c76 0.666992 123.333 3.83398 142 9.50098s31.834 14.667 39.501 27s12 37.5 13 75.5s2.5 139 4.5 303v535c-129.333 3.33301 -244 42.833 -344 118.5s-150 169.167 -150 280.5c0 88 30.333 162.167 91 222.5s151 90.5 271 90.5
c16.667 0 69 -1.66699 157 -5c78 -3.33301 171.667 -5 281 -5c54 0 164.333 2.66699 331 8v-64c-77.333 -1.33301 -125 -4.66602 -143 -9.99902s-30.833 -14.333 -38.5 -27s-12 -37.167 -13 -73.5s-2.5 -137.833 -4.5 -304.5v-766c0 -70 0.833008 -146.333 2.5 -229
s5.83398 -130.834 12.501 -144.501s18.667 -23.834 36 -30.501s66.666 -10.334 147.999 -11.001v-65l-421 7c-64 0 -202.333 -2.33301 -415 -7zM570.999 1350c-92.667 -5.33301 -160.167 -32.832 -202.5 -82.499s-63.5 -112.834 -63.5 -189.501s25 -140.5 75 -191.5
s113.667 -84.167 191 -99.5v563zM719.999 -231.998h140v1582h-140v-1582z" />
    <glyph glyph-name="periodcentered" unicode="&#xb7;" horiz-adv-x="512" 
d="M256 733c32 0 59.8311 -11.501 83.498 -34.501s35.5 -51.5 35.5 -85.5c0 -32.667 -11.667 -60.667 -35 -84s-51.333 -35 -84 -35c-33.333 0 -61.666 11.667 -84.999 35s-35 51.333 -35 84c0 34.667 11.833 63.334 35.5 86.001s51.834 34 84.501 34z" />
    <glyph glyph-name="periodcentered" unicode="&#x2219;" horiz-adv-x="512" 
d="M256 733c32 0 59.8311 -11.501 83.498 -34.501s35.5 -51.5 35.5 -85.5c0 -32.667 -11.667 -60.667 -35 -84s-51.333 -35 -84 -35c-33.333 0 -61.666 11.667 -84.999 35s-35 51.333 -35 84c0 34.667 11.833 63.334 35.5 86.001s51.834 34 84.501 34z" />
    <glyph glyph-name="cedilla" unicode="&#xb8;" horiz-adv-x="682" 
d="M139 -416l-3.99902 11.001l23 49l10 5c38.667 -14 78.334 -21 119.001 -21c70.667 0 106 27 106 81c0 21.333 -9.16699 39.166 -27.5 53.499s-41.833 21.5 -70.5 21.5c-18 0 -38 -3.33301 -60 -10l-16 14l98 212h77l-66 -150c27.333 4 46.666 6 57.999 6
c50 0 89.333 -13 118 -39s43 -58 43 -96c0 -52 -22.333 -92.5 -67 -121.5s-100.334 -43.5 -167.001 -43.5c-64 0 -122 9.33301 -174 28z" />
    <glyph glyph-name="uni00B9" unicode="&#xb9;" horiz-adv-x="655" 
d="M110 1227l-18.998 5.00098l-7 57l10 10c42 12 94.167 30.5 156.5 55.5s107.166 44.5 134.499 58.5l24 -9c-6.66699 -178.667 -10 -284 -10 -316v-218c0 -126.667 1.5 -199.334 4.5 -218.001s9 -30 18 -34s46.5 -7.66699 112.5 -11l9 -10v-32l-9 -10
c-90 3.33301 -153.667 5 -191 5c-30.667 0 -99.334 -1.66699 -206.001 -5l-10 10v32l10 10c65.333 4 101.833 7.16699 109.5 9.5s13.5 7 17.5 14s7.5 40 10.5 99s4.5 106.833 4.5 143.5v232c0 99.333 -1.66699 164 -5 194c-2 0 -10.667 -3.33301 -26 -10
c-78 -34 -124 -54.667 -138 -62z" />
    <glyph glyph-name="ordmasculine" unicode="&#xba;" horiz-adv-x="682" 
d="M648 1131c0 -91.333 -31 -166.999 -93 -226.999s-138.667 -90 -230 -90c-83.333 0 -152.666 29.167 -207.999 87.5s-83 129.166 -83 212.499c0 90 30.667 163.333 92 220c59.333 55.333 134.666 83 225.999 83c86 0 156.833 -26.333 212.5 -79s83.5 -121.667 83.5 -207z
M612 648.001h-542v76h542v-76zM515 1084c0 74.667 -12.999 138 -38.999 190c-34 66 -84.333 99 -151 99c-107.333 0 -161 -72.667 -161 -218c0 -74.667 13.333 -139 40 -193c34 -68.667 85 -103 153 -103c55.333 0 96.666 24.667 123.999 74c22.667 40 34 90.333 34 151z
" />
    <glyph glyph-name="guillemotright" unicode="&#xbb;" 
d="M910 472v-24.001c-10 -11.333 -41.667 -42.666 -95 -93.999l-113 -110l-140 -143l-12 -2l-37 26l-1 11c124.667 163.333 201.667 271.333 231 324c-16 27.333 -49.333 76.333 -100 147l-131 177l1 11l37 26l12 -2l251 -251zM501 471.999l-0.000976562 -24.001
c-10.667 -11.333 -42.667 -42.666 -96 -93.999l-113 -110l-139 -143l-13 -2l-37 26l-1 11c125.333 163.333 202.333 271.333 231 324c-16 27.333 -49.167 76.333 -99.5 147s-94.166 129.667 -131.499 177l1 11l37 26l13 -2l250 -251z" />
    <glyph glyph-name="onequarter" unicode="&#xbc;" horiz-adv-x="1652" 
d="M110 1227l-18.998 5.00098l-7 57l10 10c42 12 94.167 30.5 156.5 55.5s107.166 44.5 134.499 58.5l24 -9c-6.66699 -178.667 -10 -284 -10 -316v-218c0 -126.667 1.5 -199.334 4.5 -218.001s9 -30 18 -34s46.5 -7.66699 112.5 -11l9 -10v-32l-9 -10
c-90 3.33301 -153.667 5 -191 5c-30.667 0 -99.334 -1.66699 -206.001 -5l-10 10v32l10 10c65.333 4 101.833 7.16699 109.5 9.5s13.5 7 17.5 14s7.5 40 10.5 99s4.5 106.833 4.5 143.5v232c0 99.333 -1.66699 164 -5 194c-2 0 -10.667 -3.33301 -26 -10
c-78 -34 -124 -54.667 -138 -62zM324.002 -23.999l909 1425l11 8h80l5 -10l-910 -1427l-11 -7h-78zM1211 -4.99902l-10 9.00195v32l9 9c60.667 2 96.334 3.83301 107.001 5.5s18.167 5 22.5 10s7.83301 19.667 10.5 44s4 49.5 4 75.5v36h-126
c-76 0 -143.667 -1.33301 -203 -4l-13 40c72 131.333 191 318.666 357 561.999c35.333 15.333 66 27.333 92 36l23 -10c-6 -86.667 -9 -226.667 -9 -420v-114c43.333 0 85 1 125 3l11 -10c-1.33301 -16.667 -2 -28.667 -2 -36l2 -42l-11 -9c-45.333 2.66699 -79 4 -101 4
h-24v-33c0 -72 3.66699 -112.833 11 -122.5s45.666 -14.834 114.999 -15.501l10 -9v-31l-10 -10c-74 3.33301 -135 5 -183 5c-76 0 -145 -1.66699 -207 -5zM1114 306.003h240l5 387c-56 -80 -108.333 -159.5 -157 -238.5s-78 -128.5 -88 -148.5z" />
    <glyph glyph-name="onehalf" unicode="&#xbd;" horiz-adv-x="1652" 
d="M110 1227l-18.998 5.00098l-7 57l10 10c42 12 94.167 30.5 156.5 55.5s107.166 44.5 134.499 58.5l24 -9c-6.66699 -178.667 -10 -284 -10 -316v-218c0 -126.667 1.5 -199.334 4.5 -218.001s9 -30 18 -34s46.5 -7.66699 112.5 -11l9 -10v-32l-9 -10
c-90 3.33301 -153.667 5 -191 5c-30.667 0 -99.334 -1.66699 -206.001 -5l-10 10v32l10 10c65.333 4 101.833 7.16699 109.5 9.5s13.5 7 17.5 14s7.5 40 10.5 99s4.5 106.833 4.5 143.5v232c0 99.333 -1.66699 164 -5 194c-2 0 -10.667 -3.33301 -26 -10
c-78 -34 -124 -54.667 -138 -62zM324.002 -23.999l909 1425l11 8h80l5 -10l-910 -1427l-11 -7h-78zM1038 -5.99902l-12.001 9.99902v34l206 211c82 84 135.667 149.333 161 196s38 91.334 38 134.001c0 43.333 -14.167 80.5 -42.5 111.5s-67.5 46.5 -117.5 46.5
c-30 0 -58 -5 -84 -15s-42.333 -22.167 -49 -36.5s-17 -46.5 -31 -96.5l-10 -8h-30l-12 10c10 55.333 16.667 110 20 164c40 37.333 77.167 61.333 111.5 72s70.166 16 107.499 16c76.667 0 139.667 -20.667 189 -62s74 -97 74 -167c0 -35.333 -7.16699 -71 -21.5 -107
s-35.166 -70.333 -62.499 -103s-64.666 -72 -111.999 -118l-177 -174h222c70.667 0 133.334 2.66699 188.001 8l10 -10c-2.66699 -14.667 -4 -33 -4 -55c0 -18.667 1.33301 -34.667 4 -48l-9 -13c-76.667 4 -162.667 6 -258 6c-142.667 0 -242.334 -2 -299.001 -6z" />
    <glyph glyph-name="threequarters" unicode="&#xbe;" horiz-adv-x="1652" 
d="M72 576c-7.33301 48 -21.3311 105.668 -41.998 173.001l5 15l29 10l14 -7c10.667 -28 24.167 -55.333 40.5 -82s39.666 -46.5 69.999 -59.5s63.166 -19.5 98.499 -19.5c42.667 0 76.667 8.66699 102 26s44.833 41 58.5 71s20.5 64 20.5 102c0 50.667 -13.5 90 -40.5 118
s-64.167 42 -111.5 42c-17.333 0 -32.5 -1.5 -45.5 -4.5s-34.5 -10.5 -64.5 -22.5l-14 12l16 75c36 -2 60 -3 72 -3c46.667 0 83 15.833 109 47.5s39 68.167 39 109.5c0 38 -14.167 69.167 -42.5 93.5s-62.166 36.5 -101.499 36.5c-52 0 -97.333 -18 -136 -54
c-6.66699 -13.333 -17.334 -39.666 -32.001 -78.999l-10 -8h-33l-10 11l38 142c52.667 58.667 123.667 88 213 88c67.333 0 122.5 -17.833 165.5 -53.5s64.5 -80.5 64.5 -134.5c0 -31.333 -8 -61.833 -24 -91.5s-49.333 -64.5 -100 -104.5
c66 -10.667 112.333 -32.834 139 -66.501s40 -72.834 40 -117.501c0 -77.333 -36 -146.833 -108 -208.5s-155.333 -92.5 -250 -92.5c-58 0 -114.333 12 -169 36zM324.002 -23.999l909 1425l11 8h80l5 -10l-910 -1427l-11 -7h-78zM1211 -4.99902l-10 9.00195v32l9 9
c60.667 2 96.334 3.83301 107.001 5.5s18.167 5 22.5 10s7.83301 19.667 10.5 44s4 49.5 4 75.5v36h-126c-76 0 -143.667 -1.33301 -203 -4l-13 40c72 131.333 191 318.666 357 561.999c35.333 15.333 66 27.333 92 36l23 -10c-6 -86.667 -9 -226.667 -9 -420v-114
c43.333 0 85 1 125 3l11 -10c-1.33301 -16.667 -2 -28.667 -2 -36l2 -42l-11 -9c-45.333 2.66699 -79 4 -101 4h-24v-33c0 -72 3.66699 -112.833 11 -122.5s45.666 -14.834 114.999 -15.501l10 -9v-31l-10 -10c-74 3.33301 -135 5 -183 5c-76 0 -145 -1.66699 -207 -5z
M1114 306.003h240l5 387c-56 -80 -108.333 -159.5 -157 -238.5s-78 -128.5 -88 -148.5z" />
    <glyph glyph-name="questiondown" unicode="&#xbf;" horiz-adv-x="909" 
d="M505 690c-32.667 0 -60.832 11.501 -84.499 34.501s-35.5 51.5 -35.5 85.5c0 32.667 11.667 60.834 35 84.501s51.666 35.5 84.999 35.5c32.667 0 60.667 -11.833 84 -35.5s35 -51.834 35 -84.501s-11.667 -60.834 -35 -84.501s-51.333 -35.5 -84 -35.5zM524.002 560.001
c54.667 -42 82 -91.9971 82 -149.997c0 -38.667 -9.66699 -75.5 -29 -110.5s-63 -90.5 -131 -166.5c-52.667 -59.333 -91.667 -110.5 -117 -153.5s-38 -85.833 -38 -128.5c0 -66.667 24.333 -121.834 73 -165.501s107.667 -65.5 177 -65.5c38 0 81 9 129 27
c18 18.667 34.667 43.667 50 75l38 76l12 8l44 -5l6 -14l-78 -232c-77.333 -50.667 -162.333 -76 -255 -76c-66.667 0 -129.667 12 -189 36s-106.5 61.667 -141.5 113s-52.5 109.666 -52.5 174.999c0 42.667 6.83301 82.167 20.5 118.5s33.667 72 60 107
s76.833 85.833 151.5 152.5c47.333 42.667 83.5 77.167 108.5 103.5s43.667 52.166 56 77.499s18.5 48.333 18.5 69c0 34 -13 65.667 -39 95l1 15l27 19h16z" />
    <glyph glyph-name="Agrave" unicode="&#xc0;" horiz-adv-x="1593" 
d="M44 -8l-8.99902 8v52l9 8c48.667 0.666992 80 3.16699 94 7.5s26.5 13 37.5 26s33.167 55.5 66.5 127.5l105 228l272 616l153 362h65l427 -1004l57 -134c16.667 -38 35.834 -79.333 57.501 -124s36.667 -71 45 -79s18.666 -14.167 30.999 -18.5
s39.833 -6.83301 82.5 -7.5l8 -8v-52l-8 -8c-70.667 6 -134.334 9 -191.001 9c-110.667 -3.33301 -221.334 -6.33301 -332.001 -9l-8 8v52l8 8c74.667 1.33301 121.334 4.5 140.001 9.5s28 16.5 28 34.5c0 14.667 -4.66699 34 -14 58l-123 305h-579l-109 -256
c-19.333 -46 -29 -79.667 -29 -101c0 -16.667 9 -29 27 -37s63.333 -12.333 136 -13l9 -8v-52l-8 -8c-86 5.33301 -161.333 8 -226 8c-73.333 -0 -147.333 -2.66699 -222 -8zM500.001 553h506l-251 603zM916.001 1563l-25 -24l-15 4l-200 156l-210 157l12 31l10 7l187 -26
l97 -120l142 -171z" />
    <glyph glyph-name="Aacute" unicode="&#xc1;" horiz-adv-x="1593" 
d="M44 -8l-8.99902 8v52l9 8c48.667 0.666992 80 3.16699 94 7.5s26.5 13 37.5 26s33.167 55.5 66.5 127.5l105 228l272 616l153 362h65l427 -1004l57 -134c16.667 -38 35.834 -79.333 57.501 -124s36.667 -71 45 -79s18.666 -14.167 30.999 -18.5
s39.833 -6.83301 82.5 -7.5l8 -8v-52l-8 -8c-70.667 6 -134.334 9 -191.001 9c-110.667 -3.33301 -221.334 -6.33301 -332.001 -9l-8 8v52l8 8c74.667 1.33301 121.334 4.5 140.001 9.5s28 16.5 28 34.5c0 14.667 -4.66699 34 -14 58l-123 305h-579l-109 -256
c-19.333 -46 -29 -79.667 -29 -101c0 -16.667 9 -29 27 -37s63.333 -12.333 136 -13l9 -8v-52l-8 -8c-86 5.33301 -161.333 8 -226 8c-73.333 -0 -147.333 -2.66699 -222 -8zM500.001 553h506l-251 603zM1103 1856l-210 -157l-200 -156l-15 -4l-25 24l2 14l144 174
c2 2 33.667 41 95 117l187 26l10 -7z" />
    <glyph glyph-name="Acircumflex" unicode="&#xc2;" horiz-adv-x="1593" 
d="M44 -8l-8.99902 8v52l9 8c48.667 0.666992 80 3.16699 94 7.5s26.5 13 37.5 26s33.167 55.5 66.5 127.5l105 228l272 616l153 362h65l427 -1004l57 -134c16.667 -38 35.834 -79.333 57.501 -124s36.667 -71 45 -79s18.666 -14.167 30.999 -18.5
s39.833 -6.83301 82.5 -7.5l8 -8v-52l-8 -8c-70.667 6 -134.334 9 -191.001 9c-110.667 -3.33301 -221.334 -6.33301 -332.001 -9l-8 8v52l8 8c74.667 1.33301 121.334 4.5 140.001 9.5s28 16.5 28 34.5c0 14.667 -4.66699 34 -14 58l-123 305h-579l-109 -256
c-19.333 -46 -29 -79.667 -29 -101c0 -16.667 9 -29 27 -37s63.333 -12.333 136 -13l9 -8v-52l-8 -8c-86 5.33301 -161.333 8 -226 8c-73.333 -0 -147.333 -2.66699 -222 -8zM500.001 553h506l-251 603zM1124 1550l-7 -11h-62l-264 234l-264 -234h-62l-7 10l288 356h96z
M794.001 1905z" />
    <glyph glyph-name="Atilde" unicode="&#xc3;" horiz-adv-x="1593" 
d="M44 -8l-8.99902 8v52l9 8c48.667 0.666992 80 3.16699 94 7.5s26.5 13 37.5 26s33.167 55.5 66.5 127.5l105 228l272 616l153 362h65l427 -1004l57 -134c16.667 -38 35.834 -79.333 57.501 -124s36.667 -71 45 -79s18.666 -14.167 30.999 -18.5
s39.833 -6.83301 82.5 -7.5l8 -8v-52l-8 -8c-70.667 6 -134.334 9 -191.001 9c-110.667 -3.33301 -221.334 -6.33301 -332.001 -9l-8 8v52l8 8c74.667 1.33301 121.334 4.5 140.001 9.5s28 16.5 28 34.5c0 14.667 -4.66699 34 -14 58l-123 305h-579l-109 -256
c-19.333 -46 -29 -79.667 -29 -101c0 -16.667 9 -29 27 -37s63.333 -12.333 136 -13l9 -8v-52l-8 -8c-86 5.33301 -161.333 8 -226 8c-73.333 -0 -147.333 -2.66699 -222 -8zM500.001 553h506l-251 603zM1145 1822c-12.667 -58.667 -39.334 -109.833 -80.001 -153.5
s-86.667 -65.5 -138 -65.5c-44.667 0 -100.667 16.333 -168 49c-67.333 33.333 -113 50 -137 50c-59.333 0 -100.333 -33 -123 -99h-45l-7 8c11.333 58.667 37.833 109.667 79.5 153s87.5 65 137.5 65c44.667 0 100.334 -16.667 167.001 -50
c66.667 -32.667 113.667 -49 141 -49c54 0 94.333 33 121 99h45z" />
    <glyph glyph-name="Adieresis" unicode="&#xc4;" horiz-adv-x="1593" 
d="M44 -8l-8.99902 8v52l9 8c48.667 0.666992 80 3.16699 94 7.5s26.5 13 37.5 26s33.167 55.5 66.5 127.5l105 228l272 616l153 362h65l427 -1004l57 -134c16.667 -38 35.834 -79.333 57.501 -124s36.667 -71 45 -79s18.666 -14.167 30.999 -18.5
s39.833 -6.83301 82.5 -7.5l8 -8v-52l-8 -8c-70.667 6 -134.334 9 -191.001 9c-110.667 -3.33301 -221.334 -6.33301 -332.001 -9l-8 8v52l8 8c74.667 1.33301 121.334 4.5 140.001 9.5s28 16.5 28 34.5c0 14.667 -4.66699 34 -14 58l-123 305h-579l-109 -256
c-19.333 -46 -29 -79.667 -29 -101c0 -16.667 9 -29 27 -37s63.333 -12.333 136 -13l9 -8v-52l-8 -8c-86 5.33301 -161.333 8 -226 8c-73.333 -0 -147.333 -2.66699 -222 -8zM500.001 553h506l-251 603zM1038 1594c-31.333 0 -58 10.833 -80 32.5s-33 48.167 -33 79.5
s11 58 33 80s48.667 33 80 33s57.833 -11 79.5 -33s32.5 -48.667 32.5 -80s-10.833 -57.833 -32.5 -79.5s-48.167 -32.5 -79.5 -32.5zM545.001 1594c-31.333 0 -58 10.833 -80 32.5s-33 48.167 -33 79.5s11 58 33 80s48.667 33 80 33s57.833 -11 79.5 -33
s32.5 -48.667 32.5 -80s-10.833 -57.833 -32.5 -79.5s-48.167 -32.5 -79.5 -32.5z" />
    <glyph glyph-name="Aring" unicode="&#xc5;" horiz-adv-x="1593" 
d="M44 -8l-8.99902 8v52l9 8c48.667 0.666992 80 3.16699 94 7.5s26.5 13 37.5 26s33.167 55.5 66.5 127.5l105 228l272 616l153 362h65l427 -1004l57 -134c16.667 -38 35.834 -79.333 57.501 -124s36.667 -71 45 -79s18.666 -14.167 30.999 -18.5
s39.833 -6.83301 82.5 -7.5l8 -8v-52l-8 -8c-70.667 6 -134.334 9 -191.001 9c-110.667 -3.33301 -221.334 -6.33301 -332.001 -9l-8 8v52l8 8c74.667 1.33301 121.334 4.5 140.001 9.5s28 16.5 28 34.5c0 14.667 -4.66699 34 -14 58l-123 305h-579l-109 -256
c-19.333 -46 -29 -79.667 -29 -101c0 -16.667 9 -29 27 -37s63.333 -12.333 136 -13l9 -8v-52l-8 -8c-86 5.33301 -161.333 8 -226 8c-73.333 -0 -147.333 -2.66699 -222 -8zM500.001 553h506l-251 603zM999.001 1717c0 -38 -9.16895 -71.5 -27.502 -100.5
s-43.166 -52.167 -74.499 -69.5s-66.666 -26 -105.999 -26c-40 0 -75.667 8.66699 -107 26s-56 40.5 -74 69.5s-27 62.5 -27 100.5c0 56 20 102.667 60 140s89.333 56 148 56s108 -18.5 148 -55.5s60 -83.833 60 -140.5zM911.999 1717c0 40 -11.5 75.167 -34.5 105.5
s-51.833 45.5 -86.5 45.5s-63.5 -15.167 -86.5 -45.5s-34.5 -65.5 -34.5 -105.5c0 -36 10.833 -70.167 32.5 -102.5s51.167 -48.5 88.5 -48.5c34.667 0 63.5 15.167 86.5 45.5s34.5 65.5 34.5 105.5z" />
    <glyph glyph-name="AE" unicode="&#xc6;" horiz-adv-x="1933" 
d="M604 1406l7.99805 6.99902c294.667 -6 490.334 -9 587.001 -9c128 0 321 3 579 9l9 -9c-0.666992 -6 -4.66699 -30 -12 -72c-7.33301 -44 -12 -75.5 -14 -94.5s-5.33301 -63.5 -10 -133.5l-9 -9h-46l-9 8c-0.666992 74 -4.66699 134 -12 180c-86 28 -196.667 42 -332 42
c-45.333 0 -107.666 -2.66699 -186.999 -8c-7.33301 -87.333 -11 -168.333 -11 -243v-304c57.333 -4 106.666 -6 147.999 -6c80 0 139.833 2 179.5 6s62.834 8.66699 69.501 14s11.5 16 14.5 32s6.83301 44.333 11.5 85c1.33301 16 2.66602 27.667 3.99902 35l9 8h48l9 -7
c-4.66699 -77.333 -7 -148.333 -7 -213c0 -53.333 2.33301 -131 7 -233l-8 -8h-49l-9 8l-7 95c-2.66699 28.667 -6.33398 47.167 -11.001 55.5s-11.667 15 -21 20s-38.666 9.5 -87.999 13.5s-90.333 6 -123 6l-177 -6v-358c0 -76 1.33301 -152.333 4 -229h186
c138 0 227.667 1.33301 269 4s83.333 12.667 126 30c10 26.667 26.667 96 50 208l9 8h49l8 -8c-10.667 -91.333 -16.667 -151.166 -18 -179.499s-4.33301 -78.166 -9 -149.499l-10 -9c-280 5.33301 -465 8 -555 8c-194.667 0 -326 -2.66699 -394 -8l-8 8v32l6 9
c38.667 16.667 68 33 88 49c6 28 10 74.667 12 140l6 187v77c-68.667 4 -152 6 -250 6c-103.333 0 -185.333 -2 -246 -6c-24.667 -40 -58 -99.5 -100 -178.5s-67 -129.167 -75 -150.5s-12 -36.666 -12 -45.999c0 -20 11.833 -34.333 35.5 -43s68.5 -14 134.5 -16l9 -8v-53
l-8 -7c-81.333 5.33301 -159.666 8 -234.999 8c-59.333 0 -129 -2.66699 -209 -8l-8 7v54l9 7c37.333 0 64 3.66699 80 11s32.5 22.666 49.5 45.999s34.167 52.666 51.5 87.999l536 944c30 52.667 50.5 90.5 61.5 113.5s16.5 39.167 16.5 48.5
c0 14.667 -7.33301 23.667 -22 27s-71 8.33301 -169 15l-9 9v44zM515.998 577.999h448l4 454c0 78 -1.33301 178 -4 300h-25c-12.667 -19.333 -27.667 -44 -45 -74l-92 -164l-144 -258z" />
    <glyph glyph-name="Ccedilla" unicode="&#xc7;" horiz-adv-x="1452" 
d="M875 -37l-46.0029 -104.999c22 4 42.333 6 61 6c56 0 99.167 -13.5 129.5 -40.5s45.5 -60.5 45.5 -100.5c0 -46.667 -20.667 -87 -62 -121s-102.333 -51 -183 -51c-66 0 -126 9.66699 -180 29l-5 12l24 51l11 5c41.333 -14.667 83 -22 125 -22
c36.667 0 63.834 8.66699 81.501 26s26.5 36.666 26.5 57.999c0 23.333 -9.5 42.166 -28.5 56.499s-43.5 21.5 -73.5 21.5c-19.333 0 -39.666 -3.33301 -60.999 -10l-18 14l78 175c-220.667 16 -397.334 91.667 -530.001 227s-199 305.333 -199 510
c0 152 37.667 284.833 113 398.5s174.333 198.667 297 255s260.667 84.5 414 84.5c88.667 0 176.334 -9.33301 263.001 -28s159 -41 217 -67l7 -10c-15.333 -37.333 -29.666 -129.666 -42.999 -276.999l-7 -8h-47l-8 8l-10 170c-48.667 38.667 -107.5 68.834 -176.5 90.501
s-140.833 32.5 -215.5 32.5c-112.667 0 -213.667 -24.167 -303 -72.5s-158.666 -118.333 -207.999 -210s-74 -203.834 -74 -336.501c0 -133.333 29 -250.333 87 -351s137.167 -178 237.5 -232s217.5 -81 351.5 -81c59.333 0 116.333 5.66699 171 17s100.167 25.333 136.5 42
s71.166 37 104.499 61l17 -21l-38 -93c-150 -75.333 -310.667 -113 -482 -113z" />
    <glyph glyph-name="Egrave" unicode="&#xc8;" horiz-adv-x="1251" 
d="M73 1406l7.99512 7c228.667 -4 375 -6 439 -6c218.667 0 413.334 2 584.001 6l5 -7c-16.667 -64 -29 -164.333 -37 -301l-6 -8h-49l-9 8c0.666992 6 1 11.333 1 16c0 56.667 -4.33301 110.667 -13 162c-42 18.667 -100.167 30.834 -174.5 36.501
s-130.166 8.5 -167.499 8.5c-52.667 0 -120 -3.66699 -202 -11l-4 -160l-3 -183l-3 -203c72 -4 138.333 -6 199 -6c61.333 0 112.666 2 153.999 6s65.5 8.16699 72.5 12.5s12.333 12.666 16 24.999s6.83398 34.166 9.50098 65.499l4 62l8 8h46l8 -8
c-1.33301 -72.667 -3 -145.667 -5 -219l5 -225l-8 -8h-46l-8 8l-7 60c-6 46.667 -10.333 74.5 -13 83.5s-8.83398 16.833 -18.501 23.5s-34.5 12 -74.5 16s-95 6 -165 6c-38.667 0 -97.667 -1.66699 -177 -5c-3.33301 -56 -5 -149.333 -5 -280c0 -140 1.66699 -243 5 -309
h184c162 0 263.333 2 304 6s79.334 13.667 116.001 29c6 15.333 15.833 50.833 29.5 106.5s21.5 90.5 23.5 104.5l10 7h48l8 -7c-6 -28.667 -11.833 -78.667 -17.5 -150s-8.5 -132.333 -8.5 -183l-7 -8c-127.333 4 -294 6 -500 6l-272 2
c-63.333 0 -129.333 -2.66699 -198 -8l-8 8v33l8 10c39.333 20 61.833 32.5 67.5 37.5s10.334 63.333 14.001 175s5.5 196.834 5.5 255.501v367l-1 227c0 49.333 -0.666992 89.5 -2 120.5s-3.66602 53.167 -6.99902 66.5s-7.16602 22.666 -11.499 27.999
s-11.333 9.83301 -21 13.5s-26.167 6.83398 -49.5 9.50098l-76 6l-8 7v50zM755.995 1563l-25 -24l-15 4l-200 156l-210 157l12 31l10 7l187 -26l97 -120l142 -171z" />
    <glyph glyph-name="Eacute" unicode="&#xc9;" horiz-adv-x="1251" 
d="M73 1406l7.99512 7c228.667 -4 375 -6 439 -6c218.667 0 413.334 2 584.001 6l5 -7c-16.667 -64 -29 -164.333 -37 -301l-6 -8h-49l-9 8c0.666992 6 1 11.333 1 16c0 56.667 -4.33301 110.667 -13 162c-42 18.667 -100.167 30.834 -174.5 36.501
s-130.166 8.5 -167.499 8.5c-52.667 0 -120 -3.66699 -202 -11l-4 -160l-3 -183l-3 -203c72 -4 138.333 -6 199 -6c61.333 0 112.666 2 153.999 6s65.5 8.16699 72.5 12.5s12.333 12.666 16 24.999s6.83398 34.166 9.50098 65.499l4 62l8 8h46l8 -8
c-1.33301 -72.667 -3 -145.667 -5 -219l5 -225l-8 -8h-46l-8 8l-7 60c-6 46.667 -10.333 74.5 -13 83.5s-8.83398 16.833 -18.501 23.5s-34.5 12 -74.5 16s-95 6 -165 6c-38.667 0 -97.667 -1.66699 -177 -5c-3.33301 -56 -5 -149.333 -5 -280c0 -140 1.66699 -243 5 -309
h184c162 0 263.333 2 304 6s79.334 13.667 116.001 29c6 15.333 15.833 50.833 29.5 106.5s21.5 90.5 23.5 104.5l10 7h48l8 -7c-6 -28.667 -11.833 -78.667 -17.5 -150s-8.5 -132.333 -8.5 -183l-7 -8c-127.333 4 -294 6 -500 6l-272 2
c-63.333 0 -129.333 -2.66699 -198 -8l-8 8v33l8 10c39.333 20 61.833 32.5 67.5 37.5s10.334 63.333 14.001 175s5.5 196.834 5.5 255.501v367l-1 227c0 49.333 -0.666992 89.5 -2 120.5s-3.66602 53.167 -6.99902 66.5s-7.16602 22.666 -11.499 27.999
s-11.333 9.83301 -21 13.5s-26.167 6.83398 -49.5 9.50098l-76 6l-8 7v50zM1036 1856l-210 -157l-200 -156l-15 -4l-25 24l2 14l144 174c2 2 33.667 41 95 117l187 26l10 -7z" />
    <glyph glyph-name="Ecircumflex" unicode="&#xca;" horiz-adv-x="1251" 
d="M73 1406l7.99512 7c228.667 -4 375 -6 439 -6c218.667 0 413.334 2 584.001 6l5 -7c-16.667 -64 -29 -164.333 -37 -301l-6 -8h-49l-9 8c0.666992 6 1 11.333 1 16c0 56.667 -4.33301 110.667 -13 162c-42 18.667 -100.167 30.834 -174.5 36.501
s-130.166 8.5 -167.499 8.5c-52.667 0 -120 -3.66699 -202 -11l-4 -160l-3 -183l-3 -203c72 -4 138.333 -6 199 -6c61.333 0 112.666 2 153.999 6s65.5 8.16699 72.5 12.5s12.333 12.666 16 24.999s6.83398 34.166 9.50098 65.499l4 62l8 8h46l8 -8
c-1.33301 -72.667 -3 -145.667 -5 -219l5 -225l-8 -8h-46l-8 8l-7 60c-6 46.667 -10.333 74.5 -13 83.5s-8.83398 16.833 -18.501 23.5s-34.5 12 -74.5 16s-95 6 -165 6c-38.667 0 -97.667 -1.66699 -177 -5c-3.33301 -56 -5 -149.333 -5 -280c0 -140 1.66699 -243 5 -309
h184c162 0 263.333 2 304 6s79.334 13.667 116.001 29c6 15.333 15.833 50.833 29.5 106.5s21.5 90.5 23.5 104.5l10 7h48l8 -7c-6 -28.667 -11.833 -78.667 -17.5 -150s-8.5 -132.333 -8.5 -183l-7 -8c-127.333 4 -294 6 -500 6l-272 2
c-63.333 0 -129.333 -2.66699 -198 -8l-8 8v33l8 10c39.333 20 61.833 32.5 67.5 37.5s10.334 63.333 14.001 175s5.5 196.834 5.5 255.501v367l-1 227c0 49.333 -0.666992 89.5 -2 120.5s-3.66602 53.167 -6.99902 66.5s-7.16602 22.666 -11.499 27.999
s-11.333 9.83301 -21 13.5s-26.167 6.83398 -49.5 9.50098l-76 6l-8 7v50zM968.995 1550l-7 -11h-62l-264 234l-264 -234h-62l-7 10l288 356h96zM638.995 1905z" />
    <glyph glyph-name="Edieresis" unicode="&#xcb;" horiz-adv-x="1251" 
d="M73 1406l7.99512 7c228.667 -4 375 -6 439 -6c218.667 0 413.334 2 584.001 6l5 -7c-16.667 -64 -29 -164.333 -37 -301l-6 -8h-49l-9 8c0.666992 6 1 11.333 1 16c0 56.667 -4.33301 110.667 -13 162c-42 18.667 -100.167 30.834 -174.5 36.501
s-130.166 8.5 -167.499 8.5c-52.667 0 -120 -3.66699 -202 -11l-4 -160l-3 -183l-3 -203c72 -4 138.333 -6 199 -6c61.333 0 112.666 2 153.999 6s65.5 8.16699 72.5 12.5s12.333 12.666 16 24.999s6.83398 34.166 9.50098 65.499l4 62l8 8h46l8 -8
c-1.33301 -72.667 -3 -145.667 -5 -219l5 -225l-8 -8h-46l-8 8l-7 60c-6 46.667 -10.333 74.5 -13 83.5s-8.83398 16.833 -18.501 23.5s-34.5 12 -74.5 16s-95 6 -165 6c-38.667 0 -97.667 -1.66699 -177 -5c-3.33301 -56 -5 -149.333 -5 -280c0 -140 1.66699 -243 5 -309
h184c162 0 263.333 2 304 6s79.334 13.667 116.001 29c6 15.333 15.833 50.833 29.5 106.5s21.5 90.5 23.5 104.5l10 7h48l8 -7c-6 -28.667 -11.833 -78.667 -17.5 -150s-8.5 -132.333 -8.5 -183l-7 -8c-127.333 4 -294 6 -500 6l-272 2
c-63.333 0 -129.333 -2.66699 -198 -8l-8 8v33l8 10c39.333 20 61.833 32.5 67.5 37.5s10.334 63.333 14.001 175s5.5 196.834 5.5 255.501v367l-1 227c0 49.333 -0.666992 89.5 -2 120.5s-3.66602 53.167 -6.99902 66.5s-7.16602 22.666 -11.499 27.999
s-11.333 9.83301 -21 13.5s-26.167 6.83398 -49.5 9.50098l-76 6l-8 7v50zM882.995 1604c-31.333 0 -58 10.833 -80 32.5s-33 48.167 -33 79.5s11 58 33 80s48.667 33 80 33s57.833 -11 79.5 -33s32.5 -48.667 32.5 -80s-10.833 -57.833 -32.5 -79.5
s-48.167 -32.5 -79.5 -32.5zM389.995 1604c-31.333 0 -58 10.833 -80 32.5s-33 48.167 -33 79.5s11 58 33 80s48.667 33 80 33s57.833 -11 79.5 -33s32.5 -48.667 32.5 -80s-10.833 -57.833 -32.5 -79.5s-48.167 -32.5 -79.5 -32.5z" />
    <glyph glyph-name="Igrave" unicode="&#xcc;" horiz-adv-x="690" 
d="M59 1413l125 -4.00098c82 -2.66699 135.667 -4 161 -4c22.667 0 118.334 2.66699 287.001 8l8 -7v-50l-8 -7c-46 -1.33301 -81.5 -3.33301 -106.5 -6s-43.167 -7.66699 -54.5 -15s-18.833 -24.5 -22.5 -51.5s-5.5 -64.5 -5.5 -112.5l-2 -230v-463l1 -195
c0.666992 -75.333 2.66699 -124 6 -146s8.16602 -36.667 14.499 -44s18.5 -13.5 36.5 -18.5s62.333 -8.83301 133 -11.5l8 -6v-50l-8 -8c-3.33301 0 -62 2 -176 6c-47.333 1.33301 -84.333 2 -111 2c-20.667 0 -116 -2.66699 -286 -8l-8 8v50l8 6
c62 2.66699 103.333 6 124 10s34.5 9.16699 41.5 15.5s12.667 19.833 17 40.5s6.83301 66.667 7.5 138l1 211v463l-2 195c-0.666992 76 -2.5 125 -5.5 147s-7.66699 36.667 -14 44s-18.5 13.333 -36.5 18s-62.333 8.33398 -133 11.001l-8 7v50zM416 1563l-25 -24l-15 4
l-200 156l-210 157l12 31l10 7l187 -26l97 -120l142 -171z" />
    <glyph glyph-name="Iacute" unicode="&#xcd;" horiz-adv-x="690" 
d="M59 1413l125 -4.00098c82 -2.66699 135.667 -4 161 -4c22.667 0 118.334 2.66699 287.001 8l8 -7v-50l-8 -7c-46 -1.33301 -81.5 -3.33301 -106.5 -6s-43.167 -7.66699 -54.5 -15s-18.833 -24.5 -22.5 -51.5s-5.5 -64.5 -5.5 -112.5l-2 -230v-463l1 -195
c0.666992 -75.333 2.66699 -124 6 -146s8.16602 -36.667 14.499 -44s18.5 -13.5 36.5 -18.5s62.333 -8.83301 133 -11.5l8 -6v-50l-8 -8c-3.33301 0 -62 2 -176 6c-47.333 1.33301 -84.333 2 -111 2c-20.667 0 -116 -2.66699 -286 -8l-8 8v50l8 6
c62 2.66699 103.333 6 124 10s34.5 9.16699 41.5 15.5s12.667 19.833 17 40.5s6.83301 66.667 7.5 138l1 211v463l-2 195c-0.666992 76 -2.5 125 -5.5 147s-7.66699 36.667 -14 44s-18.5 13.333 -36.5 18s-62.333 8.33398 -133 11.001l-8 7v50zM706 1856l-210 -157
l-200 -156l-15 -4l-25 24l2 14l144 174c2 2 33.667 41 95 117l187 26l10 -7z" />
    <glyph glyph-name="Icircumflex" unicode="&#xce;" horiz-adv-x="690" 
d="M59 1413l125 -4.00098c82 -2.66699 135.667 -4 161 -4c22.667 0 118.334 2.66699 287.001 8l8 -7v-50l-8 -7c-46 -1.33301 -81.5 -3.33301 -106.5 -6s-43.167 -7.66699 -54.5 -15s-18.833 -24.5 -22.5 -51.5s-5.5 -64.5 -5.5 -112.5l-2 -230v-463l1 -195
c0.666992 -75.333 2.66699 -124 6 -146s8.16602 -36.667 14.499 -44s18.5 -13.5 36.5 -18.5s62.333 -8.83301 133 -11.5l8 -6v-50l-8 -8c-3.33301 0 -62 2 -176 6c-47.333 1.33301 -84.333 2 -111 2c-20.667 0 -116 -2.66699 -286 -8l-8 8v50l8 6
c62 2.66699 103.333 6 124 10s34.5 9.16699 41.5 15.5s12.667 19.833 17 40.5s6.83301 66.667 7.5 138l1 211v463l-2 195c-0.666992 76 -2.5 125 -5.5 147s-7.66699 36.667 -14 44s-18.5 13.333 -36.5 18s-62.333 8.33398 -133 11.001l-8 7v50zM684 1550l-7 -11h-62
l-264 234l-264 -234h-62l-7 10l288 356h96zM354 1905z" />
    <glyph glyph-name="Idieresis" unicode="&#xcf;" horiz-adv-x="690" 
d="M59 1413l125 -4.00098c82 -2.66699 135.667 -4 161 -4c22.667 0 118.334 2.66699 287.001 8l8 -7v-50l-8 -7c-46 -1.33301 -81.5 -3.33301 -106.5 -6s-43.167 -7.66699 -54.5 -15s-18.833 -24.5 -22.5 -51.5s-5.5 -64.5 -5.5 -112.5l-2 -230v-463l1 -195
c0.666992 -75.333 2.66699 -124 6 -146s8.16602 -36.667 14.499 -44s18.5 -13.5 36.5 -18.5s62.333 -8.83301 133 -11.5l8 -6v-50l-8 -8c-3.33301 0 -62 2 -176 6c-47.333 1.33301 -84.333 2 -111 2c-20.667 0 -116 -2.66699 -286 -8l-8 8v50l8 6
c62 2.66699 103.333 6 124 10s34.5 9.16699 41.5 15.5s12.667 19.833 17 40.5s6.83301 66.667 7.5 138l1 211v463l-2 195c-0.666992 76 -2.5 125 -5.5 147s-7.66699 36.667 -14 44s-18.5 13.333 -36.5 18s-62.333 8.33398 -133 11.001l-8 7v50zM598 1604
c-31.333 0 -58 10.833 -80 32.5s-33 48.167 -33 79.5s11 58 33 80s48.667 33 80 33s57.833 -11 79.5 -33s32.5 -48.667 32.5 -80s-10.833 -57.833 -32.5 -79.5s-48.167 -32.5 -79.5 -32.5zM105 1604c-31.333 0 -58 10.833 -80 32.5s-33 48.167 -33 79.5s11 58 33 80
s48.667 33 80 33s57.833 -11 79.5 -33s32.5 -48.667 32.5 -80s-10.833 -57.833 -32.5 -79.5s-48.167 -32.5 -79.5 -32.5z" />
    <glyph glyph-name="Eth" unicode="&#xd0;" horiz-adv-x="1585" 
d="M26 694l0.00195312 56l11 11h170v117l-2 227c0 49.333 -0.666992 89.5 -2 120.5s-3.66602 53.167 -6.99902 66.5s-7.16602 22.666 -11.499 27.999s-11.333 9.83301 -21 13.5s-25.834 6.83398 -48.501 9.50098l-77 6l-8 7v50l8 7c115.333 -5.33301 194 -8 236 -8l468 10
c128.667 0 235.667 -11.833 321 -35.5s160.666 -64.5 225.999 -122.5s116.833 -127.333 154.5 -208s56.5 -172.667 56.5 -276c0 -90.667 -15.5 -179.834 -46.5 -267.501s-75.333 -166.5 -133 -236.5s-123.334 -126.5 -197.001 -169.5s-147.667 -71.667 -222 -86
s-149.833 -21.5 -226.5 -21.5c-52.667 0 -150.667 2 -294 6c-48 1.33301 -79.667 2 -95 2c-46 0 -101.667 -2.66699 -167 -8l-7 8v33l8 10c39.333 20 61.666 32.5 66.999 37.5s10 63.333 14 175s6 196.834 6 255.501v173h-171zM723.002 761l10 -10.001v-57l-10 -10h-331v-58
l2 -294c0 -57.333 2 -134.333 6 -231c68.667 -13.333 147 -20 235 -20c155.333 0 279.5 26 372.5 78s162.5 129 208.5 231s69 217 69 345c0 188.667 -50.333 335 -151 439s-259 156 -475 156c-90 0 -176.333 -6.66699 -259 -20c-5.33301 -109.333 -8 -232.666 -8 -369.999
v-179h331z" />
    <glyph glyph-name="Ntilde" unicode="&#xd1;" horiz-adv-x="1702" 
d="M66 -7l-9.00098 9v46l9 8c40.667 0.666992 73.167 3 97.5 7s40 10.667 47 20s11.667 24.333 14 45s4.66602 67.334 6.99902 140.001s3.5 124.667 3.5 156v808c0 34 -6.16699 59.167 -18.5 75.5s-29.166 26.666 -50.499 30.999s-57.666 6.83301 -108.999 7.5l-8 8v47l8 9
c92 -3.33301 152.333 -5 181 -5c67.333 0 122.666 1.66699 165.999 5l319 -414l469 -588c56.667 -71.333 114.334 -139 173.001 -203v774c0 24 -1.16699 75.167 -3.5 153.5s-5.16602 128 -8.49902 149s-9.16602 35.167 -17.499 42.5s-24 12.833 -47 16.5
s-54.167 5.83398 -93.5 6.50098l-8 8v46l8 9c54 -3.33301 131 -5 231 -5c91.333 0 157.666 1.66699 198.999 5l9 -9v-46l-8 -8c-44 -0.666992 -78 -3.16699 -102 -7.5s-39 -11.5 -45 -21.5s-10.167 -24.667 -12.5 -44s-4.66602 -65.333 -6.99902 -138s-3.5 -125 -3.5 -157
v-475l1 -275l4 -271c-33.333 11.333 -91 25.333 -173 42l-71 84l-213 260l-678 847v-767c0 -30.667 1.16699 -85.334 3.5 -164.001s5.16602 -126.334 8.49902 -143.001s7.66602 -28.167 12.999 -34.5s16.833 -12.166 34.5 -17.499s54.167 -8.33301 109.5 -9l8 -8v-47l-8 -8
c-34.667 4.66699 -90.667 7 -168 7c-99.333 0 -186.333 -2.33301 -261 -7zM1220 1822c-12.667 -58.667 -39.334 -109.833 -80.001 -153.5s-86.667 -65.5 -138 -65.5c-44.667 0 -100.667 16.333 -168 49c-67.333 33.333 -113 50 -137 50c-59.333 0 -100.333 -33 -123 -99h-45
l-7 8c11.333 58.667 37.833 109.667 79.5 153s87.5 65 137.5 65c44.667 0 100.334 -16.667 167.001 -50c66.667 -32.667 113.667 -49 141 -49c54 0 94.333 33 121 99h45z" />
    <glyph glyph-name="Ograve" unicode="&#xd2;" horiz-adv-x="1610" 
d="M48 689c0 100 14.332 193.332 42.999 279.999s77.5 166.834 146.5 240.501s152.167 130.667 249.5 171s207.333 60.5 330 60.5c227.333 0 408.333 -61.833 543 -185.5s202 -292.5 202 -506.5c0 -150.667 -33 -286 -99 -406s-160.5 -213.333 -283.5 -280
s-261.167 -100 -414.5 -100c-108.667 0 -208.667 18.167 -300 54.5s-169.166 90.5 -233.499 162.5s-111 155.333 -140 250s-43.5 181 -43.5 259zM255.999 754.999c0 -81.333 13.1699 -168.834 39.5029 -262.501s65.666 -174 117.999 -241s112.666 -116.833 180.999 -149.5
s146.166 -49 233.499 -49c103.333 0 195.333 23.667 276 71s142 120.833 184 220.5s63 211.5 63 335.5c0 134.667 -24 256.334 -72 365.001s-116.333 187.667 -205 237s-187 74 -295 74c-162 0 -289.667 -50.667 -383 -152s-140 -251 -140 -449zM916.002 1563l-25 -24l-15 4
l-200 156l-210 157l12 31l10 7l187 -26l97 -120l142 -171z" />
    <glyph glyph-name="Oacute" unicode="&#xd3;" horiz-adv-x="1610" 
d="M48 689c0 100 14.332 193.332 42.999 279.999s77.5 166.834 146.5 240.501s152.167 130.667 249.5 171s207.333 60.5 330 60.5c227.333 0 408.333 -61.833 543 -185.5s202 -292.5 202 -506.5c0 -150.667 -33 -286 -99 -406s-160.5 -213.333 -283.5 -280
s-261.167 -100 -414.5 -100c-108.667 0 -208.667 18.167 -300 54.5s-169.166 90.5 -233.499 162.5s-111 155.333 -140 250s-43.5 181 -43.5 259zM255.999 754.999c0 -81.333 13.1699 -168.834 39.5029 -262.501s65.666 -174 117.999 -241s112.666 -116.833 180.999 -149.5
s146.166 -49 233.499 -49c103.333 0 195.333 23.667 276 71s142 120.833 184 220.5s63 211.5 63 335.5c0 134.667 -24 256.334 -72 365.001s-116.333 187.667 -205 237s-187 74 -295 74c-162 0 -289.667 -50.667 -383 -152s-140 -251 -140 -449zM1166 1856l-210 -157
l-200 -156l-15 -4l-25 24l2 14l144 174c2 2 33.667 41 95 117l187 26l10 -7z" />
    <glyph glyph-name="Ocircumflex" unicode="&#xd4;" horiz-adv-x="1610" 
d="M48 689c0 100 14.332 193.332 42.999 279.999s77.5 166.834 146.5 240.501s152.167 130.667 249.5 171s207.333 60.5 330 60.5c227.333 0 408.333 -61.833 543 -185.5s202 -292.5 202 -506.5c0 -150.667 -33 -286 -99 -406s-160.5 -213.333 -283.5 -280
s-261.167 -100 -414.5 -100c-108.667 0 -208.667 18.167 -300 54.5s-169.166 90.5 -233.499 162.5s-111 155.333 -140 250s-43.5 181 -43.5 259zM255.999 754.999c0 -81.333 13.1699 -168.834 39.5029 -262.501s65.666 -174 117.999 -241s112.666 -116.833 180.999 -149.5
s146.166 -49 233.499 -49c103.333 0 195.333 23.667 276 71s142 120.833 184 220.5s63 211.5 63 335.5c0 134.667 -24 256.334 -72 365.001s-116.333 187.667 -205 237s-187 74 -295 74c-162 0 -289.667 -50.667 -383 -152s-140 -251 -140 -449zM1149 1550l-7 -11h-62
l-264 234l-264 -234h-62l-7 10l288 356h96zM819.002 1905z" />
    <glyph glyph-name="Otilde" unicode="&#xd5;" horiz-adv-x="1610" 
d="M48 689c0 100 14.332 193.332 42.999 279.999s77.5 166.834 146.5 240.501s152.167 130.667 249.5 171s207.333 60.5 330 60.5c227.333 0 408.333 -61.833 543 -185.5s202 -292.5 202 -506.5c0 -150.667 -33 -286 -99 -406s-160.5 -213.333 -283.5 -280
s-261.167 -100 -414.5 -100c-108.667 0 -208.667 18.167 -300 54.5s-169.166 90.5 -233.499 162.5s-111 155.333 -140 250s-43.5 181 -43.5 259zM255.999 754.999c0 -81.333 13.1699 -168.834 39.5029 -262.501s65.666 -174 117.999 -241s112.666 -116.833 180.999 -149.5
s146.166 -49 233.499 -49c103.333 0 195.333 23.667 276 71s142 120.833 184 220.5s63 211.5 63 335.5c0 134.667 -24 256.334 -72 365.001s-116.333 187.667 -205 237s-187 74 -295 74c-162 0 -289.667 -50.667 -383 -152s-140 -251 -140 -449zM1160 1822
c-12.667 -58.667 -39.334 -109.833 -80.001 -153.5s-86.667 -65.5 -138 -65.5c-44.667 0 -100.667 16.333 -168 49c-67.333 33.333 -113 50 -137 50c-59.333 0 -100.333 -33 -123 -99h-45l-7 8c11.333 58.667 37.833 109.667 79.5 153s87.5 65 137.5 65
c44.667 0 100.334 -16.667 167.001 -50c66.667 -32.667 113.667 -49 141 -49c54 0 94.333 33 121 99h45z" />
    <glyph glyph-name="Odieresis" unicode="&#xd6;" horiz-adv-x="1610" 
d="M48 689c0 100 14.332 193.332 42.999 279.999s77.5 166.834 146.5 240.501s152.167 130.667 249.5 171s207.333 60.5 330 60.5c227.333 0 408.333 -61.833 543 -185.5s202 -292.5 202 -506.5c0 -150.667 -33 -286 -99 -406s-160.5 -213.333 -283.5 -280
s-261.167 -100 -414.5 -100c-108.667 0 -208.667 18.167 -300 54.5s-169.166 90.5 -233.499 162.5s-111 155.333 -140 250s-43.5 181 -43.5 259zM255.999 754.999c0 -81.333 13.1699 -168.834 39.5029 -262.501s65.666 -174 117.999 -241s112.666 -116.833 180.999 -149.5
s146.166 -49 233.499 -49c103.333 0 195.333 23.667 276 71s142 120.833 184 220.5s63 211.5 63 335.5c0 134.667 -24 256.334 -72 365.001s-116.333 187.667 -205 237s-187 74 -295 74c-162 0 -289.667 -50.667 -383 -152s-140 -251 -140 -449zM1058 1604
c-31.333 0 -58 10.833 -80 32.5s-33 48.167 -33 79.5s11 58 33 80s48.667 33 80 33s57.833 -11 79.5 -33s32.5 -48.667 32.5 -80s-10.833 -57.833 -32.5 -79.5s-48.167 -32.5 -79.5 -32.5zM565.002 1604c-31.333 0 -58 10.833 -80 32.5s-33 48.167 -33 79.5s11 58 33 80
s48.667 33 80 33s57.833 -11 79.5 -33s32.5 -48.667 32.5 -80s-10.833 -57.833 -32.5 -79.5s-48.167 -32.5 -79.5 -32.5z" />
    <glyph glyph-name="multiply" unicode="&#xd7;" 
d="M901 335l-80 -78l-309 296l-308 -296l-81 78l307 297l-307 297l81 78l308 -296l309 296l80 -78l-307 -297z" />
    <glyph glyph-name="Oslash" unicode="&#xd8;" horiz-adv-x="1706" 
d="M79 32l179.001 173c-106.667 142.667 -160 308.334 -160 497.001c0 222 72.333 400.667 217 536s333 203 565 203c104 0 196 -14 276 -42s158.667 -71 236 -129l173 160h12l47 -46l1 -12l-172 -163c59.333 -70 100 -143.667 122 -221s33 -158 33 -242
c0 -160 -37 -298.833 -111 -416.5s-170.5 -208.334 -289.5 -272.001s-249.5 -95.5 -391.5 -95.5c-58 0 -116.5 5.83301 -175.5 17.5s-115.833 30 -170.5 55s-105.334 59.167 -152.001 102.5l-178 -168h-12l-49 51v12zM1265 1152c-27.333 35.333 -51.668 62.5 -73.001 81.5
s-50.333 38.167 -87 57.5s-79.5 35 -128.5 47s-99.167 18 -150.5 18c-104.667 0 -197.667 -23.833 -279 -71.5s-142.166 -116.5 -182.499 -206.5s-60.5 -191.667 -60.5 -305c0 -148.667 33.667 -292 101 -430zM452.999 264c42.667 -51.333 81.499 -90.168 116.499 -116.501
s79.333 -48.666 133 -66.999s112.834 -27.5 177.501 -27.5c111.333 0 207.333 27.833 288 83.5s139 130.667 175 225s54 199.5 54 315.5c0 168.667 -28 301.667 -84 399z" />
    <glyph glyph-name="Ugrave" unicode="&#xd9;" horiz-adv-x="1593" 
d="M30 1406l8 6.99609c165.333 -5.33301 260.666 -8 285.999 -8c22.667 0 118.334 2.66699 287.001 8l8 -7v-50l-8 -7c-46 -1.33301 -81.5 -3.33301 -106.5 -6s-43.167 -7.66699 -54.5 -15s-18.833 -24.5 -22.5 -51.5s-5.5 -64.5 -5.5 -112.5l-2 -230v-318
c0 -104.667 2.16699 -181.5 6.5 -230.5s13.666 -90.333 27.999 -124s36.166 -62.667 65.499 -87s71.333 -44.166 126 -59.499s116.667 -23 186 -23c73.333 0 141.833 10.167 205.5 30.5s112.167 49.833 145.5 88.5s55.166 89.5 65.499 152.5s15.5 150.5 15.5 262.5v308
c0 52 -0.833008 123.5 -2.5 214.5s-5.66699 143.333 -12 157s-18 24 -35 31s-64.167 11.167 -141.5 12.5l-8 8v47l8 9c98.667 -5.33301 177.667 -8 237 -8c50.667 0 129.334 2.66699 236.001 8l9 -8v-48l-9 -8c-62.667 -1.33301 -103.5 -3.83301 -122.5 -7.5
s-32.333 -9.16699 -40 -16.5s-13.334 -18.666 -17.001 -33.999s-6.16699 -59.333 -7.5 -132l-3 -225v-304c0 -121.333 -4.66699 -217 -14 -287s-30.166 -127.5 -62.499 -172.5s-70.666 -82.667 -114.999 -113s-101.166 -53.666 -170.499 -69.999s-141.333 -24.5 -216 -24.5
c-93.333 0 -175.833 10.333 -247.5 31s-128.167 48 -169.5 82s-71 69.833 -89 107.5s-29.667 82 -35 133s-8 128.833 -8 233.5v384l-2 195c-0.666992 76 -2.5 125 -5.5 147s-7.66699 36.667 -14 44s-18.5 13.333 -36.5 18s-62.333 8.33398 -133 11.001l-8 7v50zM901 1563
l-25 -24l-15 4l-200 156l-210 157l12 31l10 7l187 -26l97 -120l142 -171z" />
    <glyph glyph-name="Uacute" unicode="&#xda;" horiz-adv-x="1593" 
d="M30 1406l8 6.99609c165.333 -5.33301 260.666 -8 285.999 -8c22.667 0 118.334 2.66699 287.001 8l8 -7v-50l-8 -7c-46 -1.33301 -81.5 -3.33301 -106.5 -6s-43.167 -7.66699 -54.5 -15s-18.833 -24.5 -22.5 -51.5s-5.5 -64.5 -5.5 -112.5l-2 -230v-318
c0 -104.667 2.16699 -181.5 6.5 -230.5s13.666 -90.333 27.999 -124s36.166 -62.667 65.499 -87s71.333 -44.166 126 -59.499s116.667 -23 186 -23c73.333 0 141.833 10.167 205.5 30.5s112.167 49.833 145.5 88.5s55.166 89.5 65.499 152.5s15.5 150.5 15.5 262.5v308
c0 52 -0.833008 123.5 -2.5 214.5s-5.66699 143.333 -12 157s-18 24 -35 31s-64.167 11.167 -141.5 12.5l-8 8v47l8 9c98.667 -5.33301 177.667 -8 237 -8c50.667 0 129.334 2.66699 236.001 8l9 -8v-48l-9 -8c-62.667 -1.33301 -103.5 -3.83301 -122.5 -7.5
s-32.333 -9.16699 -40 -16.5s-13.334 -18.666 -17.001 -33.999s-6.16699 -59.333 -7.5 -132l-3 -225v-304c0 -121.333 -4.66699 -217 -14 -287s-30.166 -127.5 -62.499 -172.5s-70.666 -82.667 -114.999 -113s-101.166 -53.666 -170.499 -69.999s-141.333 -24.5 -216 -24.5
c-93.333 0 -175.833 10.333 -247.5 31s-128.167 48 -169.5 82s-71 69.833 -89 107.5s-29.667 82 -35 133s-8 128.833 -8 233.5v384l-2 195c-0.666992 76 -2.5 125 -5.5 147s-7.66699 36.667 -14 44s-18.5 13.333 -36.5 18s-62.333 8.33398 -133 11.001l-8 7v50zM1161 1856
l-210 -157l-200 -156l-15 -4l-25 24l2 14l144 174c2 2 33.667 41 95 117l187 26l10 -7z" />
    <glyph glyph-name="Ucircumflex" unicode="&#xdb;" horiz-adv-x="1593" 
d="M30 1406l8 6.99609c165.333 -5.33301 260.666 -8 285.999 -8c22.667 0 118.334 2.66699 287.001 8l8 -7v-50l-8 -7c-46 -1.33301 -81.5 -3.33301 -106.5 -6s-43.167 -7.66699 -54.5 -15s-18.833 -24.5 -22.5 -51.5s-5.5 -64.5 -5.5 -112.5l-2 -230v-318
c0 -104.667 2.16699 -181.5 6.5 -230.5s13.666 -90.333 27.999 -124s36.166 -62.667 65.499 -87s71.333 -44.166 126 -59.499s116.667 -23 186 -23c73.333 0 141.833 10.167 205.5 30.5s112.167 49.833 145.5 88.5s55.166 89.5 65.499 152.5s15.5 150.5 15.5 262.5v308
c0 52 -0.833008 123.5 -2.5 214.5s-5.66699 143.333 -12 157s-18 24 -35 31s-64.167 11.167 -141.5 12.5l-8 8v47l8 9c98.667 -5.33301 177.667 -8 237 -8c50.667 0 129.334 2.66699 236.001 8l9 -8v-48l-9 -8c-62.667 -1.33301 -103.5 -3.83301 -122.5 -7.5
s-32.333 -9.16699 -40 -16.5s-13.334 -18.666 -17.001 -33.999s-6.16699 -59.333 -7.5 -132l-3 -225v-304c0 -121.333 -4.66699 -217 -14 -287s-30.166 -127.5 -62.499 -172.5s-70.666 -82.667 -114.999 -113s-101.166 -53.666 -170.499 -69.999s-141.333 -24.5 -216 -24.5
c-93.333 0 -175.833 10.333 -247.5 31s-128.167 48 -169.5 82s-71 69.833 -89 107.5s-29.667 82 -35 133s-8 128.833 -8 233.5v384l-2 195c-0.666992 76 -2.5 125 -5.5 147s-7.66699 36.667 -14 44s-18.5 13.333 -36.5 18s-62.333 8.33398 -133 11.001l-8 7v50zM1159 1550
l-7 -11h-62l-264 234l-264 -234h-62l-7 10l288 356h96zM829 1905z" />
    <glyph glyph-name="Udieresis" unicode="&#xdc;" horiz-adv-x="1593" 
d="M30 1406l8 6.99609c165.333 -5.33301 260.666 -8 285.999 -8c22.667 0 118.334 2.66699 287.001 8l8 -7v-50l-8 -7c-46 -1.33301 -81.5 -3.33301 -106.5 -6s-43.167 -7.66699 -54.5 -15s-18.833 -24.5 -22.5 -51.5s-5.5 -64.5 -5.5 -112.5l-2 -230v-318
c0 -104.667 2.16699 -181.5 6.5 -230.5s13.666 -90.333 27.999 -124s36.166 -62.667 65.499 -87s71.333 -44.166 126 -59.499s116.667 -23 186 -23c73.333 0 141.833 10.167 205.5 30.5s112.167 49.833 145.5 88.5s55.166 89.5 65.499 152.5s15.5 150.5 15.5 262.5v308
c0 52 -0.833008 123.5 -2.5 214.5s-5.66699 143.333 -12 157s-18 24 -35 31s-64.167 11.167 -141.5 12.5l-8 8v47l8 9c98.667 -5.33301 177.667 -8 237 -8c50.667 0 129.334 2.66699 236.001 8l9 -8v-48l-9 -8c-62.667 -1.33301 -103.5 -3.83301 -122.5 -7.5
s-32.333 -9.16699 -40 -16.5s-13.334 -18.666 -17.001 -33.999s-6.16699 -59.333 -7.5 -132l-3 -225v-304c0 -121.333 -4.66699 -217 -14 -287s-30.166 -127.5 -62.499 -172.5s-70.666 -82.667 -114.999 -113s-101.166 -53.666 -170.499 -69.999s-141.333 -24.5 -216 -24.5
c-93.333 0 -175.833 10.333 -247.5 31s-128.167 48 -169.5 82s-71 69.833 -89 107.5s-29.667 82 -35 133s-8 128.833 -8 233.5v384l-2 195c-0.666992 76 -2.5 125 -5.5 147s-7.66699 36.667 -14 44s-18.5 13.333 -36.5 18s-62.333 8.33398 -133 11.001l-8 7v50zM1078 1604
c-31.333 0 -58 10.833 -80 32.5s-33 48.167 -33 79.5s11 58 33 80s48.667 33 80 33s57.833 -11 79.5 -33s32.5 -48.667 32.5 -80s-10.833 -57.833 -32.5 -79.5s-48.167 -32.5 -79.5 -32.5zM585 1604c-31.333 0 -58 10.833 -80 32.5s-33 48.167 -33 79.5s11 58 33 80
s48.667 33 80 33s57.833 -11 79.5 -33s32.5 -48.667 32.5 -80s-10.833 -57.833 -32.5 -79.5s-48.167 -32.5 -79.5 -32.5z" />
    <glyph glyph-name="Yacute" unicode="&#xdd;" horiz-adv-x="1366" 
d="M15 1319l-9.00195 9v42l9 9l283 47c20 -14 39.5 -31.667 58.5 -53s46.667 -61.166 83 -119.499s83.166 -139.666 140.499 -243.999l165 -313.5l102 162l115 192l212 363c26 -2.66699 51.333 -4 76 -4c15.333 0 38.666 1.33301 69.999 4l8 -8v-19
c-33.333 -36.667 -85 -103.167 -155 -199.5s-122.167 -171.666 -156.5 -225.999l-126.5 -205c-50 -82.333 -77.333 -131.833 -82 -148.5s-7 -36.334 -7 -59.001v-147l1 -150c0.666992 -58 2.83398 -98.5 6.50098 -121.5s8.66699 -38 15 -45s18.333 -12.833 36 -17.5
s61.834 -8.33398 132.501 -11.001l8 -6v-50l-8 -8c-3.33301 0 -62 2 -176 6c-47.333 1.33301 -84.333 2 -111 2c-21.333 0 -116.666 -2.66699 -285.999 -8l-8 8v50l8 6c63.333 2.66699 105 6 125 10s33.5 9.16699 40.5 15.5s12.5 18.666 16.5 36.999s6.33301 55.833 7 112.5
l2 171v190c-14.667 36 -63.667 122.333 -147 259l-88 143c-28 45.333 -63.167 98.166 -105.5 158.499s-75.166 101.333 -98.499 123s-41.333 34.334 -54 38.001s-46.667 5.5 -102 5.5zM1066 1856l-210 -157l-200 -156l-15 -4l-25 24l2 14l144 174c2 2 33.667 41 95 117
l187 26l10 -7z" />
    <glyph glyph-name="Thorn" unicode="&#xde;" horiz-adv-x="1237" 
d="M76 1406l8.00293 6.99902c165.333 -5.33301 260.666 -8 285.999 -8c22.667 0 118.334 2.66699 287.001 8l8 -7v-50l-8 -7c-66.667 -2.66699 -110.167 -6.16699 -130.5 -10.5s-34 -11 -41 -20s-11.833 -27.167 -14.5 -54.5s-4.33398 -80 -5.00098 -158
c35.333 -2 68 -3 98 -3l213 2c87.333 0 163.5 -16.833 228.5 -50.5s109.833 -73.5 134.5 -119.5s37 -95.333 37 -148c0 -68 -19.167 -136.667 -57.5 -206s-92.833 -124 -163.5 -164s-151 -60 -241 -60c-34.667 0 -70 4.33301 -106 13l-18 66l11 6c36 -10 68.667 -15 98 -15
c52 0 99 13.5 141 40.5s74.5 62.833 97.5 107.5s34.5 95.667 34.5 153c0 194.667 -112 292 -336 292c-48.667 0 -105.667 -5 -171 -15v-534l1 -195c0.666992 -75.333 2.66699 -124 6 -146s8.16602 -36.667 14.499 -44s18.5 -13.5 36.5 -18.5s62.333 -8.83301 133 -11.5l8 -6
v-50l-8 -8c-164.667 5.33301 -260.334 8 -287.001 8c-20.667 0 -116 -2.66699 -286 -8l-8 8v50l8 6c62 2.66699 103.333 6 124 10s34.5 9.16699 41.5 15.5s12.667 19.833 17 40.5s6.83301 66.667 7.5 138l1 211v463l-2 195c-0.666992 76 -2.5 125 -5.5 147
s-7.66699 36.667 -14 44s-18.5 13.333 -36.5 18s-62.333 8.33398 -133 11.001l-8 7v50z" />
    <glyph glyph-name="germandbls" unicode="&#xdf;" horiz-adv-x="1139" 
d="M63 786l-0.00390625 23l8 10l120 63v73c0 70 6.83301 125.167 20.5 165.5s37.334 81.166 71.001 122.499s74.334 82.333 122.001 123s93 70.334 136 89.001s91.833 28 146.5 28c64.667 0 122.334 -12.667 173.001 -38s87.834 -61.833 111.501 -109.5
s35.5 -100.834 35.5 -159.501c0 -53.333 -8.5 -119 -25.5 -197s-33.167 -138.667 -48.5 -182l-15 -7c-57.333 31.333 -106.333 47 -147 47c-32 0 -57.5 -9.5 -76.5 -28.5s-28.5 -41.5 -28.5 -67.5c0 -27.333 9.5 -50.166 28.5 -68.499s67.5 -49.5 145.5 -93.5
c62.667 -35.333 106.667 -62.333 132 -81s45.333 -42.167 60 -70.5s22 -62.5 22 -102.5c0 -46 -8.16699 -88.5 -24.5 -127.5s-39.166 -71.167 -68.499 -96.5c-70 -61.333 -115 -96.333 -135 -105c-40 -16.667 -83.333 -25 -130 -25c-63.333 0 -121 15.333 -173 46v-16l-8 -9
c-82.667 5.33301 -162.667 8 -240 8c-76.667 -0 -157 -2.66699 -241 -8l-8 9v42l8 8l74 4c22 1.33301 36.667 3.83301 44 7.5s13.166 8.5 17.499 14.5s7.83301 16.5 10.5 31.5s5.16699 63.333 7.5 145s3.5 129.167 3.5 142.5v382h-119zM601.996 221l8.99707 -8.00195v-86
c47.333 -43.333 97 -65 149 -65c43.333 0 81.333 14.833 114 44.5s49 68.167 49 115.5c0 29.333 -6.5 55 -19.5 77s-32.5 43 -58.5 63s-83.333 58.667 -172 116c-42 27.333 -70.333 49.166 -85 65.499s-26.5 33.833 -35.5 52.5s-13.5 40.334 -13.5 65.001
c0 22.667 2.5 40.667 7.5 54s13.5 27.333 25.5 42l108 134c8 10 18.833 17.833 32.5 23.5s33.834 10.334 60.501 14.001s48.334 5.5 65.001 5.5c5.33301 0 16.333 -0.333008 33 -1c15.333 61.333 23 117.666 23 168.999c0 88 -24.667 158.167 -74 210.5
s-113.333 78.5 -192 78.5c-58 0 -108.667 -16.333 -152 -49s-73.833 -76 -91.5 -130s-26.5 -135.333 -26.5 -244v-587l7 -222c1.33301 -41.333 5.66602 -67.666 12.999 -78.999s16.333 -18.166 27 -20.499s44.334 -4.83301 101.001 -7.5c18.667 35.333 35.334 89 50.001 161
l9 8h37z" />
    <glyph glyph-name="agrave" unicode="&#xe0;" 
d="M212 678l-39.001 10.001l-8 10v124c118.667 88 234 132 346 132c76.667 0 140.334 -14.333 191.001 -43s87.334 -64.5 110.001 -107.5s34 -93.167 34 -150.5l-5 -201v-298c0 -40.667 2.83301 -65.334 8.5 -74.001s12.167 -14.5 19.5 -17.5s21 -5.5 41 -7.5l57 -5l8 -9
v-40l-8 -8c-48.667 4 -94 6 -136 6c-40 0 -88 -2 -144 -6l-15 14l4 161l-218 -170c-36.667 -15.333 -76.667 -23 -120 -23c-53.333 0 -99.166 9.66699 -137.499 29s-67.666 46.333 -87.999 81s-30.5 76.667 -30.5 126c0 98 30.667 174.5 92 229.5
s228.666 101.833 501.999 140.5c0 98.667 -22 168.167 -66 208.5s-103 60.5 -177 60.5c-38.667 0 -73.834 -5.66699 -105.501 -17s-49.834 -20.5 -54.501 -27.5s-22.667 -47.833 -54 -122.5zM675.999 520.001c-186.667 -31.333 -303.001 -65 -349.001 -101
s-69 -91.667 -69 -167c0 -104 51.667 -156 155 -156c88.667 0 176.334 51.333 263.001 154v270zM539.998 1117l-3 -13l-29 -15l-13 4l-294 374l17 25l13 3l72 -14c15.333 -3.33301 43.333 -8.33301 84 -15z" />
    <glyph glyph-name="aacute" unicode="&#xe1;" 
d="M212 678l-39.001 10.001l-8 10v124c118.667 88 234 132 346 132c76.667 0 140.334 -14.333 191.001 -43s87.334 -64.5 110.001 -107.5s34 -93.167 34 -150.5l-5 -201v-298c0 -40.667 2.83301 -65.334 8.5 -74.001s12.167 -14.5 19.5 -17.5s21 -5.5 41 -7.5l57 -5l8 -9
v-40l-8 -8c-48.667 4 -94 6 -136 6c-40 0 -88 -2 -144 -6l-15 14l4 161l-218 -170c-36.667 -15.333 -76.667 -23 -120 -23c-53.333 0 -99.166 9.66699 -137.499 29s-67.666 46.333 -87.999 81s-30.5 76.667 -30.5 126c0 98 30.667 174.5 92 229.5
s228.666 101.833 501.999 140.5c0 98.667 -22 168.167 -66 208.5s-103 60.5 -177 60.5c-38.667 0 -73.834 -5.66699 -105.501 -17s-49.834 -20.5 -54.501 -27.5s-22.667 -47.833 -54 -122.5zM675.999 520.001c-186.667 -31.333 -303.001 -65 -349.001 -101
s-69 -91.667 -69 -167c0 -104 51.667 -156 155 -156c88.667 0 176.334 51.333 263.001 154v270zM779.998 1467l-294 -374l-13 -4l-29 15l-3 13l153 349l156 29l13 -3z" />
    <glyph glyph-name="acircumflex" unicode="&#xe2;" 
d="M212 678l-39.001 10.001l-8 10v124c118.667 88 234 132 346 132c76.667 0 140.334 -14.333 191.001 -43s87.334 -64.5 110.001 -107.5s34 -93.167 34 -150.5l-5 -201v-298c0 -40.667 2.83301 -65.334 8.5 -74.001s12.167 -14.5 19.5 -17.5s21 -5.5 41 -7.5l57 -5l8 -9
v-40l-8 -8c-48.667 4 -94 6 -136 6c-40 0 -88 -2 -144 -6l-15 14l4 161l-218 -170c-36.667 -15.333 -76.667 -23 -120 -23c-53.333 0 -99.166 9.66699 -137.499 29s-67.666 46.333 -87.999 81s-30.5 76.667 -30.5 126c0 98 30.667 174.5 92 229.5
s228.666 101.833 501.999 140.5c0 98.667 -22 168.167 -66 208.5s-103 60.5 -177 60.5c-38.667 0 -73.834 -5.66699 -105.501 -17s-49.834 -20.5 -54.501 -27.5s-22.667 -47.833 -54 -122.5zM675.999 520.001c-186.667 -31.333 -303.001 -65 -349.001 -101
s-69 -91.667 -69 -167c0 -104 51.667 -156 155 -156c88.667 0 176.334 51.333 263.001 154v270zM810.998 1120l-7 -10h-58l-255 248l-255 -248h-58l-7 10l261 362h118zM490.998 1482z" />
    <glyph glyph-name="atilde" unicode="&#xe3;" 
d="M212 678l-39.001 10.001l-8 10v124c118.667 88 234 132 346 132c76.667 0 140.334 -14.333 191.001 -43s87.334 -64.5 110.001 -107.5s34 -93.167 34 -150.5l-5 -201v-298c0 -40.667 2.83301 -65.334 8.5 -74.001s12.167 -14.5 19.5 -17.5s21 -5.5 41 -7.5l57 -5l8 -9
v-40l-8 -8c-48.667 4 -94 6 -136 6c-40 0 -88 -2 -144 -6l-15 14l4 161l-218 -170c-36.667 -15.333 -76.667 -23 -120 -23c-53.333 0 -99.166 9.66699 -137.499 29s-67.666 46.333 -87.999 81s-30.5 76.667 -30.5 126c0 98 30.667 174.5 92 229.5
s228.666 101.833 501.999 140.5c0 98.667 -22 168.167 -66 208.5s-103 60.5 -177 60.5c-38.667 0 -73.834 -5.66699 -105.501 -17s-49.834 -20.5 -54.501 -27.5s-22.667 -47.833 -54 -122.5zM675.999 520.001c-186.667 -31.333 -303.001 -65 -349.001 -101
s-69 -91.667 -69 -167c0 -104 51.667 -156 155 -156c88.667 0 176.334 51.333 263.001 154v270zM840.998 1390c-14 -62 -40.833 -114.167 -80.5 -156.5s-85.167 -63.5 -136.5 -63.5c-42.667 0 -97.334 17 -164.001 51s-113.667 51 -141 51c-52 0 -91 -33.667 -117 -101h-50
l-6 7c12 58 38.333 108.333 79 151s86 64 136 64c42 0 97 -17 165 -51c68.667 -34 116.334 -51 143.001 -51c50 0 88 35.333 114 106h52z" />
    <glyph glyph-name="adieresis" unicode="&#xe4;" 
d="M212 678l-39.001 10.001l-8 10v124c118.667 88 234 132 346 132c76.667 0 140.334 -14.333 191.001 -43s87.334 -64.5 110.001 -107.5s34 -93.167 34 -150.5l-5 -201v-298c0 -40.667 2.83301 -65.334 8.5 -74.001s12.167 -14.5 19.5 -17.5s21 -5.5 41 -7.5l57 -5l8 -9
v-40l-8 -8c-48.667 4 -94 6 -136 6c-40 0 -88 -2 -144 -6l-15 14l4 161l-218 -170c-36.667 -15.333 -76.667 -23 -120 -23c-53.333 0 -99.166 9.66699 -137.499 29s-67.666 46.333 -87.999 81s-30.5 76.667 -30.5 126c0 98 30.667 174.5 92 229.5
s228.666 101.833 501.999 140.5c0 98.667 -22 168.167 -66 208.5s-103 60.5 -177 60.5c-38.667 0 -73.834 -5.66699 -105.501 -17s-49.834 -20.5 -54.501 -27.5s-22.667 -47.833 -54 -122.5zM675.999 520.001c-186.667 -31.333 -303.001 -65 -349.001 -101
s-69 -91.667 -69 -167c0 -104 51.667 -156 155 -156c88.667 0 176.334 51.333 263.001 154v270zM716.998 1163c-30 0 -55.667 10.667 -77 32s-32 47 -32 77c0 30.667 10.5 56.5 31.5 77.5s46.833 31.5 77.5 31.5s56.5 -10.5 77.5 -31.5s31.5 -46.833 31.5 -77.5
c0 -30 -10.667 -55.667 -32 -77s-47 -32 -77 -32zM293.998 1163c-30 0 -55.667 10.667 -77 32s-32 47 -32 77s10.667 55.667 32 77s47 32 77 32c30.667 0 56.5 -10.5 77.5 -31.5s31.5 -46.833 31.5 -77.5c0 -30 -10.667 -55.667 -32 -77s-47 -32 -77 -32z" />
    <glyph glyph-name="aring" unicode="&#xe5;" 
d="M212 678l-39.001 10.001l-8 10v124c118.667 88 234 132 346 132c76.667 0 140.334 -14.333 191.001 -43s87.334 -64.5 110.001 -107.5s34 -93.167 34 -150.5l-5 -201v-298c0 -40.667 2.83301 -65.334 8.5 -74.001s12.167 -14.5 19.5 -17.5s21 -5.5 41 -7.5l57 -5l8 -9
v-40l-8 -8c-48.667 4 -94 6 -136 6c-40 0 -88 -2 -144 -6l-15 14l4 161l-218 -170c-36.667 -15.333 -76.667 -23 -120 -23c-53.333 0 -99.166 9.66699 -137.499 29s-67.666 46.333 -87.999 81s-30.5 76.667 -30.5 126c0 98 30.667 174.5 92 229.5
s228.666 101.833 501.999 140.5c0 98.667 -22 168.167 -66 208.5s-103 60.5 -177 60.5c-38.667 0 -73.834 -5.66699 -105.501 -17s-49.834 -20.5 -54.501 -27.5s-22.667 -47.833 -54 -122.5zM675.999 520.001c-186.667 -31.333 -303.001 -65 -349.001 -101
s-69 -91.667 -69 -167c0 -104 51.667 -156 155 -156c88.667 0 176.334 51.333 263.001 154v270zM690.998 1282c0 -53.333 -19.835 -97.666 -59.502 -132.999s-86.5 -53 -140.5 -53c-38.667 0 -73.167 8.5 -103.5 25.5s-54 39.167 -71 66.5s-25.5 58.666 -25.5 93.999
c0 52 19.667 96 59 132s86.333 54 141 54c38.667 0 73.334 -8.83301 104.001 -26.5s54.334 -40 71.001 -67s25 -57.833 25 -92.5zM606.996 1282c0 35.333 -10 67.666 -30 96.999s-48.667 44 -86 44c-36.667 0 -65.167 -14.333 -85.5 -43s-30.5 -61.334 -30.5 -98.001
c0 -39.333 10.833 -72.666 32.5 -99.999s49.5 -41 83.5 -41c36.667 0 65.167 14.333 85.5 43s30.5 61.334 30.5 98.001z" />
    <glyph glyph-name="ae" unicode="&#xe6;" horiz-adv-x="1552" 
d="M1436 164l16 -17.002l-32 -72c-69.333 -44.667 -131.166 -73.667 -185.499 -87s-102.833 -20 -145.5 -20c-90 0 -170.5 18 -241.5 54s-126.833 90.333 -167.5 163c-110 -96 -187.667 -160.667 -233 -194c-46 -14 -91.333 -21 -136 -21c-87.333 0 -153.5 24.5 -198.5 73.5
s-67.5 105.833 -67.5 170.5c0 32 6.5 64.833 19.5 98.5s30.167 62.5 51.5 86.5s43.833 42.167 67.5 54.5s62 25.5 115 39.5s111.833 25.667 176.5 35s120.667 15.333 168 18c0 102.667 -20.333 178.667 -61 228s-99 74 -175 74c-57.333 0 -116.333 -14.333 -177 -43
c-10 -17.333 -19.333 -37.666 -28 -60.999l-23 -56l-12 -5l-35 8l-8 11v117l62 35.5l87 49.5l58 30c12 6 23.333 10.333 34 13s27.667 5.33398 51 8.00098s44.666 4 63.999 4c42.667 0 82.167 -5.66699 118.5 -17s66 -25.666 89 -42.999s47.833 -42.333 74.5 -75
c52 42 105.833 75.167 161.5 99.5s115.834 36.5 180.501 36.5c80 0 150.333 -18.833 211 -56.5s103.5 -85.834 128.5 -144.501s37.5 -121 37.5 -187c0 -19.333 -1.33301 -39.333 -4 -60l-10 -11c-45.333 -10 -106.333 -16.667 -183 -20s-127.334 -5 -152.001 -5h-321
c1.33301 -138 36 -239.667 104 -305s151.333 -98 250 -98c44.667 0 88 7.5 130 22.5s89 37.833 141 68.5zM811 555.998c12 -2 58.166 -4.33398 138.499 -7.00098s139.833 -4 178.5 -4c92.667 0 149 1.66699 169 5c0.666992 16 1 28.333 1 37
c0 100.667 -20.5 176.834 -61.5 228.501s-98.833 77.5 -173.5 77.5c-79.333 0 -141.166 -28.333 -185.499 -85s-66.5 -140.667 -66.5 -252zM642.999 479.997c-41.333 -1.33301 -78.499 -4.5 -111.499 -9.5s-71.5 -13.5 -115.5 -25.5s-78 -23.333 -102 -34
s-41 -21.167 -51 -31.5s-19.167 -26.833 -27.5 -49.5s-12.5 -47 -12.5 -73c0 -40 13.667 -76.5 41 -109.5s68.666 -49.5 123.999 -49.5s105.833 15.5 151.5 46.5s80.167 63.833 103.5 98.5v237z" />
    <glyph glyph-name="ccedilla" unicode="&#xe7;" horiz-adv-x="909" 
d="M552 -31l-47.9932 -110.998c22 4 42.667 6 62 6c54 0 96.5 -13 127.5 -39s46.5 -60 46.5 -102c0 -34 -11.5 -65.167 -34.5 -93.5s-52 -48.5 -87 -60.5s-75.833 -18 -122.5 -18c-64.667 0 -125 9.66699 -181 29l-4 12l24 51l11 5c40.667 -14.667 82 -22 124 -22
c37.333 0 64.833 8.66699 82.5 26s26.5 36.666 26.5 57.999c0 23.333 -9.33301 42.166 -28 56.499s-43.334 21.5 -74.001 21.5c-19.333 0 -40 -3.33301 -62 -10l-18 14l81 180c-122.667 10.667 -219.667 58.167 -291 142.5s-107 192.166 -107 323.499
c0 62.667 6.83301 118.5 20.5 167.5s31 89.5 52 121.5s44.167 57.333 69.5 76s68.166 44.667 128.499 78s105.833 55.166 136.5 65.499s73 15.5 127 15.5c103.333 0 188 -19.667 254 -59c-12.667 -75.333 -22.334 -159.333 -29.001 -252l-9 -8h-41l-9 9
c-2.66699 56 -6.33398 93.667 -11.001 113s-31.167 40 -79.5 62s-99.833 33 -154.5 33s-103.334 -11.5 -146.001 -34.5s-74.834 -60.667 -96.501 -113s-32.5 -114.833 -32.5 -187.5c0 -61.333 8.66699 -121.166 26 -179.499s40.166 -106.666 68.499 -144.999
s65.833 -69.166 112.5 -92.499s98.667 -35 156 -35c36 0 71.167 4.66699 105.5 14s73.833 24.666 118.5 45.999l21 -26l-40 -67c-84 -46 -176 -69.667 -276 -71z" />
    <glyph glyph-name="egrave" unicode="&#xe8;" horiz-adv-x="981" 
d="M884 147l-32.001 -71.9971c-69.333 -44.667 -131.166 -73.667 -185.499 -87s-102.833 -20 -145.5 -20c-80 0 -155.833 15.667 -227.5 47s-130 84.333 -175 159s-67.5 164.667 -67.5 270c0 70 8.66699 133.167 26 189.5s35.5 98.166 54.5 125.499
s51.167 57.666 96.5 90.999s93.333 60 144 80s105.334 30 164.001 30c80 0 150.5 -18.833 211.5 -56.5s103.833 -85.834 128.5 -144.501s37 -121 37 -187c0 -20.667 -1 -40.667 -3 -60l-11 -11c-45.333 -10 -106.333 -16.667 -183 -20s-127.334 -5 -152.001 -5h-321
c1.33301 -138 36 -239.667 104 -305s151.333 -98 250 -98c46.667 0 91.5 8 134.5 24s88.5 38.333 136.5 67zM242.999 556.003c12 -2 58.166 -4.33203 138.499 -6.99902s139.833 -4 178.5 -4c92.667 0 149 1.66699 169 5c0.666992 16 1 28.333 1 37
c0 103.333 -21 180.166 -63 230.499s-99.333 75.5 -172 75.5c-79.333 0 -141.166 -28.333 -185.499 -85s-66.5 -140.667 -66.5 -252zM559.998 1117l-3 -13l-29 -15l-13 4l-294 374l17 25l13 3l72 -14c15.333 -3.33301 43.333 -8.33301 84 -15z" />
    <glyph glyph-name="eacute" unicode="&#xe9;" horiz-adv-x="981" 
d="M884 147l-32.001 -71.9971c-69.333 -44.667 -131.166 -73.667 -185.499 -87s-102.833 -20 -145.5 -20c-80 0 -155.833 15.667 -227.5 47s-130 84.333 -175 159s-67.5 164.667 -67.5 270c0 70 8.66699 133.167 26 189.5s35.5 98.166 54.5 125.499
s51.167 57.666 96.5 90.999s93.333 60 144 80s105.334 30 164.001 30c80 0 150.5 -18.833 211.5 -56.5s103.833 -85.834 128.5 -144.501s37 -121 37 -187c0 -20.667 -1 -40.667 -3 -60l-11 -11c-45.333 -10 -106.333 -16.667 -183 -20s-127.334 -5 -152.001 -5h-321
c1.33301 -138 36 -239.667 104 -305s151.333 -98 250 -98c46.667 0 91.5 8 134.5 24s88.5 38.333 136.5 67zM242.999 556.003c12 -2 58.166 -4.33203 138.499 -6.99902s139.833 -4 178.5 -4c92.667 0 149 1.66699 169 5c0.666992 16 1 28.333 1 37
c0 103.333 -21 180.166 -63 230.499s-99.333 75.5 -172 75.5c-79.333 0 -141.166 -28.333 -185.499 -85s-66.5 -140.667 -66.5 -252zM809.998 1467l-294 -374l-13 -4l-29 15l-3 13l153 349l156 29l13 -3z" />
    <glyph glyph-name="ecircumflex" unicode="&#xea;" horiz-adv-x="981" 
d="M884 147l-32.001 -71.9971c-69.333 -44.667 -131.166 -73.667 -185.499 -87s-102.833 -20 -145.5 -20c-80 0 -155.833 15.667 -227.5 47s-130 84.333 -175 159s-67.5 164.667 -67.5 270c0 70 8.66699 133.167 26 189.5s35.5 98.166 54.5 125.499
s51.167 57.666 96.5 90.999s93.333 60 144 80s105.334 30 164.001 30c80 0 150.5 -18.833 211.5 -56.5s103.833 -85.834 128.5 -144.501s37 -121 37 -187c0 -20.667 -1 -40.667 -3 -60l-11 -11c-45.333 -10 -106.333 -16.667 -183 -20s-127.334 -5 -152.001 -5h-321
c1.33301 -138 36 -239.667 104 -305s151.333 -98 250 -98c46.667 0 91.5 8 134.5 24s88.5 38.333 136.5 67zM242.999 556.003c12 -2 58.166 -4.33203 138.499 -6.99902s139.833 -4 178.5 -4c92.667 0 149 1.66699 169 5c0.666992 16 1 28.333 1 37
c0 103.333 -21 180.166 -63 230.499s-99.333 75.5 -172 75.5c-79.333 0 -141.166 -28.333 -185.499 -85s-66.5 -140.667 -66.5 -252zM830.998 1120l-7 -10h-58l-255 248l-255 -248h-58l-7 10l261 362h118zM510.998 1482z" />
    <glyph glyph-name="edieresis" unicode="&#xeb;" horiz-adv-x="981" 
d="M884 147l-32.001 -71.9971c-69.333 -44.667 -131.166 -73.667 -185.499 -87s-102.833 -20 -145.5 -20c-80 0 -155.833 15.667 -227.5 47s-130 84.333 -175 159s-67.5 164.667 -67.5 270c0 70 8.66699 133.167 26 189.5s35.5 98.166 54.5 125.499
s51.167 57.666 96.5 90.999s93.333 60 144 80s105.334 30 164.001 30c80 0 150.5 -18.833 211.5 -56.5s103.833 -85.834 128.5 -144.501s37 -121 37 -187c0 -20.667 -1 -40.667 -3 -60l-11 -11c-45.333 -10 -106.333 -16.667 -183 -20s-127.334 -5 -152.001 -5h-321
c1.33301 -138 36 -239.667 104 -305s151.333 -98 250 -98c46.667 0 91.5 8 134.5 24s88.5 38.333 136.5 67zM242.999 556.003c12 -2 58.166 -4.33203 138.499 -6.99902s139.833 -4 178.5 -4c92.667 0 149 1.66699 169 5c0.666992 16 1 28.333 1 37
c0 103.333 -21 180.166 -63 230.499s-99.333 75.5 -172 75.5c-79.333 0 -141.166 -28.333 -185.499 -85s-66.5 -140.667 -66.5 -252zM716.998 1163c-30 0 -55.667 10.667 -77 32s-32 47 -32 77c0 30.667 10.5 56.5 31.5 77.5s46.833 31.5 77.5 31.5s56.5 -10.5 77.5 -31.5
s31.5 -46.833 31.5 -77.5c0 -30 -10.667 -55.667 -32 -77s-47 -32 -77 -32zM293.998 1163c-30 0 -55.667 10.667 -77 32s-32 47 -32 77s10.667 55.667 32 77s47 32 77 32c30.667 0 56.5 -10.5 77.5 -31.5s31.5 -46.833 31.5 -77.5c0 -30 -10.667 -55.667 -32 -77
s-47 -32 -77 -32z" />
    <glyph glyph-name="igrave" unicode="&#xec;" horiz-adv-x="596" 
d="M373 953l19.0039 -12.999c-7.33301 -87.333 -11 -198.333 -11 -333v-226c0 -14.667 1.33301 -61.834 4 -141.501s5.5 -126.167 8.5 -139.5s7.5 -23 13.5 -29s13.333 -9.83301 22 -11.5s44.667 -4.5 108 -8.5l9 -8v-42l-8 -9c-83.333 5.33301 -163.666 8 -240.999 8
c-76.667 -0 -156.667 -2.66699 -240 -8l-9 9v42l9 8c64.667 4 101.167 7 109.5 9s15.666 6.16699 21.999 12.5s10.666 16 12.999 29s5 56 8 129s4.5 128.167 4.5 165.5v197c0 26.667 -1.33301 63 -4 109s-4.83398 74.333 -6.50098 85s-6.83398 18.5 -15.501 23.5
s-26 7.5 -52 7.5l-84 1l-9 8v43l8 8c127.333 15.333 234.666 40.333 321.999 75zM330.004 1117l-3 -13l-29 -15l-13 4l-294 374l17 25l13 3l72 -14c15.333 -3.33301 43.333 -8.33301 84 -15z" />
    <glyph glyph-name="iacute" unicode="&#xed;" horiz-adv-x="596" 
d="M373 953l19.0039 -12.999c-7.33301 -87.333 -11 -198.333 -11 -333v-226c0 -14.667 1.33301 -61.834 4 -141.501s5.5 -126.167 8.5 -139.5s7.5 -23 13.5 -29s13.333 -9.83301 22 -11.5s44.667 -4.5 108 -8.5l9 -8v-42l-8 -9c-83.333 5.33301 -163.666 8 -240.999 8
c-76.667 -0 -156.667 -2.66699 -240 -8l-9 9v42l9 8c64.667 4 101.167 7 109.5 9s15.666 6.16699 21.999 12.5s10.666 16 12.999 29s5 56 8 129s4.5 128.167 4.5 165.5v197c0 26.667 -1.33301 63 -4 109s-4.83398 74.333 -6.50098 85s-6.83398 18.5 -15.501 23.5
s-26 7.5 -52 7.5l-84 1l-9 8v43l8 8c127.333 15.333 234.666 40.333 321.999 75zM550.004 1467l-294 -374l-13 -4l-29 15l-3 13l153 349l156 29l13 -3z" />
    <glyph glyph-name="icircumflex" unicode="&#xee;" horiz-adv-x="596" 
d="M373 953l19.0039 -12.999c-7.33301 -87.333 -11 -198.333 -11 -333v-226c0 -14.667 1.33301 -61.834 4 -141.501s5.5 -126.167 8.5 -139.5s7.5 -23 13.5 -29s13.333 -9.83301 22 -11.5s44.667 -4.5 108 -8.5l9 -8v-42l-8 -9c-83.333 5.33301 -163.666 8 -240.999 8
c-76.667 -0 -156.667 -2.66699 -240 -8l-9 9v42l9 8c64.667 4 101.167 7 109.5 9s15.666 6.16699 21.999 12.5s10.666 16 12.999 29s5 56 8 129s4.5 128.167 4.5 165.5v197c0 26.667 -1.33301 63 -4 109s-4.83398 74.333 -6.50098 85s-6.83398 18.5 -15.501 23.5
s-26 7.5 -52 7.5l-84 1l-9 8v43l8 8c127.333 15.333 234.666 40.333 321.999 75zM591.004 1120l-7 -10h-58l-255 248l-255 -248h-58l-7 10l261 362h118zM271.004 1482z" />
    <glyph glyph-name="idieresis" unicode="&#xef;" horiz-adv-x="596" 
d="M373 953l19.0039 -12.999c-7.33301 -87.333 -11 -198.333 -11 -333v-226c0 -14.667 1.33301 -61.834 4 -141.501s5.5 -126.167 8.5 -139.5s7.5 -23 13.5 -29s13.333 -9.83301 22 -11.5s44.667 -4.5 108 -8.5l9 -8v-42l-8 -9c-83.333 5.33301 -163.666 8 -240.999 8
c-76.667 -0 -156.667 -2.66699 -240 -8l-9 9v42l9 8c64.667 4 101.167 7 109.5 9s15.666 6.16699 21.999 12.5s10.666 16 12.999 29s5 56 8 129s4.5 128.167 4.5 165.5v197c0 26.667 -1.33301 63 -4 109s-4.83398 74.333 -6.50098 85s-6.83398 18.5 -15.501 23.5
s-26 7.5 -52 7.5l-84 1l-9 8v43l8 8c127.333 15.333 234.666 40.333 321.999 75zM472.004 1163c-30 0 -55.667 10.667 -77 32s-32 47 -32 77c0 30.667 10.5 56.5 31.5 77.5s46.833 31.5 77.5 31.5s56.5 -10.5 77.5 -31.5s31.5 -46.833 31.5 -77.5
c0 -30 -10.667 -55.667 -32 -77s-47 -32 -77 -32zM49.0039 1163c-30 0 -55.667 10.667 -77 32s-32 47 -32 77s10.667 55.667 32 77s47 32 77 32c30.667 0 56.5 -10.5 77.5 -31.5s31.5 -46.833 31.5 -77.5c0 -30 -10.667 -55.667 -32 -77s-47 -32 -77 -32z" />
    <glyph glyph-name="eth" unicode="&#xf0;" horiz-adv-x="1118" 
d="M588 1204l-278.997 -131.001l-12 3l-28 44l4 13l269 127c-58 54 -137.333 107.667 -238 161l-1 13l52 51l15 1c117.333 -68 205.666 -126.667 264.999 -176l284 136l12 -3l27 -43l-3 -12l-257 -128c134 -134 224.833 -259.5 272.5 -376.5s71.5 -232.5 71.5 -346.5
c0 -104.667 -20.167 -201.167 -60.5 -289.5s-100.5 -158.166 -180.5 -209.499s-171 -77 -273 -77c-130.667 0 -238.667 44 -324 132s-128 205 -128 351c0 97.333 19.167 185.833 57.5 265.5s96.666 141.834 174.999 186.501s164.166 67 257.499 67
c42.667 0 79.667 -4 111 -12s68 -21 110 -39c-48 115.333 -114.333 212.666 -199 291.999zM266.003 532.999c0 -84.667 11.3291 -166.667 33.9961 -246s57.334 -142.166 104.001 -188.499s102.334 -69.5 167.001 -69.5c92.667 0 164.334 46.333 215.001 139s76 200 76 322
c0 131.333 -29.5 231.666 -88.5 300.999s-132.5 104 -220.5 104c-64 0 -119.167 -17.167 -165.5 -51.5s-78.166 -79.833 -95.499 -136.5s-26 -114.667 -26 -174z" />
    <glyph glyph-name="ntilde" unicode="&#xf1;" horiz-adv-x="1192" 
d="M342 953l19.0068 -12.999c-4 -44.667 -6.66699 -103.334 -8 -176.001c53.333 44 104 88.667 152 134c14 12.667 27.167 22 39.5 28s32.833 12.333 61.5 19s58 10 88 10c50.667 0 99.834 -10.333 147.501 -31s83.667 -45.167 108 -73.5s41.166 -61.833 50.499 -100.5
s14 -86.334 14 -143.001v-176c0 -11.333 1.66699 -94.333 5 -249c1.33301 -63.333 8.33301 -101 21 -113s54 -18 124 -18l8 -8v-43l-8 -8c-84.667 5.33301 -142 8 -172 8c-17.333 0 -66 -2.66699 -146 -8l-12 11c8.66699 86.667 13 199.667 13 339v131
c0 78.667 -1.83301 135.334 -5.5 170.001s-14.834 66.167 -33.501 94.5s-43.667 50.333 -75 66s-68.666 23.5 -111.999 23.5c-34.667 0 -64.334 -3.5 -89.001 -10.5s-52.334 -21.333 -83.001 -43s-53.334 -42 -68.001 -61s-23.5 -36.667 -26.5 -53
s-4.5 -51.166 -4.5 -104.499v-174c0 -14.667 1.33301 -61.834 4 -141.501s5.5 -126.167 8.5 -139.5s7.5 -23 13.5 -29s13.333 -9.83301 22 -11.5s44.667 -4.5 108 -8.5l9 -8v-42l-8 -9c-83.333 5.33301 -163.666 8 -240.999 8c-76.667 -0 -156.667 -2.66699 -240 -8l-9 9v42
l9 8c64.667 4 101.167 7 109.5 9s15.666 6.16699 21.999 12.5s10.666 16 12.999 29s5 56 8 129s4.5 128.167 4.5 165.5v197c0 26.667 -1.33301 63 -4 109s-4.83398 74.333 -6.50098 85s-6.83398 18.5 -15.501 23.5s-26 7.5 -52 7.5l-84 1l-9 8v43l8 8
c127.333 15.333 234.666 40.333 321.999 75zM969.007 1390c-14 -62 -40.833 -114.167 -80.5 -156.5s-85.167 -63.5 -136.5 -63.5c-42.667 0 -97.334 17 -164.001 51s-113.667 51 -141 51c-52 0 -91 -33.667 -117 -101h-50l-6 7c12 58 38.333 108.333 79 151s86 64 136 64
c42 0 97 -17 165 -51c68.667 -34 116.334 -51 143.001 -51c50 0 88 35.333 114 106h52z" />
    <glyph glyph-name="ograve" unicode="&#xf2;" horiz-adv-x="1118" 
d="M68 458c0 79.333 16.332 155.833 48.999 229.5s89.5 137.334 170.5 191.001s177.167 80.5 288.5 80.5c140 0 254 -44.167 342 -132.5s132 -201.833 132 -340.5c0 -152.667 -50.5 -278.334 -151.5 -377.001s-222.833 -148 -365.5 -148
c-93.333 0 -176.666 25.167 -249.999 75.5s-127.5 111.833 -162.5 184.5s-52.5 151.667 -52.5 237zM256.999 527c0 -93.333 12.002 -176.831 36.002 -250.498s62 -132.834 114 -177.501s111.333 -67 178 -67c78.667 0 143.667 31.167 195 93.5s77 156.166 77 281.499
c0 142 -27.833 258.333 -83.5 349s-135.834 136 -240.501 136c-86.667 0 -154.334 -31.333 -203.001 -94s-73 -153 -73 -271zM580.001 1117l-3 -13l-29 -15l-13 4l-294 374l17 25l13 3l72 -14c15.333 -3.33301 43.333 -8.33301 84 -15z" />
    <glyph glyph-name="oacute" unicode="&#xf3;" horiz-adv-x="1118" 
d="M68 458c0 79.333 16.332 155.833 48.999 229.5s89.5 137.334 170.5 191.001s177.167 80.5 288.5 80.5c140 0 254 -44.167 342 -132.5s132 -201.833 132 -340.5c0 -152.667 -50.5 -278.334 -151.5 -377.001s-222.833 -148 -365.5 -148
c-93.333 0 -176.666 25.167 -249.999 75.5s-127.5 111.833 -162.5 184.5s-52.5 151.667 -52.5 237zM256.999 527c0 -93.333 12.002 -176.831 36.002 -250.498s62 -132.834 114 -177.501s111.333 -67 178 -67c78.667 0 143.667 31.167 195 93.5s77 156.166 77 281.499
c0 142 -27.833 258.333 -83.5 349s-135.834 136 -240.501 136c-86.667 0 -154.334 -31.333 -203.001 -94s-73 -153 -73 -271zM820.001 1467l-294 -374l-13 -4l-29 15l-3 13l153 349l156 29l13 -3z" />
    <glyph glyph-name="ocircumflex" unicode="&#xf4;" horiz-adv-x="1118" 
d="M68 458c0 79.333 16.332 155.833 48.999 229.5s89.5 137.334 170.5 191.001s177.167 80.5 288.5 80.5c140 0 254 -44.167 342 -132.5s132 -201.833 132 -340.5c0 -152.667 -50.5 -278.334 -151.5 -377.001s-222.833 -148 -365.5 -148
c-93.333 0 -176.666 25.167 -249.999 75.5s-127.5 111.833 -162.5 184.5s-52.5 151.667 -52.5 237zM256.999 527c0 -93.333 12.002 -176.831 36.002 -250.498s62 -132.834 114 -177.501s111.333 -67 178 -67c78.667 0 143.667 31.167 195 93.5s77 156.166 77 281.499
c0 142 -27.833 258.333 -83.5 349s-135.834 136 -240.501 136c-86.667 0 -154.334 -31.333 -203.001 -94s-73 -153 -73 -271zM871.001 1120l-7 -10h-58l-255 248l-255 -248h-58l-7 10l261 362h118zM551.001 1482z" />
    <glyph glyph-name="otilde" unicode="&#xf5;" horiz-adv-x="1118" 
d="M68 458c0 79.333 16.332 155.833 48.999 229.5s89.5 137.334 170.5 191.001s177.167 80.5 288.5 80.5c140 0 254 -44.167 342 -132.5s132 -201.833 132 -340.5c0 -152.667 -50.5 -278.334 -151.5 -377.001s-222.833 -148 -365.5 -148
c-93.333 0 -176.666 25.167 -249.999 75.5s-127.5 111.833 -162.5 184.5s-52.5 151.667 -52.5 237zM256.999 527c0 -93.333 12.002 -176.831 36.002 -250.498s62 -132.834 114 -177.501s111.333 -67 178 -67c78.667 0 143.667 31.167 195 93.5s77 156.166 77 281.499
c0 142 -27.833 258.333 -83.5 349s-135.834 136 -240.501 136c-86.667 0 -154.334 -31.333 -203.001 -94s-73 -153 -73 -271zM889.001 1390c-14 -62 -40.833 -114.167 -80.5 -156.5s-85.167 -63.5 -136.5 -63.5c-42.667 0 -97.334 17 -164.001 51s-113.667 51 -141 51
c-52 0 -91 -33.667 -117 -101h-50l-6 7c12 58 38.333 108.333 79 151s86 64 136 64c42 0 97 -17 165 -51c68.667 -34 116.334 -51 143.001 -51c50 0 88 35.333 114 106h52z" />
    <glyph glyph-name="odieresis" unicode="&#xf6;" horiz-adv-x="1118" 
d="M68 458c0 79.333 16.332 155.833 48.999 229.5s89.5 137.334 170.5 191.001s177.167 80.5 288.5 80.5c140 0 254 -44.167 342 -132.5s132 -201.833 132 -340.5c0 -152.667 -50.5 -278.334 -151.5 -377.001s-222.833 -148 -365.5 -148
c-93.333 0 -176.666 25.167 -249.999 75.5s-127.5 111.833 -162.5 184.5s-52.5 151.667 -52.5 237zM256.999 527c0 -93.333 12.002 -176.831 36.002 -250.498s62 -132.834 114 -177.501s111.333 -67 178 -67c78.667 0 143.667 31.167 195 93.5s77 156.166 77 281.499
c0 142 -27.833 258.333 -83.5 349s-135.834 136 -240.501 136c-86.667 0 -154.334 -31.333 -203.001 -94s-73 -153 -73 -271zM762.001 1163c-30 0 -55.667 10.667 -77 32s-32 47 -32 77c0 30.667 10.5 56.5 31.5 77.5s46.833 31.5 77.5 31.5s56.5 -10.5 77.5 -31.5
s31.5 -46.833 31.5 -77.5c0 -30 -10.667 -55.667 -32 -77s-47 -32 -77 -32zM339.001 1163c-30 0 -55.667 10.667 -77 32s-32 47 -32 77s10.667 55.667 32 77s47 32 77 32c30.667 0 56.5 -10.5 77.5 -31.5s31.5 -46.833 31.5 -77.5c0 -30 -10.667 -55.667 -32 -77
s-47 -32 -77 -32z" />
    <glyph glyph-name="divide" unicode="&#xf7;" 
d="M512 831c-27.333 0 -50.666 9.66699 -69.999 29s-29 42.666 -29 69.999s9.66699 50.5 29 69.5s42.666 28.5 69.999 28.5s50.666 -9.5 69.999 -28.5s29 -42.167 29 -69.5s-9.66699 -50.666 -29 -69.999s-42.666 -29 -69.999 -29zM994 576h-964v112h964v-112zM512 234
c-27.333 0 -50.666 9.66699 -69.999 29s-29 42.666 -29 69.999s9.66699 50.5 29 69.5s42.666 28.5 69.999 28.5s50.666 -9.5 69.999 -28.5s29 -42.167 29 -69.5s-9.66699 -50.666 -29 -69.999s-42.666 -29 -69.999 -29z" />
    <glyph glyph-name="oslash" unicode="&#xf8;" horiz-adv-x="1118" 
d="M175 137c-71.333 90 -107 197.001 -107 321.001c0 146 48 266 144 360s217.333 141 364 141c126.667 0 234 -37.667 322 -113l123 121h12l44 -42v-12l-126 -123c66 -84 99 -185.333 99 -304c0 -152.667 -50.5 -278.334 -151.5 -377.001s-222.5 -148 -364.5 -148
c-118.667 0 -221 39.667 -307 119l-125 -122h-12l-44 40v12zM299 259.001l486.001 477c-56.667 104 -140.667 156 -252 156c-86.667 0 -154.334 -31.333 -203.001 -94s-73 -153 -73 -271c0 -104 14 -193.333 42 -268zM819.001 660.001l-484 -474
c64 -102.667 147.333 -154 250 -154c78.667 0 143.667 31 195 93s77 156 77 282c0 92 -12.667 176.333 -38 253z" />
    <glyph glyph-name="ugrave" unicode="&#xf9;" horiz-adv-x="1235" 
d="M346 953l19.0078 -13.001c-7.33301 -87.333 -11 -198.333 -11 -333v-233c0 -85.333 6.5 -144.666 19.5 -177.999s35.5 -58.833 67.5 -76.5s70 -26.5 114 -26.5c48.667 0 93 9.5 133 28.5s73.5 45.833 100.5 80.5s42.5 58 46.5 70s6.66699 45.667 8 101l3 112v108
c0 26.667 -1.33301 63 -4 109s-4.83398 74.333 -6.50098 85s-6.83398 18.5 -15.501 23.5s-26 7.5 -52 7.5l-84 1l-9 8v43l8 8c127.333 15.333 234.666 40.333 321.999 75l19 -13c-7.33301 -87.333 -11 -198.333 -11 -333v-176c0 -10 1.66699 -91.667 5 -245
c1.33301 -56.667 4.83301 -91.167 10.5 -103.5s13.5 -21 23.5 -26s39.667 -7.5 89 -7.5h28l9 -8v-40l-8 -9c-94 5.33301 -157 8 -189 8c-40.667 0 -87.667 -2.33301 -141 -7l-9 8c4 68 7 125.667 9 173c-42 -32.667 -90 -76.334 -144 -131.001
c-20.667 -20.667 -50.334 -38 -89.001 -52s-82.667 -21 -132 -21c-74.667 0 -132.834 11.833 -174.501 35.5s-71.167 56.334 -88.5 98.001s-26 113.5 -26 215.5l1 79v195c0 26.667 -1.33301 63 -4 109s-4.83398 74.333 -6.50098 85s-6.83398 18.5 -15.501 23.5
s-26 7.5 -52 7.5l-84 1l-9 8v43l8 8c127.333 15.333 234.666 40.333 321.999 75zM620.008 1117l-3 -13l-29 -15l-13 4l-294 374l17 25l13 3l72 -14c15.333 -3.33301 43.333 -8.33301 84 -15z" />
    <glyph glyph-name="uacute" unicode="&#xfa;" horiz-adv-x="1235" 
d="M346 953l19.0078 -13.001c-7.33301 -87.333 -11 -198.333 -11 -333v-233c0 -85.333 6.5 -144.666 19.5 -177.999s35.5 -58.833 67.5 -76.5s70 -26.5 114 -26.5c48.667 0 93 9.5 133 28.5s73.5 45.833 100.5 80.5s42.5 58 46.5 70s6.66699 45.667 8 101l3 112v108
c0 26.667 -1.33301 63 -4 109s-4.83398 74.333 -6.50098 85s-6.83398 18.5 -15.501 23.5s-26 7.5 -52 7.5l-84 1l-9 8v43l8 8c127.333 15.333 234.666 40.333 321.999 75l19 -13c-7.33301 -87.333 -11 -198.333 -11 -333v-176c0 -10 1.66699 -91.667 5 -245
c1.33301 -56.667 4.83301 -91.167 10.5 -103.5s13.5 -21 23.5 -26s39.667 -7.5 89 -7.5h28l9 -8v-40l-8 -9c-94 5.33301 -157 8 -189 8c-40.667 0 -87.667 -2.33301 -141 -7l-9 8c4 68 7 125.667 9 173c-42 -32.667 -90 -76.334 -144 -131.001
c-20.667 -20.667 -50.334 -38 -89.001 -52s-82.667 -21 -132 -21c-74.667 0 -132.834 11.833 -174.501 35.5s-71.167 56.334 -88.5 98.001s-26 113.5 -26 215.5l1 79v195c0 26.667 -1.33301 63 -4 109s-4.83398 74.333 -6.50098 85s-6.83398 18.5 -15.501 23.5
s-26 7.5 -52 7.5l-84 1l-9 8v43l8 8c127.333 15.333 234.666 40.333 321.999 75zM840.008 1467l-294 -374l-13 -4l-29 15l-3 13l153 349l156 29l13 -3z" />
    <glyph glyph-name="ucircumflex" unicode="&#xfb;" horiz-adv-x="1235" 
d="M346 953l19.0078 -13.001c-7.33301 -87.333 -11 -198.333 -11 -333v-233c0 -85.333 6.5 -144.666 19.5 -177.999s35.5 -58.833 67.5 -76.5s70 -26.5 114 -26.5c48.667 0 93 9.5 133 28.5s73.5 45.833 100.5 80.5s42.5 58 46.5 70s6.66699 45.667 8 101l3 112v108
c0 26.667 -1.33301 63 -4 109s-4.83398 74.333 -6.50098 85s-6.83398 18.5 -15.501 23.5s-26 7.5 -52 7.5l-84 1l-9 8v43l8 8c127.333 15.333 234.666 40.333 321.999 75l19 -13c-7.33301 -87.333 -11 -198.333 -11 -333v-176c0 -10 1.66699 -91.667 5 -245
c1.33301 -56.667 4.83301 -91.167 10.5 -103.5s13.5 -21 23.5 -26s39.667 -7.5 89 -7.5h28l9 -8v-40l-8 -9c-94 5.33301 -157 8 -189 8c-40.667 0 -87.667 -2.33301 -141 -7l-9 8c4 68 7 125.667 9 173c-42 -32.667 -90 -76.334 -144 -131.001
c-20.667 -20.667 -50.334 -38 -89.001 -52s-82.667 -21 -132 -21c-74.667 0 -132.834 11.833 -174.501 35.5s-71.167 56.334 -88.5 98.001s-26 113.5 -26 215.5l1 79v195c0 26.667 -1.33301 63 -4 109s-4.83398 74.333 -6.50098 85s-6.83398 18.5 -15.501 23.5
s-26 7.5 -52 7.5l-84 1l-9 8v43l8 8c127.333 15.333 234.666 40.333 321.999 75zM911.008 1120l-7 -10h-58l-255 248l-255 -248h-58l-7 10l261 362h118zM591.008 1482z" />
    <glyph glyph-name="udieresis" unicode="&#xfc;" horiz-adv-x="1235" 
d="M346 953l19.0078 -13.001c-7.33301 -87.333 -11 -198.333 -11 -333v-233c0 -85.333 6.5 -144.666 19.5 -177.999s35.5 -58.833 67.5 -76.5s70 -26.5 114 -26.5c48.667 0 93 9.5 133 28.5s73.5 45.833 100.5 80.5s42.5 58 46.5 70s6.66699 45.667 8 101l3 112v108
c0 26.667 -1.33301 63 -4 109s-4.83398 74.333 -6.50098 85s-6.83398 18.5 -15.501 23.5s-26 7.5 -52 7.5l-84 1l-9 8v43l8 8c127.333 15.333 234.666 40.333 321.999 75l19 -13c-7.33301 -87.333 -11 -198.333 -11 -333v-176c0 -10 1.66699 -91.667 5 -245
c1.33301 -56.667 4.83301 -91.167 10.5 -103.5s13.5 -21 23.5 -26s39.667 -7.5 89 -7.5h28l9 -8v-40l-8 -9c-94 5.33301 -157 8 -189 8c-40.667 0 -87.667 -2.33301 -141 -7l-9 8c4 68 7 125.667 9 173c-42 -32.667 -90 -76.334 -144 -131.001
c-20.667 -20.667 -50.334 -38 -89.001 -52s-82.667 -21 -132 -21c-74.667 0 -132.834 11.833 -174.501 35.5s-71.167 56.334 -88.5 98.001s-26 113.5 -26 215.5l1 79v195c0 26.667 -1.33301 63 -4 109s-4.83398 74.333 -6.50098 85s-6.83398 18.5 -15.501 23.5
s-26 7.5 -52 7.5l-84 1l-9 8v43l8 8c127.333 15.333 234.666 40.333 321.999 75zM792.008 1163c-30 0 -55.667 10.667 -77 32s-32 47 -32 77c0 30.667 10.5 56.5 31.5 77.5s46.833 31.5 77.5 31.5s56.5 -10.5 77.5 -31.5s31.5 -46.833 31.5 -77.5
c0 -30 -10.667 -55.667 -32 -77s-47 -32 -77 -32zM369.008 1163c-30 0 -55.667 10.667 -77 32s-32 47 -32 77s10.667 55.667 32 77s47 32 77 32c30.667 0 56.5 -10.5 77.5 -31.5s31.5 -46.833 31.5 -77.5c0 -30 -10.667 -55.667 -32 -77s-47 -32 -77 -32z" />
    <glyph glyph-name="yacute" unicode="&#xfd;" horiz-adv-x="1139" 
d="M45 -543c22.667 56 39.667 107.33 51 153.997h24c32.667 -35.333 68 -53 106 -53c47.333 0 88.5 23.5 123.5 70.5s84.5 150.833 148.5 311.5c-25.333 71.333 -51 138.666 -77 201.999l-159 394l-74 174.5c-32.667 75.667 -52.167 117.334 -58.5 125.001
s-14.5 14.834 -24.5 21.501s-37 13 -81 19l-8 8v40l9 8c76.667 -4.66699 155.334 -7 236.001 -7c94.667 0 167.667 2.33301 219 7l8 -8v-40l-7 -8c-7.33301 -0.666992 -27.833 -2.16699 -61.5 -4.5s-54.667 -7.66602 -63 -15.999s-12.5 -17.833 -12.5 -28.5
c0 -11.333 10.333 -48.166 31 -110.499s40.667 -117.5 60 -165.5l63 -156c41.333 -102.667 73.333 -178.334 96 -227.001l53 117c18.667 42.667 45.334 107.334 80.001 194.001l83 212c21.333 54.667 33.5 88.667 36.5 102s4.5 23 4.5 29c0 14.667 -5.33301 24.667 -16 30
s-34.334 10 -71.001 14l-42 6l-7 8v44l8 8c56 -4.66699 122.333 -7 199 -7c70 0 126 2.33301 168 7l8 -8v-44l-8 -8c-24.667 -0.666992 -44.334 -4 -59.001 -10s-28.667 -16.667 -42 -32s-37.333 -58.5 -72 -129.5l-104 -220.5l-98 -215l-231 -540
c-20 -46.667 -44.833 -96.667 -74.5 -150s-66 -91.833 -109 -115.5s-88.5 -35.5 -136.5 -35.5c-42 0 -81.667 11 -119 33zM870 1467l-294 -374l-13 -4l-29 15l-3 13l153 349l156 29l13 -3z" />
    </font>
</defs>
</svg>
