<?xml version="1.0" encoding="UTF-8" standalone="no"?>
<svg width="653px" height="232px" viewBox="0 0 653 232" version="1.1" xmlns="http://www.w3.org/2000/svg" xmlns:xlink="http://www.w3.org/1999/xlink" xmlns:sketch="http://www.bohemiancoding.com/sketch/ns">
    <!-- Generator: Sketch 3.0.4 (8054) - http://www.bohemiancoding.com/sketch -->
    <title>g14</title>
    <desc>Created with Sketch.</desc>
    <defs></defs>
    <g id="Page-1" stroke="none" stroke-width="1" fill="none" fill-rule="evenodd" sketch:type="MSPage">
        <g id="g14" sketch:type="MSLayerGroup" transform="translate(326.250000, 115.593750) scale(1, -1) translate(-326.250000, -115.593750) translate(1.250000, 0.593750)" fill="#FFFFFF">
            <g id="g20" transform="translate(-0.328375, 75.999500)" sketch:type="MSShapeGroup">
                <path d="M55,1.25 L56.21875,9.81625 C56.62375,12.4575 56.87,15.1225 56.95125,17.81 C57.03,20.49625 57.115,26.1475 57.19625,34.765 L58.3275,35.9125 L63.74875,35.9125 L64.88125,34.77 C65.0525,27.645 65.48125,21.54375 66.17875,16.45375 C68.855,12.47 73.475,9.2275 80.04,6.72875 C86.605,4.22375 93.0775,2.97625 99.47,2.97625 C108.625,2.97625 115.945,5.4125 121.43,10.29625 C126.9125,15.17375 129.6575,20.995 129.6575,27.76 C129.6575,31.44125 128.66875,34.6275 126.695,37.32625 C124.71625,40.02 121.73875,42.24375 117.745,44 C113.755,45.755 106.6125,47.83 96.315,50.23375 C87.47375,52.285 81.2925,53.89125 77.77625,55.0475 C74.2525,56.2025 70.86125,58.14625 67.6025,60.88625 C64.34375,63.625 61.85,66.9875 60.13375,70.96625 C58.41875,74.94625 57.5625,79.3325 57.5625,84.13 C57.5625,95.5725 62.11875,104.7325 71.23375,111.60625 C80.34875,118.48 91.71625,121.91625 105.32625,121.91625 C111.05625,121.91625 117.30625,121.12625 124.07125,119.555 C130.83,117.9825 135.97,116.4725 139.48125,115.03125 L140.63625,113.2475 C139.8525,109.845 139.36625,100.91875 139.1725,86.47 L137.9775,85.32 L132.6825,85.32 L131.48625,86.47 C131.14375,91.66125 130.675,95.2975 130.08,97.385 C129.485,99.46625 127.9525,101.725 125.48875,104.14875 C123.01875,106.575 119.53,108.61625 115.025,110.27375 C110.5175,111.9325 105.755,112.7675 100.74125,112.7675 C95.5475,112.7675 91.19,111.995 87.6625,110.4575 C84.12875,108.9125 81.28,106.58 79.11375,103.45875 C76.94125,100.33625 75.86,96.54375 75.86,92.09625 C75.86,88.84125 76.52375,85.93125 77.855,83.36375 C79.1825,80.79125 81.22375,78.715 83.96875,77.13 C86.7125,75.5475 89.58375,74.41375 92.585,73.73375 L106.6125,70.1375 C118.62125,67.22125 127.215,64.69375 132.4075,62.555 C137.6,60.41625 141.6075,57.185 144.43875,52.86375 C146.9375,49.04875 148.2675,44.47375 148.5625,39.225 C154.1025,50.0125 157.24875,62.22875 157.24875,75.1925 C157.24875,118.73375 121.95,154.03 78.41125,154.03 C34.86,154.03 -0.43375,118.73375 -0.43375,75.1925 C-0.43375,39.5725 22.41,9.73 54.8325,-0.05 L55,1.25 L55,1.25 Z" id="path22"></path>
            </g>
            <g id="g24" transform="translate(400.935000, 73.067375)" sketch:type="MSShapeGroup">
                <path d="M42.5,123.75 L45.0625,122.075 C44.53,117.12875 44.13,108.35125 43.86625,95.7425 L53.47125,107.94 C56.62875,111.96 59.425,115.05875 61.86,117.2425 C64.2975,119.4275 67.1325,121.115 70.38125,122.31625 C73.62875,123.51625 76.9575,124.11625 80.3775,124.11625 C84.12875,124.11625 87.67375,123.345 91.0075,121.80625 L91.90375,120.01125 C90.6,108.66625 89.87,98.6925 89.71,90.08125 L83.85375,90.08125 C80.43375,97.8875 74.9225,101.7925 67.31625,101.7925 C62.015,101.7925 57.40125,100.09375 53.46625,96.7025 C49.5325,93.3075 46.9075,89.0575 45.58125,83.94625 C44.25375,78.8325 43.5975,72.37125 43.5975,64.555 L43.5975,50.2525 C43.5975,47.675 43.7625,41.3625 44.105,31.31625 C44.45,21.26375 44.81,15.46375 45.1975,13.92125 C45.58125,12.37625 46.175,11.2375 46.9875,10.50625 C47.8,9.77375 48.865,9.28375 50.19,9.025 C51.5125,8.76875 57.58875,8.33875 68.4325,7.73875 L69.58125,6.745 L69.58125,1.535 L68.42,0.41875 C56.97125,0.91125 45.01625,1.15125 32.54375,1.15125 C22.65125,1.15125 12.32375,0.91125 1.57375,0.41875 L0.4125,1.535 L0.4125,6.745 L1.58625,7.73875 C9.99,8.25375 14.7375,8.6425 15.82375,8.89875 C16.91,9.15625 17.865,9.695 18.68875,10.51125 C19.51125,11.32875 20.0725,12.5775 20.375,14.2575 C20.67875,15.94 21.02625,21.49 21.41625,30.92 C21.805,40.34375 22.005,47.46875 22.005,52.28875 L22.005,77.73 C22.005,81.1725 21.83375,85.8675 21.49625,91.80875 C21.15875,97.74375 20.885,101.4025 20.67875,102.7825 C20.46625,104.16 19.815,105.1725 18.72375,105.8175 C17.625,106.45875 15.44125,106.785 12.15875,106.785 L1.55125,106.91625 L0.4125,107.91125 L0.4125,113.24125 L1.43125,114.23625 C17.67125,116.17875 31.36,119.3475 42.5,123.75" id="path26"></path>
            </g>
            <g id="g28" transform="translate(143.530500, -0.443375)" sketch:type="MSShapeGroup">
                <path d="M259,81.25 C249.91875,81.25 244.555,82.02125 242.915,83.56625 C241.2675,85.10875 240.35875,89.95875 240.18625,98.1125 C239.7525,118.0225 239.54125,128.705 239.54125,130.17 L239.54125,152.825 C239.54125,160.12125 238.94,166.25625 237.73875,171.2375 C236.53875,176.21375 234.3775,180.52375 231.255,184.1725 C228.13375,187.82 223.50625,190.97 217.38875,193.635 C211.26875,196.295 204.9575,197.6275 198.455,197.6275 C194.60125,197.6275 190.8325,197.19875 187.15125,196.34125 C183.4675,195.4825 180.8375,194.66375 179.25875,193.8925 C177.675,193.12 175.9825,191.92 174.18625,190.29 C168.0225,184.45625 161.51625,178.71125 154.67,173.05 C154.84875,182.35375 155.2025,189.8675 155.735,195.58625 L153.1725,197.26125 C148.84375,195.55 144.27625,194.70875 138.05375,194.15375 C132.6325,193.6625 125.3625,193.665 116.33875,193.665 C106.44625,193.665 97.86625,194.2075 90.6425,194.7 L89.61375,193.7225 L89.61375,188.3575 L90.5175,187.37875 L95.9275,186.59125 C100.65,186.06625 103.69875,185.4475 105.07,184.75 C106.44375,184.045 107.12875,182.7325 107.12875,180.805 C107.12875,180.015 106.93625,178.73875 106.54625,176.99 C106.1575,175.24 104.59625,170.7675 101.85125,163.58 L91.175,136.31125 C86.715,125.16 83.285,116.84625 80.8825,111.35625 L74.06125,96.305 C71.145,102.56125 67.0275,112.29875 61.70875,125.5075 L53.6075,145.57375 C51.11375,151.74875 48.54,158.84625 45.88125,166.8625 C43.2225,174.88 41.895,179.61375 41.895,181.0775 C41.895,182.45125 42.4275,183.66875 43.50375,184.74375 C44.5775,185.8125 47.265,186.49875 51.5775,186.8025 C55.8825,187.1 58.50625,187.295 59.44375,187.37875 L60.33625,188.42625 L60.33625,193.6525 L59.3075,194.7 C52.6975,194.2075 43.3025,193.9675 31.1225,193.9675 C20.73875,193.9675 10.61125,194.2075 0.7475,194.7 L-0.4125,193.6525 L-0.4125,188.42625 L0.62125,187.37875 C6.30625,186.6075 9.7875,185.7975 11.08,184.93875 C12.3725,184.08 13.425,183.1525 14.2425,182.17 C15.06,181.18125 17.58125,175.8225 21.80125,166.09125 C26.0225,156.35875 29.20125,148.87375 31.34625,143.6475 L51.805,92.96125 C55.145,84.8125 58.45,76.15 61.70875,66.9775 C53.4175,46.19625 47.0075,32.77125 42.47875,26.68625 C37.94375,20.6125 32.615,17.5725 26.485,17.5725 C21.5675,17.5725 16.9925,19.8925 12.76125,24.525 L9.83375,24.525 C8.37,18.4925 6.17375,11.8525 3.24625,4.60875 C8.06125,1.78375 13.185,0.37125 18.60625,0.37125 C24.79875,0.37125 30.67125,1.8975 36.2225,4.945 C41.77,7.9975 46.45875,12.9575 50.29,19.82375 C54.12125,26.6975 57.32375,33.13625 59.90875,39.1525 L89.63125,108.72 L102.24,136.42 C106.7,146.20875 111.16625,155.735 115.6425,164.99875 C119.2475,172.45625 121.94375,177.51875 123.7625,180.26875 C126.5025,180.21 128.41,179.90375 129.395,179.32875 C130.4875,178.6825 131.14,177.67125 131.35125,176.2925 C131.5575,174.91375 131.8325,171.255 132.16875,165.32 C132.5075,159.37875 132.6775,154.68375 132.6775,151.24 L132.6775,125.8 C132.6775,120.97875 132.4775,113.855 132.09,104.43125 C131.7,95.00125 131.35125,89.45125 131.04875,87.76875 C130.745,86.0875 130.185,84.84 129.36125,84.0225 C128.53875,83.205 127.5825,82.6675 126.4975,82.41 C125.41,82.15375 120.66375,81.76375 112.2575,81.25 L111.08625,80.255 L111.08625,75.045 L112.2575,73.93 C123.095,74.4225 133.5025,74.66125 143.47375,74.66125 C153.5325,74.66125 163.98,74.4225 174.82125,73.93 L175.8625,75.045 L175.8625,80.255 L174.685,81.25 C166.3925,81.76375 161.68125,82.12375 160.54875,82.34125 C159.4175,82.55875 158.45625,83.05 157.6725,83.8225 C156.88375,84.595 156.295,85.84125 155.905,87.55625 C155.51125,89.2725 155.14,95.26 154.79125,105.5175 C154.4425,115.77625 154.27,121.84875 154.27,123.735 L154.27,146.14 C154.27,153.00125 154.45875,157.485 154.84875,159.59 C155.23125,161.69375 156.36375,163.97 158.245,166.4175 C160.12,168.865 163.025,171.47875 166.95375,174.26875 C170.8825,177.0575 174.4275,178.89875 177.59,179.80375 C180.745,180.70625 184.5475,181.16 188.99125,181.16 C194.545,181.16 199.33125,180.15125 203.345,178.14 C207.35875,176.125 210.56,173.30125 212.95125,169.66375 C215.34,166.0275 216.77625,161.98 217.24625,157.53 C217.715,153.07625 217.94875,145.7975 217.94875,135.69875 L217.94875,118.87625 C217.94875,100.98375 217.38875,86.47 216.2725,75.34125 L217.8175,73.93 C228.17875,74.4225 234.48,74.66125 236.7275,74.66125 C240.61,74.66125 248.0325,74.4225 259,73.93 L259,81.25 L259,81.25 Z" id="path30"></path>
            </g>
            <g id="g32" transform="translate(516.389125, 70.591750)" sketch:type="MSShapeGroup">
                <path d="M101.25,17.5 L96.10375,8.84875 C85.0375,2.68375 72.68625,-0.3975 59.055,-0.3975 C40.18375,-0.3975 25.6025,5.2175 15.31,16.4475 C5.0175,27.6775 -0.12375,42.17375 -0.12375,59.9225 C-0.12375,67.98625 0.7525,75.16875 2.51375,81.47 C4.26875,87.77 6.49875,92.98125 9.2025,97.0975 C11.90125,101.215 14.88625,104.46875 18.1475,106.87 C21.40625,109.27125 26.9125,112.6175 34.6775,116.905 C42.43625,121.19375 48.28625,124.00125 52.2325,125.32875 C56.1775,126.65375 61.6225,127.32375 68.575,127.32375 C81.865,127.32375 92.7575,124.77875 101.25,119.70125 C99.64875,110.03125 98.43125,99.25375 97.59,87.36625 L96.4175,86.33375 L91.07625,86.33375 L89.905,87.49125 C89.56125,94.66625 89.0875,99.49375 88.48625,101.975 C87.88625,104.45125 84.4725,107.1 78.25125,109.9175 C72.02375,112.735 65.39,114.14875 58.3525,114.14875 C51.30625,114.14875 45.03875,112.66875 39.54375,109.7175 C34.04875,106.7675 29.91,101.93 27.11875,95.21625 C24.32875,88.4975 22.9325,80.475 22.9325,71.15375 C22.9325,63.28 24.0475,55.59875 26.2775,48.11375 C28.50875,40.62375 31.4525,34.41875 35.10125,29.5025 C38.74875,24.58375 43.58125,20.6275 49.5975,17.63 C55.60625,14.635 62.31,13.1425 69.69625,13.1425 C74.3275,13.1425 78.8575,13.73625 83.2825,14.93125 C87.70875,16.1275 92.7975,18.09375 98.55,20.8275 L101.25,17.5 L101.25,17.5 Z" id="path34"></path>
            </g>
            <g id="g36" transform="translate(240.122125, 94.296625)" sketch:type="MSShapeGroup">
                <path d="M0,15 C0,6.9775 6.50125,0.47625 14.525,0.47625 C22.54375,0.47625 29.0475,6.9775 29.0475,15 C29.0475,23.02 22.54375,29.5225 14.525,29.5225 C6.50125,29.5225 0,23.02 0,15" id="path38"></path>
            </g>
            <g id="g40" transform="translate(387.981000, 94.294250)" sketch:type="MSShapeGroup">
                <path d="M0,15 C0,6.9775 6.50125,0.47625 14.52375,0.47625 C22.54375,0.47625 29.04625,6.9775 29.04625,15 C29.04625,23.0225 22.54375,29.525 14.52375,29.525 C6.50125,29.525 0,23.0225 0,15" id="path42"></path>
            </g>
            <g id="g44" transform="translate(152.710000, 94.294250)" sketch:type="MSShapeGroup">
                <path d="M0,15 C0,6.9775 6.50125,0.47625 14.52375,0.47625 C22.54375,0.47625 29.04625,6.9775 29.04625,15 C29.04625,23.0225 22.54375,29.525 14.52375,29.525 C6.50125,29.525 0,23.0225 0,15" id="path46"></path>
            </g>
            <g id="g48" transform="translate(497.183875, 168.292000)" sketch:type="MSShapeGroup">
                <path d="M0,15 C0,6.97625 6.5025,0.47625 14.525,0.47625 C22.545,0.47625 29.0475,6.97625 29.0475,15 C29.0475,23.01875 22.545,29.52125 14.525,29.52125 C6.5025,29.52125 0,23.01875 0,15" id="path50"></path>
            </g>
            <g id="g52" transform="translate(621.286625, 168.292000)" sketch:type="MSShapeGroup">
                <path d="M0,15 C0,6.97625 6.5025,0.47625 14.525,0.47625 C22.54375,0.47625 29.0475,6.97625 29.0475,15 C29.0475,23.01875 22.54375,29.52125 14.525,29.52125 C6.5025,29.52125 0,23.01875 0,15" id="path54"></path>
            </g>
        </g>
    </g>
</svg>