
<svg viewBox="0 0 1240 720" version="1.1" xmlns="http://www.w3.org/2000/svg" xmlns:xlink="http://www.w3.org/1999/xlink" xmlns:sketch="http://www.bohemiancoding.com/sketch/ns">
    <!-- Generator: Sketch 3.0.4 (8054) - http://www.bohemiancoding.com/sketch -->
    <title>Group</title>
    <desc>Created with Sketch.</desc>
    <defs></defs>
    <g id="Page" stroke="none" stroke-width="1" fill="none" fill-rule="evenodd" sketch:type="MSPage">
        <g id="Group" sketch:type="MSLayerGroup" transform="translate(3.000000, -11.000000)">
            <g id="Protocols-2" transform="translate(769.000000, 462.000000) scale(-1, -1) translate(-769.000000, -462.000000) translate(640.000000, 396.000000)" stroke="#4990E2" stroke-width="4" fill="#D8D8D8" sketch:type="MSShapeGroup">
                <path d="M0,0 L0,58 C70,106 150,132 258,132 L258,0 L0,0 Z" id="Rectangle-1"></path>
            </g>
            <g id="Endpoint" transform="translate(284.000000, 68.000000)">
                <text sketch:type="MSTextLayer" font-family="Open Sans" font-size="35" font-weight="bold" fill="#000000">
                    <tspan x="37" y="59">Endpoint</tspan>
                </text>
                <rect id="Rectangle-1" stroke="#4990E2" stroke-width="4" sketch:type="MSShapeGroup" x="0" y="0" width="223" height="98"></rect>
            </g>
            <text id="WS-HTTP-REST" sketch:type="MSTextLayer" font-family="Open Sans" font-size="35" font-weight="bold" fill="#000000">
                <tspan x="0" y="125">WS,HTTP,REST</tspan>
            </text>
            <text id="WS-HTTP-REST-2" sketch:type="MSTextLayer" font-family="Open Sans" font-size="35" font-weight="bold" fill="#000000">
                <tspan x="0" y="433">JSON,Binary</tspan>
            </text>
            <g id="Reqest" transform="translate(581.000000, 69.000000)">
                <rect id="Rectangle-1" stroke="#4990E2" stroke-width="4" fill="#AEC2DA" sketch:type="MSShapeGroup" x="0" y="0" width="315" height="95"></rect>
                <text id="----#{-Req,-State-}" sketch:type="MSTextLayer" font-family="Open Sans" font-size="32.7659574" font-weight="bold" fill="#FFFFFF">
                    <tspan x="8" y="56.8787816">    #{ Req, State }</tspan>
                </text>
            </g>
            <g id="Reqest-2" transform="translate(231.000000, 375.000000)">
                <text id="Formatter" sketch:type="MSTextLayer" font-family="Open Sans" font-size="35" font-weight="bold" fill="#000000">
                    <tspan x="50" y="61">Formatter</tspan>
                </text>
                <rect id="Rectangle-1" stroke="#4990E2" stroke-width="4" sketch:type="MSShapeGroup" x="0" y="0" width="278" height="98"></rect>
            </g>
            <text id="BERT" sketch:type="MSTextLayer" font-family="Open Sans" font-size="35" font-weight="bold" fill="#000000">
                <tspan x="672.5" y="480.746094">BERT</tspan>
            </text>
            <g id="Protocols" transform="translate(640.000000, 193.000000)">
                <text sketch:type="MSTextLayer" font-family="Open Sans" font-size="35" font-weight="bold" fill="#000000">
                    <tspan x="52.3218384" y="149.336426">Protocols</tspan>
                </text>
                <text id="Loop" sketch:type="MSTextLayer" font-family="Open Sans" font-size="35" font-weight="bold" fill="#000000">
                    <tspan x="14.6609192" y="37.3364258">Loop</tspan>
                </text>
                <path d="M0,86 L0,191 C98,184 210,222 258,261 L258,86 L0,86 Z" id="Rectangle-1" stroke="#4990E2" stroke-width="4" sketch:type="MSShapeGroup"></path>
            </g>
            <g id="Handlers" transform="translate(281.000000, 222.000000)">
                <rect id="Rectangle-2" stroke="#4990E2" stroke-width="4" sketch:type="MSShapeGroup" x="0" y="0" width="224.856841" height="98"></rect>
                <text id="Hendlers" sketch:type="MSTextLayer" font-family="Open Sans" font-size="35" font-weight="bold" fill="#000000">
                    <tspan x="34.137931" y="60">Hendlers</tspan>
                </text>
            </g>
            <g id="Handlers-2" transform="translate(996.000000, 225.000000)">
                <rect id="Rectangle-2" stroke="#4990E2" stroke-width="4" sketch:type="MSShapeGroup" x="0" y="0" width="224.856841" height="98"></rect>
                <text id="Apps" sketch:type="MSTextLayer" font-family="Open Sans" font-size="35" font-weight="bold" fill="#000000">
                    <tspan x="34.137931" y="60">Apps</tspan>
                </text>
            </g>
            <path d="M507,76.5 C530,76.5 538,76.5000006 579,76.5 L553,103" id="Path-2" stroke="#4990E2" stroke-width="4" stroke-linecap="square" sketch:type="MSShapeGroup"></path>
            <path d="M741.999997,279 C773.999995,258 796.999998,211 730.999999,163 C730.999999,163 779.000001,179 779.000001,179 M648,162 C648,162 603.000002,198 603.000002,278 L625.499998,255" id="Path-3" stroke="#4990E2" stroke-width="4" stroke-linecap="square" sketch:type="MSShapeGroup" transform="translate(691.000000, 220.500000) scale(1, -1) translate(-691.000000, -220.500000) "></path>
            <path d="M581,164 C581,199 548.999999,225 505.999997,225 L525.999999,202" id="Path-5" stroke="#4990E2" stroke-width="4" stroke-linecap="square" sketch:type="MSShapeGroup"></path>
            <path d="M506,244 C579,244 584,244 641,301 L609,301" id="Path-6" stroke="#4990E2" stroke-width="4" stroke-linecap="square" sketch:type="MSShapeGroup"></path>
            <path d="M895.999997,296 L999,296 L964.999999,271" id="Path-4" stroke="#4990E2" stroke-width="4" stroke-linecap="square" sketch:type="MSShapeGroup"></path>
            <path d="M231.999996,377.999994 C99.9999977,331.999996 165,213.000001 284.999993,161.999997 C253.999993,161.999996 222.013886,161.999997 222.013886,161.999997" id="Path-2" stroke="#4990E2" stroke-width="4" stroke-linecap="square" sketch:type="MSShapeGroup"></path>
            <path d="M641,399 C555,407 507,469 507,469 L538,469" id="Path" stroke="#4990E2" stroke-width="4" stroke-linecap="square" sketch:type="MSShapeGroup"></path>
            <text id="1" sketch:type="MSTextLayer" font-family="Open Sans" font-size="32.7659574" font-weight="bold" fill="#000000">
                <tspan x="534" y="35">1</tspan>
            </text>
            <text id="2" sketch:type="MSTextLayer" font-family="Open Sans" font-size="32.7659574" font-weight="bold" fill="#000000">
                <tspan x="535" y="162">2</tspan>
            </text>
            <text id="3" sketch:type="MSTextLayer" font-family="Open Sans" font-size="32.7659574" font-weight="bold" fill="#000000">
                <tspan x="535" y="297">3</tspan>
            </text>
            <text id="4" sketch:type="MSTextLayer" font-family="Open Sans" font-size="32.7659574" font-weight="bold" fill="#000000">
                <tspan x="798" y="229">4</tspan>
            </text>
            <text id="n-1" sketch:type="MSTextLayer" font-family="Open Sans" font-size="32.7659574" font-weight="bold" fill="#000000">
                <tspan x="574" y="469">n-1</tspan>
            </text>
            <text id="n" sketch:type="MSTextLayer" font-family="Open Sans" font-size="32.7659574" font-weight="bold" fill="#000000">
                <tspan x="112" y="297">n</tspan>
            </text>
        </g>
    </g>
</svg>